<?xml version="1.0" encoding="utf-8"?>
<!-- Generator: Adobe Illustrator 16.0.4, SVG Export Plug-In . SVG Version: 6.00 Build 0)  -->
<!DOCTYPE svg PUBLIC "-//W3C//DTD SVG 1.1//EN" "http://www.w3.org/Graphics/SVG/1.1/DTD/svg11.dtd">
<svg version="1.1" id="レイヤー_1" xmlns="http://www.w3.org/2000/svg" xmlns:xlink="http://www.w3.org/1999/xlink" x="0px"
	 y="0px" width="315px" height="500px" viewBox="0 0 315 500" enable-background="new 0 0 315 500" xml:space="preserve">
<path fill="none" stroke="#000000" d="M205.1,2L45.5,1.6C24.1,1.6,5.2,19,5.1,40.7l-1,416c-0.1,21.7,18.7,38.9,40.2,38.9l159.5,0.4
	c21.5,0.1,38.8-17,38.9-38.7l1-416C243.8,19.6,226.6,2,205.1,2z M78.1,56.1L42.5,56c-9.8,0-17.8-8.4-17.8-18.2
	c0-9.8,8-18.1,17.8-18.1l35.6,0.1c9.8,0,17.8,8.4,17.8,18.2C95.9,47.8,87.9,56.1,78.1,56.1z"/>
<g>
	<path fill="none" stroke="#000000" d="M276.7,180.4L277,77c0-3.1,1.8-5.7,4-5.6l29.7-9.8l0.1-59.3l-39.6-0.1L270,496.6l39.6,0.1
		l0.7-300.7l-29.6-10C278.5,186.1,276.7,183.6,276.7,180.4z"/>
</g>
<g>
	<g>
		<path fill="none" stroke="#000000" d="M75.7,326.2h28.5v44.3c-19,0-38,0-57,0V342h28.5V326.2z"/>
		<path fill="none" stroke="#000000" d="M75.6,262.5c16.8,0,30.4,13.6,30.4,30.4c0,16.8-13.6,30.4-30.4,30.4
			c-16.8,0-30.4-13.6-30.4-30.4C45.3,276.1,58.9,262.5,75.6,262.5z"/>
		<path fill="none" stroke="#000000" d="M108.2,234.5l-61.1,34.5c0-63,0-9.4,0-72.1L108.2,234.5z"/>
		<path fill="none" stroke="#000000" d="M47.1,149.3h19.2v11.8h2.4v-11.8h13.7v11.8h2.4v-11.8h19.2v47.2h-57V149.3z"/>
		<path fill="none" stroke="#000000" d="M140.6,326.2h28.5v44.3c-19,0-38,0-57,0V342h28.5V326.2z"/>
		<path fill="none" stroke="#000000" d="M112,292h57v29.6h-57V292z"/>
		<path fill="none" stroke="#000000" d="M173,253.8L112,291.4c0-63,0-9.4,0-72.1L173,253.8z"/>
		<path fill="none" stroke="#000000" d="M112,171.7h19.2v11.8h2.4v-11.8h13.7v11.8h2.4v-11.8H169v47.2h-57V171.7z"/>
		<path fill="none" stroke="#000000" d="M135.3,116.3c7.4,0,13.9,3.4,18.2,8.9l15.7-8.4c0,16.7,0,33.4,0,50.1c-63.2,0-13,0-57.1,0
			v-27.4C112,126.7,122.4,116.3,135.3,116.3z"/>
	</g>
</g>
<g>
	<path d="M177.4,370.2C177.3,370.2,177.3,370.2,177.4,370.2l-0.1-0.6c0,0,0-0.1,0.1-0.1h3.2c0,0,0,0,0,0v-1.8c0,0,0-0.1,0.1-0.1h0.5
		c0,0,0.1,0,0.1,0.1v2.4c0,0,0,0.1-0.1,0.1H177.4z"/>
	<path d="M180.5,367.2c-0.2,0.1-0.4,0.1-0.7,0.1c-0.3,0-0.5,0-0.7-0.1c-0.5-0.2-0.8-0.6-0.8-1.1c0-0.6,0.3-1,0.8-1.1
		c0.2-0.1,0.4-0.1,0.7-0.1c0.3,0,0.5,0,0.7,0.1c0.5,0.2,0.8,0.6,0.8,1.1C181.2,366.6,180.9,367,180.5,367.2z M180.3,365.6
		c-0.1,0-0.3-0.1-0.5-0.1c-0.2,0-0.4,0-0.5,0.1c-0.2,0.1-0.4,0.3-0.4,0.5c0,0.3,0.1,0.4,0.4,0.5c0.1,0,0.3,0.1,0.5,0.1
		c0.2,0,0.4,0,0.5-0.1c0.2-0.1,0.4-0.3,0.4-0.5C180.7,365.8,180.5,365.6,180.3,365.6z"/>
	<path d="M181.2,363.4C181.2,363.5,181.1,363.5,181.2,363.4l-2.7,1c0,0-0.1,0-0.1,0v-0.6c0,0,0-0.1,0.1-0.1l1.8-0.6v0l-1.8-0.6
		c0,0-0.1,0-0.1-0.1V362c0,0,0-0.1,0.1,0l2.6,1c0,0,0.1,0,0.1,0.1V363.4z"/>
	<path d="M180.5,361.5c-0.2,0.1-0.4,0.1-0.7,0.1c-0.3,0-0.5,0-0.7-0.1c-0.5-0.2-0.8-0.6-0.8-1.1c0-0.6,0.3-1,0.8-1.1
		c0.2-0.1,0.4-0.1,0.8-0.1c0,0,0.1,0,0.1,0.1v1.7c0,0,0,0,0,0c0.1,0,0.1,0,0.2,0c0.3-0.1,0.4-0.3,0.4-0.6c0-0.3-0.1-0.5-0.3-0.6
		c0,0,0-0.1,0-0.1l0.3-0.3c0,0,0,0,0.1,0c0.3,0.2,0.5,0.6,0.5,1.1C181.2,360.9,180.9,361.3,180.5,361.5z M179.2,359.8
		c-0.2,0.1-0.4,0.3-0.4,0.5c0,0.3,0.1,0.5,0.4,0.5c0.1,0,0.1,0,0.2,0c0,0,0,0,0,0v-1.1c0,0,0,0,0,0
		C179.4,359.8,179.3,359.8,179.2,359.8z"/>
	<path d="M177.4,357.1C177.3,357.1,177.3,357.1,177.4,357.1l-0.1-0.6c0,0,0-0.1,0.1-0.1h3.2c0,0,0,0,0,0v-1.8c0,0,0-0.1,0.1-0.1h0.5
		c0,0,0.1,0,0.1,0.1v2.4c0,0,0,0.1-0.1,0.1H177.4z"/>
	<path d="M177.9,354C177.9,354,177.9,354.1,177.9,354l-0.6,0.1c0,0-0.1,0-0.1-0.1v-0.5c0,0,0-0.1,0.1-0.1h0.5c0,0,0.1,0,0.1,0.1V354
		z M181.2,354C181.2,354,181.1,354.1,181.2,354l-2.7,0.1c0,0-0.1,0-0.1-0.1v-0.5c0,0,0-0.1,0.1-0.1h2.6c0,0,0.1,0,0.1,0.1V354z"/>
	<path d="M181.2,351.9C181.2,351.9,181.1,351.9,181.2,351.9l-2.7,1c0,0-0.1,0-0.1,0v-0.6c0,0,0-0.1,0.1-0.1l1.8-0.6v0l-1.8-0.6
		c0,0-0.1,0-0.1-0.1v-0.5c0,0,0-0.1,0.1,0l2.6,1c0,0,0.1,0,0.1,0.1V351.9z"/>
	<path d="M180.5,349.9c-0.2,0.1-0.4,0.1-0.7,0.1c-0.3,0-0.5,0-0.7-0.1c-0.5-0.2-0.8-0.6-0.8-1.1c0-0.6,0.3-1,0.8-1.1
		c0.2-0.1,0.4-0.1,0.8-0.1c0,0,0.1,0,0.1,0.1v1.7c0,0,0,0,0,0c0.1,0,0.1,0,0.2,0c0.3-0.1,0.4-0.3,0.4-0.6c0-0.3-0.1-0.5-0.3-0.6
		c0,0,0-0.1,0-0.1l0.3-0.3c0,0,0,0,0.1,0c0.3,0.2,0.5,0.6,0.5,1.1C181.2,349.4,180.9,349.8,180.5,349.9z M179.2,348.3
		c-0.2,0.1-0.4,0.3-0.4,0.5c0,0.3,0.1,0.5,0.4,0.5c0.1,0,0.1,0,0.2,0c0,0,0,0,0,0v-1.1c0,0,0,0,0,0
		C179.4,348.2,179.3,348.2,179.2,348.3z"/>
	<path d="M180,346.7l-2.7,0.1c0,0-0.1,0-0.1-0.1v-0.6c0,0,0-0.1,0.1-0.1l2.7,0.1c0,0,0.1,0,0.1,0.1L180,346.7
		C180.1,346.7,180.1,346.7,180,346.7z M180.5,346.8C180.5,346.8,180.5,346.8,180.5,346.8l-0.1-0.6c0,0,0-0.1,0.1-0.1h0.6
		c0,0,0.1,0,0.1,0.1v0.6c0,0,0,0.1-0.1,0.1H180.5z"/>
	<path d="M177.9,343.8C177.9,343.8,177.9,343.8,177.9,343.8l-0.6,0.1c0,0-0.1,0-0.1-0.1v-0.5c0,0,0-0.1,0.1-0.1h0.5
		c0,0,0.1,0,0.1,0.1V343.8z M181.2,343.8C181.2,343.8,181.1,343.8,181.2,343.8l-2.7,0.1c0,0-0.1,0-0.1-0.1v-0.5c0,0,0-0.1,0.1-0.1
		h2.6c0,0,0.1,0,0.1,0.1V343.8z"/>
	<path d="M180.8,342.5C180.8,342.6,180.7,342.6,180.8,342.5l-0.4-0.3c0,0,0-0.1,0-0.1c0.2-0.2,0.3-0.5,0.3-0.8
		c0-0.3-0.1-0.5-0.3-0.5c-0.2,0-0.3,0.1-0.3,0.5l0,0.3c-0.1,0.6-0.3,0.8-0.8,0.8c-0.5,0-0.9-0.4-0.9-1.1c0-0.4,0.1-0.8,0.3-1
		c0,0,0.1,0,0.1,0l0.3,0.3c0,0,0,0.1,0,0.1c-0.1,0.2-0.2,0.4-0.2,0.7c0,0.3,0.1,0.4,0.3,0.4c0.2,0,0.3-0.1,0.3-0.4l0-0.3
		c0.1-0.6,0.4-0.8,0.8-0.8c0.5,0,0.9,0.4,0.9,1.1C181.2,341.9,181,342.3,180.8,342.5z"/>
	<path d="M181.2,336.6C181.2,336.6,181.1,336.6,181.2,336.6l-0.3,0.1v0c0.2,0.1,0.3,0.4,0.3,0.8c0,0.5-0.3,0.9-0.8,0.9
		c-0.6,0-0.9-0.4-0.9-1.1v-0.6c0,0,0,0,0,0h-0.1c-0.3,0-0.5,0.1-0.5,0.6c0,0.3,0.1,0.5,0.2,0.6c0,0,0,0.1,0,0.1l-0.4,0.2
		c0,0-0.1,0-0.1,0c-0.2-0.2-0.3-0.5-0.3-1c0-0.8,0.3-1.1,1-1.1h1.8c0,0,0.1,0,0.1,0.1V336.6z M180.2,336.6H180c0,0,0,0,0,0v0.5
		c0,0.4,0.1,0.6,0.4,0.6c0.2,0,0.3-0.2,0.3-0.5C180.7,336.9,180.5,336.6,180.2,336.6z"/>
	<path d="M180.7,334.2l-0.3-0.4c0,0,0-0.1,0-0.1c0.1-0.1,0.2-0.3,0.2-0.5c0-0.4-0.3-0.6-0.8-0.6h-2.5c0,0-0.1,0-0.1-0.1v-0.6
		c0,0,0-0.1,0.1-0.1h2.5c0.9,0,1.4,0.5,1.4,1.3C181.2,333.6,181,334,180.7,334.2C180.7,334.2,180.7,334.2,180.7,334.2z"/>
	<path d="M181.2,329.4C181.2,329.4,181.1,329.4,181.2,329.4l-0.3,0.1v0c0.2,0.1,0.3,0.4,0.3,0.8c0,0.5-0.3,0.9-0.8,0.9
		c-0.6,0-0.9-0.4-0.9-1.1v-0.6c0,0,0,0,0,0h-0.1c-0.3,0-0.5,0.1-0.5,0.6c0,0.3,0.1,0.5,0.2,0.6c0,0,0,0.1,0,0.1l-0.4,0.2
		c0,0-0.1,0-0.1,0c-0.2-0.2-0.3-0.5-0.3-1c0-0.8,0.3-1.1,1-1.1h1.8c0,0,0.1,0,0.1,0.1V329.4z M180.2,329.5H180c0,0,0,0,0,0v0.5
		c0,0.4,0.1,0.6,0.4,0.6c0.2,0,0.3-0.2,0.3-0.5C180.7,329.7,180.5,329.5,180.2,329.5z"/>
	<path d="M182.2,328C182.2,328,182.2,328,182.2,328l-3.7,0.1c0,0-0.1,0-0.1-0.1v-0.5c0,0,0-0.1,0.1-0.1h0.2v0
		c-0.2-0.1-0.3-0.4-0.3-0.7c0-0.5,0.2-0.8,0.7-0.9c0.2-0.1,0.4-0.1,0.8-0.1c0.4,0,0.6,0,0.8,0.1c0.4,0.1,0.7,0.5,0.7,0.9
		c0,0.4-0.1,0.6-0.3,0.7v0h1.2c0,0,0.1,0,0.1,0.1V328z M180.3,326.3c-0.1,0-0.3-0.1-0.5-0.1c-0.2,0-0.4,0-0.5,0.1
		c-0.2,0.1-0.4,0.2-0.4,0.5c0,0.3,0.1,0.4,0.4,0.5c0.1,0,0.3,0.1,0.5,0.1c0.2,0,0.4,0,0.5-0.1c0.2-0.1,0.4-0.3,0.4-0.5
		C180.7,326.6,180.5,326.4,180.3,326.3z"/>
	<path d="M181.2,323.3C181.2,323.4,181.1,323.4,181.2,323.3l-0.3,0.1v0c0.2,0.1,0.3,0.4,0.3,0.8c0,0.5-0.3,0.9-0.8,0.9
		c-0.6,0-0.9-0.4-0.9-1.1v-0.6c0,0,0,0,0,0h-0.1c-0.3,0-0.5,0.1-0.5,0.6c0,0.3,0.1,0.5,0.2,0.6c0,0,0,0.1,0,0.1l-0.4,0.2
		c0,0-0.1,0-0.1,0c-0.2-0.2-0.3-0.5-0.3-1c0-0.8,0.3-1.1,1-1.1h1.8c0,0,0.1,0,0.1,0.1V323.3z M180.2,323.4H180c0,0,0,0,0,0v0.5
		c0,0.4,0.1,0.6,0.4,0.6c0.2,0,0.3-0.2,0.3-0.5C180.7,323.6,180.5,323.4,180.2,323.4z"/>
	<path d="M181.2,320.3C181.2,320.3,181.1,320.3,181.2,320.3l-1.6,0.1c-0.3,0-0.6,0.2-0.6,0.5c0,0.3,0.2,0.5,0.6,0.5h1.6
		c0,0,0.1,0,0.1,0.1v0.5c0,0,0,0.1-0.1,0.1h-2.6c0,0-0.1,0-0.1-0.1v-0.5c0,0,0-0.1,0.1-0.1h0.2v0c-0.2-0.1-0.3-0.4-0.3-0.7
		c0-0.6,0.4-0.9,1-0.9h1.7c0,0,0.1,0,0.1,0.1V320.3z"/>
	<path d="M180.5,318.9c-0.2,0.1-0.4,0.1-0.7,0.1c-0.3,0-0.5,0-0.7-0.1c-0.5-0.2-0.8-0.6-0.8-1.1c0-0.6,0.3-1,0.8-1.1
		c0.2-0.1,0.4-0.1,0.8-0.1c0,0,0.1,0,0.1,0.1v1.7c0,0,0,0,0,0c0.1,0,0.1,0,0.2,0c0.3-0.1,0.4-0.3,0.4-0.6s-0.1-0.5-0.3-0.6
		c0,0,0-0.1,0-0.1l0.3-0.3c0,0,0,0,0.1,0c0.3,0.2,0.5,0.6,0.5,1.1C181.2,318.4,180.9,318.8,180.5,318.9z M179.2,317.3
		c-0.2,0.1-0.4,0.3-0.4,0.5c0,0.3,0.1,0.5,0.4,0.5c0.1,0,0.1,0,0.2,0c0,0,0,0,0,0v-1.1c0,0,0,0,0,0
		C179.4,317.2,179.3,317.3,179.2,317.3z"/>
	<path d="M180.8,316.1C180.8,316.1,180.7,316.1,180.8,316.1l-0.4-0.3c0,0,0-0.1,0-0.1c0.2-0.2,0.3-0.5,0.3-0.8
		c0-0.3-0.1-0.5-0.3-0.5c-0.2,0-0.3,0.1-0.3,0.5l0,0.3c-0.1,0.6-0.3,0.8-0.8,0.8c-0.5,0-0.9-0.4-0.9-1.1c0-0.4,0.1-0.8,0.3-1
		c0,0,0.1,0,0.1,0l0.3,0.3c0,0,0,0.1,0,0.1c-0.1,0.2-0.2,0.4-0.2,0.7s0.1,0.4,0.3,0.4c0.2,0,0.3-0.1,0.3-0.4l0-0.3
		c0.1-0.6,0.4-0.8,0.8-0.8c0.5,0,0.9,0.4,0.9,1.1C181.2,315.5,181,315.9,180.8,316.1z"/>
	<path d="M180.5,313.1c-0.2,0.1-0.4,0.1-0.7,0.1c-0.3,0-0.5,0-0.7-0.1c-0.5-0.2-0.8-0.6-0.8-1.1c0-0.6,0.3-1,0.8-1.1
		c0.2-0.1,0.4-0.1,0.8-0.1c0,0,0.1,0,0.1,0.1v1.7c0,0,0,0,0,0c0.1,0,0.1,0,0.2,0c0.3-0.1,0.4-0.3,0.4-0.6c0-0.3-0.1-0.5-0.3-0.6
		c0,0,0-0.1,0-0.1l0.3-0.3c0,0,0,0,0.1,0c0.3,0.2,0.5,0.6,0.5,1.1C181.2,312.6,180.9,313,180.5,313.1z M179.2,311.5
		c-0.2,0.1-0.4,0.3-0.4,0.5c0,0.3,0.1,0.5,0.4,0.5c0.1,0,0.1,0,0.2,0c0,0,0,0,0,0v-1.1c0,0,0,0,0,0
		C179.4,311.5,179.3,311.5,179.2,311.5z"/>
	<path d="M181.2,305.4C181.2,305.4,181.1,305.4,181.2,305.4l-1.6,0.1c-0.3,0-0.6,0.2-0.6,0.5c0,0.3,0.2,0.5,0.6,0.5h1.6
		c0,0,0.1,0,0.1,0.1v0.5c0,0,0,0.1-0.1,0.1h-1.6c-0.3,0-0.6,0.2-0.6,0.5c0,0.3,0.2,0.5,0.6,0.5h1.6c0,0,0.1,0,0.1,0.1v0.5
		c0,0,0,0.1-0.1,0.1h-2.6c0,0-0.1,0-0.1-0.1v-0.5c0,0,0-0.1,0.1-0.1h0.2v0c-0.2-0.1-0.3-0.4-0.3-0.7c0-0.3,0.1-0.6,0.4-0.8v0
		c-0.2-0.2-0.4-0.5-0.4-0.9c0-0.6,0.4-1,1-1h1.7c0,0,0.1,0,0.1,0.1V305.4z"/>
	<path d="M181.2,302.3C181.2,302.4,181.1,302.4,181.2,302.3l-0.3,0.1v0c0.2,0.1,0.3,0.4,0.3,0.7c0,0.6-0.4,0.9-1,0.9h-1.7
		c0,0-0.1,0-0.1-0.1v-0.5c0,0,0-0.1,0.1-0.1h1.6c0.4,0,0.6-0.2,0.6-0.5c0-0.3-0.2-0.5-0.6-0.5h-1.6c0,0-0.1,0-0.1-0.1v-0.5
		c0,0,0-0.1,0.1-0.1h2.6c0,0,0.1,0,0.1,0.1V302.3z"/>
	<path d="M181.2,300.2c0,0.5-0.3,0.7-0.8,0.7h-3.1c0,0-0.1,0-0.1-0.1v-0.5c0,0,0-0.1,0.1-0.1h3c0.2,0,0.3-0.1,0.3-0.2v-0.1
		c0,0,0-0.1,0.1-0.1h0.5c0,0,0.1,0,0.1,0.1V300.2z"/>
	<path d="M181.2,298.5c0,0.6-0.3,0.8-0.8,0.8h-1.4c0,0,0,0,0,0v0.2c0,0,0,0.1-0.1,0.1h-0.4c0,0-0.1,0-0.1-0.1v-0.2c0,0,0,0,0,0h-0.7
		c0,0-0.1,0-0.1-0.1v-0.5c0,0,0-0.1,0.1-0.1h0.7c0,0,0,0,0,0v-0.4c0,0,0-0.1,0.1-0.1h0.4c0,0,0.1,0,0.1,0.1v0.4c0,0,0,0,0,0h1.4
		c0.2,0,0.3-0.1,0.3-0.3v-0.1c0,0,0-0.1,0.1-0.1h0.5c0,0,0.1,0,0.1,0.1V298.5z"/>
	<path d="M177.9,297.4C177.9,297.5,177.9,297.5,177.9,297.4l-0.6,0.1c0,0-0.1,0-0.1-0.1v-0.5c0,0,0-0.1,0.1-0.1h0.5
		c0,0,0.1,0,0.1,0.1V297.4z M181.2,297.4C181.2,297.5,181.1,297.5,181.2,297.4l-2.7,0.1c0,0-0.1,0-0.1-0.1v-0.5c0,0,0-0.1,0.1-0.1
		h2.6c0,0,0.1,0,0.1,0.1V297.4z"/>
	<path d="M181.2,292.6C181.2,292.7,181.1,292.7,181.2,292.6l-1.6,0.1c-0.3,0-0.6,0.2-0.6,0.5c0,0.3,0.2,0.5,0.6,0.5h1.6
		c0,0,0.1,0,0.1,0.1v0.5c0,0,0,0.1-0.1,0.1h-1.6c-0.3,0-0.6,0.2-0.6,0.5c0,0.3,0.2,0.5,0.6,0.5h1.6c0,0,0.1,0,0.1,0.1v0.5
		c0,0,0,0.1-0.1,0.1h-2.6c0,0-0.1,0-0.1-0.1v-0.5c0,0,0-0.1,0.1-0.1h0.2v0c-0.2-0.1-0.3-0.4-0.3-0.7c0-0.3,0.1-0.6,0.4-0.7v0
		c-0.2-0.2-0.4-0.5-0.4-0.9c0-0.6,0.4-1,1-1h1.7c0,0,0.1,0,0.1,0.1V292.6z"/>
	<path d="M180.5,291.3c-0.2,0.1-0.4,0.1-0.7,0.1c-0.3,0-0.5,0-0.7-0.1c-0.5-0.2-0.8-0.6-0.8-1.1c0-0.6,0.3-1,0.8-1.1
		c0.2-0.1,0.4-0.1,0.8-0.1c0,0,0.1,0,0.1,0.1v1.7c0,0,0,0,0,0c0.1,0,0.1,0,0.2,0c0.3-0.1,0.4-0.3,0.4-0.6c0-0.3-0.1-0.5-0.3-0.6
		c0,0,0-0.1,0-0.1l0.3-0.3c0,0,0,0,0.1,0c0.3,0.2,0.5,0.6,0.5,1.1C181.2,290.7,180.9,291.1,180.5,291.3z M179.2,289.7
		c-0.2,0.1-0.4,0.3-0.4,0.5c0,0.3,0.1,0.5,0.4,0.5c0.1,0,0.1,0,0.2,0c0,0,0,0,0,0v-1.1c0,0,0,0,0,0
		C179.4,289.6,179.3,289.6,179.2,289.7z"/>
	<path d="M181.2,286.6C181.2,286.6,181.1,286.7,181.2,286.6l-0.3,0.1v0c0.2,0.1,0.3,0.4,0.3,0.7c0,0.5-0.2,0.8-0.7,0.9
		c-0.2,0.1-0.4,0.1-0.8,0.1c-0.4,0-0.6,0-0.8-0.1c-0.4-0.1-0.7-0.5-0.7-0.9c0-0.4,0.1-0.6,0.3-0.7v0h-1.3c0,0-0.1,0-0.1-0.1v-0.5
		c0,0,0-0.1,0.1-0.1h3.7c0,0,0.1,0,0.1,0.1V286.6z M180.3,286.7c-0.1,0-0.3-0.1-0.5-0.1c-0.2,0-0.4,0-0.5,0.1
		c-0.2,0.1-0.4,0.2-0.4,0.5c0,0.3,0.1,0.4,0.4,0.5c0.1,0,0.3,0.1,0.5,0.1c0.2,0,0.4,0,0.5-0.1c0.2-0.1,0.4-0.2,0.4-0.5
		C180.7,287,180.5,286.8,180.3,286.7z"/>
	<path d="M177.9,285.1C177.9,285.2,177.9,285.2,177.9,285.1l-0.6,0.1c0,0-0.1,0-0.1-0.1v-0.5c0,0,0-0.1,0.1-0.1h0.5
		c0,0,0.1,0,0.1,0.1V285.1z M181.2,285.1C181.2,285.2,181.1,285.2,181.2,285.1l-2.7,0.1c0,0-0.1,0-0.1-0.1v-0.5c0,0,0-0.1,0.1-0.1
		h2.6c0,0,0.1,0,0.1,0.1V285.1z"/>
	<path d="M181.2,282.1C181.2,282.1,181.1,282.2,181.2,282.1l-0.3,0.1v0c0.2,0.1,0.3,0.4,0.3,0.8c0,0.5-0.3,0.9-0.8,0.9
		c-0.6,0-0.9-0.4-0.9-1.1v-0.6c0,0,0,0,0,0h-0.1c-0.3,0-0.5,0.1-0.5,0.6c0,0.3,0.1,0.5,0.2,0.6c0,0,0,0.1,0,0.1l-0.4,0.2
		c0,0-0.1,0-0.1,0c-0.2-0.2-0.3-0.5-0.3-1c0-0.8,0.3-1.1,1-1.1h1.8c0,0,0.1,0,0.1,0.1V282.1z M180.2,282.2H180c0,0,0,0,0,0v0.5
		c0,0.4,0.1,0.6,0.4,0.6c0.2,0,0.3-0.2,0.3-0.5C180.7,282.4,180.5,282.2,180.2,282.2z"/>
	<path d="M182.2,279.4C182.2,279.4,182.2,279.4,182.2,279.4l-3.7,0.1c0,0-0.1,0-0.1-0.1v-0.5c0,0,0-0.1,0.1-0.1h0.2v0
		c-0.2-0.1-0.3-0.4-0.3-0.7c0-0.5,0.2-0.8,0.7-0.9c0.2-0.1,0.4-0.1,0.8-0.1c0.4,0,0.6,0,0.8,0.1c0.4,0.1,0.7,0.5,0.7,0.9
		c0,0.4-0.1,0.6-0.3,0.7v0h1.2c0,0,0.1,0,0.1,0.1V279.4z M180.3,277.7c-0.1,0-0.3-0.1-0.5-0.1c-0.2,0-0.4,0-0.5,0.1
		c-0.2,0.1-0.4,0.2-0.4,0.5c0,0.3,0.1,0.4,0.4,0.5c0.1,0,0.3,0.1,0.5,0.1c0.2,0,0.4,0,0.5-0.1c0.2-0.1,0.4-0.3,0.4-0.5
		C180.7,278,180.5,277.8,180.3,277.7z"/>
	<path d="M181.2,276.3C181.2,276.3,181.1,276.3,181.2,276.3l-2.7,0.1c0,0-0.1,0-0.1-0.1v-0.5c0,0,0-0.1,0.1-0.1h0.2v0
		c-0.2-0.1-0.4-0.4-0.4-0.7c0-0.2,0.1-0.4,0.2-0.6c0,0,0.1,0,0.1,0l0.4,0.3c0,0,0,0,0,0.1c-0.1,0.1-0.1,0.3-0.1,0.4
		c0,0.4,0.3,0.5,0.7,0.5h1.5c0,0,0.1,0,0.1,0.1V276.3z"/>
	<path d="M180.5,274.1c-0.2,0.1-0.4,0.1-0.7,0.1c-0.3,0-0.5,0-0.7-0.1c-0.5-0.2-0.8-0.6-0.8-1.1c0-0.6,0.3-1,0.8-1.1
		c0.2-0.1,0.4-0.1,0.7-0.1c0.3,0,0.5,0,0.7,0.1c0.5,0.2,0.8,0.6,0.8,1.1C181.2,273.5,180.9,273.9,180.5,274.1z M180.3,272.4
		c-0.1,0-0.3-0.1-0.5-0.1c-0.2,0-0.4,0-0.5,0.1c-0.2,0.1-0.4,0.3-0.4,0.5c0,0.3,0.1,0.4,0.4,0.5c0.1,0,0.3,0.1,0.5,0.1
		c0.2,0,0.4,0,0.5-0.1c0.2-0.1,0.4-0.3,0.4-0.5C180.7,272.7,180.5,272.5,180.3,272.4z"/>
	<path d="M177.9,271C177.9,271,177.9,271,177.9,271l-0.6,0.1c0,0-0.1,0-0.1-0.1v-0.5c0,0,0-0.1,0.1-0.1h0.5c0,0,0.1,0,0.1,0.1V271z
		 M182.2,271.5C182.2,271.5,182.2,271.5,182.2,271.5l-0.5,0.1c0,0-0.1,0-0.1-0.1v-0.1c0-0.2-0.1-0.3-0.3-0.3h-2.8c0,0-0.1,0-0.1-0.1
		v-0.5c0,0,0-0.1,0.1-0.1h2.8c0.6,0,0.9,0.3,0.9,0.9V271.5z"/>
	<path d="M180.5,269.6c-0.2,0.1-0.4,0.1-0.7,0.1c-0.3,0-0.5,0-0.7-0.1c-0.5-0.2-0.8-0.6-0.8-1.1c0-0.6,0.3-1,0.8-1.1
		c0.2-0.1,0.4-0.1,0.8-0.1c0,0,0.1,0,0.1,0.1v1.7c0,0,0,0,0,0c0.1,0,0.1,0,0.2,0c0.3-0.1,0.4-0.3,0.4-0.6c0-0.3-0.1-0.5-0.3-0.6
		c0,0,0-0.1,0-0.1l0.3-0.3c0,0,0,0,0.1,0c0.3,0.2,0.5,0.6,0.5,1.1C181.2,269.1,180.9,269.5,180.5,269.6z M179.2,268
		c-0.2,0.1-0.4,0.3-0.4,0.5c0,0.3,0.1,0.5,0.4,0.5c0.1,0,0.1,0,0.2,0c0,0,0,0,0,0V268c0,0,0,0,0,0
		C179.4,267.9,179.3,267.9,179.2,268z"/>
	<path d="M180.5,266.7c-0.2,0.1-0.4,0.1-0.7,0.1c-0.3,0-0.5,0-0.7-0.1c-0.5-0.2-0.8-0.6-0.8-1.1c0-0.4,0.2-0.7,0.4-0.9
		c0,0,0.1,0,0.1,0l0.3,0.4c0,0,0,0.1,0,0.1c-0.2,0.1-0.2,0.3-0.2,0.5c0,0.2,0.1,0.4,0.4,0.5c0.1,0,0.3,0.1,0.5,0.1
		c0.2,0,0.4,0,0.5-0.1c0.2-0.1,0.4-0.3,0.4-0.5c0-0.2-0.1-0.4-0.2-0.5c0,0,0,0,0-0.1l0.3-0.4c0,0,0.1,0,0.1,0
		c0.3,0.2,0.4,0.5,0.4,0.9C181.2,266.1,181,266.5,180.5,266.7z"/>
	<path d="M181.2,263.1c0,0.5-0.3,0.8-0.8,0.8h-1.4c0,0,0,0,0,0v0.2c0,0,0,0.1-0.1,0.1h-0.4c0,0-0.1,0-0.1-0.1v-0.2c0,0,0,0,0,0h-0.7
		c0,0-0.1,0-0.1-0.1v-0.5c0,0,0-0.1,0.1-0.1h0.7c0,0,0,0,0,0v-0.4c0,0,0-0.1,0.1-0.1h0.4c0,0,0.1,0,0.1,0.1v0.4c0,0,0,0,0,0h1.4
		c0.2,0,0.3-0.1,0.3-0.3v-0.1c0,0,0-0.1,0.1-0.1h0.5c0,0,0.1,0,0.1,0.1V263.1z"/>
	<path d="M180.5,260.8c-0.2,0.1-0.4,0.1-0.7,0.1c-0.3,0-0.5,0-0.7-0.1c-0.5-0.2-0.8-0.6-0.8-1.1c0-0.4,0.2-0.7,0.4-0.9
		c0,0,0.1,0,0.1,0l0.3,0.4c0,0,0,0.1,0,0.1c-0.2,0.1-0.2,0.3-0.2,0.5c0,0.2,0.1,0.4,0.4,0.5c0.1,0,0.3,0.1,0.5,0.1
		c0.2,0,0.4,0,0.5-0.1c0.2-0.1,0.4-0.3,0.4-0.5c0-0.2-0.1-0.4-0.2-0.5c0,0,0-0.1,0-0.1l0.3-0.4c0,0,0.1,0,0.1,0
		c0.3,0.2,0.4,0.5,0.4,0.9C181.2,260.2,181,260.7,180.5,260.8z"/>
	<path d="M180.5,258.1c-0.2,0.1-0.4,0.1-0.7,0.1c-0.3,0-0.5,0-0.7-0.1c-0.5-0.2-0.8-0.6-0.8-1.1c0-0.5,0.3-1,0.8-1.1
		c0.2-0.1,0.4-0.1,0.7-0.1c0.3,0,0.5,0,0.7,0.1c0.5,0.2,0.8,0.6,0.8,1.1C181.2,257.5,180.9,258,180.5,258.1z M180.3,256.5
		c-0.1,0-0.3-0.1-0.5-0.1c-0.2,0-0.4,0-0.5,0.1c-0.2,0.1-0.4,0.3-0.4,0.5c0,0.3,0.1,0.4,0.4,0.5c0.1,0,0.3,0.1,0.5,0.1
		c0.2,0,0.4,0,0.5-0.1c0.2-0.1,0.4-0.3,0.4-0.5C180.7,256.7,180.5,256.6,180.3,256.5z"/>
	<path d="M179.9,255.2h-0.4c0,0-0.1,0-0.1-0.1v-1.6c0,0,0-0.1,0.1-0.1h0.4c0,0,0.1,0,0.1,0.1L179.9,255.2
		C179.9,255.2,179.9,255.2,179.9,255.2z"/>
	<path d="M181.2,251.2C181.2,251.3,181.1,251.3,181.2,251.2l-0.3,0.1v0c0.2,0.1,0.3,0.4,0.3,0.7c0,0.5-0.2,0.8-0.7,0.9
		c-0.2,0.1-0.4,0.1-0.8,0.1c-0.4,0-0.6,0-0.8-0.1c-0.4-0.1-0.7-0.5-0.7-0.9c0-0.4,0.1-0.6,0.3-0.7v0h-1.3c0,0-0.1,0-0.1-0.1v-0.5
		c0,0,0-0.1,0.1-0.1h3.7c0,0,0.1,0,0.1,0.1V251.2z M180.3,251.3c-0.1,0-0.3-0.1-0.5-0.1c-0.2,0-0.4,0-0.5,0.1
		c-0.2,0.1-0.4,0.2-0.4,0.5c0,0.3,0.1,0.4,0.4,0.5c0.1,0,0.3,0.1,0.5,0.1c0.2,0,0.4,0,0.5-0.1c0.2-0.1,0.4-0.2,0.4-0.5
		C180.7,251.6,180.5,251.4,180.3,251.3z"/>
	<path d="M180.5,249.9c-0.2,0.1-0.4,0.1-0.7,0.1c-0.3,0-0.5,0-0.7-0.1c-0.5-0.2-0.8-0.6-0.8-1.1c0-0.6,0.3-1,0.8-1.1
		c0.2-0.1,0.4-0.1,0.8-0.1c0,0,0.1,0,0.1,0.1v1.7c0,0,0,0,0,0c0.1,0,0.1,0,0.2,0c0.3-0.1,0.4-0.3,0.4-0.6s-0.1-0.5-0.3-0.6
		c0,0,0-0.1,0-0.1l0.3-0.3c0,0,0,0,0.1,0c0.3,0.2,0.5,0.6,0.5,1.1C181.2,249.3,180.9,249.7,180.5,249.9z M179.2,248.2
		c-0.2,0.1-0.4,0.3-0.4,0.5c0,0.3,0.1,0.5,0.4,0.5c0.1,0,0.1,0,0.2,0c0,0,0,0,0,0v-1.1c0,0,0,0,0,0
		C179.4,248.2,179.3,248.2,179.2,248.2z"/>
	<path d="M181.2,246.1C181.2,246.2,181.1,246.2,181.2,246.1l-2.7,1c0,0-0.1,0-0.1,0v-0.6c0,0,0-0.1,0.1-0.1l1.8-0.6v0l-1.8-0.6
		c0,0-0.1,0-0.1-0.1v-0.5c0,0,0-0.1,0.1,0l2.6,1c0,0,0.1,0,0.1,0.1V246.1z"/>
	<path d="M180.5,244.2c-0.2,0.1-0.4,0.1-0.7,0.1c-0.3,0-0.5,0-0.7-0.1c-0.5-0.2-0.8-0.6-0.8-1.1c0-0.6,0.3-1,0.8-1.1
		c0.2-0.1,0.4-0.1,0.8-0.1c0,0,0.1,0,0.1,0.1v1.7c0,0,0,0,0,0c0.1,0,0.1,0,0.2,0c0.3-0.1,0.4-0.3,0.4-0.6c0-0.3-0.1-0.5-0.3-0.6
		c0,0,0-0.1,0-0.1l0.3-0.3c0,0,0,0,0.1,0c0.3,0.2,0.5,0.6,0.5,1.1C181.2,243.6,180.9,244,180.5,244.2z M179.2,242.5
		c-0.2,0.1-0.4,0.3-0.4,0.5c0,0.3,0.1,0.5,0.4,0.5c0.1,0,0.1,0,0.2,0c0,0,0,0,0,0v-1.1c0,0,0,0,0,0
		C179.4,242.5,179.3,242.5,179.2,242.5z"/>
	<path d="M181.2,240.4c0,0.5-0.3,0.7-0.8,0.7h-3.1c0,0-0.1,0-0.1-0.1v-0.5c0,0,0-0.1,0.1-0.1h3c0.2,0,0.3-0.1,0.3-0.2v-0.1
		c0,0,0-0.1,0.1-0.1h0.5c0,0,0.1,0,0.1,0.1V240.4z"/>
	<path d="M180.5,239.6c-0.2,0.1-0.4,0.1-0.7,0.1c-0.3,0-0.5,0-0.7-0.1c-0.5-0.2-0.8-0.6-0.8-1.1c0-0.6,0.3-1,0.8-1.1
		c0.2-0.1,0.4-0.1,0.7-0.1c0.3,0,0.5,0,0.7,0.1c0.5,0.2,0.8,0.6,0.8,1.1C181.2,239,180.9,239.4,180.5,239.6z M180.3,237.9
		c-0.1,0-0.3-0.1-0.5-0.1c-0.2,0-0.4,0-0.5,0.1c-0.2,0.1-0.4,0.3-0.4,0.5c0,0.3,0.1,0.4,0.4,0.5c0.1,0,0.3,0.1,0.5,0.1
		c0.2,0,0.4,0,0.5-0.1c0.2-0.1,0.4-0.3,0.4-0.5C180.7,238.2,180.5,238,180.3,237.9z"/>
	<path d="M182.2,236.5C182.2,236.5,182.2,236.6,182.2,236.5l-3.7,0.1c0,0-0.1,0-0.1-0.1V236c0,0,0-0.1,0.1-0.1h0.2v0
		c-0.2-0.1-0.3-0.4-0.3-0.7c0-0.5,0.2-0.8,0.7-0.9c0.2-0.1,0.4-0.1,0.8-0.1c0.4,0,0.6,0,0.8,0.1c0.4,0.1,0.7,0.5,0.7,0.9
		c0,0.4-0.1,0.6-0.3,0.7v0h1.2c0,0,0.1,0,0.1,0.1V236.5z M180.3,234.8c-0.1,0-0.3-0.1-0.5-0.1c-0.2,0-0.4,0-0.5,0.1
		c-0.2,0.1-0.4,0.2-0.4,0.5c0,0.3,0.1,0.4,0.4,0.5c0.1,0,0.3,0.1,0.5,0.1c0.2,0,0.4,0,0.5-0.1c0.2-0.1,0.4-0.3,0.4-0.5
		C180.7,235.1,180.5,234.9,180.3,234.8z"/>
	<path d="M180.5,233.5c-0.2,0.1-0.4,0.1-0.7,0.1c-0.3,0-0.5,0-0.7-0.1c-0.5-0.2-0.8-0.6-0.8-1.1c0-0.6,0.3-1,0.8-1.1
		c0.2-0.1,0.4-0.1,0.8-0.1c0,0,0.1,0,0.1,0.1v1.7c0,0,0,0,0,0c0.1,0,0.1,0,0.2,0c0.3-0.1,0.4-0.3,0.4-0.6c0-0.3-0.1-0.5-0.3-0.6
		c0,0,0-0.1,0-0.1l0.3-0.3c0,0,0,0,0.1,0c0.3,0.2,0.5,0.6,0.5,1.1C181.2,233,180.9,233.4,180.5,233.5z M179.2,231.9
		c-0.2,0.1-0.4,0.3-0.4,0.5c0,0.3,0.1,0.5,0.4,0.5c0.1,0,0.1,0,0.2,0c0,0,0,0,0,0v-1.1c0,0,0,0,0,0
		C179.4,231.8,179.3,231.8,179.2,231.9z"/>
	<path d="M181.2,228.8C181.2,228.9,181.1,228.9,181.2,228.8l-0.3,0.1v0c0.2,0.1,0.3,0.4,0.3,0.7c0,0.5-0.2,0.8-0.7,0.9
		c-0.2,0.1-0.4,0.1-0.8,0.1c-0.4,0-0.6,0-0.8-0.1c-0.4-0.1-0.7-0.5-0.7-0.9c0-0.4,0.1-0.6,0.3-0.7v0h-1.3c0,0-0.1,0-0.1-0.1v-0.5
		c0,0,0-0.1,0.1-0.1h3.7c0,0,0.1,0,0.1,0.1V228.8z M180.3,228.9c-0.1,0-0.3-0.1-0.5-0.1c-0.2,0-0.4,0-0.5,0.1
		c-0.2,0.1-0.4,0.2-0.4,0.5c0,0.3,0.1,0.4,0.4,0.5c0.1,0,0.3,0.1,0.5,0.1c0.2,0,0.4,0,0.5-0.1c0.2-0.1,0.4-0.2,0.4-0.5
		C180.7,229.2,180.5,229,180.3,228.9z"/>
	<path d="M180.9,225.4L180.9,225.4l0.2,0c0,0,0.1,0,0.1,0.1v0.5c0,0,0,0.1-0.1,0.1h-3.7c0,0-0.1,0-0.1-0.1v-0.5c0,0,0-0.1,0.1-0.1
		h1.3v0c-0.2-0.1-0.3-0.4-0.3-0.7c0-0.5,0.2-0.8,0.7-0.9c0.2-0.1,0.4-0.1,0.8-0.1c0.4,0,0.6,0,0.8,0.1c0.4,0.1,0.7,0.5,0.7,0.9
		C181.2,225.1,181.1,225.3,180.9,225.4z M180.3,224.4c-0.1,0-0.3-0.1-0.5-0.1c-0.2,0-0.4,0-0.5,0.1c-0.2,0.1-0.4,0.2-0.4,0.5
		c0,0.3,0.1,0.4,0.4,0.5c0.1,0,0.3,0.1,0.5,0.1c0.2,0,0.4,0,0.5-0.1c0.2-0.1,0.4-0.2,0.4-0.5C180.7,224.6,180.5,224.4,180.3,224.4z"
		/>
	<path d="M182.2,222.9C182.2,223,182.2,223,182.2,222.9l-0.5,0.1c0,0-0.1,0-0.1-0.1v-0.1c0-0.2-0.1-0.3-0.3-0.4l-0.2-0.1l-2.6,1
		c0,0-0.1,0-0.1,0v-0.6c0,0,0-0.1,0.1-0.1l1.8-0.6v0l-1.8-0.6c0,0-0.1,0-0.1-0.1v-0.5c0,0,0-0.1,0.1,0l2.8,1
		c0.6,0.2,0.8,0.5,0.8,0.9V222.9z"/>
	<path d="M177.4,217.9C177.3,217.9,177.3,217.9,177.4,217.9l-0.1-0.6c0,0,0-0.1,0.1-0.1l3.7-1.3c0,0,0.1,0,0.1,0v0.6
		c0,0,0,0.1-0.1,0.1l-0.7,0.3v1.5l0.7,0.3c0,0,0.1,0,0.1,0.1v0.5c0,0,0,0.1-0.1,0L177.4,217.9z M179.8,217.1l-1.5,0.5v0l1.5,0.5
		V217.1z"/>
	<path d="M180.7,215.6C180.7,215.6,180.7,215.6,180.7,215.6l-0.5-0.3c0,0,0-0.1,0-0.1c0.2-0.3,0.4-0.6,0.4-1c0-0.5-0.2-0.7-0.6-0.7
		c-0.3,0-0.5,0.2-0.5,0.7l0,0.2c-0.1,0.7-0.5,1.2-1.1,1.2c-0.7,0-1.2-0.5-1.2-1.3c0-0.5,0.2-0.9,0.4-1.2c0,0,0,0,0.1,0l0.4,0.3
		c0,0,0,0.1,0,0.1c-0.2,0.3-0.3,0.6-0.3,0.9c0,0.4,0.2,0.6,0.5,0.6c0.3,0,0.5-0.2,0.5-0.7l0-0.2c0.1-0.7,0.5-1.2,1.1-1.2
		c0.7,0,1.2,0.5,1.2,1.5C181.2,214.8,181,215.3,180.7,215.6z"/>
	<path d="M179.2,212.2c-0.6,0-0.8,0-1-0.1c-0.6-0.2-0.9-0.7-0.9-1.3c0-0.6,0.3-1.1,0.8-1.3c0,0,0.1,0,0.1,0l0.2,0.5c0,0,0,0.1,0,0.1
		c-0.3,0.1-0.5,0.3-0.5,0.7c0,0.4,0.2,0.6,0.5,0.7c0.2,0.1,0.3,0.1,0.9,0.1c0.6,0,0.7,0,0.9-0.1c0.3-0.1,0.5-0.3,0.5-0.7
		c0-0.4-0.2-0.6-0.5-0.7c0,0,0,0,0-0.1l0.2-0.5c0,0,0,0,0.1,0c0.5,0.2,0.8,0.7,0.8,1.3c0,0.7-0.3,1.1-0.9,1.3
		C180,212.2,179.8,212.2,179.2,212.2z"/>
	<path d="M177.4,208.8C177.3,208.8,177.3,208.8,177.4,208.8l-0.1-0.6c0,0,0-0.1,0.1-0.1h3.7c0,0,0.1,0,0.1,0.1v0.6
		c0,0,0,0.1-0.1,0.1H177.4z"/>
	<path d="M177.4,207.3C177.3,207.3,177.3,207.3,177.4,207.3l-0.1-0.6c0,0,0-0.1,0.1-0.1h3.7c0,0,0.1,0,0.1,0.1v0.6
		c0,0,0,0.1-0.1,0.1H177.4z"/>
	<path d="M177.4,204.4C177.3,204.4,177.3,204.4,177.4,204.4l-0.1-0.6c0-0.1,0-0.1,0.1-0.1l2.4-1.1v0l-2.4-1c0,0-0.1,0-0.1-0.1v-0.5
		c0,0,0-0.1,0.1-0.1h3.7c0,0,0.1,0,0.1,0.1v0.5c0,0,0,0.1-0.1,0.1h-2.4v0l1.8,0.8c0.1,0,0.1,0.1,0.1,0.1v0.3c0,0.1,0,0.1-0.1,0.1
		l-1.8,0.8v0h2.4c0,0,0.1,0,0.1,0.1v0.5c0,0,0,0.1-0.1,0.1H177.4z"/>
	<path d="M180.5,200.2c-0.2,0.1-0.4,0.1-0.7,0.1c-0.3,0-0.5,0-0.7-0.1c-0.5-0.2-0.8-0.6-0.8-1.1c0-0.6,0.3-1,0.8-1.1
		c0.2-0.1,0.4-0.1,0.8-0.1c0,0,0.1,0,0.1,0.1v1.7c0,0,0,0,0,0c0.1,0,0.1,0,0.2,0c0.3-0.1,0.4-0.3,0.4-0.6s-0.1-0.5-0.3-0.6
		c0,0,0-0.1,0-0.1l0.3-0.3c0,0,0,0,0.1,0c0.3,0.2,0.5,0.6,0.5,1.1C181.2,199.6,180.9,200.1,180.5,200.2z M179.2,198.6
		c-0.2,0.1-0.4,0.3-0.4,0.5c0,0.3,0.1,0.5,0.4,0.5c0.1,0,0.1,0,0.2,0c0,0,0,0,0,0v-1.1c0,0,0,0,0,0
		C179.4,198.5,179.3,198.5,179.2,198.6z"/>
	<path d="M181.2,195.5C181.2,195.6,181.1,195.6,181.2,195.5l-0.3,0.1v0c0.2,0.1,0.3,0.4,0.3,0.7c0,0.5-0.2,0.8-0.7,0.9
		c-0.2,0.1-0.4,0.1-0.8,0.1c-0.4,0-0.6,0-0.8-0.1c-0.4-0.1-0.7-0.5-0.7-0.9c0-0.4,0.1-0.6,0.3-0.7v0h-1.3c0,0-0.1,0-0.1-0.1V195
		c0,0,0-0.1,0.1-0.1h3.7c0,0,0.1,0,0.1,0.1V195.5z M180.3,195.6c-0.1,0-0.3-0.1-0.5-0.1c-0.2,0-0.4,0-0.5,0.1
		c-0.2,0.1-0.4,0.2-0.4,0.5c0,0.3,0.1,0.4,0.4,0.5c0.1,0,0.3,0.1,0.5,0.1c0.2,0,0.4,0,0.5-0.1c0.2-0.1,0.4-0.2,0.4-0.5
		C180.7,195.9,180.5,195.7,180.3,195.6z"/>
	<path d="M177.9,194.1C177.9,194.1,177.9,194.1,177.9,194.1l-0.6,0.1c0,0-0.1,0-0.1-0.1v-0.5c0,0,0-0.1,0.1-0.1h0.5
		c0,0,0.1,0,0.1,0.1V194.1z M181.2,194.1C181.2,194.1,181.1,194.1,181.2,194.1l-2.7,0.1c0,0-0.1,0-0.1-0.1v-0.5c0,0,0-0.1,0.1-0.1
		h2.6c0,0,0.1,0,0.1,0.1V194.1z"/>
	<path d="M181.2,191C181.2,191.1,181.1,191.1,181.2,191l-0.3,0.1v0c0.2,0.1,0.3,0.4,0.3,0.8c0,0.5-0.3,0.9-0.8,0.9
		c-0.6,0-0.9-0.4-0.9-1.1v-0.6c0,0,0,0,0,0h-0.1c-0.3,0-0.5,0.1-0.5,0.6c0,0.3,0.1,0.5,0.2,0.6c0,0,0,0.1,0,0.1l-0.4,0.2
		c0,0-0.1,0-0.1,0c-0.2-0.2-0.3-0.5-0.3-1c0-0.8,0.3-1.1,1-1.1h1.8c0,0,0.1,0,0.1,0.1V191z M180.2,191.1H180c0,0,0,0,0,0v0.5
		c0,0.4,0.1,0.6,0.4,0.6c0.2,0,0.3-0.2,0.3-0.5C180.7,191.3,180.5,191.1,180.2,191.1z"/>
	<path d="M181.2,185.7C181.2,185.7,181.1,185.8,181.2,185.7l-2.7,0.8v0l2.6,0.7c0,0,0.1,0,0.1,0.1v0.4c0,0,0,0.1-0.1,0.1l-3.7,1
		c0,0-0.1,0-0.1,0v-0.5c0,0,0-0.1,0.1-0.1l2.6-0.6v0l-2.6-0.7c0,0-0.1,0-0.1-0.1v-0.4c0,0,0-0.1,0.1-0.1l2.6-0.7v0l-2.6-0.6
		c0,0-0.1,0-0.1-0.1v-0.5c0,0,0-0.1,0.1,0l3.7,0.9c0,0,0.1,0,0.1,0.1V185.7z"/>
	<path d="M180.5,184c-0.2,0.1-0.4,0.1-0.7,0.1c-0.3,0-0.5,0-0.7-0.1c-0.5-0.2-0.8-0.6-0.8-1.1c0-0.5,0.3-1,0.8-1.1
		c0.2-0.1,0.4-0.1,0.7-0.1c0.3,0,0.5,0,0.7,0.1c0.5,0.2,0.8,0.6,0.8,1.1C181.2,183.5,180.9,183.9,180.5,184z M180.3,182.4
		c-0.1,0-0.3-0.1-0.5-0.1c-0.2,0-0.4,0-0.5,0.1c-0.2,0.1-0.4,0.3-0.4,0.5c0,0.3,0.1,0.4,0.4,0.5c0.1,0,0.3,0.1,0.5,0.1
		c0.2,0,0.4,0,0.5-0.1c0.2-0.1,0.4-0.3,0.4-0.5C180.7,182.6,180.5,182.5,180.3,182.4z"/>
	<path d="M181.2,180.9C181.2,181,181.1,181,181.2,180.9l-2.7,0.1c0,0-0.1,0-0.1-0.1v-0.5c0,0,0-0.1,0.1-0.1h0.2v0
		c-0.2-0.1-0.4-0.4-0.4-0.7c0-0.2,0.1-0.4,0.2-0.6c0,0,0.1,0,0.1,0l0.4,0.3c0,0,0,0.1,0,0.1c-0.1,0.1-0.1,0.3-0.1,0.4
		c0,0.4,0.3,0.5,0.7,0.5h1.5c0,0,0.1,0,0.1,0.1V180.9z"/>
	<path d="M181.2,176.8C181.2,176.9,181.1,176.9,181.2,176.8l-1.2,0.8l0.4,0.4h0.7c0,0,0.1,0,0.1,0.1v0.5c0,0,0,0.1-0.1,0.1h-3.7
		c0,0-0.1,0-0.1-0.1V178c0,0,0-0.1,0.1-0.1h2.2l-1.1-0.9c0,0-0.1-0.1-0.1-0.1v-0.6c0,0,0,0,0.1,0l1,0.9l1.6-1c0,0,0.1,0,0.1,0V176.8
		z"/>
	<path d="M180.8,175.9C180.8,175.9,180.7,175.9,180.8,175.9l-0.4-0.3c0,0,0-0.1,0-0.1c0.2-0.2,0.3-0.5,0.3-0.8
		c0-0.3-0.1-0.5-0.3-0.5c-0.2,0-0.3,0.1-0.3,0.5l0,0.3c-0.1,0.6-0.3,0.8-0.8,0.8c-0.5,0-0.9-0.4-0.9-1.1c0-0.4,0.1-0.8,0.3-1
		c0,0,0.1,0,0.1,0l0.3,0.3c0,0,0,0.1,0,0.1c-0.1,0.2-0.2,0.4-0.2,0.7c0,0.3,0.1,0.4,0.3,0.4c0.2,0,0.3-0.1,0.3-0.4l0-0.3
		c0.1-0.6,0.4-0.8,0.8-0.8c0.5,0,0.9,0.4,0.9,1.1C181.2,175.3,181,175.7,180.8,175.9z"/>
	<path d="M178.3,173h-1c0,0-0.1,0-0.1-0.1v-0.3c0,0,0-0.1,0.1-0.1h1c0,0,0.1,0,0.1,0.1L178.3,173C178.4,172.9,178.4,173,178.3,173z"
		/>
	<path d="M177.4,170.4C177.3,170.4,177.3,170.4,177.4,170.4l-0.1-1.4c0-0.7,0.3-1.1,0.9-1.3c0.2-0.1,0.4-0.1,1.1-0.1s0.9,0,1.1,0.1
		c0.6,0.2,0.9,0.6,0.9,1.3v1.4c0,0,0,0.1-0.1,0.1H177.4z M180.6,169.7v-0.6c0-0.4-0.1-0.7-0.5-0.8c-0.1,0-0.3-0.1-0.8-0.1
		c-0.6,0-0.7,0-0.8,0.1c-0.3,0.1-0.5,0.4-0.5,0.8v0.6c0,0,0,0,0,0L180.6,169.7C180.5,169.7,180.6,169.7,180.6,169.7z"/>
	<path d="M180.5,166.9c-0.2,0.1-0.4,0.1-0.7,0.1c-0.3,0-0.5,0-0.7-0.1c-0.5-0.2-0.8-0.6-0.8-1.1c0-0.6,0.3-1,0.8-1.1
		c0.2-0.1,0.4-0.1,0.8-0.1c0,0,0.1,0,0.1,0.1v1.7c0,0,0,0,0,0c0.1,0,0.1,0,0.2,0c0.3-0.1,0.4-0.3,0.4-0.6c0-0.3-0.1-0.5-0.3-0.6
		c0,0,0-0.1,0-0.1l0.3-0.3c0,0,0,0,0.1,0c0.3,0.2,0.5,0.6,0.5,1.1C181.2,166.3,180.9,166.7,180.5,166.9z M179.2,165.3
		c-0.2,0.1-0.4,0.3-0.4,0.5c0,0.3,0.1,0.5,0.4,0.5c0.1,0,0.1,0,0.2,0c0,0,0,0,0,0v-1.1c0,0,0,0,0,0
		C179.4,165.2,179.3,165.2,179.2,165.3z"/>
	<path d="M181.8,163.9C181.8,164,181.8,164,181.8,163.9l-0.4-0.3c0,0,0-0.1,0-0.1c0.2-0.2,0.3-0.4,0.3-0.6c0-0.4-0.2-0.6-0.7-0.6
		h-0.3v0c0.2,0.1,0.3,0.4,0.3,0.7c0,0.5-0.2,0.8-0.7,0.9c-0.2,0.1-0.4,0.1-0.7,0.1c-0.3,0-0.5,0-0.7-0.1c-0.4-0.1-0.7-0.5-0.7-0.9
		c0-0.4,0.1-0.6,0.3-0.7v0h-0.2c0,0-0.1,0-0.1-0.1v-0.5c0,0,0-0.1,0.1-0.1h2.5c0.8,0,1.3,0.4,1.3,1.3
		C182.2,163.3,182.1,163.7,181.8,163.9z M180.2,162.4c-0.1,0-0.3-0.1-0.4-0.1c-0.2,0-0.3,0-0.4,0.1c-0.2,0.1-0.3,0.2-0.3,0.5
		c0,0.3,0.1,0.4,0.3,0.5c0.1,0,0.3,0.1,0.4,0.1c0.2,0,0.3,0,0.4-0.1c0.2-0.1,0.4-0.2,0.4-0.5C180.5,162.6,180.4,162.5,180.2,162.4z"
		/>
	<path d="M180.5,160.9c-0.2,0.1-0.4,0.1-0.7,0.1c-0.3,0-0.5,0-0.7-0.1c-0.5-0.2-0.8-0.6-0.8-1.1c0-0.6,0.3-1,0.8-1.1
		c0.2-0.1,0.4-0.1,0.8-0.1c0,0,0.1,0,0.1,0.1v1.7c0,0,0,0,0,0c0.1,0,0.1,0,0.2,0c0.3-0.1,0.4-0.3,0.4-0.6s-0.1-0.5-0.3-0.6
		c0,0,0-0.1,0-0.1l0.3-0.3c0,0,0,0,0.1,0c0.3,0.2,0.5,0.6,0.5,1.1C181.2,160.3,180.9,160.7,180.5,160.9z M179.2,159.3
		c-0.2,0.1-0.4,0.3-0.4,0.5c0,0.3,0.1,0.5,0.4,0.5c0.1,0,0.1,0,0.2,0c0,0,0,0,0,0v-1.1c0,0,0,0,0,0
		C179.4,159.2,179.3,159.2,179.2,159.3z"/>
	<path d="M181.2,156.2C181.2,156.2,181.1,156.2,181.2,156.2l-1.6,0.1c-0.3,0-0.6,0.2-0.6,0.5c0,0.3,0.2,0.5,0.6,0.5h1.6
		c0,0,0.1,0,0.1,0.1v0.5c0,0,0,0.1-0.1,0.1h-2.6c0,0-0.1,0-0.1-0.1v-0.5c0,0,0-0.1,0.1-0.1h0.2v0c-0.2-0.1-0.3-0.4-0.3-0.7
		c0-0.6,0.4-0.9,1-0.9h1.7c0,0,0.1,0,0.1,0.1V156.2z"/>
	<path d="M181.2,153C181.2,153,181.1,153.1,181.2,153l-1.2,0.8l0.4,0.4h0.7c0,0,0.1,0,0.1,0.1v0.5c0,0,0,0.1-0.1,0.1h-3.7
		c0,0-0.1,0-0.1-0.1v-0.5c0,0,0-0.1,0.1-0.1h2.2l-1.1-0.9c0,0-0.1-0.1-0.1-0.1v-0.6c0,0,0,0,0.1,0l1,0.9l1.6-1c0,0,0.1,0,0.1,0V153z
		"/>
	<path d="M177.9,151.8C177.9,151.8,177.9,151.8,177.9,151.8l-0.6,0.1c0,0-0.1,0-0.1-0.1v-0.5c0,0,0-0.1,0.1-0.1h0.5
		c0,0,0.1,0,0.1,0.1V151.8z M181.2,151.8C181.2,151.8,181.1,151.8,181.2,151.8l-2.7,0.1c0,0-0.1,0-0.1-0.1v-0.5c0,0,0-0.1,0.1-0.1
		h2.6c0,0,0.1,0,0.1,0.1V151.8z"/>
	<path d="M179.2,149.1c-0.6,0-0.8,0-1.1-0.1c-0.6-0.2-0.9-0.7-0.9-1.4c0-0.7,0.4-1.2,0.8-1.3c0,0,0.1,0,0.1,0l0.2,0.5
		c0,0,0,0.1,0,0.1c-0.3,0.2-0.5,0.4-0.5,0.8c0,0.4,0.2,0.6,0.5,0.7c0.1,0,0.3,0.1,0.9,0.1c0.5,0,0.7,0,0.9-0.1
		c0.3-0.1,0.5-0.3,0.5-0.7c0-0.3-0.2-0.6-0.5-0.7c-0.1,0-0.3-0.1-0.5-0.1c0,0,0,0,0,0v0.6c0,0,0,0.1-0.1,0.1h-0.5c0,0-0.1,0-0.1-0.1
		v-1.3c0,0,0-0.1,0.1-0.1h0.3c0.3,0,0.7,0,0.8,0.1c0.6,0.2,0.9,0.7,0.9,1.4c0,0.7-0.3,1.2-0.9,1.4
		C180,149.1,179.8,149.1,179.2,149.1z"/>
	<path d="M178.3,145.5h-1c0,0-0.1,0-0.1-0.1v-0.3c0,0,0-0.1,0.1-0.1h1c0,0,0.1,0,0.1,0.1L178.3,145.5
		C178.4,145.5,178.4,145.5,178.3,145.5z"/>
	<path d="M180.8,144.5C180.8,144.5,180.7,144.5,180.8,144.5l-0.4-0.3c0,0,0-0.1,0-0.1c0.2-0.2,0.3-0.5,0.3-0.8
		c0-0.3-0.1-0.5-0.3-0.5c-0.2,0-0.3,0.1-0.3,0.5l0,0.3c-0.1,0.6-0.3,0.8-0.8,0.8c-0.5,0-0.9-0.4-0.9-1.1c0-0.4,0.1-0.8,0.3-1
		c0,0,0.1,0,0.1,0l0.3,0.3c0,0,0,0.1,0,0.1c-0.1,0.2-0.2,0.4-0.2,0.7c0,0.3,0.1,0.4,0.3,0.4c0.2,0,0.3-0.1,0.3-0.4l0-0.3
		c0.1-0.6,0.4-0.8,0.8-0.8c0.5,0,0.9,0.4,0.9,1.1C181.2,143.9,181,144.2,180.8,144.5z"/>
	<path d="M177.4,140.1C177.3,140.1,177.3,140.1,177.4,140.1l-0.1-0.6c0,0,0-0.1,0.1-0.1l2.4-1.1v0l-2.4-1c0,0-0.1,0-0.1-0.1v-0.5
		c0,0,0-0.1,0.1-0.1h3.7c0,0,0.1,0,0.1,0.1v0.5c0,0,0,0.1-0.1,0.1h-2.4v0l1.8,0.8c0.1,0,0.1,0.1,0.1,0.1v0.3c0,0.1,0,0.1-0.1,0.1
		l-1.8,0.8v0h2.4c0,0,0.1,0,0.1,0.1v0.5c0,0,0,0.1-0.1,0.1H177.4z"/>
	<path d="M181.2,134.2C181.2,134.3,181.1,134.3,181.2,134.2l-0.3,0.1v0c0.2,0.1,0.3,0.4,0.3,0.8c0,0.5-0.3,0.9-0.8,0.9
		c-0.6,0-0.9-0.4-0.9-1.1v-0.6c0,0,0,0,0,0h-0.1c-0.3,0-0.5,0.1-0.5,0.6c0,0.3,0.1,0.5,0.2,0.6c0,0,0,0.1,0,0.1l-0.4,0.2
		c0,0-0.1,0-0.1,0c-0.2-0.2-0.3-0.5-0.3-1c0-0.8,0.3-1.1,1-1.1h1.8c0,0,0.1,0,0.1,0.1V134.2z M180.2,134.3H180c0,0,0,0,0,0v0.5
		c0,0.4,0.1,0.6,0.4,0.6c0.2,0,0.3-0.2,0.3-0.5C180.7,134.5,180.5,134.3,180.2,134.3z"/>
	<path d="M181.8,132.9C181.8,133,181.8,133,181.8,132.9l-0.4-0.3c0,0,0-0.1,0-0.1c0.2-0.2,0.3-0.4,0.3-0.6c0-0.4-0.2-0.6-0.7-0.6
		h-0.3v0c0.2,0.1,0.3,0.4,0.3,0.7c0,0.5-0.2,0.8-0.7,0.9c-0.2,0.1-0.4,0.1-0.7,0.1c-0.3,0-0.5,0-0.7-0.1c-0.4-0.1-0.7-0.5-0.7-0.9
		c0-0.4,0.1-0.6,0.3-0.7v0h-0.2c0,0-0.1,0-0.1-0.1v-0.5c0,0,0-0.1,0.1-0.1h2.5c0.8,0,1.3,0.4,1.3,1.3
		C182.2,132.3,182.1,132.7,181.8,132.9z M180.2,131.4c-0.1,0-0.3-0.1-0.4-0.1c-0.2,0-0.3,0-0.4,0.1c-0.2,0.1-0.3,0.2-0.3,0.5
		c0,0.3,0.1,0.4,0.3,0.5c0.1,0,0.3,0.1,0.4,0.1c0.2,0,0.3,0,0.4-0.1c0.2-0.1,0.4-0.2,0.4-0.5C180.5,131.6,180.4,131.4,180.2,131.4z"
		/>
	<path d="M181.2,128.2C181.2,128.3,181.1,128.3,181.2,128.2l-0.3,0.1v0c0.2,0.1,0.3,0.4,0.3,0.8c0,0.5-0.3,0.9-0.8,0.9
		c-0.6,0-0.9-0.4-0.9-1.1v-0.6c0,0,0,0,0,0h-0.1c-0.3,0-0.5,0.1-0.5,0.6c0,0.3,0.1,0.5,0.2,0.6c0,0,0,0.1,0,0.1l-0.4,0.2
		c0,0-0.1,0-0.1,0c-0.2-0.2-0.3-0.5-0.3-1c0-0.8,0.3-1.1,1-1.1h1.8c0,0,0.1,0,0.1,0.1V128.2z M180.2,128.3H180c0,0,0,0,0,0v0.5
		c0,0.4,0.1,0.6,0.4,0.6c0.2,0,0.3-0.2,0.3-0.5C180.7,128.5,180.5,128.3,180.2,128.3z"/>
	<path d="M181.2,126.9C181.2,127,181.1,127,181.2,126.9l-0.5,0.1c0,0,0,0-0.1,0l-1.6-1.4h0v1.3c0,0,0,0.1-0.1,0.1h-0.4
		c0,0-0.1,0-0.1-0.1v-2c0,0,0-0.1,0.1-0.1h0.4c0,0,0,0,0.1,0l1.6,1.4h0v-1.3c0,0,0-0.1,0.1-0.1h0.4c0,0,0.1,0,0.1,0.1V126.9z"/>
	<path d="M177.9,124.1C177.9,124.1,177.9,124.1,177.9,124.1l-0.6,0.1c0,0-0.1,0-0.1-0.1v-0.5c0,0,0-0.1,0.1-0.1h0.5
		c0,0,0.1,0,0.1,0.1V124.1z M181.2,124.1C181.2,124.1,181.1,124.1,181.2,124.1l-2.7,0.1c0,0-0.1,0-0.1-0.1v-0.5c0,0,0-0.1,0.1-0.1
		h2.6c0,0,0.1,0,0.1,0.1V124.1z"/>
	<path d="M181.2,120.9C181.2,121,181.1,121,181.2,120.9l-1.6,0.1c-0.3,0-0.6,0.2-0.6,0.5c0,0.3,0.2,0.5,0.6,0.5h1.6
		c0,0,0.1,0,0.1,0.1v0.5c0,0,0,0.1-0.1,0.1h-2.6c0,0-0.1,0-0.1-0.1v-0.5c0,0,0-0.1,0.1-0.1h0.2v0c-0.2-0.1-0.3-0.4-0.3-0.7
		c0-0.6,0.4-0.9,1-0.9h1.7c0,0,0.1,0,0.1,0.1V120.9z"/>
	<path d="M180.5,119.6c-0.2,0.1-0.4,0.1-0.7,0.1c-0.3,0-0.5,0-0.7-0.1c-0.5-0.2-0.8-0.6-0.8-1.1c0-0.6,0.3-1,0.8-1.1
		c0.2-0.1,0.4-0.1,0.8-0.1c0,0,0.1,0,0.1,0.1v1.7c0,0,0,0,0,0c0.1,0,0.1,0,0.2,0c0.3-0.1,0.4-0.3,0.4-0.6c0-0.3-0.1-0.5-0.3-0.6
		c0,0,0-0.1,0-0.1l0.3-0.3c0,0,0,0,0.1,0c0.3,0.2,0.5,0.6,0.5,1.1C181.2,119,180.9,119.4,180.5,119.6z M179.2,118
		c-0.2,0.1-0.4,0.3-0.4,0.5c0,0.3,0.1,0.5,0.4,0.5c0.1,0,0.1,0,0.2,0c0,0,0,0,0,0V118c0,0,0,0,0,0
		C179.4,117.9,179.3,117.9,179.2,118z"/>
	<path d="M180.5,116.6C180.5,116.6,180.5,116.6,180.5,116.6l-0.1-0.6c0,0,0-0.1,0.1-0.1h0.6c0.1,0,0.1,0,0.1,0l0.5,0.5
		c0,0,0,0.1,0,0.1c0,0,0,0.1-0.1,0.1H180.5z"/>
	<path d="M188,369.4c0,0.5-0.3,0.8-0.8,0.8h-1.4c0,0,0,0,0,0v0.2c0,0,0,0.1-0.1,0.1h-0.4c0,0-0.1,0-0.1-0.1v-0.2c0,0,0,0,0,0h-0.7
		c0,0-0.1,0-0.1-0.1v-0.5c0,0,0-0.1,0.1-0.1h0.7c0,0,0,0,0,0v-0.4c0,0,0-0.1,0.1-0.1h0.4c0,0,0.1,0,0.1,0.1v0.4c0,0,0,0,0,0h1.4
		c0.2,0,0.3-0.1,0.3-0.3v-0.1c0,0,0-0.1,0.1-0.1h0.5c0,0,0.1,0,0.1,0.1V369.4z"/>
	<path d="M188,366.7C188,366.7,187.9,366.7,188,366.7l-1.6,0.1c-0.4,0-0.6,0.2-0.6,0.5c0,0.3,0.2,0.5,0.6,0.5h1.6c0,0,0.1,0,0.1,0.1
		v0.5c0,0,0,0.1-0.1,0.1h-3.7c0,0-0.1,0-0.1-0.1v-0.5c0,0,0-0.1,0.1-0.1h1.3v0c-0.2-0.1-0.3-0.4-0.3-0.7c0-0.6,0.4-0.9,1-0.9h1.7
		c0,0,0.1,0,0.1,0.1V366.7z"/>
	<path d="M187.3,365.4c-0.2,0.1-0.4,0.1-0.7,0.1c-0.3,0-0.5,0-0.7-0.1c-0.5-0.2-0.8-0.6-0.8-1.1c0-0.6,0.3-1,0.8-1.1
		c0.2-0.1,0.4-0.1,0.8-0.1c0,0,0.1,0,0.1,0.1v1.7c0,0,0,0,0,0c0.1,0,0.1,0,0.2,0c0.3-0.1,0.4-0.3,0.4-0.6c0-0.3-0.1-0.5-0.3-0.6
		c0,0,0-0.1,0-0.1l0.3-0.3c0,0,0.1,0,0.1,0c0.3,0.2,0.5,0.6,0.5,1.1C188,364.8,187.7,365.2,187.3,365.4z M186.1,363.7
		c-0.2,0.1-0.4,0.3-0.4,0.5c0,0.3,0.1,0.5,0.4,0.5c0.1,0,0.1,0,0.2,0c0,0,0,0,0,0v-1.1c0,0,0,0,0,0
		C186.2,363.7,186.1,363.7,186.1,363.7z"/>
	<path d="M188,357.6C188,357.6,187.9,357.7,188,357.6l-1.6,0.1c-0.4,0-0.6,0.2-0.6,0.5c0,0.3,0.2,0.5,0.6,0.5h1.6c0,0,0.1,0,0.1,0.1
		v0.5c0,0,0,0.1-0.1,0.1h-1.6c-0.4,0-0.6,0.2-0.6,0.5c0,0.3,0.2,0.5,0.6,0.5h1.6c0,0,0.1,0,0.1,0.1v0.5c0,0,0,0.1-0.1,0.1h-2.6
		c0,0-0.1,0-0.1-0.1v-0.5c0,0,0-0.1,0.1-0.1h0.2v0c-0.2-0.1-0.3-0.4-0.3-0.7c0-0.3,0.1-0.6,0.4-0.7v0c-0.2-0.2-0.4-0.5-0.4-0.9
		c0-0.6,0.4-1,1-1h1.7c0,0,0.1,0,0.1,0.1V357.6z"/>
	<path d="M188,354.5C188,354.6,187.9,354.6,188,354.5l-0.3,0.1v0c0.2,0.1,0.3,0.4,0.3,0.7c0,0.6-0.4,0.9-1,0.9h-1.7
		c0,0-0.1,0-0.1-0.1v-0.5c0,0,0-0.1,0.1-0.1h1.6c0.3,0,0.6-0.2,0.6-0.5c0-0.3-0.2-0.5-0.6-0.5h-1.6c0,0-0.1,0-0.1-0.1V354
		c0,0,0-0.1,0.1-0.1h2.6c0,0,0.1,0,0.1,0.1V354.5z"/>
	<path d="M187.6,353.3C187.6,353.3,187.5,353.3,187.6,353.3l-0.4-0.3c0,0,0-0.1,0-0.1c0.2-0.2,0.3-0.5,0.3-0.8
		c0-0.3-0.1-0.5-0.3-0.5c-0.2,0-0.3,0.1-0.3,0.5l0,0.3c-0.1,0.6-0.3,0.8-0.8,0.8c-0.5,0-0.9-0.4-0.9-1.1c0-0.4,0.1-0.8,0.3-1
		c0,0,0.1,0,0.1,0l0.3,0.3c0,0,0,0.1,0,0.1c-0.1,0.2-0.2,0.4-0.2,0.7s0.1,0.4,0.3,0.4c0.2,0,0.3-0.1,0.3-0.4l0-0.3
		c0.1-0.6,0.4-0.8,0.8-0.8c0.5,0,0.9,0.4,0.9,1.1C188,352.7,187.8,353.1,187.6,353.3z"/>
	<path d="M184.7,350.2C184.7,350.3,184.7,350.3,184.7,350.2l-0.6,0.1c0,0-0.1,0-0.1-0.1v-0.5c0,0,0-0.1,0.1-0.1h0.5
		c0,0,0.1,0,0.1,0.1V350.2z M188,350.2C188,350.3,187.9,350.3,188,350.2l-2.7,0.1c0,0-0.1,0-0.1-0.1v-0.5c0,0,0-0.1,0.1-0.1h2.6
		c0,0,0.1,0,0.1,0.1V350.2z"/>
	<path d="M187.3,348.9c-0.2,0.1-0.4,0.1-0.7,0.1c-0.3,0-0.5,0-0.7-0.1c-0.5-0.2-0.8-0.6-0.8-1.1c0-0.4,0.2-0.7,0.4-0.9
		c0,0,0.1,0,0.1,0l0.3,0.4c0,0,0,0.1,0,0.1c-0.2,0.1-0.2,0.3-0.2,0.5c0,0.2,0.1,0.4,0.4,0.5c0.1,0,0.3,0.1,0.5,0.1
		c0.2,0,0.4,0,0.5-0.1c0.2-0.1,0.3-0.3,0.3-0.5c0-0.2-0.1-0.4-0.2-0.5c0,0,0,0,0-0.1l0.3-0.4c0,0,0.1,0,0.1,0
		c0.3,0.2,0.4,0.5,0.4,0.9C188,348.3,187.8,348.7,187.3,348.9z"/>
	<path d="M188,344.1c0,0.5-0.3,0.7-0.8,0.7h-3c0,0-0.1,0-0.1-0.1v-0.5c0,0,0-0.1,0.1-0.1h3c0.2,0,0.2-0.1,0.2-0.2v-0.1
		c0,0,0-0.1,0.1-0.1h0.5c0,0,0.1,0,0.1,0.1V344.1z"/>
	<path d="M188,341.5C188,341.6,187.9,341.6,188,341.5l-0.3,0.1v0c0.2,0.1,0.3,0.4,0.3,0.8c0,0.5-0.3,0.9-0.8,0.9
		c-0.6,0-0.9-0.4-0.9-1.1v-0.6c0,0,0,0,0,0h-0.1c-0.3,0-0.5,0.1-0.5,0.6c0,0.3,0.1,0.5,0.2,0.6c0,0,0,0.1,0,0.1l-0.4,0.2
		c0,0-0.1,0-0.1,0c-0.2-0.2-0.3-0.5-0.3-1c0-0.8,0.3-1.1,1-1.1h1.8c0,0,0.1,0,0.1,0.1V341.5z M187,341.6h-0.2c0,0,0,0,0,0v0.5
		c0,0.4,0.1,0.6,0.4,0.6c0.2,0,0.3-0.2,0.3-0.5C187.5,341.8,187.4,341.6,187,341.6z"/>
	<path d="M187.7,339.5L187.7,339.5l0.2,0c0,0,0.1,0,0.1,0.1v0.5c0,0,0,0.1-0.1,0.1h-3.7c0,0-0.1,0-0.1-0.1v-0.5c0,0,0-0.1,0.1-0.1
		h1.3v0c-0.2-0.1-0.3-0.4-0.3-0.7c0-0.5,0.2-0.8,0.7-0.9c0.2-0.1,0.4-0.1,0.8-0.1c0.4,0,0.6,0,0.8,0.1c0.4,0.1,0.7,0.5,0.7,0.9
		C188,339.2,187.9,339.4,187.7,339.5z M187.1,338.5c-0.1,0-0.3-0.1-0.5-0.1s-0.4,0-0.5,0.1c-0.2,0.1-0.4,0.2-0.4,0.5
		c0,0.3,0.1,0.4,0.4,0.5c0.1,0,0.3,0.1,0.5,0.1s0.4,0,0.5-0.1c0.2-0.1,0.3-0.2,0.3-0.5C187.5,338.7,187.3,338.6,187.1,338.5z"/>
	<path d="M187.3,337.1c-0.2,0.1-0.4,0.1-0.7,0.1c-0.3,0-0.5,0-0.7-0.1c-0.5-0.2-0.8-0.6-0.8-1.1c0-0.6,0.3-1,0.8-1.1
		c0.2-0.1,0.4-0.1,0.8-0.1c0,0,0.1,0,0.1,0.1v1.7c0,0,0,0,0,0c0.1,0,0.1,0,0.2,0c0.3-0.1,0.4-0.3,0.4-0.6c0-0.3-0.1-0.5-0.3-0.6
		c0,0,0-0.1,0-0.1l0.3-0.3c0,0,0.1,0,0.1,0c0.3,0.2,0.5,0.6,0.5,1.1C188,336.6,187.7,337,187.3,337.1z M186.1,335.5
		c-0.2,0.1-0.4,0.3-0.4,0.5c0,0.3,0.1,0.5,0.4,0.5c0.1,0,0.1,0,0.2,0c0,0,0,0,0,0v-1.1c0,0,0,0,0,0
		C186.2,335.5,186.1,335.5,186.1,335.5z"/>
	<path d="M188,333.4c0,0.5-0.3,0.7-0.8,0.7h-3c0,0-0.1,0-0.1-0.1v-0.5c0,0,0-0.1,0.1-0.1h3c0.2,0,0.2-0.1,0.2-0.2v-0.1
		c0,0,0-0.1,0.1-0.1h0.5c0,0,0.1,0,0.1,0.1V333.4z"/>
	<path d="M184.2,331.1C184.1,331.1,184.1,331.1,184.2,331.1l-0.1-0.6c0,0,0-0.1,0.1-0.1h3.2c0,0,0,0,0,0v-1.8c0,0,0-0.1,0.1-0.1h0.5
		c0,0,0.1,0,0.1,0.1v2.4c0,0,0,0.1-0.1,0.1H184.2z"/>
	<path d="M188,326.4C188,326.5,187.9,326.5,188,326.4l-0.3,0.1v0c0.2,0.1,0.3,0.4,0.3,0.8c0,0.5-0.3,0.9-0.8,0.9
		c-0.6,0-0.9-0.4-0.9-1.1v-0.6c0,0,0,0,0,0h-0.1c-0.3,0-0.5,0.1-0.5,0.6c0,0.3,0.1,0.5,0.2,0.6c0,0,0,0.1,0,0.1l-0.4,0.2
		c0,0-0.1,0-0.1,0c-0.2-0.2-0.3-0.5-0.3-1c0-0.8,0.3-1.1,1-1.1h1.8c0,0,0.1,0,0.1,0.1V326.4z M187,326.5h-0.2c0,0,0,0,0,0v0.5
		c0,0.4,0.1,0.6,0.4,0.6c0.2,0,0.3-0.2,0.3-0.5C187.5,326.7,187.4,326.5,187,326.5z"/>
	<path d="M188,323.4C188,323.4,187.9,323.4,188,323.4l-1.6,0.1c-0.4,0-0.6,0.2-0.6,0.5c0,0.3,0.2,0.5,0.6,0.5h1.6c0,0,0.1,0,0.1,0.1
		v0.5c0,0,0,0.1-0.1,0.1h-2.6c0,0-0.1,0-0.1-0.1v-0.5c0,0,0-0.1,0.1-0.1h0.2v0c-0.2-0.1-0.3-0.4-0.3-0.7c0-0.6,0.4-0.9,1-0.9h1.7
		c0,0,0.1,0,0.1,0.1V323.4z"/>
	<path d="M188,321.2c0,0.6-0.3,0.8-0.8,0.8h-1.4c0,0,0,0,0,0v0.2c0,0,0,0.1-0.1,0.1h-0.4c0,0-0.1,0-0.1-0.1V322c0,0,0,0,0,0h-0.7
		c0,0-0.1,0-0.1-0.1v-0.5c0,0,0-0.1,0.1-0.1h0.7c0,0,0,0,0,0v-0.4c0,0,0-0.1,0.1-0.1h0.4c0,0,0.1,0,0.1,0.1v0.4c0,0,0,0,0,0h1.4
		c0.2,0,0.3-0.1,0.3-0.3v-0.1c0,0,0-0.1,0.1-0.1h0.5c0,0,0.1,0,0.1,0.1V321.2z"/>
	<path d="M184.7,320.1C184.7,320.1,184.7,320.2,184.7,320.1l-0.6,0.1c0,0-0.1,0-0.1-0.1v-0.5c0,0,0-0.1,0.1-0.1h0.5
		c0,0,0.1,0,0.1,0.1V320.1z M188,320.1C188,320.1,187.9,320.2,188,320.1l-2.7,0.1c0,0-0.1,0-0.1-0.1v-0.5c0,0,0-0.1,0.1-0.1h2.6
		c0,0,0.1,0,0.1,0.1V320.1z"/>
	<path d="M187.6,318.9C187.6,318.9,187.5,318.9,187.6,318.9l-0.4-0.3c0,0,0-0.1,0-0.1c0.2-0.2,0.3-0.5,0.3-0.8
		c0-0.3-0.1-0.5-0.3-0.5c-0.2,0-0.3,0.1-0.3,0.5l0,0.3c-0.1,0.6-0.3,0.8-0.8,0.8c-0.5,0-0.9-0.4-0.9-1.1c0-0.4,0.1-0.8,0.3-1
		c0,0,0.1,0,0.1,0l0.3,0.3c0,0,0,0.1,0,0.1c-0.1,0.2-0.2,0.4-0.2,0.7c0,0.3,0.1,0.4,0.3,0.4c0.2,0,0.3-0.1,0.3-0.4l0-0.3
		c0.1-0.6,0.4-0.8,0.8-0.8c0.5,0,0.9,0.4,0.9,1.1C188,318.2,187.8,318.6,187.6,318.9z"/>
	<path d="M187.3,315.9C187.3,315.9,187.3,315.9,187.3,315.9l-0.1-0.6c0,0,0-0.1,0.1-0.1h0.6c0.1,0,0.1,0,0.1,0l0.5,0.5
		c0,0,0,0.1,0,0.1c0,0,0,0.1-0.1,0.1H187.3z"/>
	<path d="M188,311.6C188,311.6,187.9,311.7,188,311.6l-0.3,0.1v0c0.2,0.1,0.3,0.4,0.3,0.8c0,0.5-0.3,0.9-0.8,0.9
		c-0.6,0-0.9-0.4-0.9-1.1v-0.6c0,0,0,0,0,0h-0.1c-0.3,0-0.5,0.1-0.5,0.6c0,0.3,0.1,0.5,0.2,0.6c0,0,0,0.1,0,0.1l-0.4,0.2
		c0,0-0.1,0-0.1,0c-0.2-0.2-0.3-0.5-0.3-1c0-0.8,0.3-1.1,1-1.1h1.8c0,0,0.1,0,0.1,0.1V311.6z M187,311.7h-0.2c0,0,0,0,0,0v0.5
		c0,0.4,0.1,0.6,0.4,0.6c0.2,0,0.3-0.2,0.3-0.5C187.5,311.9,187.4,311.7,187,311.7z"/>
	<path d="M188,308.5C188,308.6,187.9,308.6,188,308.5l-1.6,0.1c-0.4,0-0.6,0.2-0.6,0.5c0,0.3,0.2,0.5,0.6,0.5h1.6c0,0,0.1,0,0.1,0.1
		v0.5c0,0,0,0.1-0.1,0.1h-2.6c0,0-0.1,0-0.1-0.1v-0.5c0,0,0-0.1,0.1-0.1h0.2v0c-0.2-0.1-0.3-0.4-0.3-0.7c0-0.6,0.4-0.9,1-0.9h1.7
		c0,0,0.1,0,0.1,0.1V308.5z"/>
	<path d="M188,305.5C188,305.5,187.9,305.5,188,305.5l-0.3,0.1v0c0.2,0.1,0.3,0.4,0.3,0.7c0,0.5-0.2,0.8-0.7,0.9
		c-0.2,0.1-0.4,0.1-0.8,0.1c-0.4,0-0.6,0-0.8-0.1c-0.4-0.1-0.7-0.5-0.7-0.9c0-0.4,0.1-0.6,0.3-0.7v0h-1.3c0,0-0.1,0-0.1-0.1V305
		c0,0,0-0.1,0.1-0.1h3.7c0,0,0.1,0,0.1,0.1V305.5z M187.1,305.6c-0.1,0-0.3-0.1-0.5-0.1s-0.4,0-0.5,0.1c-0.2,0.1-0.4,0.2-0.4,0.5
		c0,0.3,0.1,0.4,0.4,0.5c0.1,0,0.3,0.1,0.5,0.1s0.4,0,0.5-0.1c0.2-0.1,0.3-0.2,0.3-0.5C187.5,305.8,187.3,305.7,187.1,305.6z"/>
	<path d="M188,301.9c0,0.6-0.3,0.8-0.8,0.8h-1.4c0,0,0,0,0,0v0.2c0,0,0,0.1-0.1,0.1h-0.4c0,0-0.1,0-0.1-0.1v-0.2c0,0,0,0,0,0h-0.7
		c0,0-0.1,0-0.1-0.1v-0.5c0,0,0-0.1,0.1-0.1h0.7c0,0,0,0,0,0v-0.4c0,0,0-0.1,0.1-0.1h0.4c0,0,0.1,0,0.1,0.1v0.4c0,0,0,0,0,0h1.4
		c0.2,0,0.3-0.1,0.3-0.3v-0.1c0,0,0-0.1,0.1-0.1h0.5c0,0,0.1,0,0.1,0.1V301.9z"/>
	<path d="M188,299.2C188,299.2,187.9,299.2,188,299.2l-1.6,0.1c-0.4,0-0.6,0.2-0.6,0.5c0,0.3,0.2,0.5,0.6,0.5h1.6c0,0,0.1,0,0.1,0.1
		v0.5c0,0,0,0.1-0.1,0.1h-3.7c0,0-0.1,0-0.1-0.1v-0.5c0,0,0-0.1,0.1-0.1h1.3v0c-0.2-0.1-0.3-0.4-0.3-0.7c0-0.6,0.4-0.9,1-0.9h1.7
		c0,0,0.1,0,0.1,0.1V299.2z"/>
	<path d="M187.3,297.8c-0.2,0.1-0.4,0.1-0.7,0.1c-0.3,0-0.5,0-0.7-0.1c-0.5-0.2-0.8-0.6-0.8-1.1c0-0.6,0.3-1,0.8-1.1
		c0.2-0.1,0.4-0.1,0.8-0.1c0,0,0.1,0,0.1,0.1v1.7c0,0,0,0,0,0c0.1,0,0.1,0,0.2,0c0.3-0.1,0.4-0.3,0.4-0.6c0-0.3-0.1-0.5-0.3-0.6
		c0,0,0-0.1,0-0.1l0.3-0.3c0,0,0.1,0,0.1,0c0.3,0.2,0.5,0.6,0.5,1.1C188,297.3,187.7,297.7,187.3,297.8z M186.1,296.2
		c-0.2,0.1-0.4,0.3-0.4,0.5c0,0.3,0.1,0.5,0.4,0.5c0.1,0,0.1,0,0.2,0c0,0,0,0,0,0v-1.1c0,0,0,0,0,0
		C186.2,296.2,186.1,296.2,186.1,296.2z"/>
	<path d="M188,291.9C188,291.9,187.9,291.9,188,291.9l-0.3,0.1v0c0.2,0.1,0.3,0.4,0.3,0.8c0,0.5-0.3,0.9-0.8,0.9
		c-0.6,0-0.9-0.4-0.9-1.1V292c0,0,0,0,0,0h-0.1c-0.3,0-0.5,0.1-0.5,0.6c0,0.3,0.1,0.5,0.2,0.6c0,0,0,0.1,0,0.1l-0.4,0.2
		c0,0-0.1,0-0.1,0c-0.2-0.2-0.3-0.5-0.3-1c0-0.8,0.3-1.1,1-1.1h1.8c0,0,0.1,0,0.1,0.1V291.9z M187,291.9h-0.2c0,0,0,0,0,0v0.5
		c0,0.4,0.1,0.6,0.4,0.6c0.2,0,0.3-0.2,0.3-0.5C187.5,292.2,187.4,291.9,187,291.9z"/>
	<path d="M188,288.8C188,288.8,187.9,288.9,188,288.8l-1.6,0.1c-0.4,0-0.6,0.2-0.6,0.5c0,0.3,0.2,0.5,0.6,0.5h1.6c0,0,0.1,0,0.1,0.1
		v0.5c0,0,0,0.1-0.1,0.1h-2.6c0,0-0.1,0-0.1-0.1V290c0,0,0-0.1,0.1-0.1h0.2v0c-0.2-0.1-0.3-0.4-0.3-0.7c0-0.6,0.4-0.9,1-0.9h1.7
		c0,0,0.1,0,0.1,0.1V288.8z"/>
	<path d="M184.7,287.4C184.7,287.4,184.7,287.4,184.7,287.4l-0.6,0.1c0,0-0.1,0-0.1-0.1v-0.5c0,0,0-0.1,0.1-0.1h0.5
		c0,0,0.1,0,0.1,0.1V287.4z M188,287.4C188,287.4,187.9,287.4,188,287.4l-2.7,0.1c0,0-0.1,0-0.1-0.1v-0.5c0,0,0-0.1,0.1-0.1h2.6
		c0,0,0.1,0,0.1,0.1V287.4z"/>
	<path d="M188,282.6C188,282.6,187.9,282.6,188,282.6l-1.6,0.1c-0.4,0-0.6,0.2-0.6,0.5c0,0.3,0.2,0.5,0.6,0.5h1.6c0,0,0.1,0,0.1,0.1
		v0.5c0,0,0,0.1-0.1,0.1h-1.6c-0.4,0-0.6,0.2-0.6,0.5c0,0.3,0.2,0.5,0.6,0.5h1.6c0,0,0.1,0,0.1,0.1v0.5c0,0,0,0.1-0.1,0.1h-2.6
		c0,0-0.1,0-0.1-0.1v-0.5c0,0,0-0.1,0.1-0.1h0.2v0c-0.2-0.1-0.3-0.4-0.3-0.7c0-0.3,0.1-0.6,0.4-0.8v0c-0.2-0.2-0.4-0.5-0.4-0.9
		c0-0.6,0.4-1,1-1h1.7c0,0,0.1,0,0.1,0.1V282.6z"/>
	<path d="M187.3,281.2c-0.2,0.1-0.4,0.1-0.7,0.1c-0.3,0-0.5,0-0.7-0.1c-0.5-0.2-0.8-0.6-0.8-1.1c0-0.6,0.3-1,0.8-1.1
		c0.2-0.1,0.4-0.1,0.8-0.1c0,0,0.1,0,0.1,0.1v1.7c0,0,0,0,0,0c0.1,0,0.1,0,0.2,0c0.3-0.1,0.4-0.3,0.4-0.6c0-0.3-0.1-0.5-0.3-0.6
		c0,0,0-0.1,0-0.1l0.3-0.3c0,0,0.1,0,0.1,0c0.3,0.2,0.5,0.6,0.5,1.1C188,280.7,187.7,281.1,187.3,281.2z M186.1,279.6
		c-0.2,0.1-0.4,0.3-0.4,0.5c0,0.3,0.1,0.5,0.4,0.5c0.1,0,0.1,0,0.2,0c0,0,0,0,0,0v-1.1c0,0,0,0,0,0
		C186.2,279.5,186.1,279.6,186.1,279.6z"/>
	<path d="M187.6,277C187.6,277.1,187.5,277.1,187.6,277l-0.4-0.3c0,0,0-0.1,0-0.1c0.2-0.2,0.3-0.5,0.3-0.8c0-0.3-0.1-0.5-0.3-0.5
		c-0.2,0-0.3,0.1-0.3,0.5l0,0.3c-0.1,0.6-0.3,0.8-0.8,0.8c-0.5,0-0.9-0.4-0.9-1.1c0-0.4,0.1-0.8,0.3-1c0,0,0.1,0,0.1,0l0.3,0.3
		c0,0,0,0.1,0,0.1c-0.1,0.2-0.2,0.4-0.2,0.7c0,0.3,0.1,0.4,0.3,0.4c0.2,0,0.3-0.1,0.3-0.4l0-0.3c0.1-0.6,0.4-0.8,0.8-0.8
		c0.5,0,0.9,0.4,0.9,1.1C188,276.4,187.8,276.8,187.6,277z"/>
	<path d="M188,273.3c0,0.5-0.3,0.8-0.8,0.8h-1.4c0,0,0,0,0,0v0.2c0,0,0,0.1-0.1,0.1h-0.4c0,0-0.1,0-0.1-0.1V274c0,0,0,0,0,0h-0.7
		c0,0-0.1,0-0.1-0.1v-0.5c0,0,0-0.1,0.1-0.1h0.7c0,0,0,0,0,0V273c0,0,0-0.1,0.1-0.1h0.4c0,0,0.1,0,0.1,0.1v0.4c0,0,0,0,0,0h1.4
		c0.2,0,0.3-0.1,0.3-0.3V273c0,0,0-0.1,0.1-0.1h0.5c0,0,0.1,0,0.1,0.1V273.3z"/>
	<path d="M188,270.6C188,270.6,187.9,270.6,188,270.6l-0.3,0.1v0c0.2,0.1,0.3,0.4,0.3,0.7c0,0.6-0.4,0.9-1,0.9h-1.7
		c0,0-0.1,0-0.1-0.1v-0.5c0,0,0-0.1,0.1-0.1h1.6c0.3,0,0.6-0.2,0.6-0.5c0-0.3-0.2-0.5-0.6-0.5h-1.6c0,0-0.1,0-0.1-0.1V270
		c0,0,0-0.1,0.1-0.1h2.6c0,0,0.1,0,0.1,0.1V270.6z"/>
	<path d="M188,267.5C188,267.5,187.9,267.5,188,267.5l-0.3,0.1v0c0.2,0.1,0.3,0.4,0.3,0.7c0,0.5-0.2,0.8-0.7,0.9
		c-0.2,0.1-0.4,0.1-0.8,0.1c-0.4,0-0.6,0-0.8-0.1c-0.4-0.1-0.7-0.5-0.7-0.9c0-0.4,0.1-0.6,0.3-0.7v0h-1.3c0,0-0.1,0-0.1-0.1v-0.5
		c0,0,0-0.1,0.1-0.1h3.7c0,0,0.1,0,0.1,0.1V267.5z M187.1,267.6c-0.1,0-0.3-0.1-0.5-0.1s-0.4,0-0.5,0.1c-0.2,0.1-0.4,0.2-0.4,0.5
		c0,0.3,0.1,0.4,0.4,0.5c0.1,0,0.3,0.1,0.5,0.1s0.4,0,0.5-0.1c0.2-0.1,0.3-0.2,0.3-0.5C187.5,267.8,187.3,267.6,187.1,267.6z"/>
	<path d="M184.7,266C184.7,266,184.7,266.1,184.7,266l-0.6,0.1c0,0-0.1,0-0.1-0.1v-0.5c0,0,0-0.1,0.1-0.1h0.5c0,0,0.1,0,0.1,0.1V266
		z M188,266C188,266,187.9,266.1,188,266l-2.7,0.1c0,0-0.1,0-0.1-0.1v-0.5c0,0,0-0.1,0.1-0.1h2.6c0,0,0.1,0,0.1,0.1V266z"/>
	<path d="M187.3,264.6c-0.2,0.1-0.4,0.1-0.7,0.1c-0.3,0-0.5,0-0.7-0.1c-0.5-0.2-0.8-0.6-0.8-1.1c0-0.5,0.3-1,0.8-1.1
		c0.2-0.1,0.4-0.1,0.7-0.1c0.3,0,0.5,0,0.7,0.1c0.5,0.2,0.8,0.6,0.8,1.1C188,264.1,187.7,264.5,187.3,264.6z M187.1,263
		c-0.1,0-0.3-0.1-0.5-0.1c-0.2,0-0.4,0-0.5,0.1c-0.2,0.1-0.4,0.3-0.4,0.5c0,0.3,0.1,0.4,0.4,0.5c0.1,0,0.3,0.1,0.5,0.1
		c0.2,0,0.4,0,0.5-0.1c0.2-0.1,0.4-0.3,0.4-0.5C187.5,263.3,187.3,263.1,187.1,263z"/>
	<path d="M187.5,260.5C187.5,260.5,187.5,260.5,187.5,260.5l-0.5-0.3c0,0,0-0.1,0-0.1c0.2-0.3,0.4-0.6,0.4-1c0-0.5-0.2-0.7-0.6-0.7
		c-0.3,0-0.5,0.2-0.5,0.7l0,0.2c-0.1,0.7-0.5,1.2-1.1,1.2c-0.7,0-1.2-0.5-1.2-1.3c0-0.5,0.2-0.9,0.4-1.2c0,0,0,0,0.1,0l0.4,0.3
		c0,0,0,0.1,0,0.1c-0.2,0.3-0.3,0.6-0.3,0.9c0,0.4,0.2,0.6,0.5,0.6c0.3,0,0.4-0.2,0.5-0.7l0-0.2c0.1-0.7,0.5-1.2,1.1-1.2
		c0.7,0,1.2,0.5,1.2,1.5C188,259.6,187.8,260.2,187.5,260.5z"/>
	<path d="M188,255.3C188,255.3,187.9,255.3,188,255.3l-0.3,0.1v0c0.2,0.1,0.3,0.4,0.3,0.7c0,0.6-0.4,0.9-1,0.9h-1.7
		c0,0-0.1,0-0.1-0.1v-0.5c0,0,0-0.1,0.1-0.1h1.6c0.3,0,0.6-0.2,0.6-0.5c0-0.3-0.2-0.5-0.6-0.5h-1.6c0,0-0.1,0-0.1-0.1v-0.5
		c0,0,0-0.1,0.1-0.1h2.6c0,0,0.1,0,0.1,0.1V255.3z"/>
	<path d="M188,252.1C188,252.2,187.9,252.2,188,252.1l-1.6,0.1c-0.4,0-0.6,0.2-0.6,0.5c0,0.3,0.2,0.5,0.6,0.5h1.6c0,0,0.1,0,0.1,0.1
		v0.5c0,0,0,0.1-0.1,0.1h-2.6c0,0-0.1,0-0.1-0.1v-0.5c0,0,0-0.1,0.1-0.1h0.2v0c-0.2-0.1-0.3-0.4-0.3-0.7c0-0.6,0.4-0.9,1-0.9h1.7
		c0,0,0.1,0,0.1,0.1V252.1z"/>
	<path d="M188,250.7C188,250.7,187.9,250.8,188,250.7l-2.7,0.1c0,0-0.1,0-0.1-0.1v-0.5c0,0,0-0.1,0.1-0.1h0.2v0
		c-0.2-0.1-0.4-0.4-0.4-0.7c0-0.2,0.1-0.4,0.2-0.6c0,0,0.1,0,0.1,0l0.4,0.3c0,0,0,0.1,0,0.1c-0.1,0.1-0.1,0.3-0.1,0.4
		c0,0.4,0.3,0.5,0.7,0.5h1.5c0,0,0.1,0,0.1,0.1V250.7z"/>
	<path d="M184.7,248.3C184.7,248.3,184.7,248.4,184.7,248.3l-0.6,0.1c0,0-0.1,0-0.1-0.1v-0.5c0,0,0-0.1,0.1-0.1h0.5
		c0,0,0.1,0,0.1,0.1V248.3z M188,248.3C188,248.3,187.9,248.4,188,248.3l-2.7,0.1c0,0-0.1,0-0.1-0.1v-0.5c0,0,0-0.1,0.1-0.1h2.6
		c0,0,0.1,0,0.1,0.1V248.3z"/>
	<path d="M187.6,247.1C187.6,247.1,187.5,247.1,187.6,247.1l-0.4-0.3c0,0,0-0.1,0-0.1c0.2-0.2,0.3-0.5,0.3-0.8
		c0-0.3-0.1-0.5-0.3-0.5c-0.2,0-0.3,0.1-0.3,0.5l0,0.3c-0.1,0.6-0.3,0.8-0.8,0.8c-0.5,0-0.9-0.4-0.9-1.1c0-0.4,0.1-0.8,0.3-1
		c0,0,0.1,0,0.1,0l0.3,0.3c0,0,0,0.1,0,0.1c-0.1,0.2-0.2,0.4-0.2,0.7c0,0.3,0.1,0.4,0.3,0.4c0.2,0,0.3-0.1,0.3-0.5l0-0.3
		c0.1-0.6,0.4-0.8,0.8-0.8c0.5,0,0.9,0.4,0.9,1.1C188,246.4,187.8,246.8,187.6,247.1z"/>
	<path d="M187.3,244.1c-0.2,0.1-0.4,0.1-0.7,0.1c-0.3,0-0.5,0-0.7-0.1c-0.5-0.2-0.8-0.6-0.8-1.1c0-0.6,0.3-1,0.8-1.1
		c0.2-0.1,0.4-0.1,0.8-0.1c0,0,0.1,0,0.1,0.1v1.7c0,0,0,0,0,0c0.1,0,0.1,0,0.2,0c0.3-0.1,0.4-0.3,0.4-0.6s-0.1-0.5-0.3-0.6
		c0,0,0-0.1,0-0.1l0.3-0.3c0,0,0.1,0,0.1,0c0.3,0.2,0.5,0.6,0.5,1.1C188,243.6,187.7,244,187.3,244.1z M186.1,242.5
		c-0.2,0.1-0.4,0.3-0.4,0.5c0,0.3,0.1,0.5,0.4,0.5c0.1,0,0.1,0,0.2,0c0,0,0,0,0,0v-1.1c0,0,0,0,0,0
		C186.2,242.4,186.1,242.4,186.1,242.5z"/>
	<path d="M187.3,241.1C187.3,241.1,187.3,241.1,187.3,241.1l-0.1-0.6c0,0,0-0.1,0.1-0.1h0.6c0,0,0.1,0,0.1,0.1v0.6
		c0,0,0,0.1-0.1,0.1H187.3z"/>
	<path d="M191,370.2C190.9,370.2,190.9,370.2,191,370.2l-0.1-0.6c0,0,0-0.1,0.1-0.1h3.2c0,0,0,0,0,0v-1.8c0,0,0-0.1,0.1-0.1h0.5
		c0,0,0.1,0,0.1,0.1v2.4c0,0,0,0.1-0.1,0.1H191z"/>
	<path d="M194.1,367.2c-0.2,0.1-0.4,0.1-0.7,0.1c-0.3,0-0.5,0-0.7-0.1c-0.5-0.2-0.8-0.6-0.8-1.1c0-0.6,0.3-1,0.8-1.1
		c0.2-0.1,0.4-0.1,0.7-0.1c0.3,0,0.5,0,0.7,0.1c0.5,0.2,0.8,0.6,0.8,1.1C194.8,366.6,194.6,367,194.1,367.2z M193.9,365.6
		c-0.1,0-0.3-0.1-0.5-0.1s-0.4,0-0.5,0.1c-0.2,0.1-0.4,0.3-0.4,0.5c0,0.3,0.1,0.4,0.4,0.5c0.1,0,0.3,0.1,0.5,0.1s0.4,0,0.5-0.1
		c0.2-0.1,0.4-0.3,0.4-0.5C194.3,365.8,194.1,365.6,193.9,365.6z"/>
	<path d="M194.8,363.4C194.8,363.5,194.8,363.5,194.8,363.4l-2.7,1c0,0-0.1,0-0.1,0v-0.6c0,0,0-0.1,0.1-0.1l1.8-0.6v0l-1.8-0.6
		c0,0-0.1,0-0.1-0.1V362c0,0,0-0.1,0.1,0l2.6,1c0,0,0.1,0,0.1,0.1V363.4z"/>
	<path d="M194.1,361.5c-0.2,0.1-0.4,0.1-0.7,0.1c-0.3,0-0.5,0-0.7-0.1c-0.5-0.2-0.8-0.6-0.8-1.1c0-0.6,0.3-1,0.8-1.1
		c0.2-0.1,0.4-0.1,0.8-0.1c0,0,0.1,0,0.1,0.1v1.7c0,0,0,0,0,0c0.1,0,0.1,0,0.2,0c0.3-0.1,0.4-0.3,0.4-0.6c0-0.3-0.1-0.5-0.3-0.6
		c0,0,0-0.1,0-0.1l0.3-0.3c0,0,0.1,0,0.1,0c0.3,0.2,0.5,0.6,0.5,1.1C194.8,360.9,194.6,361.3,194.1,361.5z M192.9,359.8
		c-0.2,0.1-0.4,0.3-0.4,0.5c0,0.3,0.1,0.5,0.4,0.5c0.1,0,0.1,0,0.2,0c0,0,0,0,0,0v-1.1c0,0,0,0,0,0
		C193,359.8,192.9,359.8,192.9,359.8z"/>
	<path d="M191,357.1C190.9,357.1,190.9,357.1,191,357.1l-0.1-0.6c0,0,0-0.1,0.1-0.1h3.2c0,0,0,0,0,0v-1.8c0,0,0-0.1,0.1-0.1h0.5
		c0,0,0.1,0,0.1,0.1v2.4c0,0,0,0.1-0.1,0.1H191z"/>
	<path d="M191.5,354C191.5,354,191.5,354.1,191.5,354l-0.5,0.1c0,0-0.1,0-0.1-0.1v-0.5c0,0,0-0.1,0.1-0.1h0.5c0,0,0.1,0,0.1,0.1V354
		z M194.8,354C194.8,354,194.8,354.1,194.8,354l-2.7,0.1c0,0-0.1,0-0.1-0.1v-0.5c0,0,0-0.1,0.1-0.1h2.6c0,0,0.1,0,0.1,0.1V354z"/>
	<path d="M194.8,351.9C194.8,351.9,194.8,351.9,194.8,351.9l-2.7,1c0,0-0.1,0-0.1,0v-0.6c0,0,0-0.1,0.1-0.1l1.8-0.6v0l-1.8-0.6
		c0,0-0.1,0-0.1-0.1v-0.5c0,0,0-0.1,0.1,0l2.6,1c0,0,0.1,0,0.1,0.1V351.9z"/>
	<path d="M194.1,349.9c-0.2,0.1-0.4,0.1-0.7,0.1c-0.3,0-0.5,0-0.7-0.1c-0.5-0.2-0.8-0.6-0.8-1.1c0-0.6,0.3-1,0.8-1.1
		c0.2-0.1,0.4-0.1,0.8-0.1c0,0,0.1,0,0.1,0.1v1.7c0,0,0,0,0,0c0.1,0,0.1,0,0.2,0c0.3-0.1,0.4-0.3,0.4-0.6c0-0.3-0.1-0.5-0.3-0.6
		c0,0,0-0.1,0-0.1l0.3-0.3c0,0,0.1,0,0.1,0c0.3,0.2,0.5,0.6,0.5,1.1C194.8,349.4,194.6,349.8,194.1,349.9z M192.9,348.3
		c-0.2,0.1-0.4,0.3-0.4,0.5c0,0.3,0.1,0.5,0.4,0.5c0.1,0,0.1,0,0.2,0c0,0,0,0,0,0v-1.1c0,0,0,0,0,0
		C193,348.2,192.9,348.2,192.9,348.3z"/>
	<path d="M193.6,346.7l-2.7,0.1c0,0-0.1,0-0.1-0.1v-0.6c0,0,0-0.1,0.1-0.1l2.7,0.1c0,0,0.1,0,0.1,0.1L193.6,346.7
		C193.7,346.7,193.7,346.7,193.6,346.7z M194.1,346.8C194.1,346.8,194.1,346.8,194.1,346.8l-0.1-0.6c0,0,0-0.1,0.1-0.1h0.6
		c0,0,0.1,0,0.1,0.1v0.6c0,0,0,0.1-0.1,0.1H194.1z"/>
	<path d="M194.8,342.1C194.8,342.1,194.8,342.2,194.8,342.1l-1.6,0.1c-0.4,0-0.6,0.2-0.6,0.5c0,0.3,0.2,0.5,0.6,0.5h1.6
		c0,0,0.1,0,0.1,0.1v0.5c0,0,0,0.1-0.1,0.1H191c0,0-0.1,0-0.1-0.1v-0.5c0,0,0-0.1,0.1-0.1h1.3v0c-0.2-0.1-0.3-0.4-0.3-0.7
		c0-0.6,0.4-0.9,1-0.9h1.7c0,0,0.1,0,0.1,0.1V342.1z"/>
	<path d="M194.8,339.1C194.8,339.1,194.8,339.1,194.8,339.1l-0.3,0.1v0c0.2,0.1,0.3,0.4,0.3,0.8c0,0.5-0.3,0.9-0.8,0.9
		c-0.6,0-0.9-0.4-0.9-1.1v-0.6c0,0,0,0,0,0H193c-0.3,0-0.5,0.1-0.5,0.6c0,0.3,0.1,0.5,0.2,0.6c0,0,0,0.1,0,0.1l-0.4,0.2
		c0,0-0.1,0-0.1,0c-0.2-0.2-0.3-0.5-0.3-1c0-0.8,0.3-1.1,1-1.1h1.8c0,0,0.1,0,0.1,0.1V339.1z M193.9,339.2h-0.2c0,0,0,0,0,0v0.5
		c0,0.4,0.1,0.6,0.4,0.6c0.2,0,0.3-0.2,0.3-0.5C194.3,339.4,194.2,339.2,193.9,339.2z"/>
	<path d="M194.4,337.9C194.4,337.9,194.3,337.9,194.4,337.9l-0.4-0.3c0,0,0-0.1,0-0.1c0.2-0.2,0.3-0.5,0.3-0.8
		c0-0.3-0.1-0.5-0.3-0.5c-0.2,0-0.3,0.1-0.3,0.5l0,0.3c-0.1,0.6-0.3,0.8-0.8,0.8c-0.5,0-0.9-0.4-0.9-1.1c0-0.4,0.1-0.8,0.3-1
		c0,0,0.1,0,0.1,0l0.3,0.3c0,0,0,0.1,0,0.1c-0.1,0.2-0.2,0.4-0.2,0.7c0,0.3,0.1,0.4,0.3,0.4c0.2,0,0.3-0.1,0.3-0.4l0-0.3
		c0.1-0.6,0.4-0.8,0.8-0.8c0.5,0,0.9,0.4,0.9,1.1C194.8,337.3,194.6,337.7,194.4,337.9z"/>
	<path d="M194.8,333.5C194.8,333.6,194.8,333.6,194.8,333.5l-2.7,0.1c0,0-0.1,0-0.1-0.1V333c0,0,0-0.1,0.1-0.1h0.2v0
		c-0.2-0.1-0.4-0.4-0.4-0.7c0-0.2,0.1-0.4,0.2-0.6c0,0,0.1,0,0.1,0l0.4,0.3c0,0,0,0,0,0.1c-0.1,0.1-0.1,0.3-0.1,0.4
		c0,0.4,0.3,0.5,0.7,0.5h1.5c0,0,0.1,0,0.1,0.1V333.5z"/>
	<path d="M194.1,331.3c-0.2,0.1-0.4,0.1-0.7,0.1c-0.3,0-0.5,0-0.7-0.1c-0.5-0.2-0.8-0.6-0.8-1.1c0-0.6,0.3-1,0.8-1.1
		c0.2-0.1,0.4-0.1,0.8-0.1c0,0,0.1,0,0.1,0.1v1.7c0,0,0,0,0,0c0.1,0,0.1,0,0.2,0c0.3-0.1,0.4-0.3,0.4-0.6s-0.1-0.5-0.3-0.6
		c0,0,0-0.1,0-0.1l0.3-0.3c0,0,0.1,0,0.1,0c0.3,0.2,0.5,0.6,0.5,1.1C194.8,330.7,194.6,331.1,194.1,331.3z M192.9,329.6
		c-0.2,0.1-0.4,0.3-0.4,0.5c0,0.3,0.1,0.5,0.4,0.5c0.1,0,0.1,0,0.2,0c0,0,0,0,0,0v-1.1c0,0,0,0,0,0
		C193,329.6,192.9,329.6,192.9,329.6z"/>
	<path d="M194.8,327.5c0,0.5-0.3,0.7-0.8,0.7h-3c0,0-0.1,0-0.1-0.1v-0.5c0,0,0-0.1,0.1-0.1h3c0.2,0,0.2-0.1,0.2-0.2v-0.1
		c0,0,0-0.1,0.1-0.1h0.5c0,0,0.1,0,0.1,0.1V327.5z"/>
	<path d="M194.1,326.7c-0.2,0.1-0.4,0.1-0.7,0.1c-0.3,0-0.5,0-0.7-0.1c-0.5-0.2-0.8-0.6-0.8-1.1c0-0.6,0.3-1,0.8-1.1
		c0.2-0.1,0.4-0.1,0.8-0.1c0,0,0.1,0,0.1,0.1v1.7c0,0,0,0,0,0c0.1,0,0.1,0,0.2,0c0.3-0.1,0.4-0.3,0.4-0.6s-0.1-0.5-0.3-0.6
		c0,0,0-0.1,0-0.1l0.3-0.3c0,0,0.1,0,0.1,0c0.3,0.2,0.5,0.6,0.5,1.1C194.8,326.1,194.6,326.5,194.1,326.7z M192.9,325
		c-0.2,0.1-0.4,0.3-0.4,0.5c0,0.3,0.1,0.5,0.4,0.5c0.1,0,0.1,0,0.2,0c0,0,0,0,0,0V325c0,0,0,0,0,0C193,325,192.9,325,192.9,325z"/>
	<path d="M194.8,322C194.8,322.1,194.8,322.1,194.8,322l-0.3,0.1v0c0.2,0.1,0.3,0.4,0.3,0.8c0,0.5-0.3,0.9-0.8,0.9
		c-0.6,0-0.9-0.4-0.9-1.1v-0.6c0,0,0,0,0,0H193c-0.3,0-0.5,0.1-0.5,0.6c0,0.3,0.1,0.5,0.2,0.6c0,0,0,0.1,0,0.1l-0.4,0.2
		c0,0-0.1,0-0.1,0c-0.2-0.2-0.3-0.5-0.3-1c0-0.8,0.3-1.1,1-1.1h1.8c0,0,0.1,0,0.1,0.1V322z M193.9,322.1h-0.2c0,0,0,0,0,0v0.5
		c0,0.4,0.1,0.6,0.4,0.6c0.2,0,0.3-0.2,0.3-0.5C194.3,322.3,194.2,322.1,193.9,322.1z"/>
	<path d="M194.4,320.9C194.4,320.9,194.3,320.9,194.4,320.9l-0.4-0.3c0,0,0-0.1,0-0.1c0.2-0.2,0.3-0.5,0.3-0.8
		c0-0.3-0.1-0.5-0.3-0.5c-0.2,0-0.3,0.1-0.3,0.5l0,0.3c-0.1,0.6-0.3,0.8-0.8,0.8c-0.5,0-0.9-0.4-0.9-1.1c0-0.4,0.1-0.8,0.3-1
		c0,0,0.1,0,0.1,0l0.3,0.3c0,0,0,0.1,0,0.1c-0.1,0.2-0.2,0.4-0.2,0.7c0,0.3,0.1,0.4,0.3,0.4c0.2,0,0.3-0.1,0.3-0.4l0-0.3
		c0.1-0.6,0.4-0.8,0.8-0.8c0.5,0,0.9,0.4,0.9,1.1C194.8,320.3,194.6,320.6,194.4,320.9z"/>
	<path d="M194.1,317.9c-0.2,0.1-0.4,0.1-0.7,0.1c-0.3,0-0.5,0-0.7-0.1c-0.5-0.2-0.8-0.6-0.8-1.1c0-0.6,0.3-1,0.8-1.1
		c0.2-0.1,0.4-0.1,0.8-0.1c0,0,0.1,0,0.1,0.1v1.7c0,0,0,0,0,0c0.1,0,0.1,0,0.2,0c0.3-0.1,0.4-0.3,0.4-0.6c0-0.3-0.1-0.5-0.3-0.6
		c0,0,0-0.1,0-0.1l0.3-0.3c0,0,0.1,0,0.1,0c0.3,0.2,0.5,0.6,0.5,1.1C194.8,317.4,194.6,317.8,194.1,317.9z M192.9,316.3
		c-0.2,0.1-0.4,0.3-0.4,0.5c0,0.3,0.1,0.5,0.4,0.5c0.1,0,0.1,0,0.2,0c0,0,0,0,0,0v-1.1c0,0,0,0,0,0
		C193,316.2,192.9,316.3,192.9,316.3z"/>
	<path d="M194.8,313.2C194.8,313.3,194.8,313.3,194.8,313.2l-0.3,0.1v0c0.2,0.1,0.3,0.4,0.3,0.7c0,0.5-0.2,0.8-0.7,0.9
		c-0.2,0.1-0.4,0.1-0.8,0.1c-0.4,0-0.6,0-0.8-0.1c-0.4-0.1-0.7-0.5-0.7-0.9c0-0.4,0.1-0.6,0.3-0.7v0H191c0,0-0.1,0-0.1-0.1v-0.5
		c0,0,0-0.1,0.1-0.1h3.7c0,0,0.1,0,0.1,0.1V313.2z M193.9,313.4c-0.1,0-0.3-0.1-0.5-0.1c-0.2,0-0.4,0-0.5,0.1
		c-0.2,0.1-0.4,0.2-0.4,0.5c0,0.3,0.1,0.4,0.4,0.5c0.1,0,0.3,0.1,0.5,0.1c0.2,0,0.4,0,0.5-0.1c0.2-0.1,0.3-0.2,0.3-0.5
		C194.3,313.6,194.1,313.4,193.9,313.4z"/>
	<path d="M194.8,307.1C194.8,307.1,194.8,307.1,194.8,307.1l-1.6,0.1c-0.4,0-0.6,0.2-0.6,0.5c0,0.3,0.2,0.5,0.6,0.5h1.6
		c0,0,0.1,0,0.1,0.1v0.5c0,0,0,0.1-0.1,0.1h-1.6c-0.4,0-0.6,0.2-0.6,0.5c0,0.3,0.2,0.5,0.6,0.5h1.6c0,0,0.1,0,0.1,0.1v0.5
		c0,0,0,0.1-0.1,0.1h-2.6c0,0-0.1,0-0.1-0.1v-0.5c0,0,0-0.1,0.1-0.1h0.2v0c-0.2-0.1-0.3-0.4-0.3-0.7c0-0.3,0.1-0.6,0.4-0.8v0
		c-0.2-0.2-0.4-0.5-0.4-0.9c0-0.6,0.4-1,1-1h1.7c0,0,0.1,0,0.1,0.1V307.1z"/>
	<path d="M194.8,304C194.8,304.1,194.8,304.1,194.8,304l-0.3,0.1v0c0.2,0.1,0.3,0.4,0.3,0.7c0,0.6-0.4,0.9-1,0.9h-1.7
		c0,0-0.1,0-0.1-0.1v-0.5c0,0,0-0.1,0.1-0.1h1.6c0.3,0,0.6-0.2,0.6-0.5c0-0.3-0.2-0.5-0.6-0.5h-1.6c0,0-0.1,0-0.1-0.1v-0.5
		c0,0,0-0.1,0.1-0.1h2.6c0,0,0.1,0,0.1,0.1V304z"/>
	<path d="M194.4,302.8C194.4,302.8,194.3,302.8,194.4,302.8l-0.4-0.3c0,0,0-0.1,0-0.1c0.2-0.2,0.3-0.5,0.3-0.8
		c0-0.3-0.1-0.5-0.3-0.5c-0.2,0-0.3,0.1-0.3,0.5l0,0.3c-0.1,0.6-0.3,0.8-0.8,0.8c-0.5,0-0.9-0.4-0.9-1.1c0-0.4,0.1-0.8,0.3-1
		c0,0,0.1,0,0.1,0l0.3,0.3c0,0,0,0.1,0,0.1c-0.1,0.2-0.2,0.4-0.2,0.7c0,0.3,0.1,0.4,0.3,0.4c0.2,0,0.3-0.1,0.3-0.4l0-0.3
		c0.1-0.6,0.4-0.8,0.8-0.8c0.5,0,0.9,0.4,0.9,1.1C194.8,302.2,194.6,302.6,194.4,302.8z"/>
	<path d="M191.5,299.7C191.5,299.8,191.5,299.8,191.5,299.7l-0.5,0.1c0,0-0.1,0-0.1-0.1v-0.5c0,0,0-0.1,0.1-0.1h0.5
		c0,0,0.1,0,0.1,0.1V299.7z M194.8,299.7C194.8,299.8,194.8,299.8,194.8,299.7l-2.7,0.1c0,0-0.1,0-0.1-0.1v-0.5c0,0,0-0.1,0.1-0.1
		h2.6c0,0,0.1,0,0.1,0.1V299.7z"/>
	<path d="M194.1,298.4c-0.2,0.1-0.4,0.1-0.7,0.1c-0.3,0-0.5,0-0.7-0.1c-0.5-0.2-0.8-0.6-0.8-1.1c0-0.4,0.2-0.7,0.4-0.9
		c0,0,0.1,0,0.1,0l0.3,0.4c0,0,0,0.1,0,0.1c-0.2,0.1-0.2,0.3-0.2,0.5c0,0.2,0.1,0.4,0.4,0.5c0.1,0,0.3,0.1,0.5,0.1
		c0.2,0,0.4,0,0.5-0.1c0.2-0.1,0.3-0.3,0.3-0.5c0-0.2-0.1-0.4-0.2-0.5c0,0,0-0.1,0-0.1l0.3-0.4c0,0,0.1,0,0.1,0
		c0.3,0.2,0.4,0.5,0.4,0.9C194.8,297.8,194.6,298.2,194.1,298.4z"/>
	<path d="M192.8,294.4c-0.6,0-0.8,0-1-0.1c-0.6-0.2-0.9-0.7-0.9-1.3c0-0.6,0.3-1.1,0.8-1.3c0,0,0.1,0,0.1,0l0.2,0.5c0,0,0,0.1,0,0.1
		c-0.3,0.1-0.5,0.3-0.5,0.7c0,0.4,0.2,0.6,0.5,0.7c0.2,0.1,0.3,0.1,0.9,0.1c0.6,0,0.7,0,0.9-0.1c0.3-0.1,0.5-0.3,0.5-0.7
		c0-0.4-0.2-0.6-0.5-0.7c0,0,0,0,0-0.1l0.2-0.5c0,0,0,0,0.1,0c0.5,0.2,0.8,0.7,0.8,1.3c0,0.7-0.3,1.1-0.9,1.3
		C193.7,294.4,193.5,294.4,192.8,294.4z"/>
	<path d="M191,291C190.9,291,190.9,291,191,291l-0.1-1.4c0-0.7,0.3-1.1,0.9-1.3c0.2-0.1,0.4-0.1,1.1-0.1c0.7,0,0.9,0,1.1,0.1
		c0.6,0.2,0.9,0.6,0.9,1.3v1.4c0,0,0,0.1-0.1,0.1H191z M194.2,290.3v-0.6c0-0.4-0.1-0.7-0.5-0.8c-0.1,0-0.3-0.1-0.8-0.1
		c-0.6,0-0.7,0-0.8,0.1c-0.3,0.1-0.5,0.4-0.5,0.8v0.6c0,0,0,0,0,0L194.2,290.3C194.2,290.4,194.2,290.3,194.2,290.3z"/>
	<path d="M191.9,287.6h-1c0,0-0.1,0-0.1-0.1v-0.3c0,0,0-0.1,0.1-0.1h1c0,0,0.1,0,0.1,0.1L191.9,287.6
		C192,287.5,192,287.6,191.9,287.6z"/>
	<path d="M194.4,286.5C194.4,286.5,194.3,286.5,194.4,286.5l-0.4-0.3c0,0,0-0.1,0-0.1c0.2-0.2,0.3-0.5,0.3-0.8
		c0-0.3-0.1-0.5-0.3-0.5c-0.2,0-0.3,0.1-0.3,0.5l0,0.3c-0.1,0.6-0.3,0.8-0.8,0.8c-0.5,0-0.9-0.4-0.9-1.1c0-0.4,0.1-0.8,0.3-1
		c0,0,0.1,0,0.1,0l0.3,0.3c0,0,0,0.1,0,0.1c-0.1,0.2-0.2,0.4-0.2,0.7c0,0.3,0.1,0.4,0.3,0.4c0.2,0,0.3-0.1,0.3-0.4l0-0.3
		c0.1-0.6,0.4-0.8,0.8-0.8c0.5,0,0.9,0.4,0.9,1.1C194.8,285.9,194.6,286.3,194.4,286.5z"/>
	<path d="M194.1,283.5C194.1,283.5,194.1,283.5,194.1,283.5l-0.1-0.6c0,0,0-0.1,0.1-0.1h0.6c0.1,0,0.1,0,0.1,0l0.5,0.5
		c0,0,0,0,0,0.1c0,0,0,0.1-0.1,0.1H194.1z"/>
	<path d="M194.8,279.3C194.8,279.3,194.8,279.3,194.8,279.3l-0.3,0.1v0c0.2,0.1,0.3,0.4,0.3,0.8c0,0.5-0.3,0.9-0.8,0.9
		c-0.6,0-0.9-0.4-0.9-1.1v-0.6c0,0,0,0,0,0H193c-0.3,0-0.5,0.1-0.5,0.6c0,0.3,0.1,0.5,0.2,0.6c0,0,0,0.1,0,0.1l-0.4,0.2
		c0,0-0.1,0-0.1,0c-0.2-0.2-0.3-0.5-0.3-1c0-0.8,0.3-1.1,1-1.1h1.8c0,0,0.1,0,0.1,0.1V279.3z M193.9,279.3h-0.2c0,0,0,0,0,0v0.5
		c0,0.4,0.1,0.6,0.4,0.6c0.2,0,0.3-0.2,0.3-0.5C194.3,279.5,194.2,279.3,193.9,279.3z"/>
	<path d="M194.8,276.2C194.8,276.2,194.8,276.2,194.8,276.2l-1.6,0.1c-0.4,0-0.6,0.2-0.6,0.5c0,0.3,0.2,0.5,0.6,0.5h1.6
		c0,0,0.1,0,0.1,0.1v0.5c0,0,0,0.1-0.1,0.1h-2.6c0,0-0.1,0-0.1-0.1v-0.5c0,0,0-0.1,0.1-0.1h0.2v0c-0.2-0.1-0.3-0.4-0.3-0.7
		c0-0.6,0.4-0.9,1-0.9h1.7c0,0,0.1,0,0.1,0.1V276.2z"/>
	<path d="M191.5,274.7C191.5,274.8,191.5,274.8,191.5,274.7l-0.5,0.1c0,0-0.1,0-0.1-0.1v-0.5c0,0,0-0.1,0.1-0.1h0.5
		c0,0,0.1,0,0.1,0.1V274.7z M194.8,274.7C194.8,274.8,194.8,274.8,194.8,274.7l-2.7,0.1c0,0-0.1,0-0.1-0.1v-0.5c0,0,0-0.1,0.1-0.1
		h2.6c0,0,0.1,0,0.1,0.1V274.7z"/>
	<path d="M194.8,269.9C194.8,270,194.8,270,194.8,269.9l-1.6,0.1c-0.4,0-0.6,0.2-0.6,0.5c0,0.3,0.2,0.5,0.6,0.5h1.6
		c0,0,0.1,0,0.1,0.1v0.5c0,0,0,0.1-0.1,0.1h-1.6c-0.4,0-0.6,0.2-0.6,0.5c0,0.3,0.2,0.5,0.6,0.5h1.6c0,0,0.1,0,0.1,0.1v0.5
		c0,0,0,0.1-0.1,0.1h-2.6c0,0-0.1,0-0.1-0.1v-0.5c0,0,0-0.1,0.1-0.1h0.2v0c-0.2-0.1-0.3-0.4-0.3-0.7c0-0.3,0.1-0.6,0.4-0.7v0
		c-0.2-0.2-0.4-0.5-0.4-0.9c0-0.6,0.4-1,1-1h1.7c0,0,0.1,0,0.1,0.1V269.9z"/>
	<path d="M194.1,268.6c-0.2,0.1-0.4,0.1-0.7,0.1c-0.3,0-0.5,0-0.7-0.1c-0.5-0.2-0.8-0.6-0.8-1.1c0-0.6,0.3-1,0.8-1.1
		c0.2-0.1,0.4-0.1,0.8-0.1c0,0,0.1,0,0.1,0.1v1.7c0,0,0,0,0,0c0.1,0,0.1,0,0.2,0c0.3-0.1,0.4-0.3,0.4-0.6c0-0.3-0.1-0.5-0.3-0.6
		c0,0,0-0.1,0-0.1l0.3-0.3c0,0,0.1,0,0.1,0c0.3,0.2,0.5,0.6,0.5,1.1C194.8,268,194.6,268.5,194.1,268.6z M192.9,267
		c-0.2,0.1-0.4,0.3-0.4,0.5c0,0.3,0.1,0.5,0.4,0.5c0.1,0,0.1,0,0.2,0c0,0,0,0,0,0V267c0,0,0,0,0,0C193,266.9,192.9,266.9,192.9,267z
		"/>
	<path d="M194.8,260.9C194.8,260.9,194.8,260.9,194.8,260.9l-1.6,0.1c-0.4,0-0.6,0.2-0.6,0.5c0,0.3,0.2,0.5,0.6,0.5h1.6
		c0,0,0.1,0,0.1,0.1v0.5c0,0,0,0.1-0.1,0.1h-1.6c-0.4,0-0.6,0.2-0.6,0.5c0,0.3,0.2,0.5,0.6,0.5h1.6c0,0,0.1,0,0.1,0.1v0.5
		c0,0,0,0.1-0.1,0.1h-2.6c0,0-0.1,0-0.1-0.1v-0.5c0,0,0-0.1,0.1-0.1h0.2v0c-0.2-0.1-0.3-0.4-0.3-0.7c0-0.3,0.1-0.6,0.4-0.7v0
		c-0.2-0.2-0.4-0.5-0.4-0.9c0-0.6,0.4-1,1-1h1.7c0,0,0.1,0,0.1,0.1V260.9z"/>
	<path d="M194.8,257.8C194.8,257.8,194.8,257.9,194.8,257.8l-0.3,0.1v0c0.2,0.1,0.3,0.4,0.3,0.7c0,0.6-0.4,0.9-1,0.9h-1.7
		c0,0-0.1,0-0.1-0.1v-0.5c0,0,0-0.1,0.1-0.1h1.6c0.3,0,0.6-0.2,0.6-0.5c0-0.3-0.2-0.5-0.6-0.5h-1.6c0,0-0.1,0-0.1-0.1v-0.5
		c0,0,0-0.1,0.1-0.1h2.6c0,0,0.1,0,0.1,0.1V257.8z"/>
	<path d="M194.4,256.6C194.4,256.6,194.3,256.6,194.4,256.6l-0.4-0.3c0,0,0-0.1,0-0.1c0.2-0.2,0.3-0.5,0.3-0.8
		c0-0.3-0.1-0.5-0.3-0.5c-0.2,0-0.3,0.1-0.3,0.5l0,0.3c-0.1,0.6-0.3,0.8-0.8,0.8c-0.5,0-0.9-0.4-0.9-1.1c0-0.4,0.1-0.8,0.3-1
		c0,0,0.1,0,0.1,0l0.3,0.3c0,0,0,0.1,0,0.1c-0.1,0.2-0.2,0.4-0.2,0.7c0,0.3,0.1,0.4,0.3,0.4c0.2,0,0.3-0.1,0.3-0.4l0-0.3
		c0.1-0.6,0.4-0.8,0.8-0.8c0.5,0,0.9,0.4,0.9,1.1C194.8,255.9,194.6,256.3,194.4,256.6z"/>
	<path d="M191.5,253.5C191.5,253.5,191.5,253.6,191.5,253.5l-0.5,0.1c0,0-0.1,0-0.1-0.1V253c0,0,0-0.1,0.1-0.1h0.5
		c0,0,0.1,0,0.1,0.1V253.5z M194.8,253.5C194.8,253.5,194.8,253.6,194.8,253.5l-2.7,0.1c0,0-0.1,0-0.1-0.1V253c0,0,0-0.1,0.1-0.1
		h2.6c0,0,0.1,0,0.1,0.1V253.5z"/>
	<path d="M194.1,252.2c-0.2,0.1-0.4,0.1-0.7,0.1c-0.3,0-0.5,0-0.7-0.1c-0.5-0.2-0.8-0.6-0.8-1.1c0-0.4,0.2-0.7,0.4-0.9
		c0,0,0.1,0,0.1,0l0.3,0.4c0,0,0,0.1,0,0.1c-0.2,0.1-0.2,0.3-0.2,0.5c0,0.2,0.1,0.4,0.4,0.5c0.1,0,0.3,0.1,0.5,0.1
		c0.2,0,0.4,0,0.5-0.1c0.2-0.1,0.3-0.3,0.3-0.5c0-0.2-0.1-0.4-0.2-0.5c0,0,0,0,0-0.1l0.3-0.4c0,0,0.1,0,0.1,0
		c0.3,0.2,0.4,0.5,0.4,0.9C194.8,251.6,194.6,252,194.1,252.2z"/>
	<path d="M194.8,247.3C194.8,247.4,194.8,247.4,194.8,247.3l-2.7,1c0,0-0.1,0-0.1,0v-0.6c0,0,0-0.1,0.1-0.1l1.8-0.6v0l-1.8-0.6
		c0,0-0.1,0-0.1-0.1v-0.5c0,0,0-0.1,0.1,0l2.6,1c0,0,0.1,0,0.1,0.1V247.3z"/>
	<path d="M191.5,245.3C191.5,245.3,191.5,245.3,191.5,245.3l-0.5,0.1c0,0-0.1,0-0.1-0.1v-0.5c0,0,0-0.1,0.1-0.1h0.5
		c0,0,0.1,0,0.1,0.1V245.3z M194.8,245.3C194.8,245.3,194.8,245.3,194.8,245.3l-2.7,0.1c0,0-0.1,0-0.1-0.1v-0.5c0,0,0-0.1,0.1-0.1
		h2.6c0,0,0.1,0,0.1,0.1V245.3z"/>
	<path d="M194.8,242.2C194.8,242.2,194.8,242.2,194.8,242.2l-0.3,0.1v0c0.2,0.1,0.3,0.4,0.3,0.7c0,0.5-0.2,0.8-0.7,0.9
		c-0.2,0.1-0.4,0.1-0.8,0.1c-0.4,0-0.6,0-0.8-0.1c-0.4-0.1-0.7-0.5-0.7-0.9c0-0.4,0.1-0.6,0.3-0.7v0H191c0,0-0.1,0-0.1-0.1v-0.5
		c0,0,0-0.1,0.1-0.1h3.7c0,0,0.1,0,0.1,0.1V242.2z M193.9,242.3c-0.1,0-0.3-0.1-0.5-0.1c-0.2,0-0.4,0-0.5,0.1
		c-0.2,0.1-0.4,0.2-0.4,0.5c0,0.3,0.1,0.4,0.4,0.5c0.1,0,0.3,0.1,0.5,0.1c0.2,0,0.4,0,0.5-0.1c0.2-0.1,0.3-0.2,0.3-0.5
		C194.3,242.5,194.1,242.3,193.9,242.3z"/>
	<path d="M194.1,240.8c-0.2,0.1-0.4,0.1-0.7,0.1c-0.3,0-0.5,0-0.7-0.1c-0.5-0.2-0.8-0.6-0.8-1.1c0-0.6,0.3-1,0.8-1.1
		c0.2-0.1,0.4-0.1,0.8-0.1c0,0,0.1,0,0.1,0.1v1.7c0,0,0,0,0,0c0.1,0,0.1,0,0.2,0c0.3-0.1,0.4-0.3,0.4-0.6c0-0.3-0.1-0.5-0.3-0.6
		c0,0,0-0.1,0-0.1l0.3-0.3c0,0,0.1,0,0.1,0c0.3,0.2,0.5,0.6,0.5,1.1C194.8,240.2,194.6,240.6,194.1,240.8z M192.9,239.2
		c-0.2,0.1-0.4,0.3-0.4,0.5c0,0.3,0.1,0.5,0.4,0.5c0.1,0,0.1,0,0.2,0c0,0,0,0,0,0v-1.1c0,0,0,0,0,0
		C193,239.1,192.9,239.1,192.9,239.2z"/>
	<path d="M194.1,237.9c-0.2,0.1-0.4,0.1-0.7,0.1c-0.3,0-0.5,0-0.7-0.1c-0.5-0.2-0.8-0.6-0.8-1.1c0-0.5,0.3-1,0.8-1.1
		c0.2-0.1,0.4-0.1,0.7-0.1c0.3,0,0.5,0,0.7,0.1c0.5,0.2,0.8,0.6,0.8,1.1C194.8,237.3,194.6,237.7,194.1,237.9z M193.9,236.2
		c-0.1,0-0.3-0.1-0.5-0.1s-0.4,0-0.5,0.1c-0.2,0.1-0.4,0.3-0.4,0.5s0.1,0.4,0.4,0.5c0.1,0,0.3,0.1,0.5,0.1s0.4,0,0.5-0.1
		c0.2-0.1,0.4-0.3,0.4-0.5S194.1,236.3,193.9,236.2z"/>
	<path d="M194.4,235C194.4,235,194.3,235,194.4,235l-0.4-0.3c0,0,0-0.1,0-0.1c0.2-0.2,0.3-0.5,0.3-0.8c0-0.3-0.1-0.5-0.3-0.5
		c-0.2,0-0.3,0.1-0.3,0.5l0,0.3c-0.1,0.6-0.3,0.8-0.8,0.8c-0.5,0-0.9-0.4-0.9-1.1c0-0.4,0.1-0.8,0.3-1c0,0,0.1,0,0.1,0l0.3,0.3
		c0,0,0,0,0,0.1c-0.1,0.2-0.2,0.4-0.2,0.7c0,0.3,0.1,0.4,0.3,0.4c0.2,0,0.3-0.1,0.3-0.4l0-0.3c0.1-0.6,0.4-0.8,0.8-0.8
		c0.5,0,0.9,0.4,0.9,1.1C194.8,234.4,194.6,234.8,194.4,235z"/>
	<path d="M194.1,232C194.1,232,194.1,232,194.1,232l-0.1-0.6c0,0,0-0.1,0.1-0.1h0.6c0.1,0,0.1,0,0.1,0l0.5,0.5c0,0,0,0.1,0,0.1
		c0,0,0,0.1-0.1,0.1H194.1z"/>
	<path d="M201.6,368.6C201.6,368.6,201.6,368.7,201.6,368.6l-0.3,0.1v0c0.2,0.1,0.3,0.4,0.3,0.8c0,0.5-0.3,0.9-0.8,0.9
		c-0.6,0-0.9-0.4-0.9-1.1v-0.6c0,0,0,0,0,0h-0.1c-0.3,0-0.5,0.1-0.5,0.6c0,0.3,0.1,0.5,0.2,0.6c0,0,0,0.1,0,0.1l-0.4,0.2
		c0,0-0.1,0-0.1,0c-0.2-0.2-0.3-0.5-0.3-1c0-0.8,0.3-1.1,1-1.1h1.8c0,0,0.1,0,0.1,0.1V368.6z M200.7,368.7h-0.2c0,0,0,0,0,0v0.5
		c0,0.4,0.1,0.6,0.4,0.6c0.2,0,0.3-0.2,0.3-0.5C201.1,368.9,201,368.7,200.7,368.7z"/>
	<path d="M201.6,362.5C201.6,362.6,201.6,362.6,201.6,362.5l-1.6,0.1c-0.4,0-0.6,0.2-0.6,0.5c0,0.3,0.2,0.5,0.6,0.5h1.6
		c0,0,0.1,0,0.1,0.1v0.5c0,0,0,0.1-0.1,0.1H200c-0.4,0-0.6,0.2-0.6,0.5c0,0.3,0.2,0.5,0.6,0.5h1.6c0,0,0.1,0,0.1,0.1v0.5
		c0,0,0,0.1-0.1,0.1h-2.6c0,0-0.1,0-0.1-0.1v-0.5c0,0,0-0.1,0.1-0.1h0.2v0c-0.2-0.1-0.3-0.4-0.3-0.7c0-0.3,0.1-0.6,0.4-0.7v0
		c-0.2-0.2-0.4-0.5-0.4-0.9c0-0.6,0.4-1,1-1h1.7c0,0,0.1,0,0.1,0.1V362.5z"/>
	<path d="M201.6,359.5C201.6,359.5,201.6,359.6,201.6,359.5l-0.3,0.1v0c0.2,0.1,0.3,0.4,0.3,0.8c0,0.5-0.3,0.9-0.8,0.9
		c-0.6,0-0.9-0.4-0.9-1.1v-0.6c0,0,0,0,0,0h-0.1c-0.3,0-0.5,0.1-0.5,0.6c0,0.3,0.1,0.5,0.2,0.6c0,0,0,0.1,0,0.1l-0.4,0.2
		c0,0-0.1,0-0.1,0c-0.2-0.2-0.3-0.5-0.3-1c0-0.8,0.3-1.1,1-1.1h1.8c0,0,0.1,0,0.1,0.1V359.5z M200.7,359.6h-0.2c0,0,0,0,0,0v0.5
		c0,0.4,0.1,0.6,0.4,0.6c0.2,0,0.3-0.2,0.3-0.5C201.1,359.8,201,359.6,200.7,359.6z"/>
	<path d="M201.6,356.4C201.6,356.5,201.6,356.5,201.6,356.4l-1.6,0.1c-0.4,0-0.6,0.2-0.6,0.5c0,0.3,0.2,0.5,0.6,0.5h1.6
		c0,0,0.1,0,0.1,0.1v0.5c0,0,0,0.1-0.1,0.1h-2.6c0,0-0.1,0-0.1-0.1v-0.5c0,0,0-0.1,0.1-0.1h0.2v0c-0.2-0.1-0.3-0.4-0.3-0.7
		c0-0.6,0.4-0.9,1-0.9h1.7c0,0,0.1,0,0.1,0.1V356.4z"/>
	<path d="M202.3,355.1C202.2,355.1,202.2,355.1,202.3,355.1l-0.4-0.3c0,0,0-0.1,0-0.1c0.2-0.2,0.3-0.4,0.3-0.6
		c0-0.4-0.2-0.6-0.7-0.6h-0.3v0c0.2,0.1,0.3,0.4,0.3,0.7c0,0.5-0.2,0.8-0.7,0.9c-0.2,0.1-0.4,0.1-0.7,0.1c-0.3,0-0.5,0-0.7-0.1
		c-0.4-0.1-0.7-0.5-0.7-0.9c0-0.4,0.1-0.6,0.3-0.7v0h-0.2c0,0-0.1,0-0.1-0.1v-0.5c0,0,0-0.1,0.1-0.1h2.5c0.8,0,1.3,0.4,1.3,1.3
		C202.7,354.5,202.5,354.9,202.3,355.1z M200.6,353.5c-0.1,0-0.3-0.1-0.5-0.1c-0.2,0-0.3,0-0.4,0.1c-0.2,0.1-0.3,0.2-0.3,0.5
		c0,0.3,0.1,0.4,0.3,0.5c0.1,0,0.3,0.1,0.4,0.1c0.2,0,0.3,0,0.5-0.1c0.2-0.1,0.4-0.2,0.4-0.5C200.9,353.8,200.8,353.6,200.6,353.5z"
		/>
	<path d="M201.6,350.4C201.6,350.4,201.6,350.4,201.6,350.4l-0.3,0.1v0c0.2,0.1,0.3,0.4,0.3,0.8c0,0.5-0.3,0.9-0.8,0.9
		c-0.6,0-0.9-0.4-0.9-1.1v-0.6c0,0,0,0,0,0h-0.1c-0.3,0-0.5,0.1-0.5,0.6c0,0.3,0.1,0.5,0.2,0.6c0,0,0,0.1,0,0.1l-0.4,0.2
		c0,0-0.1,0-0.1,0c-0.2-0.2-0.3-0.5-0.3-1c0-0.8,0.3-1.1,1-1.1h1.8c0,0,0.1,0,0.1,0.1V350.4z M200.7,350.5h-0.2c0,0,0,0,0,0v0.5
		c0,0.4,0.1,0.6,0.4,0.6c0.2,0,0.3-0.2,0.3-0.5C201.1,350.7,201,350.5,200.7,350.5z"/>
	<path d="M201.6,346.1C201.6,346.1,201.6,346.1,201.6,346.1l-0.3,0.1v0c0.2,0.1,0.3,0.4,0.3,0.8c0,0.5-0.3,0.9-0.8,0.9
		c-0.6,0-0.9-0.4-0.9-1.1v-0.6c0,0,0,0,0,0h-0.1c-0.3,0-0.5,0.1-0.5,0.6c0,0.3,0.1,0.5,0.2,0.6c0,0,0,0.1,0,0.1l-0.4,0.2
		c0,0-0.1,0-0.1,0c-0.2-0.2-0.3-0.5-0.3-1c0-0.8,0.3-1.1,1-1.1h1.8c0,0,0.1,0,0.1,0.1V346.1z M200.7,346.1h-0.2c0,0,0,0,0,0v0.5
		c0,0.4,0.1,0.6,0.4,0.6c0.2,0,0.3-0.2,0.3-0.5C201.1,346.4,201,346.1,200.7,346.1z"/>
	<path d="M201.6,343.1C201.6,343.1,201.6,343.1,201.6,343.1l-0.3,0.1v0c0.2,0.1,0.3,0.4,0.3,0.7c0,0.5-0.2,0.8-0.7,0.9
		c-0.2,0.1-0.4,0.1-0.8,0.1c-0.4,0-0.6,0-0.8-0.1c-0.4-0.1-0.7-0.5-0.7-0.9c0-0.4,0.1-0.6,0.3-0.7v0h-1.3c0,0-0.1,0-0.1-0.1v-0.5
		c0,0,0-0.1,0.1-0.1h3.7c0,0,0.1,0,0.1,0.1V343.1z M200.7,343.2c-0.1,0-0.3-0.1-0.5-0.1c-0.2,0-0.4,0-0.5,0.1
		c-0.2,0.1-0.4,0.2-0.4,0.5c0,0.3,0.1,0.4,0.4,0.5c0.1,0,0.3,0.1,0.5,0.1c0.2,0,0.4,0,0.5-0.1c0.2-0.1,0.4-0.3,0.4-0.5
		C201.1,343.4,201,343.2,200.7,343.2z"/>
	<path d="M201.6,340C201.6,340.1,201.6,340.1,201.6,340l-0.3,0.1v0c0.2,0.1,0.3,0.4,0.3,0.8c0,0.5-0.3,0.9-0.8,0.9
		c-0.6,0-0.9-0.4-0.9-1.1v-0.6c0,0,0,0,0,0h-0.1c-0.3,0-0.5,0.1-0.5,0.6c0,0.3,0.1,0.5,0.2,0.6c0,0,0,0.1,0,0.1l-0.4,0.2
		c0,0-0.1,0-0.1,0c-0.2-0.2-0.3-0.5-0.3-1c0-0.8,0.3-1.1,1-1.1h1.8c0,0,0.1,0,0.1,0.1V340z M200.7,340.1h-0.2c0,0,0,0,0,0v0.5
		c0,0.4,0.1,0.6,0.4,0.6c0.2,0,0.3-0.2,0.3-0.5C201.1,340.3,201,340.1,200.7,340.1z"/>
	<path d="M202.6,338.6C202.6,338.7,202.6,338.7,202.6,338.6l-3.7,0.1c0,0-0.1,0-0.1-0.1v-0.5c0,0,0-0.1,0.1-0.1h0.2v0
		c-0.2-0.1-0.3-0.4-0.3-0.7c0-0.5,0.2-0.8,0.7-0.9c0.2-0.1,0.4-0.1,0.8-0.1c0.4,0,0.6,0,0.8,0.1c0.4,0.1,0.7,0.5,0.7,0.9
		c0,0.4-0.1,0.6-0.3,0.7v0h1.2c0,0,0.1,0,0.1,0.1V338.6z M200.7,337c-0.1,0-0.3-0.1-0.5-0.1c-0.2,0-0.4,0-0.5,0.1
		c-0.2,0.1-0.4,0.2-0.4,0.5c0,0.3,0.1,0.4,0.4,0.5c0.1,0,0.3,0.1,0.5,0.1c0.2,0,0.4,0,0.5-0.1c0.2-0.1,0.4-0.2,0.4-0.5
		C201.1,337.2,201,337,200.7,337z"/>
	<path d="M201.6,334.8c0,0.5-0.3,0.8-0.8,0.8h-1.4c0,0,0,0,0,0v0.2c0,0,0,0.1-0.1,0.1h-0.4c0,0-0.1,0-0.1-0.1v-0.2c0,0,0,0,0,0h-0.7
		c0,0-0.1,0-0.1-0.1V335c0,0,0-0.1,0.1-0.1h0.7c0,0,0,0,0,0v-0.4c0,0,0-0.1,0.1-0.1h0.4c0,0,0.1,0,0.1,0.1v0.4c0,0,0,0,0,0h1.4
		c0.2,0,0.3-0.1,0.3-0.3v-0.1c0,0,0-0.1,0.1-0.1h0.5c0,0,0.1,0,0.1,0.1V334.8z"/>
	<path d="M198.3,333.7C198.3,333.7,198.3,333.8,198.3,333.7l-0.5,0.1c0,0-0.1,0-0.1-0.1v-0.5c0,0,0-0.1,0.1-0.1h0.5
		c0,0,0.1,0,0.1,0.1V333.7z M201.6,333.7C201.6,333.7,201.6,333.8,201.6,333.7l-2.7,0.1c0,0-0.1,0-0.1-0.1v-0.5c0,0,0-0.1,0.1-0.1
		h2.6c0,0,0.1,0,0.1,0.1V333.7z"/>
	<path d="M200.9,332.4c-0.2,0.1-0.4,0.1-0.7,0.1c-0.3,0-0.5,0-0.7-0.1c-0.5-0.2-0.8-0.6-0.8-1.1c0-0.5,0.3-1,0.8-1.1
		c0.2-0.1,0.4-0.1,0.7-0.1c0.3,0,0.5,0,0.7,0.1c0.5,0.2,0.8,0.6,0.8,1.1C201.6,331.8,201.4,332.2,200.9,332.4z M200.7,330.7
		c-0.1,0-0.3-0.1-0.5-0.1s-0.4,0-0.5,0.1c-0.2,0.1-0.4,0.3-0.4,0.5s0.1,0.4,0.4,0.5c0.1,0,0.3,0.1,0.5,0.1s0.4,0,0.5-0.1
		c0.2-0.1,0.4-0.3,0.4-0.5S200.9,330.8,200.7,330.7z"/>
	<path d="M201.6,327.6C201.6,327.6,201.6,327.7,201.6,327.6l-1.6,0.1c-0.4,0-0.6,0.2-0.6,0.5c0,0.3,0.2,0.5,0.6,0.5h1.6
		c0,0,0.1,0,0.1,0.1v0.5c0,0,0,0.1-0.1,0.1h-2.6c0,0-0.1,0-0.1-0.1v-0.5c0,0,0-0.1,0.1-0.1h0.2v0c-0.2-0.1-0.3-0.4-0.3-0.7
		c0-0.6,0.4-0.9,1-0.9h1.7c0,0,0.1,0,0.1,0.1V327.6z"/>
	<path d="M200.9,326.3C200.9,326.3,200.9,326.2,200.9,326.3l-0.1-0.6c0,0,0-0.1,0.1-0.1h0.6c0.1,0,0.1,0,0.1,0l0.5,0.5
		c0,0,0,0,0,0.1c0,0,0,0.1-0.1,0.1H200.9z"/>
	<path d="M201.6,322C201.6,322,201.6,322,201.6,322l-0.3,0.1v0c0.2,0.1,0.3,0.4,0.3,0.8c0,0.5-0.3,0.9-0.8,0.9
		c-0.6,0-0.9-0.4-0.9-1.1v-0.6c0,0,0,0,0,0h-0.1c-0.3,0-0.5,0.1-0.5,0.6c0,0.3,0.1,0.5,0.2,0.6c0,0,0,0.1,0,0.1l-0.4,0.2
		c0,0-0.1,0-0.1,0c-0.2-0.2-0.3-0.5-0.3-1c0-0.8,0.3-1.1,1-1.1h1.8c0,0,0.1,0,0.1,0.1V322z M200.7,322h-0.2c0,0,0,0,0,0v0.5
		c0,0.4,0.1,0.6,0.4,0.6c0.2,0,0.3-0.2,0.3-0.5C201.1,322.3,201,322,200.7,322z"/>
	<path d="M201.6,318.6C201.6,318.6,201.6,318.6,201.6,318.6l-2.7,1c0,0-0.1,0-0.1,0V319c0,0,0-0.1,0.1-0.1l1.8-0.6v0l-1.8-0.6
		c0,0-0.1,0-0.1-0.1v-0.5c0,0,0-0.1,0.1,0l2.6,1c0,0,0.1,0,0.1,0.1V318.6z"/>
	<path d="M198.3,316.5C198.3,316.5,198.3,316.5,198.3,316.5l-0.5,0.1c0,0-0.1,0-0.1-0.1V316c0,0,0-0.1,0.1-0.1h0.5
		c0,0,0.1,0,0.1,0.1V316.5z M201.6,316.5C201.6,316.5,201.6,316.5,201.6,316.5l-2.7,0.1c0,0-0.1,0-0.1-0.1V316c0,0,0-0.1,0.1-0.1
		h2.6c0,0,0.1,0,0.1,0.1V316.5z"/>
	<path d="M201.6,313.4C201.6,313.4,201.6,313.4,201.6,313.4l-0.3,0.1v0c0.2,0.1,0.3,0.4,0.3,0.7c0,0.5-0.2,0.8-0.7,0.9
		c-0.2,0.1-0.4,0.1-0.8,0.1c-0.4,0-0.6,0-0.8-0.1c-0.4-0.1-0.7-0.5-0.7-0.9c0-0.4,0.1-0.6,0.3-0.7v0h-1.3c0,0-0.1,0-0.1-0.1v-0.5
		c0,0,0-0.1,0.1-0.1h3.7c0,0,0.1,0,0.1,0.1V313.4z M200.7,313.5c-0.1,0-0.3-0.1-0.5-0.1c-0.2,0-0.4,0-0.5,0.1
		c-0.2,0.1-0.4,0.2-0.4,0.5c0,0.3,0.1,0.4,0.4,0.5c0.1,0,0.3,0.1,0.5,0.1c0.2,0,0.4,0,0.5-0.1c0.2-0.1,0.4-0.2,0.4-0.5
		C201.1,313.7,201,313.6,200.7,313.5z"/>
	<path d="M200.9,312c-0.2,0.1-0.4,0.1-0.7,0.1s-0.5,0-0.7-0.1c-0.5-0.2-0.8-0.6-0.8-1.1c0-0.6,0.3-1,0.8-1.1
		c0.2-0.1,0.4-0.1,0.8-0.1c0,0,0.1,0,0.1,0.1v1.7c0,0,0,0,0,0c0.1,0,0.1,0,0.2,0c0.3-0.1,0.4-0.3,0.4-0.6c0-0.3-0.1-0.5-0.3-0.6
		c0,0,0-0.1,0-0.1l0.3-0.3c0,0,0.1,0,0.1,0c0.3,0.2,0.5,0.6,0.5,1.1C201.6,311.5,201.4,311.9,200.9,312z M199.7,310.4
		c-0.2,0.1-0.4,0.3-0.4,0.5c0,0.3,0.1,0.5,0.4,0.5c0.1,0,0.1,0,0.2,0c0,0,0,0,0,0v-1.1c0,0,0,0,0,0
		C199.8,310.3,199.7,310.4,199.7,310.4z"/>
	<path d="M200.9,309.1c-0.2,0.1-0.4,0.1-0.7,0.1c-0.3,0-0.5,0-0.7-0.1c-0.5-0.2-0.8-0.6-0.8-1.1c0-0.6,0.3-1,0.8-1.1
		c0.2-0.1,0.4-0.1,0.7-0.1c0.3,0,0.5,0,0.7,0.1c0.5,0.2,0.8,0.6,0.8,1.1C201.6,308.5,201.4,308.9,200.9,309.1z M200.7,307.4
		c-0.1,0-0.3-0.1-0.5-0.1s-0.4,0-0.5,0.1c-0.2,0.1-0.4,0.3-0.4,0.5c0,0.3,0.1,0.4,0.4,0.5c0.1,0,0.3,0.1,0.5,0.1s0.4,0,0.5-0.1
		c0.2-0.1,0.4-0.3,0.4-0.5C201.1,307.7,200.9,307.5,200.7,307.4z"/>
	<path d="M202.3,304.8C202.2,304.8,202.2,304.8,202.3,304.8l-0.4-0.3c0,0,0-0.1,0-0.1c0.2-0.2,0.3-0.4,0.3-0.6
		c0-0.4-0.2-0.6-0.7-0.6h-0.3v0c0.2,0.1,0.3,0.4,0.3,0.7c0,0.5-0.2,0.8-0.7,0.9c-0.2,0.1-0.4,0.1-0.7,0.1c-0.3,0-0.5,0-0.7-0.1
		c-0.4-0.1-0.7-0.5-0.7-0.9c0-0.3,0.1-0.6,0.3-0.7v0h-0.2c0,0-0.1,0-0.1-0.1v-0.5c0,0,0-0.1,0.1-0.1h2.5c0.8,0,1.3,0.4,1.3,1.3
		C202.7,304.2,202.5,304.6,202.3,304.8z M200.6,303.2c-0.1,0-0.3-0.1-0.5-0.1c-0.2,0-0.3,0-0.4,0.1c-0.2,0.1-0.3,0.2-0.3,0.5
		c0,0.3,0.1,0.4,0.3,0.5c0.1,0,0.3,0.1,0.4,0.1c0.2,0,0.3,0,0.5-0.1c0.2-0.1,0.4-0.2,0.4-0.5C200.9,303.4,200.8,303.3,200.6,303.2z"
		/>
	<path d="M201.6,300C201.6,300.1,201.6,300.1,201.6,300l-0.3,0.1v0c0.2,0.1,0.3,0.4,0.3,0.8c0,0.5-0.3,0.9-0.8,0.9
		c-0.6,0-0.9-0.4-0.9-1.1v-0.6c0,0,0,0,0,0h-0.1c-0.3,0-0.5,0.1-0.5,0.6c0,0.3,0.1,0.5,0.2,0.6c0,0,0,0.1,0,0.1l-0.4,0.2
		c0,0-0.1,0-0.1,0c-0.2-0.2-0.3-0.5-0.3-1c0-0.8,0.3-1.1,1-1.1h1.8c0,0,0.1,0,0.1,0.1V300z M200.7,300.1h-0.2c0,0,0,0,0,0v0.5
		c0,0.4,0.1,0.6,0.4,0.6c0.2,0,0.3-0.2,0.3-0.5C201.1,300.3,201,300.1,200.7,300.1z"/>
	<path d="M201.6,295.3C201.6,295.3,201.6,295.4,201.6,295.3l-1.6,0.1c-0.4,0-0.6,0.2-0.6,0.5c0,0.3,0.2,0.5,0.6,0.5h1.6
		c0,0,0.1,0,0.1,0.1v0.5c0,0,0,0.1-0.1,0.1H200c-0.4,0-0.6,0.2-0.6,0.5c0,0.3,0.2,0.5,0.6,0.5h1.6c0,0,0.1,0,0.1,0.1v0.5
		c0,0,0,0.1-0.1,0.1h-2.6c0,0-0.1,0-0.1-0.1v-0.5c0,0,0-0.1,0.1-0.1h0.2v0c-0.2-0.1-0.3-0.4-0.3-0.7c0-0.3,0.1-0.6,0.4-0.7v0
		c-0.2-0.2-0.4-0.5-0.4-0.9c0-0.6,0.4-1,1-1h1.7c0,0,0.1,0,0.1,0.1V295.3z"/>
	<path d="M200.9,294c-0.2,0.1-0.4,0.1-0.7,0.1s-0.5,0-0.7-0.1c-0.5-0.2-0.8-0.6-0.8-1.1c0-0.6,0.3-1,0.8-1.1
		c0.2-0.1,0.4-0.1,0.8-0.1c0,0,0.1,0,0.1,0.1v1.7c0,0,0,0,0,0c0.1,0,0.1,0,0.2,0c0.3-0.1,0.4-0.3,0.4-0.6c0-0.3-0.1-0.5-0.3-0.6
		c0,0,0-0.1,0-0.1l0.3-0.3c0,0,0.1,0,0.1,0c0.3,0.2,0.5,0.6,0.5,1.1C201.6,293.4,201.4,293.8,200.9,294z M199.7,292.3
		c-0.2,0.1-0.4,0.3-0.4,0.5c0,0.3,0.1,0.5,0.4,0.5c0.1,0,0.1,0,0.2,0c0,0,0,0,0,0v-1.1c0,0,0,0,0,0
		C199.8,292.3,199.7,292.3,199.7,292.3z"/>
	<path d="M200.9,291C200.9,291,200.9,291,200.9,291l-0.1-0.6c0,0,0-0.1,0.1-0.1h0.6c0.1,0,0.1,0,0.1,0l0.5,0.5c0,0,0,0.1,0,0.1
		c0,0,0,0.1-0.1,0.1H200.9z"/>
	<path d="M201.6,286.7C201.6,286.7,201.6,286.8,201.6,286.7l-0.3,0.1v0c0.2,0.1,0.3,0.4,0.3,0.8c0,0.5-0.3,0.9-0.8,0.9
		c-0.6,0-0.9-0.4-0.9-1.1v-0.6c0,0,0,0,0,0h-0.1c-0.3,0-0.5,0.1-0.5,0.6c0,0.3,0.1,0.5,0.2,0.6c0,0,0,0.1,0,0.1l-0.4,0.2
		c0,0-0.1,0-0.1,0c-0.2-0.2-0.3-0.5-0.3-1c0-0.8,0.3-1.1,1-1.1h1.8c0,0,0.1,0,0.1,0.1V286.7z M200.7,286.8h-0.2c0,0,0,0,0,0v0.5
		c0,0.4,0.1,0.6,0.4,0.6c0.2,0,0.3-0.2,0.3-0.5C201.1,287,201,286.8,200.7,286.8z"/>
	<path d="M200.9,284.1c-0.2,0.1-0.4,0.1-0.7,0.1c-0.3,0-0.5,0-0.7-0.1c-0.5-0.2-0.8-0.6-0.8-1.1c0-0.4,0.2-0.7,0.4-0.9
		c0,0,0.1,0,0.1,0l0.3,0.4c0,0,0,0.1,0,0.1c-0.2,0.1-0.2,0.3-0.2,0.5c0,0.2,0.1,0.4,0.4,0.5c0.1,0,0.3,0.1,0.5,0.1
		c0.2,0,0.4,0,0.5-0.1c0.2-0.1,0.4-0.3,0.4-0.5c0-0.2-0.1-0.4-0.2-0.5c0,0,0-0.1,0-0.1l0.3-0.4c0,0,0,0,0.1,0
		c0.3,0.2,0.4,0.5,0.4,0.9C201.6,283.5,201.4,283.9,200.9,284.1z"/>
	<path d="M201.6,279.8C201.6,279.8,201.6,279.9,201.6,279.8l-0.3,0.1v0c0.2,0.1,0.3,0.4,0.3,0.8c0,0.5-0.3,0.9-0.8,0.9
		c-0.6,0-0.9-0.4-0.9-1.1v-0.6c0,0,0,0,0,0h-0.1c-0.3,0-0.5,0.1-0.5,0.6c0,0.3,0.1,0.5,0.2,0.6c0,0,0,0.1,0,0.1l-0.4,0.2
		c0,0-0.1,0-0.1,0c-0.2-0.2-0.3-0.5-0.3-1c0-0.8,0.3-1.1,1-1.1h1.8c0,0,0.1,0,0.1,0.1V279.8z M200.7,279.9h-0.2c0,0,0,0,0,0v0.5
		c0,0.4,0.1,0.6,0.4,0.6c0.2,0,0.3-0.2,0.3-0.5C201.1,280.1,201,279.9,200.7,279.9z"/>
	<path d="M201.6,278.4C201.6,278.4,201.6,278.5,201.6,278.4l-2.7,0.1c0,0-0.1,0-0.1-0.1v-0.5c0,0,0-0.1,0.1-0.1h0.2v0
		c-0.2-0.1-0.4-0.4-0.4-0.7c0-0.2,0.1-0.4,0.2-0.6c0,0,0,0,0.1,0l0.4,0.3c0,0,0,0.1,0,0.1c-0.1,0.1-0.1,0.3-0.1,0.4
		c0,0.4,0.3,0.5,0.7,0.5h1.5c0,0,0.1,0,0.1,0.1V278.4z"/>
	<path d="M201.6,274.4C201.6,274.5,201.6,274.5,201.6,274.4l-0.3,0.1v0c0.2,0.1,0.3,0.4,0.3,0.7c0,0.5-0.2,0.8-0.7,0.9
		c-0.2,0.1-0.4,0.1-0.8,0.1c-0.4,0-0.6,0-0.8-0.1c-0.4-0.1-0.7-0.5-0.7-0.9c0-0.4,0.1-0.6,0.3-0.7v0h-1.3c0,0-0.1,0-0.1-0.1v-0.5
		c0,0,0-0.1,0.1-0.1h3.7c0,0,0.1,0,0.1,0.1V274.4z M200.7,274.5c-0.1,0-0.3-0.1-0.5-0.1c-0.2,0-0.4,0-0.5,0.1
		c-0.2,0.1-0.4,0.2-0.4,0.5c0,0.3,0.1,0.4,0.4,0.5c0.1,0,0.3,0.1,0.5,0.1c0.2,0,0.4,0,0.5-0.1c0.2-0.1,0.4-0.2,0.4-0.5
		C201.1,274.8,201,274.6,200.7,274.5z"/>
	<path d="M202.3,271.7C202.2,271.8,202.2,271.8,202.3,271.7l-0.4-0.3c0,0,0-0.1,0-0.1c0.2-0.2,0.3-0.4,0.3-0.6
		c0-0.4-0.2-0.6-0.7-0.6h-0.3v0c0.2,0.1,0.3,0.4,0.3,0.7c0,0.5-0.2,0.8-0.7,0.9c-0.2,0.1-0.4,0.1-0.7,0.1c-0.3,0-0.5,0-0.7-0.1
		c-0.4-0.1-0.7-0.5-0.7-0.9c0-0.4,0.1-0.6,0.3-0.7v0h-0.2c0,0-0.1,0-0.1-0.1v-0.5c0,0,0-0.1,0.1-0.1h2.5c0.8,0,1.3,0.4,1.3,1.3
		C202.7,271.1,202.5,271.5,202.3,271.7z M200.6,270.2c-0.1,0-0.3-0.1-0.5-0.1c-0.2,0-0.3,0-0.4,0.1c-0.2,0.1-0.3,0.2-0.3,0.5
		c0,0.3,0.1,0.4,0.3,0.5c0.1,0,0.3,0.1,0.4,0.1c0.2,0,0.3,0,0.5-0.1c0.2-0.1,0.4-0.2,0.4-0.5C200.9,270.4,200.8,270.2,200.6,270.2z"
		/>
	<path d="M201.6,267C201.6,267,201.6,267.1,201.6,267l-0.3,0.1v0c0.2,0.1,0.3,0.4,0.3,0.8c0,0.5-0.3,0.9-0.8,0.9
		c-0.6,0-0.9-0.4-0.9-1.1v-0.6c0,0,0,0,0,0h-0.1c-0.3,0-0.5,0.1-0.5,0.6c0,0.3,0.1,0.5,0.2,0.6c0,0,0,0.1,0,0.1l-0.4,0.2
		c0,0-0.1,0-0.1,0c-0.2-0.2-0.3-0.5-0.3-1c0-0.8,0.3-1.1,1-1.1h1.8c0,0,0.1,0,0.1,0.1V267z M200.7,267.1h-0.2c0,0,0,0,0,0v0.5
		c0,0.4,0.1,0.6,0.4,0.6c0.2,0,0.3-0.2,0.3-0.5C201.1,267.3,201,267.1,200.7,267.1z"/>
	<path d="M201.6,262.3C201.6,262.3,201.6,262.3,201.6,262.3l-1.6,0.1c-0.4,0-0.6,0.2-0.6,0.5c0,0.3,0.2,0.5,0.6,0.5h1.6
		c0,0,0.1,0,0.1,0.1v0.5c0,0,0,0.1-0.1,0.1H200c-0.4,0-0.6,0.2-0.6,0.5c0,0.3,0.2,0.5,0.6,0.5h1.6c0,0,0.1,0,0.1,0.1v0.5
		c0,0,0,0.1-0.1,0.1h-2.6c0,0-0.1,0-0.1-0.1v-0.5c0,0,0-0.1,0.1-0.1h0.2v0c-0.2-0.1-0.3-0.4-0.3-0.7c0-0.3,0.1-0.6,0.4-0.7v0
		c-0.2-0.2-0.4-0.5-0.4-0.9c0-0.6,0.4-1,1-1h1.7c0,0,0.1,0,0.1,0.1V262.3z"/>
	<path d="M200.9,260.9c-0.2,0.1-0.4,0.1-0.7,0.1s-0.5,0-0.7-0.1c-0.5-0.2-0.8-0.6-0.8-1.1c0-0.6,0.3-1,0.8-1.1
		c0.2-0.1,0.4-0.1,0.8-0.1c0,0,0.1,0,0.1,0.1v1.7c0,0,0,0,0,0c0.1,0,0.1,0,0.2,0c0.3-0.1,0.4-0.3,0.4-0.6c0-0.3-0.1-0.5-0.3-0.6
		c0,0,0-0.1,0-0.1l0.3-0.3c0,0,0.1,0,0.1,0c0.3,0.2,0.5,0.6,0.5,1.1C201.6,260.4,201.4,260.8,200.9,260.9z M199.7,259.3
		c-0.2,0.1-0.4,0.3-0.4,0.5c0,0.3,0.1,0.5,0.4,0.5c0.1,0,0.1,0,0.2,0c0,0,0,0,0,0v-1.1c0,0,0,0,0,0
		C199.8,259.3,199.7,259.3,199.7,259.3z"/>
	<path d="M200.9,258C200.9,258,200.9,257.9,200.9,258l-0.1-0.6c0,0,0-0.1,0.1-0.1h0.6c0.1,0,0.1,0,0.1,0l0.5,0.5c0,0,0,0,0,0.1
		c0,0,0,0.1-0.1,0.1H200.9z"/>
	<path d="M201.6,253.7C201.6,253.7,201.6,253.7,201.6,253.7l-0.3,0.1v0c0.2,0.1,0.3,0.4,0.3,0.8c0,0.5-0.3,0.9-0.8,0.9
		c-0.6,0-0.9-0.4-0.9-1.1v-0.6c0,0,0,0,0,0h-0.1c-0.3,0-0.5,0.1-0.5,0.6c0,0.3,0.1,0.5,0.2,0.6c0,0,0,0.1,0,0.1l-0.4,0.2
		c0,0-0.1,0-0.1,0c-0.2-0.2-0.3-0.5-0.3-1c0-0.8,0.3-1.1,1-1.1h1.8c0,0,0.1,0,0.1,0.1V253.7z M200.7,253.7h-0.2c0,0,0,0,0,0v0.5
		c0,0.4,0.1,0.6,0.4,0.6c0.2,0,0.3-0.2,0.3-0.5C201.1,254,201,253.7,200.7,253.7z"/>
	<path d="M201.6,250.6C201.6,250.6,201.6,250.7,201.6,250.6l-1.6,0.1c-0.4,0-0.6,0.2-0.6,0.5c0,0.3,0.2,0.5,0.6,0.5h1.6
		c0,0,0.1,0,0.1,0.1v0.5c0,0,0,0.1-0.1,0.1h-2.6c0,0-0.1,0-0.1-0.1v-0.5c0,0,0-0.1,0.1-0.1h0.2v0c-0.2-0.1-0.3-0.4-0.3-0.7
		c0-0.6,0.4-0.9,1-0.9h1.7c0,0,0.1,0,0.1,0.1V250.6z"/>
	<path d="M201.6,247.5C201.6,247.6,201.6,247.6,201.6,247.5l-0.3,0.1v0c0.2,0.1,0.3,0.4,0.3,0.7c0,0.5-0.2,0.8-0.7,0.9
		c-0.2,0.1-0.4,0.1-0.8,0.1c-0.4,0-0.6,0-0.8-0.1c-0.4-0.1-0.7-0.5-0.7-0.9c0-0.4,0.1-0.6,0.3-0.7v0h-1.3c0,0-0.1,0-0.1-0.1V247
		c0,0,0-0.1,0.1-0.1h3.7c0,0,0.1,0,0.1,0.1V247.5z M200.7,247.7c-0.1,0-0.3-0.1-0.5-0.1c-0.2,0-0.4,0-0.5,0.1
		c-0.2,0.1-0.4,0.2-0.4,0.5c0,0.3,0.1,0.4,0.4,0.5c0.1,0,0.3,0.1,0.5,0.1c0.2,0,0.4,0,0.5-0.1c0.2-0.1,0.4-0.3,0.4-0.5
		C201.1,247.9,201,247.7,200.7,247.7z"/>
	<path d="M201.6,243.2C201.6,243.2,201.6,243.2,201.6,243.2l-0.3,0.1v0c0.2,0.1,0.3,0.4,0.3,0.8c0,0.5-0.3,0.9-0.8,0.9
		c-0.6,0-0.9-0.4-0.9-1.1v-0.6c0,0,0,0,0,0h-0.1c-0.3,0-0.5,0.1-0.5,0.6c0,0.3,0.1,0.5,0.2,0.6c0,0,0,0.1,0,0.1l-0.4,0.2
		c0,0-0.1,0-0.1,0c-0.2-0.2-0.3-0.5-0.3-1c0-0.8,0.3-1.1,1-1.1h1.8c0,0,0.1,0,0.1,0.1V243.2z M200.7,243.2h-0.2c0,0,0,0,0,0v0.5
		c0,0.4,0.1,0.6,0.4,0.6c0.2,0,0.3-0.2,0.3-0.5C201.1,243.4,201,243.2,200.7,243.2z"/>
	<path d="M201.6,240.1C201.6,240.1,201.6,240.2,201.6,240.1l-1.6,0.1c-0.4,0-0.6,0.2-0.6,0.5c0,0.3,0.2,0.5,0.6,0.5h1.6
		c0,0,0.1,0,0.1,0.1v0.5c0,0,0,0.1-0.1,0.1h-2.6c0,0-0.1,0-0.1-0.1v-0.5c0,0,0-0.1,0.1-0.1h0.2v0c-0.2-0.1-0.3-0.4-0.3-0.7
		c0-0.6,0.4-0.9,1-0.9h1.7c0,0,0.1,0,0.1,0.1V240.1z"/>
	<path d="M201.6,235.7C201.6,235.8,201.6,235.8,201.6,235.7l-0.3,0.1v0c0.2,0.1,0.3,0.4,0.3,0.8c0,0.5-0.3,0.9-0.8,0.9
		c-0.6,0-0.9-0.4-0.9-1.1v-0.6c0,0,0,0,0,0h-0.1c-0.3,0-0.5,0.1-0.5,0.6c0,0.3,0.1,0.5,0.2,0.6c0,0,0,0.1,0,0.1l-0.4,0.2
		c0,0-0.1,0-0.1,0c-0.2-0.2-0.3-0.5-0.3-1c0-0.8,0.3-1.1,1-1.1h1.8c0,0,0.1,0,0.1,0.1V235.7z M200.7,235.8h-0.2c0,0,0,0,0,0v0.5
		c0,0.4,0.1,0.6,0.4,0.6c0.2,0,0.3-0.2,0.3-0.5C201.1,236,201,235.8,200.7,235.8z"/>
	<path d="M201.6,232.7C201.6,232.7,201.6,232.7,201.6,232.7l-1.6,0.1c-0.4,0-0.6,0.2-0.6,0.5c0,0.3,0.2,0.5,0.6,0.5h1.6
		c0,0,0.1,0,0.1,0.1v0.5c0,0,0,0.1-0.1,0.1h-2.6c0,0-0.1,0-0.1-0.1v-0.5c0,0,0-0.1,0.1-0.1h0.2v0c-0.2-0.1-0.3-0.4-0.3-0.7
		c0-0.6,0.4-0.9,1-0.9h1.7c0,0,0.1,0,0.1,0.1V232.7z"/>
	<path d="M198.3,231.2C198.3,231.3,198.3,231.3,198.3,231.2l-0.5,0.1c0,0-0.1,0-0.1-0.1v-0.5c0,0,0-0.1,0.1-0.1h0.5
		c0,0,0.1,0,0.1,0.1V231.2z M201.6,231.2C201.6,231.3,201.6,231.3,201.6,231.2l-2.7,0.1c0,0-0.1,0-0.1-0.1v-0.5c0,0,0-0.1,0.1-0.1
		h2.6c0,0,0.1,0,0.1,0.1V231.2z"/>
	<path d="M201.6,226.4C201.6,226.5,201.6,226.5,201.6,226.4l-1.6,0.1c-0.4,0-0.6,0.2-0.6,0.5c0,0.3,0.2,0.5,0.6,0.5h1.6
		c0,0,0.1,0,0.1,0.1v0.5c0,0,0,0.1-0.1,0.1H200c-0.4,0-0.6,0.2-0.6,0.5c0,0.3,0.2,0.5,0.6,0.5h1.6c0,0,0.1,0,0.1,0.1v0.5
		c0,0,0,0.1-0.1,0.1h-2.6c0,0-0.1,0-0.1-0.1v-0.5c0,0,0-0.1,0.1-0.1h0.2v0c-0.2-0.1-0.3-0.4-0.3-0.7c0-0.3,0.1-0.6,0.4-0.7v0
		c-0.2-0.2-0.4-0.5-0.4-0.9c0-0.6,0.4-1,1-1h1.7c0,0,0.1,0,0.1,0.1V226.4z"/>
	<path d="M200.9,225.1c-0.2,0.1-0.4,0.1-0.7,0.1s-0.5,0-0.7-0.1c-0.5-0.2-0.8-0.6-0.8-1.1c0-0.6,0.3-1,0.8-1.1
		c0.2-0.1,0.4-0.1,0.8-0.1c0,0,0.1,0,0.1,0.1v1.7c0,0,0,0,0,0c0.1,0,0.1,0,0.2,0c0.3-0.1,0.4-0.3,0.4-0.6c0-0.3-0.1-0.5-0.3-0.6
		c0,0,0-0.1,0-0.1l0.3-0.3c0,0,0.1,0,0.1,0c0.3,0.2,0.5,0.6,0.5,1.1C201.6,224.5,201.4,224.9,200.9,225.1z M199.7,223.5
		c-0.2,0.1-0.4,0.3-0.4,0.5c0,0.3,0.1,0.5,0.4,0.5c0.1,0,0.1,0,0.2,0c0,0,0,0,0,0v-1.1c0,0,0,0,0,0
		C199.8,223.4,199.7,223.4,199.7,223.5z"/>
	<path d="M201.2,220.9C201.2,220.9,201.2,220.9,201.2,220.9l-0.4-0.3c0,0,0-0.1,0-0.1c0.2-0.2,0.3-0.5,0.3-0.8
		c0-0.3-0.1-0.5-0.3-0.5c-0.2,0-0.3,0.1-0.3,0.5l0,0.3c-0.1,0.6-0.3,0.8-0.8,0.8c-0.5,0-0.9-0.4-0.9-1.1c0-0.4,0.1-0.8,0.3-1
		c0,0,0.1,0,0.1,0l0.3,0.3c0,0,0,0.1,0,0.1c-0.1,0.2-0.2,0.4-0.2,0.7c0,0.3,0.1,0.4,0.3,0.4c0.2,0,0.3-0.1,0.3-0.4l0-0.3
		c0.1-0.6,0.4-0.8,0.8-0.8c0.5,0,0.9,0.4,0.9,1.1C201.6,220.3,201.4,220.7,201.2,220.9z"/>
	<path d="M200.9,218c-0.2,0.1-0.4,0.1-0.7,0.1s-0.5,0-0.7-0.1c-0.5-0.2-0.8-0.6-0.8-1.1c0-0.6,0.3-1,0.8-1.1
		c0.2-0.1,0.4-0.1,0.8-0.1c0,0,0.1,0,0.1,0.1v1.7c0,0,0,0,0,0c0.1,0,0.1,0,0.2,0c0.3-0.1,0.4-0.3,0.4-0.6c0-0.3-0.1-0.5-0.3-0.6
		c0,0,0-0.1,0-0.1l0.3-0.3c0,0,0.1,0,0.1,0c0.3,0.2,0.5,0.6,0.5,1.1C201.6,217.4,201.4,217.8,200.9,218z M199.7,216.3
		c-0.2,0.1-0.4,0.3-0.4,0.5c0,0.3,0.1,0.5,0.4,0.5c0.1,0,0.1,0,0.2,0c0,0,0,0,0,0v-1.1c0,0,0,0,0,0
		C199.8,216.3,199.7,216.3,199.7,216.3z"/>
	<path d="M201.6,214.9C201.6,214.9,201.6,215,201.6,214.9l-2.7,0.1c0,0-0.1,0-0.1-0.1v-0.5c0,0,0-0.1,0.1-0.1h0.2v0
		c-0.2-0.1-0.4-0.4-0.4-0.7c0-0.2,0.1-0.4,0.2-0.6c0,0,0,0,0.1,0l0.4,0.3c0,0,0,0,0,0.1c-0.1,0.1-0.1,0.3-0.1,0.4
		c0,0.4,0.3,0.5,0.7,0.5h1.5c0,0,0.1,0,0.1,0.1V214.9z"/>
	<path d="M198.3,212.5C198.3,212.6,198.3,212.6,198.3,212.5l-0.5,0.1c0,0-0.1,0-0.1-0.1V212c0,0,0-0.1,0.1-0.1h0.5
		c0,0,0.1,0,0.1,0.1V212.5z M201.6,212.5C201.6,212.6,201.6,212.6,201.6,212.5l-2.7,0.1c0,0-0.1,0-0.1-0.1V212c0,0,0-0.1,0.1-0.1
		h2.6c0,0,0.1,0,0.1,0.1V212.5z"/>
	<path d="M200.9,211.2c-0.2,0.1-0.4,0.1-0.7,0.1s-0.5,0-0.7-0.1c-0.5-0.2-0.8-0.6-0.8-1.1c0-0.6,0.3-1,0.8-1.1
		c0.2-0.1,0.4-0.1,0.8-0.1c0,0,0.1,0,0.1,0.1v1.7c0,0,0,0,0,0c0.1,0,0.1,0,0.2,0c0.3-0.1,0.4-0.3,0.4-0.6s-0.1-0.5-0.3-0.6
		c0,0,0-0.1,0-0.1l0.3-0.3c0,0,0.1,0,0.1,0c0.3,0.2,0.5,0.6,0.5,1.1C201.6,210.6,201.4,211,200.9,211.2z M199.7,209.5
		c-0.2,0.1-0.4,0.3-0.4,0.5c0,0.3,0.1,0.5,0.4,0.5c0.1,0,0.1,0,0.2,0c0,0,0,0,0,0v-1.1c0,0,0,0,0,0
		C199.8,209.5,199.7,209.5,199.7,209.5z"/>
	<path d="M201.2,208.3C201.2,208.3,201.2,208.3,201.2,208.3l-0.4-0.3c0,0,0-0.1,0-0.1c0.2-0.2,0.3-0.5,0.3-0.8
		c0-0.3-0.1-0.5-0.3-0.5c-0.2,0-0.3,0.1-0.3,0.5l0,0.3c-0.1,0.6-0.3,0.8-0.8,0.8c-0.5,0-0.9-0.4-0.9-1.1c0-0.4,0.1-0.8,0.3-1
		c0,0,0.1,0,0.1,0l0.3,0.3c0,0,0,0.1,0,0.1c-0.1,0.2-0.2,0.4-0.2,0.7c0,0.3,0.1,0.4,0.3,0.4c0.2,0,0.3-0.1,0.3-0.4l0-0.3
		c0.1-0.6,0.4-0.8,0.8-0.8c0.5,0,0.9,0.4,0.9,1.1C201.6,207.7,201.4,208.1,201.2,208.3z"/>
	<path d="M200.9,205.4C200.9,205.4,200.9,205.3,200.9,205.4l-0.1-0.6c0,0,0-0.1,0.1-0.1h0.6c0,0,0.1,0,0.1,0.1v0.6
		c0,0,0,0.1-0.1,0.1H200.9z"/>
</g>
</svg>
