<?xml version="1.0" encoding="utf-8"?>
<!-- Generator: Adobe Illustrator 16.0.4, SVG Export Plug-In . SVG Version: 6.00 Build 0)  -->
<!DOCTYPE svg PUBLIC "-//W3C//DTD SVG 1.1//EN" "http://www.w3.org/Graphics/SVG/1.1/DTD/svg11.dtd">
<svg version="1.1" id="レイヤー_1" xmlns="http://www.w3.org/2000/svg" xmlns:xlink="http://www.w3.org/1999/xlink" x="0px"
	 y="0px" width="1180px" height="710px" viewBox="0 0 1180 710" enable-background="new 0 0 1180 710" xml:space="preserve">
<path fill="none" stroke="#45FF87" stroke-width="2" d="M1176.2,482.1l0.9-378.8c0.1-51-41.4-95.8-92.9-95.9L96.7,5
	C45.2,4.9,4.4,49.5,4.3,100.5L3.3,479.2c-0.1,51,40.5,92.2,91.9,92.3l987.6,2.4C1134.3,574.1,1176.1,533.1,1176.2,482.1z
	 M1047.7,180.6l0.2-84.5c0.1-23.3,19.8-42.2,43.2-42.2c23.3,0.1,43,19,43,42.4l-0.2,84.5c-0.1,23.3-19.8,42.2-43.2,42.2
	C1067.4,222.9,1047.7,203.9,1047.7,180.6z"/>
<g>
	<path fill="none" stroke="#45FF87" stroke-width="2" d="M752.6,621.7l245.5,0.6c7.4,0,13.4,4.2,13.4,9.4l23.3,70.5l140.9,0.3
		l0.2-93.9l-1174-2.9l-0.2,93.9l713.8,1.7l23.7-70.4C739.1,625.9,745.2,621.7,752.6,621.7z"/>
</g>
<g>
	<g>
		<path fill="none" stroke="#45FF87" stroke-width="2" d="M406.5,175v67.7H301.3c0-45,0-90.3,0-135.3H369V175H406.5z"/>
		<path fill="none" stroke="#45FF87" stroke-width="2" d="M557.8,174.8c0,39.8-32.3,72.1-72.1,72.1s-72.1-32.3-72.1-72.1
			c0-39.8,32.3-72.1,72.1-72.1S557.8,134.9,557.8,174.8z"/>
		<path fill="none" stroke="#45FF87" stroke-width="2" d="M624.1,252.1l-82-145c149.5,0,22.4,0,171.1,0L624.1,252.1z"/>
		<path fill="none" stroke="#45FF87" stroke-width="2" d="M826.4,107.1v45.6h-28v5.8h28V191h-28v5.8h28v45.6H714.2V107.1H826.4z"/>
		<path fill="none" stroke="#45FF87" stroke-width="2" d="M406.6,328.9v67.7H301.5c0-45,0-90.3,0-135.3h67.7v67.7H406.6z"/>
		<path fill="none" stroke="#45FF87" stroke-width="2" d="M487.8,261.2v135.3h-70.4V261.2H487.8z"/>
		<path fill="none" stroke="#45FF87" stroke-width="2" d="M578.5,406l-89.3-145c149.5,0,22.4,0,171.1,0L578.5,406z"/>
		<path fill="none" stroke="#45FF87" stroke-width="2" d="M773.4,261v45.6h-28v5.8h28v32.5h-28v5.8h28v45.6H661.3V261H773.4z"/>
		<path fill="none" stroke="#45FF87" stroke-width="2" d="M904.9,316.3c0,17.6-8.1,33.1-21.1,43.1l19.9,37.3c-39.6,0-79.3,0-118.9,0
			c0-150,0-30.9,0-135.5h65C880.1,261.2,904.9,285.8,904.9,316.3z"/>
	</g>
</g>
<g>
	<path fill="#45FF87" d="M302,416.3c0-0.1,0.1-0.1,0.1-0.1h1.3c0.1,0,0.1,0.1,0.1,0.1v7.5c0,0.1,0,0.1,0.1,0.1h4.2
		c0.1,0,0.1,0.1,0.1,0.1v1.2c0,0.1-0.1,0.1-0.1,0.1h-5.7c-0.1,0-0.1-0.1-0.1-0.1V416.3z"/>
	<path fill="#45FF87" d="M309.2,423.6c-0.2-0.5-0.2-0.9-0.2-1.6s0.1-1.1,0.2-1.6c0.4-1.1,1.4-1.8,2.7-1.8c1.3,0,2.3,0.7,2.7,1.8
		c0.1,0.5,0.2,0.9,0.2,1.6s-0.1,1.1-0.2,1.6c-0.4,1.1-1.4,1.8-2.7,1.8C310.6,425.4,309.6,424.8,309.2,423.6z M313.1,423.2
		c0.1-0.3,0.1-0.6,0.1-1.2c0-0.6,0-0.9-0.1-1.2c-0.2-0.5-0.6-0.8-1.2-0.8c-0.6,0-1,0.3-1.2,0.8c-0.1,0.3-0.1,0.6-0.1,1.2
		c0,0.5,0,0.9,0.1,1.2c0.2,0.5,0.6,0.8,1.2,0.8C312.5,424.1,312.9,423.8,313.1,423.2z"/>
	<path fill="#45FF87" d="M318.1,425.3c-0.1,0-0.1-0.1-0.2-0.1l-2.3-6.2c0-0.1,0-0.1,0.1-0.1h1.3c0.1,0,0.1,0.1,0.2,0.1l1.4,4.2h0
		l1.4-4.2c0-0.1,0.1-0.1,0.2-0.1h1.3c0.1,0,0.1,0.1,0.1,0.1l-2.3,6.2c0,0.1-0.1,0.1-0.2,0.1H318.1z"/>
	<path fill="#45FF87" d="M322.7,423.6c-0.1-0.4-0.2-0.9-0.2-1.6c0-0.7,0.1-1.2,0.2-1.6c0.4-1.1,1.4-1.8,2.7-1.8
		c1.3,0,2.3,0.7,2.7,1.8c0.1,0.5,0.2,0.9,0.2,2c0,0.1-0.1,0.1-0.1,0.1h-4c-0.1,0-0.1,0-0.1,0.1c0,0.2,0,0.3,0.1,0.5
		c0.2,0.6,0.7,1,1.5,1c0.7,0,1.2-0.3,1.5-0.6c0.1-0.1,0.1-0.1,0.2,0l0.8,0.7c0.1,0.1,0.1,0.1,0,0.2c-0.5,0.6-1.5,1.1-2.7,1.1
		C324.1,425.4,323.1,424.8,322.7,423.6z M326.7,420.8c-0.2-0.5-0.7-0.8-1.3-0.8c-0.6,0-1.1,0.3-1.3,0.8c-0.1,0.2-0.1,0.3-0.1,0.6
		c0,0.1,0,0.1,0.1,0.1h2.5c0.1,0,0.1,0,0.1-0.1C326.7,421.1,326.7,420.9,326.7,420.8z"/>
	<path fill="#45FF87" d="M333.1,416.3c0-0.1,0.1-0.1,0.1-0.1h1.3c0.1,0,0.1,0.1,0.1,0.1v7.5c0,0.1,0,0.1,0.1,0.1h4.2
		c0.1,0,0.1,0.1,0.1,0.1v1.2c0,0.1-0.1,0.1-0.1,0.1h-5.7c-0.1,0-0.1-0.1-0.1-0.1V416.3z"/>
	<path fill="#45FF87" d="M340.5,417.6c-0.1,0-0.1-0.1-0.1-0.1v-1.2c0-0.1,0.1-0.1,0.1-0.1h1.2c0.1,0,0.1,0.1,0.1,0.1v1.2
		c0,0.1-0.1,0.1-0.1,0.1H340.5z M340.5,425.3c-0.1,0-0.1-0.1-0.1-0.1v-6.2c0-0.1,0.1-0.1,0.1-0.1h1.2c0.1,0,0.1,0.1,0.1,0.1v6.2
		c0,0.1-0.1,0.1-0.1,0.1H340.5z"/>
	<path fill="#45FF87" d="M345.6,425.3c-0.1,0-0.1-0.1-0.2-0.1l-2.3-6.2c0-0.1,0-0.1,0.1-0.1h1.3c0.1,0,0.1,0.1,0.2,0.1l1.4,4.2h0
		l1.4-4.2c0-0.1,0.1-0.1,0.2-0.1h1.3c0.1,0,0.1,0.1,0.1,0.1l-2.3,6.2c0,0.1-0.1,0.1-0.2,0.1H345.6z"/>
	<path fill="#45FF87" d="M350.2,423.6c-0.1-0.4-0.2-0.9-0.2-1.6c0-0.7,0.1-1.2,0.2-1.6c0.4-1.1,1.4-1.8,2.7-1.8
		c1.3,0,2.3,0.7,2.7,1.8c0.1,0.5,0.2,0.9,0.2,2c0,0.1-0.1,0.1-0.1,0.1h-4c-0.1,0-0.1,0-0.1,0.1c0,0.2,0,0.3,0.1,0.5
		c0.2,0.6,0.7,1,1.5,1c0.7,0,1.2-0.3,1.5-0.6c0.1-0.1,0.1-0.1,0.2,0l0.8,0.7c0.1,0.1,0.1,0.1,0,0.2c-0.6,0.6-1.5,1.1-2.7,1.1
		C351.6,425.4,350.6,424.8,350.2,423.6z M354.1,420.8c-0.2-0.5-0.7-0.8-1.3-0.8c-0.6,0-1.1,0.3-1.3,0.8c-0.1,0.2-0.1,0.3-0.1,0.6
		c0,0.1,0,0.1,0.1,0.1h2.5c0.1,0,0.1,0,0.1-0.1C354.2,421.1,354.2,420.9,354.1,420.8z"/>
	<path fill="#45FF87" d="M357.9,422.6l-0.3-6.3c0-0.1,0.1-0.1,0.1-0.1h1.4c0.1,0,0.1,0.1,0.1,0.1l-0.3,6.3c0,0.1-0.1,0.1-0.1,0.1
		h-0.8C358,422.7,357.9,422.7,357.9,422.6z M357.6,423.8c0-0.1,0.1-0.1,0.1-0.1h1.3c0.1,0,0.1,0.1,0.1,0.1v1.4
		c0,0.1-0.1,0.1-0.1,0.1h-1.3c-0.1,0-0.1-0.1-0.1-0.1V423.8z"/>
	<path fill="#45FF87" d="M364.8,417.6c-0.1,0-0.1-0.1-0.1-0.1v-1.2c0-0.1,0.1-0.1,0.1-0.1h1.2c0.1,0,0.1,0.1,0.1,0.1v1.2
		c0,0.1-0.1,0.1-0.1,0.1H364.8z M364.8,425.3c-0.1,0-0.1-0.1-0.1-0.1v-6.2c0-0.1,0.1-0.1,0.1-0.1h1.2c0.1,0,0.1,0.1,0.1,0.1v6.2
		c0,0.1-0.1,0.1-0.1,0.1H364.8z"/>
	<path fill="#45FF87" d="M367.8,424.4c-0.1-0.1-0.1-0.1,0-0.2l0.8-0.8c0.1-0.1,0.1-0.1,0.2,0c0.5,0.4,1.2,0.7,1.9,0.7
		c0.8,0,1.2-0.3,1.2-0.8c0-0.4-0.2-0.6-1.1-0.7l-0.7-0.1c-1.3-0.1-2-0.8-2-1.9c0-1.3,0.9-2.1,2.5-2.1c1,0,1.9,0.3,2.4,0.8
		c0.1,0.1,0.1,0.1,0,0.2l-0.7,0.8c-0.1,0.1-0.1,0.1-0.2,0c-0.4-0.3-1-0.5-1.7-0.5s-1,0.3-1,0.7c0,0.4,0.2,0.6,1.1,0.7l0.7,0.1
		c1.4,0.1,2,0.8,2,1.9c0,1.3-0.9,2.2-2.7,2.2C369.2,425.4,368.3,424.9,367.8,424.4z"/>
	<path fill="#45FF87" d="M381.9,425.3c-0.1,0-0.1-0.1-0.1-0.1v-0.5h0c-0.3,0.4-0.9,0.8-1.8,0.8c-1.2,0-2.2-0.6-2.2-2
		c0-1.4,1-2.1,2.6-2.1h1.3c0.1,0,0.1,0,0.1-0.1V421c0-0.7-0.3-1.1-1.4-1.1c-0.7,0-1.2,0.2-1.5,0.4c-0.1,0.1-0.1,0-0.2,0l-0.5-0.9
		c0-0.1,0-0.1,0-0.2c0.5-0.4,1.2-0.6,2.3-0.6c2,0,2.7,0.7,2.7,2.3v4.2c0,0.1-0.1,0.1-0.1,0.1H381.9z M381.7,423.1v-0.5
		c0-0.1,0-0.1-0.1-0.1h-1.1c-1,0-1.4,0.3-1.4,0.9c0,0.5,0.4,0.8,1.1,0.8C381.2,424.2,381.7,423.9,381.7,423.1z"/>
	<path fill="#45FF87" d="M387.6,424.2l1-0.7c0.1,0,0.1,0,0.2,0c0.2,0.3,0.7,0.6,1.2,0.6c1,0,1.5-0.6,1.5-1.8v-5.9
		c0-0.1,0.1-0.1,0.1-0.1h1.3c0.1,0,0.1,0.1,0.1,0.1v5.9c0,2.1-1.2,3.2-3.2,3.2c-1,0-2-0.5-2.4-1.1
		C387.6,424.3,387.6,424.2,387.6,424.2z"/>
	<path fill="#45FF87" d="M399,425.3c-0.1,0-0.1-0.1-0.1-0.1v-0.5h0c-0.3,0.4-0.9,0.8-1.8,0.8c-1.2,0-2.2-0.6-2.2-2
		c0-1.4,1-2.1,2.6-2.1h1.3c0.1,0,0.1,0,0.1-0.1V421c0-0.7-0.3-1.1-1.4-1.1c-0.7,0-1.2,0.2-1.5,0.4c-0.1,0.1-0.1,0-0.2,0l-0.5-0.9
		c0-0.1,0-0.1,0-0.2c0.5-0.4,1.2-0.6,2.3-0.6c2,0,2.7,0.7,2.7,2.3v4.2c0,0.1-0.1,0.1-0.1,0.1H399z M398.8,423.1v-0.5
		c0-0.1,0-0.1-0.1-0.1h-1.1c-1,0-1.4,0.3-1.4,0.9c0,0.5,0.4,0.8,1.1,0.8C398.3,424.2,398.8,423.9,398.8,423.1z"/>
	<path fill="#45FF87" d="M402.3,427.7c-0.1,0-0.1-0.1-0.1-0.1v-8.6c0-0.1,0.1-0.1,0.1-0.1h1.2c0.1,0,0.1,0.1,0.1,0.1v0.5h0
		c0.3-0.4,0.8-0.8,1.7-0.8c1.1,0,1.9,0.5,2.2,1.6c0.2,0.5,0.2,1,0.2,1.8c0,0.9-0.1,1.3-0.2,1.8c-0.3,1-1.1,1.6-2.2,1.6
		c-0.9,0-1.4-0.3-1.7-0.8h0v2.9c0,0.1-0.1,0.1-0.1,0.1H402.3z M406.2,423.3c0.1-0.3,0.1-0.6,0.1-1.2s0-0.9-0.1-1.2
		c-0.2-0.5-0.6-0.8-1.2-0.8c-0.6,0-1,0.3-1.2,0.8c-0.1,0.3-0.1,0.6-0.1,1.2s0,0.9,0.1,1.2c0.2,0.5,0.6,0.8,1.2,0.8
		C405.6,424.1,406,423.8,406.2,423.3z"/>
	<path fill="#45FF87" d="M413.4,425.3c-0.1,0-0.1-0.1-0.1-0.1v-0.5h0c-0.3,0.4-0.9,0.8-1.8,0.8c-1.2,0-2.2-0.6-2.2-2
		c0-1.4,1-2.1,2.6-2.1h1.3c0.1,0,0.1,0,0.1-0.1V421c0-0.7-0.3-1.1-1.4-1.1c-0.7,0-1.2,0.2-1.5,0.4c-0.1,0.1-0.1,0-0.2,0l-0.5-0.9
		c0-0.1,0-0.1,0-0.2c0.5-0.4,1.2-0.6,2.3-0.6c2,0,2.7,0.7,2.7,2.3v4.2c0,0.1-0.1,0.1-0.1,0.1H413.4z M413.2,423.1v-0.5
		c0-0.1,0-0.1-0.1-0.1H412c-1,0-1.4,0.3-1.4,0.9c0,0.5,0.4,0.8,1.1,0.8C412.7,424.2,413.2,423.9,413.2,423.1z"/>
	<path fill="#45FF87" d="M420.6,425.3c-0.1,0-0.1-0.1-0.1-0.1v-3.7c0-0.8-0.4-1.4-1.2-1.4c-0.8,0-1.2,0.6-1.2,1.4v3.7
		c0,0.1-0.1,0.1-0.1,0.1h-1.2c-0.1,0-0.1-0.1-0.1-0.1v-6.2c0-0.1,0.1-0.1,0.1-0.1h1.2c0.1,0,0.1,0.1,0.1,0.1v0.5h0
		c0.3-0.4,0.8-0.8,1.7-0.8c1.4,0,2.3,1,2.3,2.4v4.1c0,0.1-0.1,0.1-0.1,0.1H420.6z"/>
	<path fill="#45FF87" d="M423.8,423.6c-0.1-0.4-0.2-0.9-0.2-1.6c0-0.7,0.1-1.2,0.2-1.6c0.4-1.1,1.4-1.8,2.7-1.8
		c1.3,0,2.3,0.7,2.7,1.8c0.1,0.5,0.2,0.9,0.2,2c0,0.1-0.1,0.1-0.1,0.1h-4c-0.1,0-0.1,0-0.1,0.1c0,0.2,0,0.3,0.1,0.5
		c0.2,0.6,0.7,1,1.5,1c0.7,0,1.2-0.3,1.5-0.6c0.1-0.1,0.1-0.1,0.2,0l0.8,0.7c0.1,0.1,0.1,0.1,0,0.2c-0.6,0.6-1.5,1.1-2.7,1.1
		C425.1,425.4,424.2,424.8,423.8,423.6z M427.7,420.8c-0.2-0.5-0.7-0.8-1.3-0.8c-0.6,0-1.1,0.3-1.3,0.8c-0.1,0.2-0.1,0.3-0.1,0.6
		c0,0.1,0,0.1,0.1,0.1h2.5c0.1,0,0.1,0,0.1-0.1C427.8,421.1,427.8,420.9,427.7,420.8z"/>
	<path fill="#45FF87" d="M430.5,424.4c-0.1-0.1-0.1-0.1,0-0.2l0.8-0.8c0.1-0.1,0.1-0.1,0.2,0c0.5,0.4,1.2,0.7,1.9,0.7
		c0.8,0,1.2-0.3,1.2-0.8c0-0.4-0.2-0.6-1.1-0.7l-0.7-0.1c-1.3-0.1-2-0.8-2-1.9c0-1.3,0.9-2.1,2.5-2.1c1,0,1.9,0.3,2.4,0.8
		c0.1,0.1,0.1,0.1,0,0.2l-0.7,0.8c-0.1,0.1-0.1,0.1-0.2,0c-0.4-0.3-1-0.5-1.7-0.5c-0.6,0-1,0.3-1,0.7c0,0.4,0.2,0.6,1.1,0.7l0.7,0.1
		c1.4,0.1,2,0.8,2,1.9c0,1.3-0.9,2.2-2.7,2.2C432,425.4,431.1,424.9,430.5,424.4z"/>
	<path fill="#45FF87" d="M437.5,423.6c-0.1-0.4-0.2-0.9-0.2-1.6c0-0.7,0.1-1.2,0.2-1.6c0.4-1.1,1.4-1.8,2.7-1.8
		c1.3,0,2.3,0.7,2.7,1.8c0.1,0.5,0.2,0.9,0.2,2c0,0.1-0.1,0.1-0.1,0.1h-4c-0.1,0-0.1,0-0.1,0.1c0,0.2,0,0.3,0.1,0.5
		c0.2,0.6,0.7,1,1.5,1c0.7,0,1.2-0.3,1.5-0.6c0.1-0.1,0.1-0.1,0.2,0l0.8,0.7c0.1,0.1,0.1,0.1,0,0.2c-0.6,0.6-1.5,1.1-2.7,1.1
		C438.9,425.4,437.9,424.8,437.5,423.6z M441.4,420.8c-0.2-0.5-0.7-0.8-1.3-0.8c-0.6,0-1.1,0.3-1.3,0.8c-0.1,0.2-0.1,0.3-0.1,0.6
		c0,0.1,0,0.1,0.1,0.1h2.5c0.1,0,0.1,0,0.1-0.1C441.5,421.1,441.5,420.9,441.4,420.8z"/>
	<path fill="#45FF87" d="M455.9,425.3c-0.1,0-0.1-0.1-0.1-0.1v-3.7c0-0.8-0.4-1.4-1.2-1.4c-0.8,0-1.2,0.6-1.2,1.4v3.7
		c0,0.1-0.1,0.1-0.1,0.1H452c-0.1,0-0.1-0.1-0.1-0.1v-3.7c0-0.8-0.4-1.4-1.2-1.4c-0.8,0-1.2,0.6-1.2,1.4v3.7c0,0.1-0.1,0.1-0.1,0.1
		H448c-0.1,0-0.1-0.1-0.1-0.1v-6.2c0-0.1,0.1-0.1,0.1-0.1h1.2c0.1,0,0.1,0.1,0.1,0.1v0.5h0c0.3-0.4,0.8-0.8,1.7-0.8
		c0.8,0,1.4,0.3,1.8,0.9h0c0.5-0.5,1.1-0.9,2.1-0.9c1.5,0,2.4,1,2.4,2.4v4.1c0,0.1-0.1,0.1-0.1,0.1H455.9z"/>
	<path fill="#45FF87" d="M463.2,425.3c-0.1,0-0.1-0.1-0.1-0.1v-0.5h0c-0.3,0.4-0.9,0.8-1.7,0.8c-1.4,0-2.2-1-2.2-2.4v-4.1
		c0-0.1,0.1-0.1,0.1-0.1h1.2c0.1,0,0.1,0.1,0.1,0.1v3.7c0,0.8,0.4,1.4,1.2,1.4c0.8,0,1.2-0.6,1.2-1.4v-3.8c0-0.1,0.1-0.1,0.1-0.1
		h1.2c0.1,0,0.1,0.1,0.1,0.1v6.2c0,0.1-0.1,0.1-0.1,0.1H463.2z"/>
	<path fill="#45FF87" d="M468.3,425.4c-1.3,0-1.8-0.6-1.8-1.9v-7.2c0-0.1,0.1-0.1,0.1-0.1h1.2c0.1,0,0.1,0.1,0.1,0.1v7.2
		c0,0.4,0.2,0.6,0.6,0.6h0.3c0.1,0,0.1,0.1,0.1,0.1v1.1c0,0.1-0.1,0.1-0.1,0.1H468.3z"/>
	<path fill="#45FF87" d="M472.2,425.4c-1.3,0-1.8-0.6-1.8-1.9v-3.4c0-0.1,0-0.1-0.1-0.1h-0.4c-0.1,0-0.1-0.1-0.1-0.1v-0.9
		c0-0.1,0.1-0.1,0.1-0.1h0.4c0.1,0,0.1,0,0.1-0.1v-1.8c0-0.1,0.1-0.1,0.1-0.1h1.2c0.1,0,0.1,0.1,0.1,0.1v1.8c0,0.1,0,0.1,0.1,0.1
		h0.9c0.1,0,0.1,0.1,0.1,0.1v0.9c0,0.1-0.1,0.1-0.1,0.1H472c-0.1,0-0.1,0-0.1,0.1v3.4c0,0.5,0.2,0.6,0.6,0.6h0.3
		c0.1,0,0.1,0.1,0.1,0.1v1.1c0,0.1-0.1,0.1-0.1,0.1H472.2z"/>
	<path fill="#45FF87" d="M474.8,417.6c-0.1,0-0.1-0.1-0.1-0.1v-1.2c0-0.1,0.1-0.1,0.1-0.1h1.2c0.1,0,0.1,0.1,0.1,0.1v1.2
		c0,0.1-0.1,0.1-0.1,0.1H474.8z M474.8,425.3c-0.1,0-0.1-0.1-0.1-0.1v-6.2c0-0.1,0.1-0.1,0.1-0.1h1.2c0.1,0,0.1,0.1,0.1,0.1v6.2
		c0,0.1-0.1,0.1-0.1,0.1H474.8z"/>
	<path fill="#45FF87" d="M486.2,425.3c-0.1,0-0.1-0.1-0.1-0.1v-3.7c0-0.8-0.4-1.4-1.2-1.4c-0.8,0-1.2,0.6-1.2,1.4v3.7
		c0,0.1-0.1,0.1-0.1,0.1h-1.2c-0.1,0-0.1-0.1-0.1-0.1v-3.7c0-0.8-0.4-1.4-1.2-1.4c-0.8,0-1.2,0.6-1.2,1.4v3.7c0,0.1-0.1,0.1-0.1,0.1
		h-1.2c-0.1,0-0.1-0.1-0.1-0.1v-6.2c0-0.1,0.1-0.1,0.1-0.1h1.2c0.1,0,0.1,0.1,0.1,0.1v0.5h0c0.3-0.4,0.8-0.8,1.7-0.8
		c0.8,0,1.4,0.3,1.8,0.9h0c0.5-0.5,1.1-0.9,2.1-0.9c1.5,0,2.4,1,2.4,2.4v4.1c0,0.1-0.1,0.1-0.1,0.1H486.2z"/>
	<path fill="#45FF87" d="M489.4,423.6c-0.1-0.4-0.2-0.9-0.2-1.6c0-0.7,0.1-1.2,0.2-1.6c0.4-1.1,1.4-1.8,2.7-1.8
		c1.3,0,2.3,0.7,2.7,1.8c0.1,0.5,0.2,0.9,0.2,2c0,0.1-0.1,0.1-0.1,0.1h-4c-0.1,0-0.1,0-0.1,0.1c0,0.2,0,0.3,0.1,0.5
		c0.2,0.6,0.7,1,1.5,1c0.7,0,1.2-0.3,1.5-0.6c0.1-0.1,0.1-0.1,0.2,0l0.8,0.7c0.1,0.1,0.1,0.1,0,0.2c-0.6,0.6-1.5,1.1-2.7,1.1
		C490.7,425.4,489.7,424.8,489.4,423.6z M493.3,420.8c-0.2-0.5-0.7-0.8-1.3-0.8c-0.6,0-1.1,0.3-1.3,0.8c-0.1,0.2-0.1,0.3-0.1,0.6
		c0,0.1,0,0.1,0.1,0.1h2.5c0.1,0,0.1,0,0.1-0.1C493.4,421.1,493.4,420.9,493.3,420.8z"/>
	<path fill="#45FF87" d="M500.5,425.3c-0.1,0-0.1-0.1-0.1-0.1v-0.5h0c-0.3,0.4-0.8,0.8-1.7,0.8c-1.1,0-1.9-0.5-2.2-1.6
		c-0.2-0.5-0.2-1-0.2-1.8c0-0.9,0.1-1.3,0.2-1.8c0.3-1,1.1-1.6,2.2-1.6c0.9,0,1.4,0.3,1.7,0.8h0v-3.2c0-0.1,0.1-0.1,0.1-0.1h1.2
		c0.1,0,0.1,0.1,0.1,0.1v8.9c0,0.1-0.1,0.1-0.1,0.1H500.5z M500.3,423.3c0.1-0.3,0.1-0.6,0.1-1.2s0-0.9-0.1-1.2
		c-0.2-0.5-0.6-0.8-1.2-0.8c-0.6,0-1,0.3-1.2,0.8c-0.1,0.3-0.1,0.6-0.1,1.2s0,0.9,0.1,1.2c0.2,0.5,0.6,0.8,1.2,0.8
		C499.7,424.1,500.1,423.8,500.3,423.3z"/>
	<path fill="#45FF87" d="M504,417.6c-0.1,0-0.1-0.1-0.1-0.1v-1.2c0-0.1,0.1-0.1,0.1-0.1h1.2c0.1,0,0.1,0.1,0.1,0.1v1.2
		c0,0.1-0.1,0.1-0.1,0.1H504z M504,425.3c-0.1,0-0.1-0.1-0.1-0.1v-6.2c0-0.1,0.1-0.1,0.1-0.1h1.2c0.1,0,0.1,0.1,0.1,0.1v6.2
		c0,0.1-0.1,0.1-0.1,0.1H504z"/>
	<path fill="#45FF87" d="M511.2,425.3c-0.1,0-0.1-0.1-0.1-0.1v-0.5h0c-0.3,0.4-0.9,0.8-1.8,0.8c-1.2,0-2.2-0.6-2.2-2
		c0-1.4,1-2.1,2.6-2.1h1.3c0.1,0,0.1,0,0.1-0.1V421c0-0.7-0.3-1.1-1.4-1.1c-0.7,0-1.2,0.2-1.5,0.4c-0.1,0.1-0.1,0-0.2,0l-0.5-0.9
		c0-0.1,0-0.1,0-0.2c0.5-0.4,1.2-0.6,2.3-0.6c2,0,2.7,0.7,2.7,2.3v4.2c0,0.1-0.1,0.1-0.1,0.1H511.2z M511,423.1v-0.5
		c0-0.1,0-0.1-0.1-0.1h-1.1c-1,0-1.4,0.3-1.4,0.9c0,0.5,0.4,0.8,1.1,0.8C510.5,424.2,511,423.9,511,423.1z"/>
	<path fill="#45FF87" d="M517.7,427.7c-0.1,0-0.1-0.1-0.1-0.1v-8.6c0-0.1,0.1-0.1,0.1-0.1h1.2c0.1,0,0.1,0.1,0.1,0.1v0.5h0
		c0.3-0.4,0.8-0.8,1.7-0.8c1.1,0,1.9,0.5,2.2,1.6c0.2,0.5,0.2,1,0.2,1.8c0,0.9-0.1,1.3-0.2,1.8c-0.3,1-1.1,1.6-2.2,1.6
		c-0.9,0-1.4-0.3-1.7-0.8h0v2.9c0,0.1-0.1,0.1-0.1,0.1H517.7z M521.6,423.3c0.1-0.3,0.1-0.6,0.1-1.2s0-0.9-0.1-1.2
		c-0.2-0.5-0.6-0.8-1.2-0.8c-0.6,0-1,0.3-1.2,0.8c-0.1,0.3-0.1,0.6-0.1,1.2s0,0.9,0.1,1.2c0.2,0.5,0.6,0.8,1.2,0.8
		C521,424.1,521.4,423.8,521.6,423.3z"/>
	<path fill="#45FF87" d="M525,425.3c-0.1,0-0.1-0.1-0.1-0.1v-6.2c0-0.1,0.1-0.1,0.1-0.1h1.2c0.1,0,0.1,0.1,0.1,0.1v0.5h0
		c0.3-0.5,0.9-0.8,1.7-0.8c0.5,0,1,0.2,1.4,0.5c0.1,0.1,0.1,0.1,0,0.2l-0.7,0.9c-0.1,0.1-0.1,0.1-0.2,0c-0.3-0.2-0.6-0.3-1-0.3
		c-0.9,0-1.2,0.6-1.2,1.6v3.5c0,0.1-0.1,0.1-0.1,0.1H525z"/>
	<path fill="#45FF87" d="M530.3,423.6c-0.2-0.5-0.2-0.9-0.2-1.6s0.1-1.1,0.2-1.6c0.4-1.1,1.4-1.8,2.7-1.8c1.3,0,2.3,0.7,2.7,1.8
		c0.1,0.5,0.2,0.9,0.2,1.6s-0.1,1.1-0.2,1.6c-0.4,1.1-1.4,1.8-2.7,1.8C531.7,425.4,530.7,424.8,530.3,423.6z M534.2,423.2
		c0.1-0.3,0.1-0.6,0.1-1.2c0-0.6,0-0.9-0.1-1.2c-0.2-0.5-0.6-0.8-1.2-0.8c-0.6,0-1,0.3-1.2,0.8c-0.1,0.3-0.1,0.6-0.1,1.2
		c0,0.5,0,0.9,0.1,1.2c0.2,0.5,0.6,0.8,1.2,0.8C533.6,424.1,534,423.8,534.2,423.2z"/>
	<path fill="#45FF87" d="M537.6,417.6c-0.1,0-0.1-0.1-0.1-0.1v-1.2c0-0.1,0.1-0.1,0.1-0.1h1.2c0.1,0,0.1,0.1,0.1,0.1v1.2
		c0,0.1-0.1,0.1-0.1,0.1H537.6z M536.5,427.7c-0.1,0-0.1-0.1-0.1-0.1v-1.1c0-0.1,0.1-0.1,0.1-0.1h0.3c0.5,0,0.8-0.2,0.8-0.8v-6.7
		c0-0.1,0.1-0.1,0.1-0.1h1.2c0.1,0,0.1,0.1,0.1,0.1v6.6c0,1.5-0.8,2.1-2.2,2.1H536.5z"/>
	<path fill="#45FF87" d="M540.9,423.6c-0.1-0.4-0.2-0.9-0.2-1.6c0-0.7,0.1-1.2,0.2-1.6c0.4-1.1,1.4-1.8,2.7-1.8
		c1.3,0,2.3,0.7,2.7,1.8c0.1,0.5,0.2,0.9,0.2,2c0,0.1-0.1,0.1-0.1,0.1h-4c-0.1,0-0.1,0-0.1,0.1c0,0.2,0,0.3,0.1,0.5
		c0.2,0.6,0.7,1,1.5,1c0.7,0,1.2-0.3,1.5-0.6c0.1-0.1,0.1-0.1,0.2,0l0.8,0.7c0.1,0.1,0.1,0.1,0,0.2c-0.6,0.6-1.5,1.1-2.7,1.1
		C542.2,425.4,541.2,424.8,540.9,423.6z M544.8,420.8c-0.2-0.5-0.7-0.8-1.3-0.8c-0.6,0-1.1,0.3-1.3,0.8c-0.1,0.2-0.1,0.3-0.1,0.6
		c0,0.1,0,0.1,0.1,0.1h2.5c0.1,0,0.1,0,0.1-0.1C544.9,421.1,544.8,420.9,544.8,420.8z"/>
	<path fill="#45FF87" d="M547.9,423.6c-0.1-0.4-0.2-0.9-0.2-1.6c0-0.7,0.1-1.2,0.2-1.6c0.4-1.2,1.4-1.8,2.7-1.8c1,0,1.7,0.4,2.2,1
		c0,0.1,0.1,0.1,0,0.2l-0.9,0.7c-0.1,0.1-0.1,0-0.2,0c-0.3-0.4-0.7-0.6-1.2-0.6c-0.6,0-1,0.3-1.2,0.8c-0.1,0.3-0.1,0.7-0.1,1.2
		c0,0.5,0,0.9,0.1,1.2c0.2,0.6,0.6,0.8,1.2,0.8c0.5,0,0.9-0.2,1.2-0.6c0.1-0.1,0.1-0.1,0.2,0l0.9,0.7c0.1,0.1,0.1,0.1,0,0.2
		c-0.5,0.6-1.3,1-2.2,1C549.2,425.4,548.2,424.8,547.9,423.6z"/>
	<path fill="#45FF87" d="M556.3,425.4c-1.3,0-1.8-0.6-1.8-1.9v-3.4c0-0.1,0-0.1-0.1-0.1H554c-0.1,0-0.1-0.1-0.1-0.1v-0.9
		c0-0.1,0.1-0.1,0.1-0.1h0.4c0.1,0,0.1,0,0.1-0.1v-1.8c0-0.1,0.1-0.1,0.1-0.1h1.2c0.1,0,0.1,0.1,0.1,0.1v1.8c0,0.1,0,0.1,0.1,0.1
		h0.9c0.1,0,0.1,0.1,0.1,0.1v0.9c0,0.1-0.1,0.1-0.1,0.1h-0.9c-0.1,0-0.1,0-0.1,0.1v3.4c0,0.5,0.2,0.6,0.6,0.6h0.3
		c0.1,0,0.1,0.1,0.1,0.1v1.1c0,0.1-0.1,0.1-0.1,0.1H556.3z"/>
	<path fill="#45FF87" d="M561.8,423.6c-0.1-0.4-0.2-0.9-0.2-1.6c0-0.7,0.1-1.2,0.2-1.6c0.4-1.2,1.4-1.8,2.7-1.8c1,0,1.7,0.4,2.2,1
		c0,0.1,0.1,0.1,0,0.2l-0.9,0.7c-0.1,0.1-0.1,0-0.2,0c-0.3-0.4-0.7-0.6-1.2-0.6c-0.6,0-1,0.3-1.2,0.8c-0.1,0.3-0.1,0.7-0.1,1.2
		c0,0.5,0,0.9,0.1,1.2c0.2,0.6,0.6,0.8,1.2,0.8c0.5,0,0.9-0.2,1.2-0.6c0.1-0.1,0.1-0.1,0.2,0l0.9,0.7c0.1,0.1,0.1,0.1,0,0.2
		c-0.5,0.6-1.3,1-2.2,1C563.1,425.4,562.1,424.8,561.8,423.6z"/>
	<path fill="#45FF87" d="M568.2,423.6c-0.1-0.5-0.2-0.9-0.2-1.6s0.1-1.1,0.2-1.6c0.4-1.1,1.4-1.8,2.7-1.8c1.3,0,2.3,0.7,2.7,1.8
		c0.1,0.5,0.2,0.9,0.2,1.6s-0.1,1.1-0.2,1.6c-0.4,1.1-1.4,1.8-2.7,1.8C569.5,425.4,568.5,424.8,568.2,423.6z M572.1,423.2
		c0.1-0.3,0.1-0.6,0.1-1.2c0-0.6,0-0.9-0.1-1.2c-0.2-0.5-0.6-0.8-1.2-0.8c-0.6,0-1,0.3-1.2,0.8c-0.1,0.3-0.1,0.6-0.1,1.2
		c0,0.5,0,0.9,0.1,1.2c0.2,0.5,0.6,0.8,1.2,0.8C571.5,424.1,571.9,423.8,572.1,423.2z"/>
	<path fill="#45FF87" d="M575,422.3v-1.1c0-0.1,0.1-0.1,0.1-0.1h3.7c0.1,0,0.1,0.1,0.1,0.1v1.1c0,0.1-0.1,0.1-0.1,0.1h-3.7
		C575,422.4,575,422.3,575,422.3z"/>
	<path fill="#45FF87" d="M584.5,425.3c-0.1,0-0.1-0.1-0.1-0.1v-0.5h0c-0.3,0.4-0.8,0.8-1.7,0.8c-1.1,0-1.9-0.5-2.2-1.6
		c-0.2-0.5-0.2-1-0.2-1.8c0-0.9,0.1-1.3,0.2-1.8c0.3-1,1.1-1.6,2.2-1.6c0.9,0,1.4,0.3,1.7,0.8h0v-3.2c0-0.1,0.1-0.1,0.1-0.1h1.2
		c0.1,0,0.1,0.1,0.1,0.1v8.9c0,0.1-0.1,0.1-0.1,0.1H584.5z M584.3,423.3c0.1-0.3,0.1-0.6,0.1-1.2s0-0.9-0.1-1.2
		c-0.2-0.5-0.6-0.8-1.2-0.8c-0.6,0-1,0.3-1.2,0.8c-0.1,0.3-0.1,0.6-0.1,1.2s0,0.9,0.1,1.2c0.2,0.5,0.6,0.8,1.2,0.8
		C583.7,424.1,584.1,423.8,584.3,423.3z"/>
	<path fill="#45FF87" d="M587.8,423.6c-0.1-0.4-0.2-0.9-0.2-1.6c0-0.7,0.1-1.2,0.2-1.6c0.4-1.1,1.4-1.8,2.7-1.8
		c1.3,0,2.3,0.7,2.7,1.8c0.1,0.5,0.2,0.9,0.2,2c0,0.1-0.1,0.1-0.1,0.1h-4c-0.1,0-0.1,0-0.1,0.1c0,0.2,0,0.3,0.1,0.5
		c0.2,0.6,0.7,1,1.5,1c0.7,0,1.2-0.3,1.5-0.6c0.1-0.1,0.1-0.1,0.2,0l0.8,0.7c0.1,0.1,0.1,0.1,0,0.2c-0.6,0.6-1.5,1.1-2.7,1.1
		C589.1,425.4,588.1,424.8,587.8,423.6z M591.7,420.8c-0.2-0.5-0.7-0.8-1.3-0.8c-0.6,0-1.1,0.3-1.3,0.8c-0.1,0.2-0.1,0.3-0.1,0.6
		c0,0.1,0,0.1,0.1,0.1h2.5c0.1,0,0.1,0,0.1-0.1C591.8,421.1,591.7,420.9,591.7,420.8z"/>
	<path fill="#45FF87" d="M596.7,425.3c-0.1,0-0.1-0.1-0.2-0.1l-2.3-6.2c0-0.1,0-0.1,0.1-0.1h1.3c0.1,0,0.1,0.1,0.2,0.1l1.4,4.2h0
		l1.4-4.2c0-0.1,0.1-0.1,0.2-0.1h1.3c0.1,0,0.1,0.1,0.1,0.1l-2.3,6.2c0,0.1-0.1,0.1-0.2,0.1H596.7z"/>
	<path fill="#45FF87" d="M601.2,423.6c-0.1-0.4-0.2-0.9-0.2-1.6c0-0.7,0.1-1.2,0.2-1.6c0.4-1.1,1.4-1.8,2.7-1.8
		c1.3,0,2.3,0.7,2.7,1.8c0.1,0.5,0.2,0.9,0.2,2c0,0.1-0.1,0.1-0.1,0.1h-4c-0.1,0-0.1,0-0.1,0.1c0,0.2,0,0.3,0.1,0.5
		c0.2,0.6,0.7,1,1.5,1c0.7,0,1.2-0.3,1.5-0.6c0.1-0.1,0.1-0.1,0.2,0l0.8,0.7c0.1,0.1,0.1,0.1,0,0.2c-0.6,0.6-1.5,1.1-2.7,1.1
		C602.6,425.4,601.6,424.8,601.2,423.6z M605.2,420.8c-0.2-0.5-0.7-0.8-1.3-0.8c-0.6,0-1.1,0.3-1.3,0.8c-0.1,0.2-0.1,0.3-0.1,0.6
		c0,0.1,0,0.1,0.1,0.1h2.5c0.1,0,0.1,0,0.1-0.1C605.2,421.1,605.2,420.9,605.2,420.8z"/>
	<path fill="#45FF87" d="M610.1,425.4c-1.3,0-1.8-0.6-1.8-1.9v-7.2c0-0.1,0.1-0.1,0.1-0.1h1.2c0.1,0,0.1,0.1,0.1,0.1v7.2
		c0,0.4,0.2,0.6,0.6,0.6h0.3c0.1,0,0.1,0.1,0.1,0.1v1.1c0,0.1-0.1,0.1-0.1,0.1H610.1z"/>
	<path fill="#45FF87" d="M612.2,423.6c-0.1-0.5-0.2-0.9-0.2-1.6s0.1-1.1,0.2-1.6c0.4-1.1,1.4-1.8,2.7-1.8c1.3,0,2.3,0.7,2.7,1.8
		c0.1,0.5,0.2,0.9,0.2,1.6s-0.1,1.1-0.2,1.6c-0.4,1.1-1.4,1.8-2.7,1.8C613.5,425.4,612.5,424.8,612.2,423.6z M616.1,423.2
		c0.1-0.3,0.1-0.6,0.1-1.2c0-0.6,0-0.9-0.1-1.2c-0.2-0.5-0.6-0.8-1.2-0.8c-0.6,0-1,0.3-1.2,0.8c-0.1,0.3-0.1,0.6-0.1,1.2
		c0,0.5,0,0.9,0.1,1.2c0.2,0.5,0.6,0.8,1.2,0.8C615.5,424.1,615.9,423.8,616.1,423.2z"/>
	<path fill="#45FF87" d="M619.5,427.7c-0.1,0-0.1-0.1-0.1-0.1v-8.6c0-0.1,0.1-0.1,0.1-0.1h1.2c0.1,0,0.1,0.1,0.1,0.1v0.5h0
		c0.3-0.4,0.8-0.8,1.7-0.8c1.1,0,1.9,0.5,2.2,1.6c0.2,0.5,0.2,1,0.2,1.8c0,0.9-0.1,1.3-0.2,1.8c-0.3,1-1.1,1.6-2.2,1.6
		c-0.9,0-1.4-0.3-1.7-0.8h0v2.9c0,0.1-0.1,0.1-0.1,0.1H619.5z M623.4,423.3c0.1-0.3,0.1-0.6,0.1-1.2s0-0.9-0.1-1.2
		c-0.2-0.5-0.6-0.8-1.2-0.8c-0.6,0-1,0.3-1.2,0.8c-0.1,0.3-0.1,0.6-0.1,1.2s0,0.9,0.1,1.2c0.2,0.5,0.6,0.8,1.2,0.8
		C622.8,424.1,623.2,423.8,623.4,423.3z"/>
	<path fill="#45FF87" d="M626.6,423.6c-0.1-0.4-0.2-0.9-0.2-1.6c0-0.7,0.1-1.2,0.2-1.6c0.4-1.1,1.4-1.8,2.7-1.8
		c1.3,0,2.3,0.7,2.7,1.8c0.1,0.5,0.2,0.9,0.2,2c0,0.1-0.1,0.1-0.1,0.1h-4c-0.1,0-0.1,0-0.1,0.1c0,0.2,0,0.3,0.1,0.5
		c0.2,0.6,0.7,1,1.5,1c0.7,0,1.2-0.3,1.5-0.6c0.1-0.1,0.1-0.1,0.2,0l0.8,0.7c0.1,0.1,0.1,0.1,0,0.2c-0.6,0.6-1.5,1.1-2.7,1.1
		C627.9,425.4,626.9,424.8,626.6,423.6z M630.5,420.8c-0.2-0.5-0.7-0.8-1.3-0.8c-0.6,0-1.1,0.3-1.3,0.8c-0.1,0.2-0.1,0.3-0.1,0.6
		c0,0.1,0,0.1,0.1,0.1h2.5c0.1,0,0.1,0,0.1-0.1C630.6,421.1,630.5,420.9,630.5,420.8z"/>
	<path fill="#45FF87" d="M637.7,425.3c-0.1,0-0.1-0.1-0.1-0.1v-0.5h0c-0.3,0.4-0.8,0.8-1.7,0.8c-1.1,0-1.9-0.5-2.2-1.6
		c-0.2-0.5-0.2-1-0.2-1.8c0-0.9,0.1-1.3,0.2-1.8c0.3-1,1.1-1.6,2.2-1.6c0.9,0,1.4,0.3,1.7,0.8h0v-3.2c0-0.1,0.1-0.1,0.1-0.1h1.2
		c0.1,0,0.1,0.1,0.1,0.1v8.9c0,0.1-0.1,0.1-0.1,0.1H637.7z M637.4,423.3c0.1-0.3,0.1-0.6,0.1-1.2s0-0.9-0.1-1.2
		c-0.2-0.5-0.6-0.8-1.2-0.8c-0.6,0-1,0.3-1.2,0.8c-0.1,0.3-0.1,0.6-0.1,1.2s0,0.9,0.1,1.2c0.2,0.5,0.6,0.8,1.2,0.8
		C636.9,424.1,637.3,423.8,637.4,423.3z"/>
	<path fill="#45FF87" d="M645.8,424.7L645.8,424.7l0,0.5c0,0.1-0.1,0.1-0.1,0.1h-1.2c-0.1,0-0.1-0.1-0.1-0.1v-8.9
		c0-0.1,0.1-0.1,0.1-0.1h1.2c0.1,0,0.1,0.1,0.1,0.1v3.2h0c0.3-0.4,0.9-0.8,1.7-0.8c1.1,0,1.9,0.5,2.2,1.6c0.2,0.5,0.2,1,0.2,1.8
		c0,0.9-0.1,1.3-0.2,1.8c-0.3,1-1.1,1.6-2.2,1.6C646.6,425.4,646.1,425.1,645.8,424.7z M648.3,423.3c0.1-0.3,0.1-0.6,0.1-1.2
		s0-0.9-0.1-1.2c-0.2-0.5-0.6-0.8-1.2-0.8c-0.6,0-1,0.3-1.2,0.8c-0.1,0.3-0.1,0.6-0.1,1.2s0,0.9,0.1,1.2c0.2,0.5,0.6,0.8,1.2,0.8
		C647.7,424.1,648.1,423.8,648.3,423.3z"/>
	<path fill="#45FF87" d="M651.7,427.7c-0.1,0-0.1-0.1-0.1-0.1v-1.1c0-0.1,0.1-0.1,0.1-0.1h0.2c0.5,0,0.8-0.2,1-0.8l0.2-0.6l-2.4-6.1
		c0-0.1,0-0.1,0.1-0.1h1.3c0.1,0,0.1,0.1,0.2,0.1l1.5,4.2h0l1.4-4.2c0-0.1,0.1-0.1,0.2-0.1h1.3c0.1,0,0.1,0.1,0.1,0.1l-2.5,6.8
		c-0.6,1.5-1.1,2-2.2,2H651.7z"/>
	<path fill="#45FF87" d="M663.6,416.3c0-0.1,0.1-0.1,0.2-0.1h1.2c0.1,0,0.1,0.1,0.2,0.1l3.1,8.9c0,0.1,0,0.1-0.1,0.1h-1.3
		c-0.1,0-0.1,0-0.2-0.1l-0.6-1.8h-3.4l-0.6,1.8c0,0.1-0.1,0.1-0.2,0.1h-1.3c-0.1,0-0.1-0.1-0.1-0.1L663.6,416.3z M665.6,422
		l-1.2-3.6h0l-1.2,3.6H665.6z"/>
	<path fill="#45FF87" d="M669.1,424.2c-0.1-0.1-0.1-0.1,0-0.2l0.8-1c0.1-0.1,0.1-0.1,0.2,0c0.6,0.5,1.5,1,2.5,1
		c1.1,0,1.7-0.5,1.7-1.3c0-0.7-0.4-1.1-1.7-1.3l-0.5-0.1c-1.8-0.2-2.8-1.1-2.8-2.6c0-1.7,1.2-2.8,3.1-2.8c1.1,0,2.2,0.4,3,0.9
		c0.1,0.1,0.1,0.1,0,0.2l-0.6,1c-0.1,0.1-0.1,0.1-0.2,0c-0.7-0.5-1.4-0.7-2.2-0.7c-0.9,0-1.4,0.5-1.4,1.2c0,0.6,0.4,1.1,1.7,1.2
		l0.5,0.1c1.8,0.2,2.7,1.1,2.7,2.7c0,1.6-1.2,2.8-3.4,2.8C671.1,425.4,669.8,424.9,669.1,424.2z"/>
	<path fill="#45FF87" d="M677.2,420.7c0-1.5,0.1-1.9,0.2-2.5c0.5-1.5,1.6-2.2,3.2-2.2c1.5,0,2.6,0.8,3.1,2c0,0.1,0,0.1-0.1,0.2
		l-1.1,0.6c-0.1,0-0.1,0-0.2-0.1c-0.3-0.6-0.8-1.2-1.7-1.2c-0.9,0-1.4,0.5-1.6,1.2c-0.1,0.4-0.2,0.7-0.2,2.1c0,1.3,0,1.7,0.2,2.1
		c0.3,0.7,0.8,1.2,1.6,1.2c0.9,0,1.4-0.5,1.7-1.2c0-0.1,0.1-0.1,0.2-0.1l1.1,0.5c0.1,0,0.1,0.1,0.1,0.2c-0.5,1.2-1.6,2-3.1,2
		c-1.5,0-2.7-0.8-3.2-2.2C677.2,422.6,677.2,422.2,677.2,420.7z"/>
	<path fill="#45FF87" d="M685.2,416.3c0-0.1,0.1-0.1,0.1-0.1h1.3c0.1,0,0.1,0.1,0.1,0.1v8.9c0,0.1-0.1,0.1-0.1,0.1h-1.3
		c-0.1,0-0.1-0.1-0.1-0.1V416.3z"/>
	<path fill="#45FF87" d="M688.8,416.3c0-0.1,0.1-0.1,0.1-0.1h1.3c0.1,0,0.1,0.1,0.1,0.1v8.9c0,0.1-0.1,0.1-0.1,0.1h-1.3
		c-0.1,0-0.1-0.1-0.1-0.1V416.3z"/>
	<path fill="#45FF87" d="M695.6,416.3c0-0.1,0.1-0.1,0.1-0.1h1.2c0.1,0,0.2,0,0.2,0.1l2.5,5.6h0.1l2.5-5.6c0-0.1,0.1-0.1,0.2-0.1
		h1.2c0.1,0,0.1,0.1,0.1,0.1v8.9c0,0.1-0.1,0.1-0.1,0.1h-1.2c-0.1,0-0.1-0.1-0.1-0.1v-5.6h-0.1l-1.9,4.3c-0.1,0.1-0.1,0.2-0.3,0.2
		h-0.8c-0.1,0-0.2-0.1-0.3-0.2l-1.9-4.3H697v5.6c0,0.1-0.1,0.1-0.1,0.1h-1.2c-0.1,0-0.1-0.1-0.1-0.1V416.3z"/>
	<path fill="#45FF87" d="M705.6,423.6c-0.1-0.4-0.2-0.9-0.2-1.6c0-0.7,0.1-1.2,0.2-1.6c0.4-1.1,1.4-1.8,2.7-1.8
		c1.3,0,2.3,0.7,2.7,1.8c0.1,0.5,0.2,0.9,0.2,2c0,0.1-0.1,0.1-0.1,0.1h-4c-0.1,0-0.1,0-0.1,0.1c0,0.2,0,0.3,0.1,0.5
		c0.2,0.6,0.7,1,1.5,1c0.7,0,1.2-0.3,1.5-0.6c0.1-0.1,0.1-0.1,0.2,0l0.8,0.7c0.1,0.1,0.1,0.1,0,0.2c-0.6,0.6-1.5,1.1-2.7,1.1
		C707,425.4,706,424.8,705.6,423.6z M709.6,420.8c-0.2-0.5-0.7-0.8-1.3-0.8c-0.6,0-1.1,0.3-1.3,0.8c-0.1,0.2-0.1,0.3-0.1,0.6
		c0,0.1,0,0.1,0.1,0.1h2.5c0.1,0,0.1,0,0.1-0.1C709.6,421.1,709.6,420.9,709.6,420.8z"/>
	<path fill="#45FF87" d="M716.8,425.3c-0.1,0-0.1-0.1-0.1-0.1v-0.5h0c-0.3,0.4-0.8,0.8-1.7,0.8c-1.1,0-1.9-0.5-2.2-1.6
		c-0.2-0.5-0.2-1-0.2-1.8c0-0.9,0.1-1.3,0.2-1.8c0.3-1,1.1-1.6,2.2-1.6c0.9,0,1.4,0.3,1.7,0.8h0v-3.2c0-0.1,0.1-0.1,0.1-0.1h1.2
		c0.1,0,0.1,0.1,0.1,0.1v8.9c0,0.1-0.1,0.1-0.1,0.1H716.8z M716.5,423.3c0.1-0.3,0.1-0.6,0.1-1.2s0-0.9-0.1-1.2
		c-0.2-0.5-0.6-0.8-1.2-0.8c-0.6,0-1,0.3-1.2,0.8c-0.1,0.3-0.1,0.6-0.1,1.2s0,0.9,0.1,1.2c0.2,0.5,0.6,0.8,1.2,0.8
		C715.9,424.1,716.3,423.8,716.5,423.3z"/>
	<path fill="#45FF87" d="M720.3,417.6c-0.1,0-0.1-0.1-0.1-0.1v-1.2c0-0.1,0.1-0.1,0.1-0.1h1.2c0.1,0,0.1,0.1,0.1,0.1v1.2
		c0,0.1-0.1,0.1-0.1,0.1H720.3z M720.3,425.3c-0.1,0-0.1-0.1-0.1-0.1v-6.2c0-0.1,0.1-0.1,0.1-0.1h1.2c0.1,0,0.1,0.1,0.1,0.1v6.2
		c0,0.1-0.1,0.1-0.1,0.1H720.3z"/>
	<path fill="#45FF87" d="M727.5,425.3c-0.1,0-0.1-0.1-0.1-0.1v-0.5h0c-0.3,0.4-0.9,0.8-1.8,0.8c-1.2,0-2.2-0.6-2.2-2
		c0-1.4,1-2.1,2.6-2.1h1.3c0.1,0,0.1,0,0.1-0.1V421c0-0.7-0.3-1.1-1.4-1.1c-0.7,0-1.2,0.2-1.5,0.4c-0.1,0.1-0.1,0-0.2,0l-0.5-0.9
		c0-0.1,0-0.1,0-0.2c0.5-0.4,1.2-0.6,2.3-0.6c2,0,2.7,0.7,2.7,2.3v4.2c0,0.1-0.1,0.1-0.1,0.1H727.5z M727.3,423.1v-0.5
		c0-0.1,0-0.1-0.1-0.1h-1.1c-1,0-1.4,0.3-1.4,0.9c0,0.5,0.4,0.8,1.1,0.8C726.8,424.2,727.3,423.9,727.3,423.1z"/>
	<path fill="#45FF87" d="M740.1,425.3c-0.1,0-0.1-0.1-0.2-0.1l-1.8-6.3h0l-1.8,6.3c0,0.1-0.1,0.1-0.2,0.1h-1c-0.1,0-0.1-0.1-0.2-0.1
		l-2.3-8.9c0-0.1,0-0.1,0.1-0.1h1.3c0.1,0,0.1,0.1,0.2,0.1l1.5,6.2h0l1.7-6.2c0-0.1,0.1-0.1,0.2-0.1h0.9c0.1,0,0.1,0.1,0.2,0.1
		l1.8,6.2h0l1.4-6.2c0-0.1,0.1-0.1,0.2-0.1h1.3c0.1,0,0.1,0.1,0.1,0.1l-2.2,8.9c0,0.1-0.1,0.1-0.2,0.1H740.1z"/>
	<path fill="#45FF87" d="M744,423.6c-0.1-0.5-0.2-0.9-0.2-1.6s0.1-1.1,0.2-1.6c0.4-1.1,1.4-1.8,2.7-1.8c1.3,0,2.3,0.7,2.7,1.8
		c0.1,0.5,0.2,0.9,0.2,1.6s-0.1,1.1-0.2,1.6c-0.4,1.1-1.4,1.8-2.7,1.8C745.4,425.4,744.4,424.8,744,423.6z M747.9,423.2
		c0.1-0.3,0.1-0.6,0.1-1.2c0-0.6,0-0.9-0.1-1.2c-0.2-0.5-0.6-0.8-1.2-0.8c-0.6,0-1,0.3-1.2,0.8c-0.1,0.3-0.1,0.6-0.1,1.2
		c0,0.5,0,0.9,0.1,1.2c0.2,0.5,0.6,0.8,1.2,0.8C747.3,424.1,747.8,423.8,747.9,423.2z"/>
	<path fill="#45FF87" d="M751.4,425.3c-0.1,0-0.1-0.1-0.1-0.1v-6.2c0-0.1,0.1-0.1,0.1-0.1h1.2c0.1,0,0.1,0.1,0.1,0.1v0.5h0
		c0.3-0.5,0.9-0.8,1.7-0.8c0.5,0,1,0.2,1.4,0.5c0.1,0.1,0.1,0.1,0,0.2l-0.7,0.9c-0.1,0.1-0.1,0.1-0.2,0c-0.3-0.2-0.6-0.3-1-0.3
		c-0.9,0-1.2,0.6-1.2,1.6v3.5c0,0.1-0.1,0.1-0.1,0.1H751.4z"/>
	<path fill="#45FF87" d="M761.2,425.3c-0.1,0-0.2,0-0.2-0.1l-1.6-2.7l-0.9,1v1.7c0,0.1-0.1,0.1-0.1,0.1h-1.2c-0.1,0-0.1-0.1-0.1-0.1
		v-8.9c0-0.1,0.1-0.1,0.1-0.1h1.2c0.1,0,0.1,0.1,0.1,0.1v5.3l2.2-2.6c0.1-0.1,0.1-0.1,0.3-0.1h1.4c0.1,0,0.1,0.1,0.1,0.1l-2.1,2.4
		l2.4,3.9c0,0.1,0,0.1-0.1,0.1H761.2z"/>
	<path fill="#45FF87" d="M763.4,424.4c-0.1-0.1-0.1-0.1,0-0.2l0.8-0.8c0.1-0.1,0.1-0.1,0.2,0c0.5,0.4,1.2,0.7,1.9,0.7
		c0.8,0,1.2-0.3,1.2-0.8c0-0.4-0.2-0.6-1.1-0.7l-0.7-0.1c-1.3-0.1-2-0.8-2-1.9c0-1.3,0.9-2.1,2.5-2.1c1,0,1.9,0.3,2.4,0.8
		c0.1,0.1,0.1,0.1,0,0.2l-0.7,0.8c-0.1,0.1-0.1,0.1-0.2,0c-0.4-0.3-1-0.5-1.7-0.5s-1,0.3-1,0.7c0,0.4,0.2,0.6,1.1,0.7l0.7,0.1
		c1.4,0.1,2,0.8,2,1.9c0,1.3-0.9,2.2-2.7,2.2C764.9,425.4,763.9,424.9,763.4,424.4z"/>
	<path fill="#45FF87" d="M770.3,418.6v-2.3c0-0.1,0.1-0.1,0.1-0.1h0.8c0.1,0,0.1,0.1,0.1,0.1v2.3c0,0.1-0.1,0.1-0.1,0.1h-0.8
		C770.4,418.7,770.3,418.7,770.3,418.6z"/>
	<path fill="#45FF87" d="M776.4,416.3c0-0.1,0.1-0.1,0.1-0.1h3.3c1.6,0,2.6,0.7,3.1,2c0.1,0.5,0.2,1,0.2,2.5c0,1.6-0.1,2.1-0.2,2.5
		c-0.4,1.3-1.5,2-3.1,2h-3.3c-0.1,0-0.1-0.1-0.1-0.1V416.3z M778.1,423.9h1.4c1,0,1.6-0.3,1.9-1.2c0.1-0.3,0.2-0.7,0.2-2
		c0-1.3-0.1-1.7-0.2-2c-0.3-0.8-0.9-1.2-1.9-1.2h-1.4c-0.1,0-0.1,0-0.1,0.1L778.1,423.9C778,423.8,778.1,423.9,778.1,423.9z"/>
	<path fill="#45FF87" d="M784.7,423.6c-0.1-0.4-0.2-0.9-0.2-1.6c0-0.7,0.1-1.2,0.2-1.6c0.4-1.1,1.4-1.8,2.6-1.8
		c1.3,0,2.3,0.7,2.7,1.8c0.1,0.5,0.2,0.9,0.2,2c0,0.1-0.1,0.1-0.1,0.1h-4c-0.1,0-0.1,0-0.1,0.1c0,0.2,0,0.3,0.1,0.5
		c0.2,0.6,0.7,1,1.5,1c0.7,0,1.2-0.3,1.5-0.6c0.1-0.1,0.1-0.1,0.2,0l0.8,0.7c0.1,0.1,0.1,0.1,0,0.2c-0.5,0.6-1.5,1.1-2.7,1.1
		C786,425.4,785.1,424.8,784.7,423.6z M788.6,420.8c-0.2-0.5-0.7-0.8-1.3-0.8c-0.6,0-1.1,0.3-1.3,0.8c-0.1,0.2-0.1,0.3-0.1,0.6
		c0,0.1,0,0.1,0.1,0.1h2.5c0.1,0,0.1,0,0.1-0.1C788.7,421.1,788.7,420.9,788.6,420.8z"/>
	<path fill="#45FF87" d="M791.7,426.9c-0.1-0.1-0.1-0.1,0-0.2l0.8-0.8c0.1-0.1,0.1-0.1,0.2,0c0.4,0.4,0.9,0.6,1.4,0.6
		c1,0,1.5-0.5,1.5-1.5v-0.6h0c-0.3,0.5-0.8,0.8-1.7,0.8c-1.1,0-1.9-0.5-2.2-1.6c-0.2-0.5-0.2-0.9-0.2-1.7c0-0.7,0.1-1.1,0.2-1.6
		c0.3-1,1.1-1.6,2.2-1.6c0.8,0,1.4,0.3,1.7,0.8h0v-0.5c0-0.1,0.1-0.1,0.1-0.1h1.2c0.1,0,0.1,0.1,0.1,0.1v5.9c0,1.9-1,3-3,3
		C793.2,427.9,792.2,427.5,791.7,426.9z M795.5,422.9c0.1-0.3,0.1-0.6,0.1-1.1c0-0.4,0-0.8-0.1-1.1c-0.2-0.5-0.5-0.8-1.2-0.8
		c-0.6,0-1,0.3-1.1,0.8c-0.1,0.3-0.1,0.6-0.1,1.1c0,0.4,0,0.8,0.1,1.1c0.2,0.5,0.5,0.8,1.1,0.8C794.9,423.8,795.3,423.5,795.5,422.9
		z"/>
	<path fill="#45FF87" d="M799,423.6c-0.1-0.4-0.2-0.9-0.2-1.6c0-0.7,0.1-1.2,0.2-1.6c0.4-1.1,1.4-1.8,2.7-1.8c1.3,0,2.3,0.7,2.7,1.8
		c0.1,0.5,0.2,0.9,0.2,2c0,0.1-0.1,0.1-0.1,0.1h-4c-0.1,0-0.1,0-0.1,0.1c0,0.2,0,0.3,0.1,0.5c0.2,0.6,0.7,1,1.5,1
		c0.7,0,1.2-0.3,1.5-0.6c0.1-0.1,0.1-0.1,0.2,0l0.8,0.7c0.1,0.1,0.1,0.1,0,0.2c-0.6,0.6-1.5,1.1-2.7,1.1
		C800.3,425.4,799.3,424.8,799,423.6z M802.9,420.8c-0.2-0.5-0.7-0.8-1.3-0.8c-0.6,0-1.1,0.3-1.3,0.8c-0.1,0.2-0.1,0.3-0.1,0.6
		c0,0.1,0,0.1,0.1,0.1h2.5c0.1,0,0.1,0,0.1-0.1C803,421.1,802.9,420.9,802.9,420.8z"/>
	<path fill="#45FF87" d="M810.2,425.3c-0.1,0-0.1-0.1-0.1-0.1v-3.7c0-0.8-0.4-1.4-1.2-1.4c-0.8,0-1.2,0.6-1.2,1.4v3.7
		c0,0.1-0.1,0.1-0.1,0.1h-1.2c-0.1,0-0.1-0.1-0.1-0.1v-6.2c0-0.1,0.1-0.1,0.1-0.1h1.2c0.1,0,0.1,0.1,0.1,0.1v0.5h0
		c0.3-0.4,0.9-0.8,1.7-0.8c1.4,0,2.2,1,2.2,2.4v4.1c0,0.1-0.1,0.1-0.1,0.1H810.2z"/>
	<path fill="#45FF87" d="M817.7,425.3c-0.1,0-0.2,0-0.2-0.1l-1.6-2.7l-0.9,1v1.7c0,0.1-0.1,0.1-0.1,0.1h-1.2c-0.1,0-0.1-0.1-0.1-0.1
		v-8.9c0-0.1,0.1-0.1,0.1-0.1h1.2c0.1,0,0.1,0.1,0.1,0.1v5.3l2.2-2.6c0.1-0.1,0.1-0.1,0.3-0.1h1.4c0.1,0,0.1,0.1,0.1,0.1l-2.1,2.4
		l2.4,3.9c0,0.1,0,0.1-0.1,0.1H817.7z"/>
	<path fill="#45FF87" d="M820.6,417.6c-0.1,0-0.1-0.1-0.1-0.1v-1.2c0-0.1,0.1-0.1,0.1-0.1h1.2c0.1,0,0.1,0.1,0.1,0.1v1.2
		c0,0.1-0.1,0.1-0.1,0.1H820.6z M820.6,425.3c-0.1,0-0.1-0.1-0.1-0.1v-6.2c0-0.1,0.1-0.1,0.1-0.1h1.2c0.1,0,0.1,0.1,0.1,0.1v6.2
		c0,0.1-0.1,0.1-0.1,0.1H820.6z"/>
	<path fill="#45FF87" d="M826.9,420.7c0-1.4,0.1-1.9,0.2-2.5c0.5-1.5,1.7-2.2,3.3-2.2c1.7,0,2.8,0.9,3.2,1.9c0,0.1,0,0.1-0.1,0.2
		l-1.1,0.5c-0.1,0-0.1,0-0.2-0.1c-0.4-0.7-1-1.1-1.8-1.1c-0.9,0-1.5,0.5-1.7,1.2c-0.1,0.3-0.2,0.8-0.2,2.1c0,1.3,0.1,1.8,0.2,2.1
		c0.3,0.7,0.8,1.2,1.7,1.2c0.8,0,1.5-0.4,1.7-1.1c0.1-0.3,0.1-0.7,0.1-1.2c0-0.1,0-0.1-0.1-0.1h-1.5c-0.1,0-0.1-0.1-0.1-0.1v-1.1
		c0-0.1,0.1-0.1,0.1-0.1h3c0.1,0,0.1,0.1,0.1,0.1v0.8c0,0.8-0.1,1.5-0.2,2c-0.4,1.4-1.7,2.2-3.2,2.2c-1.6,0-2.8-0.8-3.3-2.2
		C827,422.7,826.9,422.2,826.9,420.7z"/>
	<path fill="#45FF87" d="M835.5,418.6v-2.3c0-0.1,0.1-0.1,0.1-0.1h0.8c0.1,0,0.1,0.1,0.1,0.1v2.3c0,0.1-0.1,0.1-0.1,0.1h-0.8
		C835.5,418.7,835.5,418.7,835.5,418.6z"/>
	<path fill="#45FF87" d="M838,424.4c-0.1-0.1-0.1-0.1,0-0.2l0.8-0.8c0.1-0.1,0.1-0.1,0.2,0c0.5,0.4,1.2,0.7,1.9,0.7
		c0.8,0,1.2-0.3,1.2-0.8c0-0.4-0.2-0.6-1.1-0.7l-0.7-0.1c-1.3-0.1-2-0.8-2-1.9c0-1.3,0.9-2.1,2.5-2.1c1,0,1.9,0.3,2.4,0.8
		c0.1,0.1,0.1,0.1,0,0.2l-0.7,0.8c-0.1,0.1-0.1,0.1-0.2,0c-0.4-0.3-1.1-0.5-1.7-0.5c-0.6,0-1,0.3-1,0.7c0,0.4,0.2,0.6,1.1,0.7
		l0.7,0.1c1.4,0.1,2,0.8,2,1.9c0,1.3-0.9,2.2-2.7,2.2C839.4,425.4,838.5,424.9,838,424.4z"/>
	<path fill="#45FF87" d="M848.3,416.3c0-0.1,0.1-0.1,0.1-0.1h1.2c0.1,0,0.2,0,0.2,0.1l2.5,5.6h0.1l2.5-5.6c0-0.1,0.1-0.1,0.2-0.1
		h1.2c0.1,0,0.1,0.1,0.1,0.1v8.9c0,0.1-0.1,0.1-0.1,0.1h-1.2c-0.1,0-0.1-0.1-0.1-0.1v-5.6h-0.1l-1.9,4.3c-0.1,0.1-0.1,0.2-0.3,0.2
		H852c-0.1,0-0.2-0.1-0.3-0.2l-1.9-4.3h-0.1v5.6c0,0.1-0.1,0.1-0.1,0.1h-1.2c-0.1,0-0.1-0.1-0.1-0.1V416.3z"/>
	<path fill="#45FF87" d="M862.3,425.3c-0.1,0-0.1-0.1-0.1-0.1v-0.5h0c-0.3,0.4-0.9,0.8-1.8,0.8c-1.2,0-2.2-0.6-2.2-2
		c0-1.4,1-2.1,2.6-2.1h1.3c0.1,0,0.1,0,0.1-0.1V421c0-0.7-0.3-1.1-1.4-1.1c-0.7,0-1.2,0.2-1.5,0.4c-0.1,0.1-0.1,0-0.2,0l-0.5-0.9
		c0-0.1,0-0.1,0-0.2c0.5-0.4,1.2-0.6,2.3-0.6c2,0,2.7,0.7,2.7,2.3v4.2c0,0.1-0.1,0.1-0.1,0.1H862.3z M862.1,423.1v-0.5
		c0-0.1,0-0.1-0.1-0.1H861c-1,0-1.4,0.3-1.4,0.9c0,0.5,0.4,0.8,1.1,0.8C861.6,424.2,862.1,423.9,862.1,423.1z"/>
	<path fill="#45FF87" d="M865.3,426.9c-0.1-0.1-0.1-0.1,0-0.2l0.8-0.8c0.1-0.1,0.1-0.1,0.2,0c0.4,0.4,0.9,0.6,1.4,0.6
		c1,0,1.5-0.5,1.5-1.5v-0.6h0c-0.3,0.5-0.8,0.8-1.7,0.8c-1.1,0-1.9-0.5-2.2-1.6c-0.2-0.5-0.2-0.9-0.2-1.7c0-0.7,0.1-1.1,0.2-1.6
		c0.3-1,1.1-1.6,2.2-1.6c0.8,0,1.4,0.3,1.7,0.8h0v-0.5c0-0.1,0.1-0.1,0.1-0.1h1.2c0.1,0,0.1,0.1,0.1,0.1v5.9c0,1.9-1,3-3,3
		C866.8,427.9,865.8,427.5,865.3,426.9z M869.1,422.9c0.1-0.3,0.1-0.6,0.1-1.1c0-0.4,0-0.8-0.1-1.1c-0.2-0.5-0.5-0.8-1.2-0.8
		c-0.6,0-1,0.3-1.1,0.8c-0.1,0.3-0.1,0.6-0.1,1.1c0,0.4,0,0.8,0.1,1.1c0.2,0.5,0.5,0.8,1.1,0.8C868.5,423.8,868.9,423.5,869.1,422.9
		z"/>
	<path fill="#45FF87" d="M876.5,425.3c-0.1,0-0.1-0.1-0.1-0.1v-0.5h0c-0.3,0.4-0.9,0.8-1.8,0.8c-1.2,0-2.2-0.6-2.2-2
		c0-1.4,1-2.1,2.6-2.1h1.3c0.1,0,0.1,0,0.1-0.1V421c0-0.7-0.3-1.1-1.4-1.1c-0.7,0-1.2,0.2-1.5,0.4c-0.1,0.1-0.1,0-0.2,0l-0.5-0.9
		c0-0.1,0-0.1,0-0.2c0.5-0.4,1.2-0.6,2.3-0.6c2,0,2.7,0.7,2.7,2.3v4.2c0,0.1-0.1,0.1-0.1,0.1H876.5z M876.4,423.1v-0.5
		c0-0.1,0-0.1-0.1-0.1h-1.1c-1,0-1.4,0.3-1.4,0.9c0,0.5,0.4,0.8,1.1,0.8C875.9,424.2,876.4,423.9,876.4,423.1z"/>
	<path fill="#45FF87" d="M879.6,425.3c-0.1,0-0.1-0.1-0.1-0.1v-1c0-0.1,0-0.1,0-0.1l3.3-3.9v0h-3c-0.1,0-0.1-0.1-0.1-0.1v-1
		c0-0.1,0.1-0.1,0.1-0.1h4.7c0.1,0,0.1,0.1,0.1,0.1v1c0,0.1,0,0.1,0,0.1l-3.3,3.8v0h3.2c0.1,0,0.1,0.1,0.1,0.1v1
		c0,0.1-0.1,0.1-0.1,0.1H879.6z"/>
	<path fill="#45FF87" d="M886.4,417.6c-0.1,0-0.1-0.1-0.1-0.1v-1.2c0-0.1,0.1-0.1,0.1-0.1h1.2c0.1,0,0.1,0.1,0.1,0.1v1.2
		c0,0.1-0.1,0.1-0.1,0.1H886.4z M886.4,425.3c-0.1,0-0.1-0.1-0.1-0.1v-6.2c0-0.1,0.1-0.1,0.1-0.1h1.2c0.1,0,0.1,0.1,0.1,0.1v6.2
		c0,0.1-0.1,0.1-0.1,0.1H886.4z"/>
	<path fill="#45FF87" d="M893.8,425.3c-0.1,0-0.1-0.1-0.1-0.1v-3.7c0-0.8-0.4-1.4-1.2-1.4c-0.8,0-1.2,0.6-1.2,1.4v3.7
		c0,0.1-0.1,0.1-0.1,0.1h-1.2c-0.1,0-0.1-0.1-0.1-0.1v-6.2c0-0.1,0.1-0.1,0.1-0.1h1.2c0.1,0,0.1,0.1,0.1,0.1v0.5h0
		c0.3-0.4,0.9-0.8,1.7-0.8c1.4,0,2.2,1,2.2,2.4v4.1c0,0.1-0.1,0.1-0.1,0.1H893.8z"/>
	<path fill="#45FF87" d="M897,423.6c-0.1-0.4-0.2-0.9-0.2-1.6c0-0.7,0.1-1.2,0.2-1.6c0.4-1.1,1.4-1.8,2.7-1.8c1.3,0,2.3,0.7,2.7,1.8
		c0.1,0.5,0.2,0.9,0.2,2c0,0.1-0.1,0.1-0.1,0.1h-4c-0.1,0-0.1,0-0.1,0.1c0,0.2,0,0.3,0.1,0.5c0.2,0.6,0.7,1,1.5,1
		c0.7,0,1.2-0.3,1.5-0.6c0.1-0.1,0.1-0.1,0.2,0l0.8,0.7c0.1,0.1,0.1,0.1,0,0.2c-0.6,0.6-1.5,1.1-2.7,1.1
		C898.3,425.4,897.4,424.8,897,423.6z M900.9,420.8c-0.2-0.5-0.7-0.8-1.3-0.8c-0.6,0-1.1,0.3-1.3,0.8c-0.1,0.2-0.1,0.3-0.1,0.6
		c0,0.1,0,0.1,0.1,0.1h2.5c0.1,0,0.1,0,0.1-0.1C901,421.1,901,420.9,900.9,420.8z"/>
	<path fill="#45FF87" d="M904,423.8c0-0.1,0.1-0.1,0.1-0.1h1.3c0.1,0,0.1,0.1,0.1,0.1v1.5c0,0.1,0,0.2-0.1,0.3l-1.1,1.2
		c-0.1,0.1-0.1,0.1-0.2,0.1c-0.1,0-0.1-0.1-0.1-0.1V423.8z"/>
	<path fill="#45FF87" d="M303.9,441.5c-1.3,0-1.8-0.6-1.8-1.9v-3.4c0-0.1,0-0.1-0.1-0.1h-0.4c-0.1,0-0.1-0.1-0.1-0.1v-0.9
		c0-0.1,0.1-0.1,0.1-0.1h0.4c0.1,0,0.1,0,0.1-0.1v-1.8c0-0.1,0.1-0.1,0.1-0.1h1.2c0.1,0,0.1,0.1,0.1,0.1v1.8c0,0.1,0,0.1,0.1,0.1
		h0.9c0.1,0,0.1,0.1,0.1,0.1v0.9c0,0.1-0.1,0.1-0.1,0.1h-0.9c-0.1,0-0.1,0-0.1,0.1v3.4c0,0.5,0.2,0.6,0.6,0.6h0.3
		c0.1,0,0.1,0.1,0.1,0.1v1.1c0,0.1-0.1,0.1-0.1,0.1H303.9z"/>
	<path fill="#45FF87" d="M310.4,441.5c-0.1,0-0.1-0.1-0.1-0.1v-3.7c0-0.8-0.4-1.4-1.2-1.4c-0.8,0-1.2,0.6-1.2,1.4v3.7
		c0,0.1-0.1,0.1-0.1,0.1h-1.2c-0.1,0-0.1-0.1-0.1-0.1v-8.9c0-0.1,0.1-0.1,0.1-0.1h1.2c0.1,0,0.1,0.1,0.1,0.1v3.1h0
		c0.3-0.4,0.8-0.8,1.7-0.8c1.4,0,2.2,1,2.2,2.4v4.1c0,0.1-0.1,0.1-0.1,0.1H310.4z"/>
	<path fill="#45FF87" d="M313.6,439.8c-0.1-0.4-0.2-0.9-0.2-1.6c0-0.7,0.1-1.2,0.2-1.6c0.4-1.1,1.4-1.8,2.6-1.8
		c1.3,0,2.3,0.7,2.7,1.8c0.1,0.5,0.2,0.9,0.2,2c0,0.1-0.1,0.1-0.1,0.1h-4c-0.1,0-0.1,0-0.1,0.1c0,0.2,0,0.3,0.1,0.5
		c0.2,0.6,0.7,1,1.5,1c0.7,0,1.2-0.3,1.5-0.6c0.1-0.1,0.1-0.1,0.2,0l0.8,0.7c0.1,0.1,0.1,0.1,0,0.2c-0.6,0.6-1.5,1.1-2.7,1.1
		C314.9,441.6,314,440.9,313.6,439.8z M317.5,436.9c-0.2-0.5-0.7-0.8-1.3-0.8c-0.6,0-1.1,0.3-1.3,0.8c-0.1,0.2-0.1,0.3-0.1,0.6
		c0,0.1,0,0.1,0.1,0.1h2.5c0.1,0,0.1,0,0.1-0.1C317.6,437.3,317.6,437.1,317.5,436.9z"/>
	<path fill="#45FF87" d="M332,441.5c-0.1,0-0.1-0.1-0.1-0.1v-3.7c0-0.8-0.4-1.4-1.2-1.4c-0.8,0-1.2,0.6-1.2,1.4v3.7
		c0,0.1-0.1,0.1-0.1,0.1H328c-0.1,0-0.1-0.1-0.1-0.1v-3.7c0-0.8-0.4-1.4-1.2-1.4c-0.8,0-1.2,0.6-1.2,1.4v3.7c0,0.1-0.1,0.1-0.1,0.1
		H324c-0.1,0-0.1-0.1-0.1-0.1v-6.2c0-0.1,0.1-0.1,0.1-0.1h1.2c0.1,0,0.1,0.1,0.1,0.1v0.5h0c0.3-0.4,0.8-0.8,1.7-0.8
		c0.8,0,1.4,0.3,1.8,0.9h0c0.5-0.5,1.1-0.9,2.1-0.9c1.5,0,2.4,1,2.4,2.4v4.1c0,0.1-0.1,0.1-0.1,0.1H332z"/>
	<path fill="#45FF87" d="M339.3,441.5c-0.1,0-0.1-0.1-0.1-0.1v-0.5h0c-0.3,0.4-0.9,0.8-1.7,0.8c-1.4,0-2.2-1-2.2-2.4v-4.1
		c0-0.1,0.1-0.1,0.1-0.1h1.2c0.1,0,0.1,0.1,0.1,0.1v3.7c0,0.8,0.4,1.4,1.2,1.4c0.8,0,1.2-0.6,1.2-1.4v-3.8c0-0.1,0.1-0.1,0.1-0.1
		h1.2c0.1,0,0.1,0.1,0.1,0.1v6.2c0,0.1-0.1,0.1-0.1,0.1H339.3z"/>
	<path fill="#45FF87" d="M342.2,440.6c-0.1-0.1-0.1-0.1,0-0.2l0.8-0.8c0.1-0.1,0.1-0.1,0.2,0c0.5,0.4,1.2,0.7,1.9,0.7
		c0.8,0,1.2-0.3,1.2-0.8c0-0.4-0.2-0.6-1.1-0.7l-0.7-0.1c-1.3-0.1-2-0.8-2-1.9c0-1.3,0.9-2,2.5-2c1,0,1.9,0.3,2.4,0.8
		c0.1,0.1,0.1,0.1,0,0.2l-0.7,0.8c-0.1,0.1-0.1,0.1-0.2,0c-0.4-0.3-1-0.5-1.7-0.5c-0.6,0-1,0.3-1,0.7c0,0.4,0.2,0.6,1.1,0.7l0.7,0.1
		c1.4,0.1,2,0.8,2,1.9c0,1.3-0.9,2.2-2.7,2.2C343.7,441.6,342.7,441.1,342.2,440.6z"/>
	<path fill="#45FF87" d="M349.4,433.7c-0.1,0-0.1-0.1-0.1-0.1v-1.2c0-0.1,0.1-0.1,0.1-0.1h1.2c0.1,0,0.1,0.1,0.1,0.1v1.2
		c0,0.1-0.1,0.1-0.1,0.1H349.4z M349.4,441.5c-0.1,0-0.1-0.1-0.1-0.1v-6.2c0-0.1,0.1-0.1,0.1-0.1h1.2c0.1,0,0.1,0.1,0.1,0.1v6.2
		c0,0.1-0.1,0.1-0.1,0.1H349.4z"/>
	<path fill="#45FF87" d="M352.6,439.8c-0.1-0.4-0.2-0.9-0.2-1.6c0-0.7,0.1-1.2,0.2-1.6c0.4-1.2,1.4-1.8,2.7-1.8c1,0,1.7,0.4,2.2,1
		c0,0.1,0.1,0.1,0,0.2l-0.8,0.7c-0.1,0.1-0.1,0-0.2,0c-0.3-0.4-0.7-0.6-1.2-0.6c-0.6,0-1,0.3-1.2,0.8c-0.1,0.3-0.1,0.7-0.1,1.2
		c0,0.5,0,0.9,0.1,1.2c0.2,0.5,0.6,0.8,1.2,0.8c0.5,0,0.9-0.2,1.2-0.6c0.1-0.1,0.1-0.1,0.2,0l0.8,0.7c0.1,0.1,0.1,0.1,0,0.2
		c-0.5,0.6-1.3,1-2.2,1C354,441.6,353,441,352.6,439.8z"/>
	<path fill="#45FF87" d="M364.1,441.5c-1.3,0-1.8-0.6-1.8-1.9v-7.2c0-0.1,0.1-0.1,0.1-0.1h1.2c0.1,0,0.1,0.1,0.1,0.1v7.2
		c0,0.4,0.2,0.6,0.6,0.6h0.3c0.1,0,0.1,0.1,0.1,0.1v1.1c0,0.1-0.1,0.1-0.1,0.1H364.1z"/>
	<path fill="#45FF87" d="M370.1,441.5c-0.1,0-0.1-0.1-0.1-0.1v-0.5h0c-0.3,0.4-0.9,0.8-1.8,0.8c-1.2,0-2.2-0.6-2.2-2
		c0-1.4,1-2.1,2.6-2.1h1.3c0.1,0,0.1,0,0.1-0.1v-0.3c0-0.7-0.3-1.1-1.4-1.1c-0.7,0-1.2,0.2-1.5,0.4c-0.1,0.1-0.1,0-0.2,0l-0.5-0.9
		c0-0.1,0-0.1,0-0.2c0.5-0.4,1.2-0.6,2.3-0.6c2,0,2.7,0.7,2.7,2.3v4.2c0,0.1-0.1,0.1-0.1,0.1H370.1z M370,439.3v-0.5
		c0-0.1,0-0.1-0.1-0.1h-1.1c-1,0-1.4,0.3-1.4,0.9c0,0.5,0.4,0.8,1.1,0.8C369.5,440.4,370,440,370,439.3z"/>
	<path fill="#45FF87" d="M374.9,440.8L374.9,440.8l0,0.5c0,0.1-0.1,0.1-0.1,0.1h-1.2c-0.1,0-0.1-0.1-0.1-0.1v-8.9
		c0-0.1,0.1-0.1,0.1-0.1h1.2c0.1,0,0.1,0.1,0.1,0.1v3.2h0c0.3-0.4,0.8-0.8,1.7-0.8c1.1,0,1.9,0.5,2.2,1.6c0.2,0.5,0.2,1,0.2,1.8
		s-0.1,1.3-0.2,1.8c-0.3,1-1.1,1.6-2.2,1.6C375.7,441.6,375.2,441.3,374.9,440.8z M377.4,439.4c0.1-0.3,0.1-0.6,0.1-1.2
		c0-0.6,0-0.9-0.1-1.2c-0.2-0.5-0.6-0.8-1.2-0.8c-0.6,0-1,0.3-1.2,0.8c-0.1,0.3-0.1,0.6-0.1,1.2c0,0.6,0,0.9,0.1,1.2
		c0.2,0.5,0.6,0.8,1.2,0.8C376.8,440.3,377.2,440,377.4,439.4z"/>
	<path fill="#45FF87" d="M380.6,439.8c-0.1-0.4-0.2-0.9-0.2-1.6c0-0.7,0.1-1.2,0.2-1.6c0.4-1.1,1.4-1.8,2.7-1.8
		c1.3,0,2.3,0.7,2.7,1.8c0.1,0.5,0.2,0.9,0.2,2c0,0.1-0.1,0.1-0.1,0.1h-4c-0.1,0-0.1,0-0.1,0.1c0,0.2,0,0.3,0.1,0.5
		c0.2,0.6,0.7,1,1.5,1c0.7,0,1.2-0.3,1.5-0.6c0.1-0.1,0.1-0.1,0.2,0l0.8,0.7c0.1,0.1,0.1,0.1,0,0.2c-0.6,0.6-1.5,1.1-2.7,1.1
		C381.9,441.6,380.9,440.9,380.6,439.8z M384.5,436.9c-0.2-0.5-0.7-0.8-1.3-0.8c-0.6,0-1.1,0.3-1.3,0.8c-0.1,0.2-0.1,0.3-0.1,0.6
		c0,0.1,0,0.1,0.1,0.1h2.5c0.1,0,0.1,0,0.1-0.1C384.5,437.3,384.5,437.1,384.5,436.9z"/>
	<path fill="#45FF87" d="M389.4,441.5c-1.3,0-1.8-0.6-1.8-1.9v-7.2c0-0.1,0.1-0.1,0.1-0.1h1.2c0.1,0,0.1,0.1,0.1,0.1v7.2
		c0,0.4,0.2,0.6,0.6,0.6h0.3c0.1,0,0.1,0.1,0.1,0.1v1.1c0,0.1-0.1,0.1-0.1,0.1H389.4z"/>
	<path fill="#45FF87" d="M394.8,432.4c0-0.1,0.1-0.1,0.1-0.1h1.3c0.1,0,0.1,0.1,0.1,0.1v7.5c0,0.1,0,0.1,0.1,0.1h4.2
		c0.1,0,0.1,0.1,0.1,0.1v1.2c0,0.1-0.1,0.1-0.1,0.1h-5.7c-0.1,0-0.1-0.1-0.1-0.1V432.4z"/>
	<path fill="#45FF87" d="M406,441.5c-0.1,0-0.1-0.1-0.1-0.1v-0.5h0c-0.3,0.4-0.9,0.8-1.8,0.8c-1.2,0-2.2-0.6-2.2-2
		c0-1.4,1-2.1,2.6-2.1h1.3c0.1,0,0.1,0,0.1-0.1v-0.3c0-0.7-0.3-1.1-1.4-1.1c-0.7,0-1.2,0.2-1.5,0.4c-0.1,0.1-0.1,0-0.2,0l-0.5-0.9
		c0-0.1,0-0.1,0-0.2c0.5-0.4,1.2-0.6,2.3-0.6c2,0,2.7,0.7,2.7,2.3v4.2c0,0.1-0.1,0.1-0.1,0.1H406z M405.8,439.3v-0.5
		c0-0.1,0-0.1-0.1-0.1h-1.1c-1,0-1.4,0.3-1.4,0.9c0,0.5,0.4,0.8,1.1,0.8C405.3,440.4,405.8,440,405.8,439.3z"/>
	<path fill="#45FF87" d="M413.3,441.5c-0.1,0-0.1-0.1-0.1-0.1v-3.7c0-0.8-0.4-1.4-1.2-1.4c-0.8,0-1.2,0.6-1.2,1.4v3.7
		c0,0.1-0.1,0.1-0.1,0.1h-1.2c-0.1,0-0.1-0.1-0.1-0.1v-6.2c0-0.1,0.1-0.1,0.1-0.1h1.2c0.1,0,0.1,0.1,0.1,0.1v0.5h0
		c0.3-0.4,0.8-0.8,1.7-0.8c1.4,0,2.3,1,2.3,2.4v4.1c0,0.1-0.1,0.1-0.1,0.1H413.3z"/>
	<path fill="#45FF87" d="M418.5,441.5c-1.3,0-1.8-0.6-1.8-1.9v-3.4c0-0.1,0-0.1-0.1-0.1h-0.4c-0.1,0-0.1-0.1-0.1-0.1v-0.9
		c0-0.1,0.1-0.1,0.1-0.1h0.4c0.1,0,0.1,0,0.1-0.1v-1.8c0-0.1,0.1-0.1,0.1-0.1h1.2c0.1,0,0.1,0.1,0.1,0.1v1.8c0,0.1,0,0.1,0.1,0.1
		h0.9c0.1,0,0.1,0.1,0.1,0.1v0.9c0,0.1-0.1,0.1-0.1,0.1h-0.9c-0.1,0-0.1,0-0.1,0.1v3.4c0,0.5,0.2,0.6,0.6,0.6h0.3
		c0.1,0,0.1,0.1,0.1,0.1v1.1c0,0.1-0.1,0.1-0.1,0.1H418.5z"/>
	<path fill="#45FF87" d="M421,433.7c-0.1,0-0.1-0.1-0.1-0.1v-1.2c0-0.1,0.1-0.1,0.1-0.1h1.2c0.1,0,0.1,0.1,0.1,0.1v1.2
		c0,0.1-0.1,0.1-0.1,0.1H421z M421,441.5c-0.1,0-0.1-0.1-0.1-0.1v-6.2c0-0.1,0.1-0.1,0.1-0.1h1.2c0.1,0,0.1,0.1,0.1,0.1v6.2
		c0,0.1-0.1,0.1-0.1,0.1H421z"/>
	<path fill="#45FF87" d="M424,440.6c-0.1-0.1-0.1-0.1,0-0.2l0.8-0.8c0.1-0.1,0.1-0.1,0.2,0c0.5,0.4,1.2,0.7,1.9,0.7
		c0.8,0,1.2-0.3,1.2-0.8c0-0.4-0.2-0.6-1.1-0.7l-0.7-0.1c-1.3-0.1-2-0.8-2-1.9c0-1.3,0.9-2,2.5-2c1,0,1.9,0.3,2.4,0.8
		c0.1,0.1,0.1,0.1,0,0.2l-0.7,0.8c-0.1,0.1-0.1,0.1-0.2,0c-0.4-0.3-1-0.5-1.7-0.5c-0.6,0-1,0.3-1,0.7c0,0.4,0.2,0.6,1.1,0.7l0.7,0.1
		c1.4,0.1,2,0.8,2,1.9c0,1.3-0.9,2.2-2.7,2.2C425.4,441.6,424.5,441.1,424,440.6z"/>
	<path fill="#45FF87" d="M431,440c0-0.1,0.1-0.1,0.1-0.1h1.3c0.1,0,0.1,0.1,0.1,0.1v1.5c0,0.1,0,0.2-0.1,0.3l-1.1,1.2
		c-0.1,0.1-0.1,0.1-0.2,0.1c-0.1,0-0.1-0.1-0.1-0.1V440z"/>
	<path fill="#45FF87" d="M441.2,441.5c-0.1,0-0.1-0.1-0.1-0.1v-0.5h0c-0.3,0.4-0.9,0.8-1.8,0.8c-1.2,0-2.2-0.6-2.2-2
		c0-1.4,1-2.1,2.6-2.1h1.3c0.1,0,0.1,0,0.1-0.1v-0.3c0-0.7-0.3-1.1-1.4-1.1c-0.7,0-1.2,0.2-1.5,0.4c-0.1,0.1-0.1,0-0.2,0l-0.5-0.9
		c0-0.1,0-0.1,0-0.2c0.5-0.4,1.2-0.6,2.3-0.6c2,0,2.7,0.7,2.7,2.3v4.2c0,0.1-0.1,0.1-0.1,0.1H441.2z M441,439.3v-0.5
		c0-0.1,0-0.1-0.1-0.1h-1.1c-1,0-1.4,0.3-1.4,0.9c0,0.5,0.4,0.8,1.1,0.8C440.5,440.4,441,440,441,439.3z"/>
	<path fill="#45FF87" d="M448.5,441.5c-0.1,0-0.1-0.1-0.1-0.1v-3.7c0-0.8-0.4-1.4-1.2-1.4c-0.8,0-1.2,0.6-1.2,1.4v3.7
		c0,0.1-0.1,0.1-0.1,0.1h-1.2c-0.1,0-0.1-0.1-0.1-0.1v-6.2c0-0.1,0.1-0.1,0.1-0.1h1.2c0.1,0,0.1,0.1,0.1,0.1v0.5h0
		c0.3-0.4,0.8-0.8,1.7-0.8c1.4,0,2.2,1,2.2,2.4v4.1c0,0.1-0.1,0.1-0.1,0.1H448.5z"/>
	<path fill="#45FF87" d="M455.7,441.5c-0.1,0-0.1-0.1-0.1-0.1v-0.5h0c-0.3,0.4-0.8,0.8-1.7,0.8c-1.1,0-1.9-0.5-2.2-1.6
		c-0.2-0.5-0.2-1-0.2-1.8s0.1-1.3,0.2-1.8c0.3-1,1.1-1.6,2.2-1.6c0.9,0,1.4,0.3,1.7,0.8h0v-3.2c0-0.1,0.1-0.1,0.1-0.1h1.2
		c0.1,0,0.1,0.1,0.1,0.1v8.9c0,0.1-0.1,0.1-0.1,0.1H455.7z M455.5,439.4c0.1-0.3,0.1-0.6,0.1-1.2c0-0.6,0-0.9-0.1-1.2
		c-0.2-0.5-0.6-0.8-1.2-0.8c-0.6,0-1,0.3-1.2,0.8c-0.1,0.3-0.1,0.6-0.1,1.2c0,0.6,0,0.9,0.1,1.2c0.2,0.5,0.6,0.8,1.2,0.8
		C454.9,440.3,455.3,440,455.5,439.4z"/>
	<path fill="#45FF87" d="M464.2,441.5c-1.3,0-1.8-0.6-1.8-1.9v-3.4c0-0.1,0-0.1-0.1-0.1h-0.4c-0.1,0-0.1-0.1-0.1-0.1v-0.9
		c0-0.1,0.1-0.1,0.1-0.1h0.4c0.1,0,0.1,0,0.1-0.1v-1.8c0-0.1,0.1-0.1,0.1-0.1h1.2c0.1,0,0.1,0.1,0.1,0.1v1.8c0,0.1,0,0.1,0.1,0.1
		h0.9c0.1,0,0.1,0.1,0.1,0.1v0.9c0,0.1-0.1,0.1-0.1,0.1h-0.9c-0.1,0-0.1,0-0.1,0.1v3.4c0,0.5,0.2,0.6,0.6,0.6h0.3
		c0.1,0,0.1,0.1,0.1,0.1v1.1c0,0.1-0.1,0.1-0.1,0.1H464.2z"/>
	<path fill="#45FF87" d="M470.7,441.5c-0.1,0-0.1-0.1-0.1-0.1v-3.7c0-0.8-0.4-1.4-1.2-1.4c-0.8,0-1.2,0.6-1.2,1.4v3.7
		c0,0.1-0.1,0.1-0.1,0.1h-1.2c-0.1,0-0.1-0.1-0.1-0.1v-8.9c0-0.1,0.1-0.1,0.1-0.1h1.2c0.1,0,0.1,0.1,0.1,0.1v3.1h0
		c0.3-0.4,0.8-0.8,1.7-0.8c1.4,0,2.2,1,2.2,2.4v4.1c0,0.1-0.1,0.1-0.1,0.1H470.7z"/>
	<path fill="#45FF87" d="M473.8,439.8c-0.1-0.4-0.2-0.9-0.2-1.6c0-0.7,0.1-1.2,0.2-1.6c0.4-1.1,1.4-1.8,2.7-1.8
		c1.3,0,2.3,0.7,2.7,1.8c0.1,0.5,0.2,0.9,0.2,2c0,0.1-0.1,0.1-0.1,0.1h-4c-0.1,0-0.1,0-0.1,0.1c0,0.2,0,0.3,0.1,0.5
		c0.2,0.6,0.7,1,1.5,1c0.7,0,1.2-0.3,1.5-0.6c0.1-0.1,0.1-0.1,0.2,0l0.8,0.7c0.1,0.1,0.1,0.1,0,0.2c-0.6,0.6-1.5,1.1-2.7,1.1
		C475.2,441.6,474.2,440.9,473.8,439.8z M477.8,436.9c-0.2-0.5-0.7-0.8-1.3-0.8c-0.6,0-1.1,0.3-1.3,0.8c-0.1,0.2-0.1,0.3-0.1,0.6
		c0,0.1,0,0.1,0.1,0.1h2.5c0.1,0,0.1,0,0.1-0.1C477.8,437.3,477.8,437.1,477.8,436.9z"/>
	<path fill="#45FF87" d="M488,441.5c-0.1,0-0.1-0.1-0.1-0.1v-0.5h0c-0.3,0.4-0.9,0.8-1.8,0.8c-1.2,0-2.2-0.6-2.2-2
		c0-1.4,1-2.1,2.6-2.1h1.3c0.1,0,0.1,0,0.1-0.1v-0.3c0-0.7-0.3-1.1-1.4-1.1c-0.7,0-1.2,0.2-1.5,0.4c-0.1,0.1-0.1,0-0.2,0l-0.5-0.9
		c0-0.1,0-0.1,0-0.2c0.5-0.4,1.2-0.6,2.3-0.6c2,0,2.7,0.7,2.7,2.3v4.2c0,0.1-0.1,0.1-0.1,0.1H488z M487.9,439.3v-0.5
		c0-0.1,0-0.1-0.1-0.1h-1.1c-1,0-1.4,0.3-1.4,0.9c0,0.5,0.4,0.8,1.1,0.8C487.4,440.4,487.9,440,487.9,439.3z"/>
	<path fill="#45FF87" d="M495.3,441.5c-0.1,0-0.1-0.1-0.1-0.1v-3.7c0-0.8-0.4-1.4-1.2-1.4c-0.8,0-1.2,0.6-1.2,1.4v3.7
		c0,0.1-0.1,0.1-0.1,0.1h-1.2c-0.1,0-0.1-0.1-0.1-0.1v-6.2c0-0.1,0.1-0.1,0.1-0.1h1.2c0.1,0,0.1,0.1,0.1,0.1v0.5h0
		c0.3-0.4,0.8-0.8,1.7-0.8c1.4,0,2.2,1,2.2,2.4v4.1c0,0.1-0.1,0.1-0.1,0.1H495.3z"/>
	<path fill="#45FF87" d="M498.7,433.7c-0.1,0-0.1-0.1-0.1-0.1v-1.2c0-0.1,0.1-0.1,0.1-0.1h1.2c0.1,0,0.1,0.1,0.1,0.1v1.2
		c0,0.1-0.1,0.1-0.1,0.1H498.7z M498.7,441.5c-0.1,0-0.1-0.1-0.1-0.1v-6.2c0-0.1,0.1-0.1,0.1-0.1h1.2c0.1,0,0.1,0.1,0.1,0.1v6.2
		c0,0.1-0.1,0.1-0.1,0.1H498.7z"/>
	<path fill="#45FF87" d="M510.1,441.5c-0.1,0-0.1-0.1-0.1-0.1v-3.7c0-0.8-0.4-1.4-1.2-1.4c-0.8,0-1.2,0.6-1.2,1.4v3.7
		c0,0.1-0.1,0.1-0.1,0.1h-1.2c-0.1,0-0.1-0.1-0.1-0.1v-3.7c0-0.8-0.4-1.4-1.2-1.4c-0.8,0-1.2,0.6-1.2,1.4v3.7c0,0.1-0.1,0.1-0.1,0.1
		h-1.2c-0.1,0-0.1-0.1-0.1-0.1v-6.2c0-0.1,0.1-0.1,0.1-0.1h1.2c0.1,0,0.1,0.1,0.1,0.1v0.5h0c0.3-0.4,0.8-0.8,1.7-0.8
		c0.8,0,1.4,0.3,1.8,0.9h0c0.5-0.5,1.1-0.9,2.1-0.9c1.5,0,2.4,1,2.4,2.4v4.1c0,0.1-0.1,0.1-0.1,0.1H510.1z"/>
	<path fill="#45FF87" d="M513.3,439.8c-0.1-0.4-0.2-0.9-0.2-1.6c0-0.7,0.1-1.2,0.2-1.6c0.4-1.1,1.4-1.8,2.7-1.8
		c1.3,0,2.3,0.7,2.7,1.8c0.1,0.5,0.2,0.9,0.2,2c0,0.1-0.1,0.1-0.1,0.1h-4c-0.1,0-0.1,0-0.1,0.1c0,0.2,0,0.3,0.1,0.5
		c0.2,0.6,0.7,1,1.5,1c0.7,0,1.2-0.3,1.5-0.6c0.1-0.1,0.1-0.1,0.2,0l0.8,0.7c0.1,0.1,0.1,0.1,0,0.2c-0.6,0.6-1.5,1.1-2.7,1.1
		C514.6,441.6,513.7,440.9,513.3,439.8z M517.2,436.9c-0.2-0.5-0.7-0.8-1.3-0.8c-0.6,0-1.1,0.3-1.3,0.8c-0.1,0.2-0.1,0.3-0.1,0.6
		c0,0.1,0,0.1,0.1,0.1h2.5c0.1,0,0.1,0,0.1-0.1C517.3,437.3,517.3,437.1,517.2,436.9z"/>
	<path fill="#45FF87" d="M523.2,440.6c-0.1-0.1-0.1-0.1,0-0.2l0.8-0.8c0.1-0.1,0.1-0.1,0.2,0c0.5,0.4,1.2,0.7,1.9,0.7
		c0.8,0,1.2-0.3,1.2-0.8c0-0.4-0.2-0.6-1.1-0.7l-0.7-0.1c-1.3-0.1-2-0.8-2-1.9c0-1.3,0.9-2,2.5-2c1,0,1.9,0.3,2.4,0.8
		c0.1,0.1,0.1,0.1,0,0.2l-0.7,0.8c-0.1,0.1-0.1,0.1-0.2,0c-0.4-0.3-1-0.5-1.7-0.5c-0.6,0-1,0.3-1,0.7c0,0.4,0.2,0.6,1.1,0.7l0.7,0.1
		c1.4,0.1,2,0.8,2,1.9c0,1.3-0.9,2.2-2.7,2.2C524.7,441.6,523.8,441.1,523.2,440.6z"/>
	<path fill="#45FF87" d="M532.2,441.5c-1.3,0-1.8-0.6-1.8-1.9v-3.4c0-0.1,0-0.1-0.1-0.1h-0.4c-0.1,0-0.1-0.1-0.1-0.1v-0.9
		c0-0.1,0.1-0.1,0.1-0.1h0.4c0.1,0,0.1,0,0.1-0.1v-1.8c0-0.1,0.1-0.1,0.1-0.1h1.2c0.1,0,0.1,0.1,0.1,0.1v1.8c0,0.1,0,0.1,0.1,0.1
		h0.9c0.1,0,0.1,0.1,0.1,0.1v0.9c0,0.1-0.1,0.1-0.1,0.1H532c-0.1,0-0.1,0-0.1,0.1v3.4c0,0.5,0.2,0.6,0.6,0.6h0.3
		c0.1,0,0.1,0.1,0.1,0.1v1.1c0,0.1-0.1,0.1-0.1,0.1H532.2z"/>
	<path fill="#45FF87" d="M538.6,441.5c-0.1,0-0.1-0.1-0.1-0.1v-0.5h0c-0.3,0.4-0.9,0.8-1.7,0.8c-1.4,0-2.2-1-2.2-2.4v-4.1
		c0-0.1,0.1-0.1,0.1-0.1h1.2c0.1,0,0.1,0.1,0.1,0.1v3.7c0,0.8,0.4,1.4,1.2,1.4c0.8,0,1.2-0.6,1.2-1.4v-3.8c0-0.1,0.1-0.1,0.1-0.1
		h1.2c0.1,0,0.1,0.1,0.1,0.1v6.2c0,0.1-0.1,0.1-0.1,0.1H538.6z"/>
	<path fill="#45FF87" d="M546,441.5c-0.1,0-0.1-0.1-0.1-0.1v-0.5h0c-0.3,0.4-0.8,0.8-1.7,0.8c-1.1,0-1.9-0.5-2.2-1.6
		c-0.2-0.5-0.2-1-0.2-1.8s0.1-1.3,0.2-1.8c0.3-1,1.1-1.6,2.2-1.6c0.9,0,1.4,0.3,1.7,0.8h0v-3.2c0-0.1,0.1-0.1,0.1-0.1h1.2
		c0.1,0,0.1,0.1,0.1,0.1v8.9c0,0.1-0.1,0.1-0.1,0.1H546z M545.7,439.4c0.1-0.3,0.1-0.6,0.1-1.2c0-0.6,0-0.9-0.1-1.2
		c-0.2-0.5-0.6-0.8-1.2-0.8c-0.6,0-1,0.3-1.2,0.8c-0.1,0.3-0.1,0.6-0.1,1.2c0,0.6,0,0.9,0.1,1.2c0.2,0.5,0.6,0.8,1.2,0.8
		C545.1,440.3,545.5,440,545.7,439.4z"/>
	<path fill="#45FF87" d="M549.5,433.7c-0.1,0-0.1-0.1-0.1-0.1v-1.2c0-0.1,0.1-0.1,0.1-0.1h1.2c0.1,0,0.1,0.1,0.1,0.1v1.2
		c0,0.1-0.1,0.1-0.1,0.1H549.5z M549.5,441.5c-0.1,0-0.1-0.1-0.1-0.1v-6.2c0-0.1,0.1-0.1,0.1-0.1h1.2c0.1,0,0.1,0.1,0.1,0.1v6.2
		c0,0.1-0.1,0.1-0.1,0.1H549.5z"/>
	<path fill="#45FF87" d="M552.7,439.8c-0.1-0.5-0.2-0.9-0.2-1.6c0-0.7,0.1-1.1,0.2-1.6c0.4-1.1,1.4-1.8,2.7-1.8
		c1.3,0,2.3,0.7,2.7,1.8c0.1,0.5,0.2,0.9,0.2,1.6c0,0.7-0.1,1.1-0.2,1.6c-0.4,1.1-1.4,1.8-2.7,1.8C554,441.6,553,440.9,552.7,439.8z
		 M556.6,439.4c0.1-0.3,0.1-0.6,0.1-1.2c0-0.5,0-0.8-0.1-1.2c-0.2-0.5-0.6-0.8-1.2-0.8c-0.6,0-1,0.3-1.2,0.8
		c-0.1,0.3-0.1,0.6-0.1,1.2c0,0.6,0,0.9,0.1,1.2c0.2,0.5,0.6,0.8,1.2,0.8C556,440.3,556.4,440,556.6,439.4z"/>
	<path fill="#45FF87" d="M562.6,440.4c-0.1-0.1-0.1-0.1,0-0.2l0.8-1c0.1-0.1,0.1-0.1,0.2,0c0.6,0.5,1.5,1,2.5,1
		c1.1,0,1.7-0.6,1.7-1.3c0-0.7-0.4-1.1-1.7-1.3l-0.5-0.1c-1.8-0.2-2.8-1.1-2.8-2.6c0-1.7,1.2-2.8,3.1-2.8c1.1,0,2.2,0.4,3,0.9
		c0.1,0.1,0.1,0.1,0,0.2l-0.6,1c-0.1,0.1-0.1,0.1-0.2,0c-0.7-0.5-1.4-0.7-2.2-0.7c-0.9,0-1.4,0.5-1.4,1.2c0,0.6,0.4,1.1,1.7,1.2
		l0.5,0.1c1.8,0.2,2.7,1.1,2.7,2.7c0,1.6-1.2,2.8-3.4,2.8C564.6,441.6,563.3,441.1,562.6,440.4z"/>
	<path fill="#45FF87" d="M574.9,441.5c-0.1,0-0.1-0.1-0.1-0.1v-0.5h0c-0.3,0.4-0.9,0.8-1.7,0.8c-1.4,0-2.2-1-2.2-2.4v-4.1
		c0-0.1,0.1-0.1,0.1-0.1h1.2c0.1,0,0.1,0.1,0.1,0.1v3.7c0,0.8,0.4,1.4,1.2,1.4c0.8,0,1.2-0.6,1.2-1.4v-3.8c0-0.1,0.1-0.1,0.1-0.1
		h1.2c0.1,0,0.1,0.1,0.1,0.1v6.2c0,0.1-0.1,0.1-0.1,0.1H574.9z"/>
	<path fill="#45FF87" d="M582.4,441.5c-0.1,0-0.1-0.1-0.1-0.1v-3.7c0-0.8-0.4-1.4-1.2-1.4c-0.8,0-1.2,0.6-1.2,1.4v3.7
		c0,0.1-0.1,0.1-0.1,0.1h-1.2c-0.1,0-0.1-0.1-0.1-0.1v-6.2c0-0.1,0.1-0.1,0.1-0.1h1.2c0.1,0,0.1,0.1,0.1,0.1v0.5h0
		c0.3-0.4,0.8-0.8,1.7-0.8c1.4,0,2.2,1,2.2,2.4v4.1c0,0.1-0.1,0.1-0.1,0.1H582.4z"/>
	<path fill="#45FF87" d="M585.8,441.5c-0.1,0-0.1-0.1-0.1-0.1v-6.2c0-0.1,0.1-0.1,0.1-0.1h1.2c0.1,0,0.1,0.1,0.1,0.1v0.6h0
		c0.3-0.5,0.9-0.8,1.7-0.8c0.5,0,1,0.2,1.4,0.5c0.1,0.1,0.1,0.1,0,0.2l-0.7,0.9c-0.1,0.1-0.1,0.1-0.2,0c-0.3-0.2-0.6-0.3-1-0.3
		c-0.8,0-1.2,0.6-1.2,1.6v3.5c0,0.1-0.1,0.1-0.1,0.1H585.8z"/>
	<path fill="#45FF87" d="M591.5,433.7c-0.1,0-0.1-0.1-0.1-0.1v-1.2c0-0.1,0.1-0.1,0.1-0.1h1.2c0.1,0,0.1,0.1,0.1,0.1v1.2
		c0,0.1-0.1,0.1-0.1,0.1H591.5z M591.5,441.5c-0.1,0-0.1-0.1-0.1-0.1v-6.2c0-0.1,0.1-0.1,0.1-0.1h1.2c0.1,0,0.1,0.1,0.1,0.1v6.2
		c0,0.1-0.1,0.1-0.1,0.1H591.5z"/>
	<path fill="#45FF87" d="M594.4,440.6c-0.1-0.1-0.1-0.1,0-0.2l0.8-0.8c0.1-0.1,0.1-0.1,0.2,0c0.5,0.4,1.2,0.7,1.9,0.7
		c0.8,0,1.2-0.3,1.2-0.8c0-0.4-0.2-0.6-1.1-0.7l-0.7-0.1c-1.3-0.1-2-0.8-2-1.9c0-1.3,0.9-2,2.5-2c1,0,1.9,0.3,2.4,0.8
		c0.1,0.1,0.1,0.1,0,0.2l-0.7,0.8c-0.1,0.1-0.1,0.1-0.2,0c-0.4-0.3-1.1-0.5-1.7-0.5s-1,0.3-1,0.7c0,0.4,0.2,0.6,1.1,0.7l0.7,0.1
		c1.4,0.1,2,0.8,2,1.9c0,1.3-0.9,2.2-2.7,2.2C595.9,441.6,595,441.1,594.4,440.6z"/>
	<path fill="#45FF87" d="M601.4,439.8c-0.1-0.4-0.2-0.9-0.2-1.6c0-0.7,0.1-1.2,0.2-1.6c0.4-1.1,1.4-1.8,2.7-1.8
		c1.3,0,2.3,0.7,2.7,1.8c0.1,0.5,0.2,0.9,0.2,2c0,0.1-0.1,0.1-0.1,0.1h-4c-0.1,0-0.1,0-0.1,0.1c0,0.2,0,0.3,0.1,0.5
		c0.2,0.6,0.7,1,1.5,1c0.7,0,1.2-0.3,1.5-0.6c0.1-0.1,0.1-0.1,0.2,0l0.8,0.7c0.1,0.1,0.1,0.1,0,0.2c-0.6,0.6-1.5,1.1-2.7,1.1
		C602.7,441.6,601.8,440.9,601.4,439.8z M605.3,436.9c-0.2-0.5-0.7-0.8-1.3-0.8c-0.6,0-1.1,0.3-1.3,0.8c-0.1,0.2-0.1,0.3-0.1,0.6
		c0,0.1,0,0.1,0.1,0.1h2.5c0.1,0,0.1,0,0.1-0.1C605.4,437.3,605.4,437.1,605.3,436.9z"/>
	<path fill="#45FF87" d="M608.5,440c0-0.1,0.1-0.1,0.1-0.1h1.3c0.1,0,0.1,0.1,0.1,0.1v1.4c0,0.1-0.1,0.1-0.1,0.1h-1.3
		c-0.1,0-0.1-0.1-0.1-0.1V440z"/>
	<path fill="#45FF87" d="M302,448.6c0-0.1,0.1-0.1,0.1-0.1h1.3c0.1,0,0.1,0.1,0.1,0.1v7.5c0,0.1,0,0.1,0.1,0.1h4.2
		c0.1,0,0.1,0.1,0.1,0.1v1.2c0,0.1-0.1,0.1-0.1,0.1h-5.7c-0.1,0-0.1-0.1-0.1-0.1V448.6z"/>
	<path fill="#45FF87" d="M309.2,456c-0.2-0.5-0.2-0.9-0.2-1.6s0.1-1.1,0.2-1.6c0.4-1.1,1.4-1.8,2.7-1.8c1.3,0,2.3,0.7,2.7,1.8
		c0.1,0.5,0.2,0.9,0.2,1.6s-0.1,1.1-0.2,1.6c-0.4,1.1-1.4,1.8-2.7,1.8C310.6,457.8,309.6,457.1,309.2,456z M313.1,455.6
		c0.1-0.3,0.1-0.6,0.1-1.2c0-0.6,0-0.8-0.1-1.2c-0.2-0.5-0.6-0.9-1.2-0.9c-0.6,0-1,0.3-1.2,0.9c-0.1,0.3-0.1,0.6-0.1,1.2
		c0,0.6,0,0.9,0.1,1.2c0.2,0.5,0.6,0.8,1.2,0.8C312.5,456.4,312.9,456.1,313.1,455.6z"/>
	<path fill="#45FF87" d="M318.1,457.6c-0.1,0-0.1-0.1-0.2-0.1l-2.3-6.2c0-0.1,0-0.1,0.1-0.1h1.3c0.1,0,0.1,0.1,0.2,0.1l1.4,4.2h0
		l1.4-4.2c0-0.1,0.1-0.1,0.2-0.1h1.3c0.1,0,0.1,0.1,0.1,0.1l-2.3,6.2c0,0.1-0.1,0.1-0.2,0.1H318.1z"/>
	<path fill="#45FF87" d="M322.7,456c-0.1-0.4-0.2-0.9-0.2-1.6c0-0.7,0.1-1.2,0.2-1.6c0.4-1.1,1.4-1.8,2.7-1.8c1.3,0,2.3,0.7,2.7,1.8
		c0.1,0.5,0.2,0.9,0.2,2c0,0.1-0.1,0.1-0.1,0.1h-4c-0.1,0-0.1,0-0.1,0.1c0,0.2,0,0.3,0.1,0.5c0.2,0.6,0.7,1,1.5,1
		c0.7,0,1.2-0.3,1.5-0.6c0.1-0.1,0.1-0.1,0.2,0l0.8,0.7c0.1,0.1,0.1,0.1,0,0.2c-0.5,0.6-1.5,1.1-2.7,1.1
		C324.1,457.8,323.1,457.1,322.7,456z M326.7,453.1c-0.2-0.5-0.7-0.8-1.3-0.8c-0.6,0-1.1,0.3-1.3,0.8c-0.1,0.2-0.1,0.3-0.1,0.6
		c0,0.1,0,0.1,0.1,0.1h2.5c0.1,0,0.1,0,0.1-0.1C326.7,453.4,326.7,453.3,326.7,453.1z"/>
	<path fill="#45FF87" d="M333.1,448.6c0-0.1,0.1-0.1,0.1-0.1h1.3c0.1,0,0.1,0.1,0.1,0.1v7.5c0,0.1,0,0.1,0.1,0.1h4.2
		c0.1,0,0.1,0.1,0.1,0.1v1.2c0,0.1-0.1,0.1-0.1,0.1h-5.7c-0.1,0-0.1-0.1-0.1-0.1V448.6z"/>
	<path fill="#45FF87" d="M340.5,449.9c-0.1,0-0.1-0.1-0.1-0.1v-1.2c0-0.1,0.1-0.1,0.1-0.1h1.2c0.1,0,0.1,0.1,0.1,0.1v1.2
		c0,0.1-0.1,0.1-0.1,0.1H340.5z M340.5,457.6c-0.1,0-0.1-0.1-0.1-0.1v-6.2c0-0.1,0.1-0.1,0.1-0.1h1.2c0.1,0,0.1,0.1,0.1,0.1v6.2
		c0,0.1-0.1,0.1-0.1,0.1H340.5z"/>
	<path fill="#45FF87" d="M345.6,457.6c-0.1,0-0.1-0.1-0.2-0.1l-2.3-6.2c0-0.1,0-0.1,0.1-0.1h1.3c0.1,0,0.1,0.1,0.2,0.1l1.4,4.2h0
		l1.4-4.2c0-0.1,0.1-0.1,0.2-0.1h1.3c0.1,0,0.1,0.1,0.1,0.1l-2.3,6.2c0,0.1-0.1,0.1-0.2,0.1H345.6z"/>
	<path fill="#45FF87" d="M350.2,456c-0.1-0.4-0.2-0.9-0.2-1.6c0-0.7,0.1-1.2,0.2-1.6c0.4-1.1,1.4-1.8,2.7-1.8c1.3,0,2.3,0.7,2.7,1.8
		c0.1,0.5,0.2,0.9,0.2,2c0,0.1-0.1,0.1-0.1,0.1h-4c-0.1,0-0.1,0-0.1,0.1c0,0.2,0,0.3,0.1,0.5c0.2,0.6,0.7,1,1.5,1
		c0.7,0,1.2-0.3,1.5-0.6c0.1-0.1,0.1-0.1,0.2,0l0.8,0.7c0.1,0.1,0.1,0.1,0,0.2c-0.6,0.6-1.5,1.1-2.7,1.1
		C351.6,457.8,350.6,457.1,350.2,456z M354.1,453.1c-0.2-0.5-0.7-0.8-1.3-0.8c-0.6,0-1.1,0.3-1.3,0.8c-0.1,0.2-0.1,0.3-0.1,0.6
		c0,0.1,0,0.1,0.1,0.1h2.5c0.1,0,0.1,0,0.1-0.1C354.2,453.4,354.2,453.3,354.1,453.1z"/>
	<path fill="#45FF87" d="M357.9,454.9l-0.3-6.3c0-0.1,0.1-0.1,0.1-0.1h1.4c0.1,0,0.1,0.1,0.1,0.1l-0.3,6.3c0,0.1-0.1,0.1-0.1,0.1
		h-0.8C358,455.1,357.9,455,357.9,454.9z M357.6,456.1c0-0.1,0.1-0.1,0.1-0.1h1.3c0.1,0,0.1,0.1,0.1,0.1v1.4c0,0.1-0.1,0.1-0.1,0.1
		h-1.3c-0.1,0-0.1-0.1-0.1-0.1V456.1z"/>
	<path fill="#45FF87" d="M368.8,457.6c-0.1,0-0.1-0.1-0.1-0.1v-3.7c0-0.8-0.4-1.4-1.2-1.4c-0.8,0-1.2,0.6-1.2,1.4v3.7
		c0,0.1-0.1,0.1-0.1,0.1h-1.2c-0.1,0-0.1-0.1-0.1-0.1v-8.9c0-0.1,0.1-0.1,0.1-0.1h1.2c0.1,0,0.1,0.1,0.1,0.1v3.1h0
		c0.3-0.4,0.8-0.8,1.7-0.8c1.4,0,2.2,1,2.2,2.4v4.1c0,0.1-0.1,0.1-0.1,0.1H368.8z"/>
	<path fill="#45FF87" d="M375.9,457.6c-0.1,0-0.1-0.1-0.1-0.1V457h0c-0.3,0.4-0.9,0.8-1.8,0.8c-1.2,0-2.2-0.6-2.2-2
		c0-1.4,1-2.1,2.6-2.1h1.3c0.1,0,0.1,0,0.1-0.1v-0.3c0-0.7-0.3-1.1-1.4-1.1c-0.7,0-1.2,0.2-1.5,0.4c-0.1,0.1-0.1,0-0.2,0l-0.5-0.9
		c0-0.1,0-0.1,0-0.2c0.5-0.4,1.2-0.6,2.3-0.6c2,0,2.7,0.7,2.7,2.3v4.2c0,0.1-0.1,0.1-0.1,0.1H375.9z M375.8,455.4v-0.5
		c0-0.1,0-0.1-0.1-0.1h-1.1c-1,0-1.4,0.3-1.4,0.9c0,0.5,0.4,0.8,1.1,0.8C375.3,456.5,375.8,456.2,375.8,455.4z"/>
	<path fill="#45FF87" d="M378.7,456.8c-0.1-0.1-0.1-0.1,0-0.2l0.8-0.8c0.1-0.1,0.1-0.1,0.2,0c0.5,0.4,1.2,0.7,1.9,0.7
		c0.8,0,1.2-0.3,1.2-0.8c0-0.4-0.2-0.6-1.1-0.7l-0.7-0.1c-1.3-0.1-2-0.8-2-1.9c0-1.3,0.9-2,2.5-2c1,0,1.9,0.3,2.4,0.8
		c0.1,0.1,0.1,0.1,0,0.2l-0.7,0.8c-0.1,0.1-0.1,0.1-0.2,0c-0.4-0.3-1.1-0.5-1.7-0.5c-0.6,0-1,0.3-1,0.7c0,0.4,0.2,0.6,1.1,0.7
		l0.7,0.1c1.4,0.1,2,0.8,2,1.9c0,1.3-0.9,2.2-2.7,2.2C380.2,457.8,379.3,457.2,378.7,456.8z"/>
	<path fill="#45FF87" d="M389.1,457.6c-0.1,0-0.1-0.1-0.1-0.1v-6.2c0-0.1,0.1-0.1,0.1-0.1h1.2c0.1,0,0.1,0.1,0.1,0.1v0.6h0
		c0.3-0.5,0.9-0.8,1.7-0.8c0.5,0,1,0.2,1.4,0.5c0.1,0.1,0.1,0.1,0,0.2l-0.7,0.9c-0.1,0.1-0.1,0.1-0.2,0c-0.3-0.2-0.6-0.3-1-0.3
		c-0.8,0-1.2,0.6-1.2,1.6v3.5c0,0.1-0.1,0.1-0.1,0.1H389.1z"/>
	<path fill="#45FF87" d="M394.4,456c-0.1-0.4-0.2-0.9-0.2-1.6c0-0.7,0.1-1.2,0.2-1.6c0.4-1.1,1.4-1.8,2.7-1.8c1.3,0,2.3,0.7,2.7,1.8
		c0.1,0.5,0.2,0.9,0.2,2c0,0.1-0.1,0.1-0.1,0.1h-4c-0.1,0-0.1,0-0.1,0.1c0,0.2,0,0.3,0.1,0.5c0.2,0.6,0.7,1,1.5,1
		c0.7,0,1.2-0.3,1.5-0.6c0.1-0.1,0.1-0.1,0.2,0l0.8,0.7c0.1,0.1,0.1,0.1,0,0.2c-0.6,0.6-1.5,1.1-2.7,1.1
		C395.8,457.8,394.8,457.1,394.4,456z M398.4,453.1c-0.2-0.5-0.7-0.8-1.3-0.8c-0.6,0-1.1,0.3-1.3,0.8c-0.1,0.2-0.1,0.3-0.1,0.6
		c0,0.1,0,0.1,0.1,0.1h2.5c0.1,0,0.1,0,0.1-0.1C398.4,453.4,398.4,453.3,398.4,453.1z"/>
	<path fill="#45FF87" d="M403.3,457.7c-1.3,0-1.8-0.6-1.8-1.9v-7.2c0-0.1,0.1-0.1,0.1-0.1h1.2c0.1,0,0.1,0.1,0.1,0.1v7.2
		c0,0.4,0.2,0.6,0.6,0.6h0.3c0.1,0,0.1,0.1,0.1,0.1v1.1c0,0.1-0.1,0.1-0.1,0.1H403.3z"/>
	<path fill="#45FF87" d="M405.4,456c-0.1-0.4-0.2-0.9-0.2-1.6c0-0.7,0.1-1.2,0.2-1.6c0.4-1.1,1.4-1.8,2.7-1.8c1.3,0,2.3,0.7,2.7,1.8
		c0.1,0.5,0.2,0.9,0.2,2c0,0.1-0.1,0.1-0.1,0.1h-4c-0.1,0-0.1,0-0.1,0.1c0,0.2,0,0.3,0.1,0.5c0.2,0.6,0.7,1,1.5,1
		c0.7,0,1.2-0.3,1.5-0.6c0.1-0.1,0.1-0.1,0.2,0l0.8,0.7c0.1,0.1,0.1,0.1,0,0.2c-0.5,0.6-1.5,1.1-2.7,1.1
		C406.7,457.8,405.7,457.1,405.4,456z M409.3,453.1c-0.2-0.5-0.7-0.8-1.3-0.8c-0.6,0-1.1,0.3-1.3,0.8c-0.1,0.2-0.1,0.3-0.1,0.6
		c0,0.1,0,0.1,0.1,0.1h2.5c0.1,0,0.1,0,0.1-0.1C409.4,453.4,409.4,453.3,409.3,453.1z"/>
	<path fill="#45FF87" d="M416.4,457.6c-0.1,0-0.1-0.1-0.1-0.1V457h0c-0.3,0.4-0.9,0.8-1.8,0.8c-1.2,0-2.2-0.6-2.2-2
		c0-1.4,1-2.1,2.6-2.1h1.3c0.1,0,0.1,0,0.1-0.1v-0.3c0-0.7-0.3-1.1-1.4-1.1c-0.7,0-1.2,0.2-1.5,0.4c-0.1,0.1-0.1,0-0.2,0l-0.5-0.9
		c0-0.1,0-0.1,0-0.2c0.5-0.4,1.2-0.6,2.3-0.6c2,0,2.7,0.7,2.7,2.3v4.2c0,0.1-0.1,0.1-0.1,0.1H416.4z M416.2,455.4v-0.5
		c0-0.1,0-0.1-0.1-0.1h-1.1c-1,0-1.4,0.3-1.4,0.9c0,0.5,0.4,0.8,1.1,0.8C415.7,456.5,416.2,456.2,416.2,455.4z"/>
	<path fill="#45FF87" d="M419.2,456.8c-0.1-0.1-0.1-0.1,0-0.2l0.8-0.8c0.1-0.1,0.1-0.1,0.2,0c0.5,0.4,1.2,0.7,1.9,0.7
		c0.8,0,1.2-0.3,1.2-0.8c0-0.4-0.2-0.6-1.1-0.7l-0.7-0.1c-1.3-0.1-2-0.8-2-1.9c0-1.3,0.9-2,2.5-2c1,0,1.9,0.3,2.4,0.8
		c0.1,0.1,0.1,0.1,0,0.2l-0.7,0.8c-0.1,0.1-0.1,0.1-0.2,0c-0.4-0.3-1-0.5-1.7-0.5c-0.6,0-1,0.3-1,0.7c0,0.4,0.2,0.6,1.1,0.7l0.7,0.1
		c1.4,0.1,2,0.8,2,1.9c0,1.3-0.9,2.2-2.7,2.2C420.6,457.8,419.7,457.2,419.2,456.8z"/>
	<path fill="#45FF87" d="M426.2,456c-0.1-0.4-0.2-0.9-0.2-1.6c0-0.7,0.1-1.2,0.2-1.6c0.4-1.1,1.4-1.8,2.7-1.8c1.3,0,2.3,0.7,2.7,1.8
		c0.1,0.5,0.2,0.9,0.2,2c0,0.1-0.1,0.1-0.1,0.1h-4c-0.1,0-0.1,0-0.1,0.1c0,0.2,0,0.3,0.1,0.5c0.2,0.6,0.7,1,1.5,1
		c0.7,0,1.2-0.3,1.5-0.6c0.1-0.1,0.1-0.1,0.2,0l0.8,0.7c0.1,0.1,0.1,0.1,0,0.2c-0.6,0.6-1.5,1.1-2.7,1.1
		C427.5,457.8,426.5,457.1,426.2,456z M430.1,453.1c-0.2-0.5-0.7-0.8-1.3-0.8c-0.6,0-1.1,0.3-1.3,0.8c-0.1,0.2-0.1,0.3-0.1,0.6
		c0,0.1,0,0.1,0.1,0.1h2.5c0.1,0,0.1,0,0.1-0.1C430.2,453.4,430.1,453.3,430.1,453.1z"/>
	<path fill="#45FF87" d="M437.3,457.6c-0.1,0-0.1-0.1-0.1-0.1V457h0c-0.3,0.4-0.8,0.8-1.7,0.8c-1.1,0-1.9-0.5-2.2-1.6
		c-0.2-0.5-0.2-1-0.2-1.8c0-0.9,0.1-1.3,0.2-1.8c0.3-1,1.1-1.6,2.2-1.6c0.9,0,1.4,0.3,1.7,0.8h0v-3.2c0-0.1,0.1-0.1,0.1-0.1h1.2
		c0.1,0,0.1,0.1,0.1,0.1v8.9c0,0.1-0.1,0.1-0.1,0.1H437.3z M437,455.6c0.1-0.3,0.1-0.6,0.1-1.2s0-0.9-0.1-1.2
		c-0.2-0.5-0.6-0.8-1.2-0.8c-0.6,0-1,0.3-1.2,0.8c-0.1,0.3-0.1,0.6-0.1,1.2s0,0.9,0.1,1.2c0.2,0.5,0.6,0.8,1.2,0.8
		C436.4,456.4,436.9,456.1,437,455.6z"/>
	<path fill="#45FF87" d="M451.9,457.6c-0.1,0-0.1-0.1-0.1-0.1v-3.7c0-0.8-0.4-1.4-1.2-1.4c-0.8,0-1.2,0.6-1.2,1.4v3.7
		c0,0.1-0.1,0.1-0.1,0.1h-1.2c-0.1,0-0.1-0.1-0.1-0.1v-3.7c0-0.8-0.4-1.4-1.2-1.4c-0.8,0-1.2,0.6-1.2,1.4v3.7c0,0.1-0.1,0.1-0.1,0.1
		H444c-0.1,0-0.1-0.1-0.1-0.1v-6.2c0-0.1,0.1-0.1,0.1-0.1h1.2c0.1,0,0.1,0.1,0.1,0.1v0.5h0c0.3-0.4,0.8-0.8,1.7-0.8
		c0.8,0,1.4,0.3,1.8,0.9h0c0.5-0.5,1.1-0.9,2.1-0.9c1.5,0,2.4,1,2.4,2.4v4.1c0,0.1-0.1,0.1-0.1,0.1H451.9z"/>
	<path fill="#45FF87" d="M459.2,457.6c-0.1,0-0.1-0.1-0.1-0.1V457h0c-0.3,0.4-0.9,0.8-1.7,0.8c-1.4,0-2.2-1-2.2-2.4v-4.1
		c0-0.1,0.1-0.1,0.1-0.1h1.2c0.1,0,0.1,0.1,0.1,0.1v3.7c0,0.8,0.4,1.4,1.2,1.4c0.8,0,1.2-0.6,1.2-1.4v-3.8c0-0.1,0.1-0.1,0.1-0.1
		h1.2c0.1,0,0.1,0.1,0.1,0.1v6.2c0,0.1-0.1,0.1-0.1,0.1H459.2z"/>
	<path fill="#45FF87" d="M462.1,456.8c-0.1-0.1-0.1-0.1,0-0.2l0.8-0.8c0.1-0.1,0.1-0.1,0.2,0c0.5,0.4,1.2,0.7,1.9,0.7
		c0.8,0,1.2-0.3,1.2-0.8c0-0.4-0.2-0.6-1.1-0.7l-0.7-0.1c-1.3-0.1-2-0.8-2-1.9c0-1.3,0.9-2,2.5-2c1,0,1.9,0.3,2.4,0.8
		c0.1,0.1,0.1,0.1,0,0.2l-0.7,0.8c-0.1,0.1-0.1,0.1-0.2,0c-0.4-0.3-1-0.5-1.7-0.5c-0.6,0-1,0.3-1,0.7c0,0.4,0.2,0.6,1.1,0.7l0.7,0.1
		c1.4,0.1,2,0.8,2,1.9c0,1.3-0.9,2.2-2.7,2.2C463.6,457.8,462.7,457.2,462.1,456.8z"/>
	<path fill="#45FF87" d="M469.3,449.9c-0.1,0-0.1-0.1-0.1-0.1v-1.2c0-0.1,0.1-0.1,0.1-0.1h1.2c0.1,0,0.1,0.1,0.1,0.1v1.2
		c0,0.1-0.1,0.1-0.1,0.1H469.3z M469.3,457.6c-0.1,0-0.1-0.1-0.1-0.1v-6.2c0-0.1,0.1-0.1,0.1-0.1h1.2c0.1,0,0.1,0.1,0.1,0.1v6.2
		c0,0.1-0.1,0.1-0.1,0.1H469.3z"/>
	<path fill="#45FF87" d="M472.5,456c-0.1-0.4-0.2-0.9-0.2-1.6c0-0.7,0.1-1.2,0.2-1.6c0.4-1.2,1.4-1.8,2.7-1.8c1,0,1.7,0.4,2.2,1
		c0,0.1,0.1,0.1,0,0.2l-0.9,0.7c-0.1,0.1-0.1,0-0.2,0c-0.3-0.4-0.7-0.6-1.2-0.6c-0.6,0-1,0.3-1.2,0.9c-0.1,0.3-0.1,0.7-0.1,1.2
		s0,0.9,0.1,1.2c0.2,0.6,0.6,0.8,1.2,0.8c0.5,0,0.9-0.2,1.2-0.6c0.1-0.1,0.1-0.1,0.2,0l0.9,0.7c0.1,0.1,0.1,0.1,0,0.2
		c-0.5,0.6-1.3,1-2.2,1C473.9,457.8,472.9,457.1,472.5,456z"/>
	<path fill="#45FF87" d="M482,453c0-1.5,0.1-1.9,0.2-2.5c0.5-1.5,1.6-2.2,3.2-2.2c1.5,0,2.6,0.8,3.1,2c0,0.1,0,0.1-0.1,0.2l-1.1,0.6
		c-0.1,0-0.1,0-0.2-0.1c-0.3-0.6-0.8-1.2-1.7-1.2c-0.9,0-1.4,0.5-1.6,1.2c-0.1,0.4-0.2,0.7-0.2,2.1c0,1.3,0,1.7,0.2,2.1
		c0.3,0.7,0.8,1.2,1.6,1.2c0.9,0,1.4-0.5,1.7-1.2c0-0.1,0.1-0.1,0.2-0.1l1.1,0.6c0.1,0,0.1,0.1,0.1,0.2c-0.5,1.2-1.6,2-3.1,2
		c-1.5,0-2.7-0.8-3.2-2.2C482.1,455,482,454.5,482,453z"/>
	<path fill="#45FF87" d="M490,448.6c0-0.1,0.1-0.1,0.1-0.1h3.3c1.6,0,2.6,0.7,3.1,2c0.1,0.5,0.2,1,0.2,2.5c0,1.6-0.1,2.1-0.2,2.5
		c-0.4,1.3-1.5,2-3.1,2h-3.3c-0.1,0-0.1-0.1-0.1-0.1V448.6z M491.7,456.2h1.4c1,0,1.6-0.3,1.9-1.2c0.1-0.3,0.2-0.7,0.2-2
		c0-1.3-0.1-1.7-0.2-2c-0.3-0.8-0.9-1.2-1.9-1.2h-1.4c-0.1,0-0.1,0-0.1,0.1L491.7,456.2C491.6,456.2,491.7,456.2,491.7,456.2z"/>
	<path fill="#45FF87" d="M498.3,450.9v-2.3c0-0.1,0.1-0.1,0.1-0.1h0.8c0.1,0,0.1,0.1,0.1,0.1v2.3c0,0.1-0.1,0.1-0.1,0.1h-0.8
		C498.3,451.1,498.3,451,498.3,450.9z"/>
	<path fill="#45FF87" d="M500.8,456.8c-0.1-0.1-0.1-0.1,0-0.2l0.8-0.8c0.1-0.1,0.1-0.1,0.2,0c0.5,0.4,1.2,0.7,1.9,0.7
		c0.8,0,1.2-0.3,1.2-0.8c0-0.4-0.2-0.6-1.1-0.7l-0.7-0.1c-1.3-0.1-2-0.8-2-1.9c0-1.3,0.9-2,2.5-2c1,0,1.9,0.3,2.4,0.8
		c0.1,0.1,0.1,0.1,0,0.2l-0.7,0.8c-0.1,0.1-0.1,0.1-0.2,0c-0.4-0.3-1.1-0.5-1.7-0.5c-0.6,0-1,0.3-1,0.7c0,0.4,0.2,0.6,1.1,0.7
		l0.7,0.1c1.4,0.1,2,0.8,2,1.9c0,1.3-0.9,2.2-2.7,2.2C502.2,457.8,501.3,457.2,500.8,456.8z"/>
	<path fill="#45FF87" d="M507.8,456.1c0-0.1,0.1-0.1,0.1-0.1h1.3c0.1,0,0.1,0.1,0.1,0.1v1.5c0,0.1,0,0.2-0.1,0.3l-1.1,1.2
		c-0.1,0.1-0.1,0.1-0.2,0.1c-0.1,0-0.1-0.1-0.1-0.1V456.1z"/>
	<path fill="#45FF87" d="M518,457.6c-0.1,0-0.1-0.1-0.1-0.1V457h0c-0.3,0.4-0.9,0.8-1.8,0.8c-1.2,0-2.2-0.6-2.2-2
		c0-1.4,1-2.1,2.6-2.1h1.3c0.1,0,0.1,0,0.1-0.1v-0.3c0-0.7-0.4-1.1-1.4-1.1c-0.7,0-1.2,0.2-1.5,0.4c-0.1,0.1-0.1,0-0.2,0l-0.5-0.9
		c0-0.1,0-0.1,0-0.2c0.5-0.4,1.2-0.6,2.3-0.6c2,0,2.7,0.7,2.7,2.3v4.2c0,0.1-0.1,0.1-0.1,0.1H518z M517.8,455.4v-0.5
		c0-0.1,0-0.1-0.1-0.1h-1.1c-1,0-1.4,0.3-1.4,0.9c0,0.5,0.4,0.8,1.1,0.8C517.3,456.5,517.8,456.2,517.8,455.4z"/>
	<path fill="#45FF87" d="M525.3,457.6c-0.1,0-0.1-0.1-0.1-0.1v-3.7c0-0.8-0.4-1.4-1.2-1.4c-0.8,0-1.2,0.6-1.2,1.4v3.7
		c0,0.1-0.1,0.1-0.1,0.1h-1.2c-0.1,0-0.1-0.1-0.1-0.1v-6.2c0-0.1,0.1-0.1,0.1-0.1h1.2c0.1,0,0.1,0.1,0.1,0.1v0.5h0
		c0.3-0.4,0.8-0.8,1.7-0.8c1.4,0,2.2,1,2.2,2.4v4.1c0,0.1-0.1,0.1-0.1,0.1H525.3z"/>
	<path fill="#45FF87" d="M528.7,449.9c-0.1,0-0.1-0.1-0.1-0.1v-1.2c0-0.1,0.1-0.1,0.1-0.1h1.2c0.1,0,0.1,0.1,0.1,0.1v1.2
		c0,0.1-0.1,0.1-0.1,0.1H528.7z M528.7,457.6c-0.1,0-0.1-0.1-0.1-0.1v-6.2c0-0.1,0.1-0.1,0.1-0.1h1.2c0.1,0,0.1,0.1,0.1,0.1v6.2
		c0,0.1-0.1,0.1-0.1,0.1H528.7z"/>
	<path fill="#45FF87" d="M540.1,457.6c-0.1,0-0.1-0.1-0.1-0.1v-3.7c0-0.8-0.4-1.4-1.2-1.4c-0.8,0-1.2,0.6-1.2,1.4v3.7
		c0,0.1-0.1,0.1-0.1,0.1h-1.2c-0.1,0-0.1-0.1-0.1-0.1v-3.7c0-0.8-0.4-1.4-1.2-1.4c-0.8,0-1.2,0.6-1.2,1.4v3.7c0,0.1-0.1,0.1-0.1,0.1
		h-1.2c-0.1,0-0.1-0.1-0.1-0.1v-6.2c0-0.1,0.1-0.1,0.1-0.1h1.2c0.1,0,0.1,0.1,0.1,0.1v0.5h0c0.3-0.4,0.8-0.8,1.7-0.8
		c0.8,0,1.4,0.3,1.8,0.9h0c0.5-0.5,1.1-0.9,2.1-0.9c1.5,0,2.4,1,2.4,2.4v4.1c0,0.1-0.1,0.1-0.1,0.1H540.1z"/>
	<path fill="#45FF87" d="M543.3,456c-0.1-0.4-0.2-0.9-0.2-1.6c0-0.7,0.1-1.2,0.2-1.6c0.4-1.1,1.4-1.8,2.7-1.8c1.3,0,2.3,0.7,2.7,1.8
		c0.1,0.5,0.2,0.9,0.2,2c0,0.1-0.1,0.1-0.1,0.1h-4c-0.1,0-0.1,0-0.1,0.1c0,0.2,0,0.3,0.1,0.5c0.2,0.6,0.7,1,1.5,1
		c0.7,0,1.2-0.3,1.5-0.6c0.1-0.1,0.1-0.1,0.2,0l0.8,0.7c0.1,0.1,0.1,0.1,0,0.2c-0.5,0.6-1.5,1.1-2.7,1.1
		C544.6,457.8,543.6,457.1,543.3,456z M547.2,453.1c-0.2-0.5-0.7-0.8-1.3-0.8c-0.6,0-1.1,0.3-1.3,0.8c-0.1,0.2-0.1,0.3-0.1,0.6
		c0,0.1,0,0.1,0.1,0.1h2.5c0.1,0,0.1,0,0.1-0.1C547.3,453.4,547.2,453.3,547.2,453.1z"/>
	<path fill="#45FF87" d="M561.7,457.6c-0.1,0-0.1-0.1-0.1-0.1v-3.7c0-0.8-0.4-1.4-1.2-1.4c-0.8,0-1.2,0.6-1.2,1.4v3.7
		c0,0.1-0.1,0.1-0.1,0.1h-1.2c-0.1,0-0.1-0.1-0.1-0.1v-3.7c0-0.8-0.4-1.4-1.2-1.4c-0.8,0-1.2,0.6-1.2,1.4v3.7c0,0.1-0.1,0.1-0.1,0.1
		h-1.2c-0.1,0-0.1-0.1-0.1-0.1v-6.2c0-0.1,0.1-0.1,0.1-0.1h1.2c0.1,0,0.1,0.1,0.1,0.1v0.5h0c0.3-0.4,0.8-0.8,1.7-0.8
		c0.8,0,1.4,0.3,1.8,0.9h0c0.5-0.5,1.1-0.9,2.1-0.9c1.5,0,2.4,1,2.4,2.4v4.1c0,0.1-0.1,0.1-0.1,0.1H561.7z"/>
	<path fill="#45FF87" d="M568.9,457.6c-0.1,0-0.1-0.1-0.1-0.1V457h0c-0.4,0.4-0.9,0.8-1.7,0.8c-1.4,0-2.2-1-2.2-2.4v-4.1
		c0-0.1,0.1-0.1,0.1-0.1h1.2c0.1,0,0.1,0.1,0.1,0.1v3.7c0,0.8,0.4,1.4,1.2,1.4c0.8,0,1.2-0.6,1.2-1.4v-3.8c0-0.1,0.1-0.1,0.1-0.1
		h1.2c0.1,0,0.1,0.1,0.1,0.1v6.2c0,0.1-0.1,0.1-0.1,0.1H568.9z"/>
	<path fill="#45FF87" d="M571.9,456.8c-0.1-0.1-0.1-0.1,0-0.2l0.8-0.8c0.1-0.1,0.1-0.1,0.2,0c0.5,0.4,1.2,0.7,1.9,0.7
		c0.8,0,1.2-0.3,1.2-0.8c0-0.4-0.2-0.6-1.1-0.7l-0.7-0.1c-1.3-0.1-2-0.8-2-1.9c0-1.3,0.9-2,2.5-2c1,0,1.9,0.3,2.4,0.8
		c0.1,0.1,0.1,0.1,0,0.2l-0.7,0.8c-0.1,0.1-0.1,0.1-0.2,0c-0.4-0.3-1-0.5-1.7-0.5c-0.6,0-1,0.3-1,0.7c0,0.4,0.2,0.6,1.1,0.7l0.7,0.1
		c1.4,0.1,2,0.8,2,1.9c0,1.3-0.9,2.2-2.7,2.2C573.3,457.8,572.4,457.2,571.9,456.8z"/>
	<path fill="#45FF87" d="M579.1,449.9c-0.1,0-0.1-0.1-0.1-0.1v-1.2c0-0.1,0.1-0.1,0.1-0.1h1.2c0.1,0,0.1,0.1,0.1,0.1v1.2
		c0,0.1-0.1,0.1-0.1,0.1H579.1z M579.1,457.6c-0.1,0-0.1-0.1-0.1-0.1v-6.2c0-0.1,0.1-0.1,0.1-0.1h1.2c0.1,0,0.1,0.1,0.1,0.1v6.2
		c0,0.1-0.1,0.1-0.1,0.1H579.1z"/>
	<path fill="#45FF87" d="M582.3,456c-0.1-0.4-0.2-0.9-0.2-1.6c0-0.7,0.1-1.2,0.2-1.6c0.4-1.2,1.4-1.8,2.7-1.8c1,0,1.7,0.4,2.2,1
		c0,0.1,0.1,0.1,0,0.2l-0.9,0.7c-0.1,0.1-0.1,0-0.2,0c-0.3-0.4-0.7-0.6-1.2-0.6c-0.6,0-1,0.3-1.2,0.9c-0.1,0.3-0.1,0.7-0.1,1.2
		s0,0.9,0.1,1.2c0.2,0.6,0.6,0.8,1.2,0.8c0.5,0,0.9-0.2,1.2-0.6c0.1-0.1,0.1-0.1,0.2,0l0.9,0.7c0.1,0.1,0.1,0.1,0,0.2
		c-0.5,0.6-1.3,1-2.2,1C583.7,457.8,582.7,457.1,582.3,456z"/>
	<path fill="#45FF87" d="M593.8,457.6c-0.1,0-0.1-0.1-0.2-0.1l-2.3-6.2c0-0.1,0-0.1,0.1-0.1h1.3c0.1,0,0.1,0.1,0.2,0.1l1.4,4.2h0
		l1.4-4.2c0-0.1,0.1-0.1,0.2-0.1h1.3c0.1,0,0.1,0.1,0.1,0.1l-2.3,6.2c0,0.1-0.1,0.1-0.2,0.1H593.8z"/>
	<path fill="#45FF87" d="M598.7,449.9c-0.1,0-0.1-0.1-0.1-0.1v-1.2c0-0.1,0.1-0.1,0.1-0.1h1.2c0.1,0,0.1,0.1,0.1,0.1v1.2
		c0,0.1-0.1,0.1-0.1,0.1H598.7z M598.7,457.6c-0.1,0-0.1-0.1-0.1-0.1v-6.2c0-0.1,0.1-0.1,0.1-0.1h1.2c0.1,0,0.1,0.1,0.1,0.1v6.2
		c0,0.1-0.1,0.1-0.1,0.1H598.7z"/>
	<path fill="#45FF87" d="M606,457.6c-0.1,0-0.1-0.1-0.1-0.1V457h0c-0.3,0.4-0.8,0.8-1.7,0.8c-1.1,0-1.9-0.5-2.2-1.6
		c-0.2-0.5-0.2-1-0.2-1.8c0-0.9,0.1-1.3,0.2-1.8c0.3-1,1.1-1.6,2.2-1.6c0.9,0,1.4,0.3,1.7,0.8h0v-3.2c0-0.1,0.1-0.1,0.1-0.1h1.2
		c0.1,0,0.1,0.1,0.1,0.1v8.9c0,0.1-0.1,0.1-0.1,0.1H606z M605.8,455.6c0.1-0.3,0.1-0.6,0.1-1.2s0-0.9-0.1-1.2
		c-0.2-0.5-0.6-0.8-1.2-0.8c-0.6,0-1,0.3-1.2,0.8c-0.1,0.3-0.1,0.6-0.1,1.2s0,0.9,0.1,1.2c0.2,0.5,0.6,0.8,1.2,0.8
		C605.2,456.4,605.6,456.1,605.8,455.6z"/>
	<path fill="#45FF87" d="M609.3,456c-0.1-0.4-0.2-0.9-0.2-1.6c0-0.7,0.1-1.2,0.2-1.6c0.4-1.1,1.4-1.8,2.7-1.8c1.3,0,2.3,0.7,2.7,1.8
		c0.1,0.5,0.2,0.9,0.2,2c0,0.1-0.1,0.1-0.1,0.1h-4c-0.1,0-0.1,0-0.1,0.1c0,0.2,0,0.3,0.1,0.5c0.2,0.6,0.7,1,1.5,1
		c0.7,0,1.2-0.3,1.5-0.6c0.1-0.1,0.1-0.1,0.2,0l0.8,0.7c0.1,0.1,0.1,0.1,0,0.2c-0.6,0.6-1.5,1.1-2.7,1.1
		C610.6,457.8,609.6,457.1,609.3,456z M613.2,453.1c-0.2-0.5-0.7-0.8-1.3-0.8c-0.6,0-1.1,0.3-1.3,0.8c-0.1,0.2-0.1,0.3-0.1,0.6
		c0,0.1,0,0.1,0.1,0.1h2.5c0.1,0,0.1,0,0.1-0.1C613.3,453.4,613.2,453.3,613.2,453.1z"/>
	<path fill="#45FF87" d="M616.3,456c-0.1-0.5-0.2-0.9-0.2-1.6s0.1-1.1,0.2-1.6c0.4-1.1,1.4-1.8,2.7-1.8c1.3,0,2.3,0.7,2.7,1.8
		c0.1,0.5,0.2,0.9,0.2,1.6s-0.1,1.1-0.2,1.6c-0.4,1.1-1.4,1.8-2.7,1.8C617.6,457.8,616.6,457.1,616.3,456z M620.2,455.6
		c0.1-0.3,0.1-0.6,0.1-1.2c0-0.6,0-0.8-0.1-1.2c-0.2-0.5-0.6-0.9-1.2-0.9c-0.6,0-1,0.3-1.2,0.9c-0.1,0.3-0.1,0.6-0.1,1.2
		c0,0.6,0,0.9,0.1,1.2c0.2,0.5,0.6,0.8,1.2,0.8C619.6,456.4,620,456.1,620.2,455.6z"/>
	<path fill="#45FF87" d="M623.1,456.8c-0.1-0.1-0.1-0.1,0-0.2l0.8-0.8c0.1-0.1,0.1-0.1,0.2,0c0.5,0.4,1.2,0.7,1.9,0.7
		c0.8,0,1.2-0.3,1.2-0.8c0-0.4-0.2-0.6-1.1-0.7l-0.7-0.1c-1.3-0.1-2-0.8-2-1.9c0-1.3,0.9-2,2.5-2c1,0,1.9,0.3,2.4,0.8
		c0.1,0.1,0.1,0.1,0,0.2l-0.7,0.8c-0.1,0.1-0.1,0.1-0.2,0c-0.4-0.3-1.1-0.5-1.7-0.5c-0.6,0-1,0.3-1,0.7c0,0.4,0.2,0.6,1.1,0.7
		l0.7,0.1c1.4,0.1,2,0.8,2,1.9c0,1.3-0.9,2.2-2.7,2.2C624.5,457.8,623.6,457.2,623.1,456.8z"/>
	<path fill="#45FF87" d="M630.1,456.1c0-0.1,0.1-0.1,0.1-0.1h1.3c0.1,0,0.1,0.1,0.1,0.1v1.5c0,0.1,0,0.2-0.1,0.3l-1.1,1.2
		c-0.1,0.1-0.1,0.1-0.2,0.1c-0.1,0-0.1-0.1-0.1-0.1V456.1z"/>
	<path fill="#45FF87" d="M305.9,473.8c-0.1,0-0.1-0.1-0.1-0.1v-0.5h0c-0.3,0.4-0.9,0.8-1.8,0.8c-1.2,0-2.2-0.6-2.2-2
		c0-1.4,1-2.1,2.6-2.1h1.3c0.1,0,0.1,0,0.1-0.1v-0.3c0-0.7-0.3-1.1-1.4-1.1c-0.7,0-1.2,0.2-1.5,0.4c-0.1,0.1-0.1,0-0.2,0l-0.5-0.9
		c0-0.1,0-0.1,0-0.2c0.5-0.4,1.2-0.6,2.3-0.6c2,0,2.7,0.7,2.7,2.3v4.2c0,0.1-0.1,0.1-0.1,0.1H305.9z M305.7,471.6v-0.5
		c0-0.1,0-0.1-0.1-0.1h-1.1c-1,0-1.4,0.3-1.4,0.9c0,0.5,0.4,0.8,1.1,0.8C305.2,472.7,305.7,472.4,305.7,471.6z"/>
	<path fill="#45FF87" d="M320.3,473.8c-0.1,0-0.1-0.1-0.1-0.1v-3.7c0-0.8-0.4-1.4-1.2-1.4c-0.8,0-1.2,0.6-1.2,1.4v3.7
		c0,0.1-0.1,0.1-0.1,0.1h-1.2c-0.1,0-0.1-0.1-0.1-0.1v-3.7c0-0.8-0.4-1.4-1.2-1.4c-0.8,0-1.2,0.6-1.2,1.4v3.7c0,0.1-0.1,0.1-0.1,0.1
		h-1.2c-0.1,0-0.1-0.1-0.1-0.1v-6.2c0-0.1,0.1-0.1,0.1-0.1h1.2c0.1,0,0.1,0.1,0.1,0.1v0.5h0c0.3-0.4,0.8-0.8,1.7-0.8
		c0.8,0,1.4,0.3,1.8,0.9h0c0.5-0.5,1.1-0.9,2.1-0.9c1.5,0,2.4,1,2.4,2.4v4.1c0,0.1-0.1,0.1-0.1,0.1H320.3z"/>
	<path fill="#45FF87" d="M327.5,473.8c-0.1,0-0.1-0.1-0.1-0.1v-0.5h0c-0.3,0.4-0.9,0.8-1.8,0.8c-1.2,0-2.2-0.6-2.2-2
		c0-1.4,1-2.1,2.6-2.1h1.3c0.1,0,0.1,0,0.1-0.1v-0.3c0-0.7-0.3-1.1-1.4-1.1c-0.7,0-1.2,0.2-1.5,0.4c-0.1,0.1-0.1,0-0.2,0l-0.5-0.9
		c0-0.1,0-0.1,0-0.2c0.5-0.4,1.2-0.6,2.3-0.6c2,0,2.7,0.7,2.7,2.3v4.2c0,0.1-0.1,0.1-0.1,0.1H327.5z M327.3,471.6v-0.5
		c0-0.1,0-0.1-0.1-0.1h-1.1c-1,0-1.4,0.3-1.4,0.9c0,0.5,0.4,0.8,1.1,0.8C326.8,472.7,327.3,472.4,327.3,471.6z"/>
	<path fill="#45FF87" d="M334.7,473.8c-0.1,0-0.1-0.1-0.1-0.1v-3.7c0-0.8-0.4-1.4-1.2-1.4c-0.8,0-1.2,0.6-1.2,1.4v3.7
		c0,0.1-0.1,0.1-0.1,0.1h-1.2c-0.1,0-0.1-0.1-0.1-0.1v-6.2c0-0.1,0.1-0.1,0.1-0.1h1.2c0.1,0,0.1,0.1,0.1,0.1v0.5h0
		c0.3-0.4,0.8-0.8,1.7-0.8c1.4,0,2.2,1,2.2,2.4v4.1c0,0.1-0.1,0.1-0.1,0.1H334.7z"/>
	<path fill="#45FF87" d="M337.9,475.4c-0.1-0.1-0.1-0.1,0-0.2l0.8-0.8c0.1-0.1,0.1-0.1,0.2,0c0.4,0.4,0.9,0.6,1.4,0.6
		c1,0,1.5-0.5,1.5-1.5v-0.6h0c-0.3,0.5-0.8,0.8-1.7,0.8c-1.1,0-1.9-0.6-2.2-1.6c-0.2-0.5-0.2-0.9-0.2-1.7s0.1-1.1,0.2-1.6
		c0.3-1,1.1-1.6,2.2-1.6c0.8,0,1.4,0.3,1.7,0.8h0v-0.5c0-0.1,0.1-0.1,0.1-0.1h1.2c0.1,0,0.1,0.1,0.1,0.1v6c0,1.9-1,3-3,3
		C339.3,476.4,338.4,476,337.9,475.4z M341.6,471.5c0.1-0.3,0.1-0.6,0.1-1.1c0-0.4,0-0.8-0.1-1.1c-0.2-0.5-0.5-0.8-1.2-0.8
		c-0.6,0-1,0.3-1.1,0.8c-0.1,0.3-0.1,0.6-0.1,1.1c0,0.4,0,0.8,0.1,1.1c0.2,0.5,0.5,0.8,1.1,0.8C341.1,472.3,341.4,472,341.6,471.5z"
		/>
	<path fill="#45FF87" d="M349.1,473.8c-0.1,0-0.1-0.1-0.1-0.1v-0.5h0c-0.3,0.4-0.9,0.8-1.8,0.8c-1.2,0-2.2-0.6-2.2-2
		c0-1.4,1-2.1,2.6-2.1h1.3c0.1,0,0.1,0,0.1-0.1v-0.3c0-0.7-0.3-1.1-1.4-1.1c-0.7,0-1.2,0.2-1.5,0.4c-0.1,0.1-0.1,0-0.2,0l-0.5-0.9
		c0-0.1,0-0.1,0-0.2c0.5-0.4,1.2-0.6,2.3-0.6c2,0,2.7,0.7,2.7,2.3v4.2c0,0.1-0.1,0.1-0.1,0.1H349.1z M348.9,471.6v-0.5
		c0-0.1,0-0.1-0.1-0.1h-1.1c-1,0-1.4,0.3-1.4,0.9c0,0.5,0.4,0.8,1.1,0.8C348.4,472.7,348.9,472.4,348.9,471.6z"/>
	<path fill="#45FF87" d="M359.3,473.8c-0.1,0-0.1-0.1-0.1-0.1v-0.5h0c-0.3,0.4-0.9,0.8-1.8,0.8c-1.2,0-2.2-0.6-2.2-2
		c0-1.4,1-2.1,2.6-2.1h1.3c0.1,0,0.1,0,0.1-0.1v-0.3c0-0.7-0.3-1.1-1.4-1.1c-0.7,0-1.2,0.2-1.5,0.4c-0.1,0.1-0.1,0-0.2,0l-0.5-0.9
		c0-0.1,0-0.1,0-0.2c0.5-0.4,1.2-0.6,2.3-0.6c2,0,2.7,0.7,2.7,2.3v4.2c0,0.1-0.1,0.1-0.1,0.1H359.3z M359.2,471.6v-0.5
		c0-0.1,0-0.1-0.1-0.1H358c-1,0-1.4,0.3-1.4,0.9c0,0.5,0.4,0.8,1.1,0.8C358.7,472.7,359.2,472.4,359.2,471.6z"/>
	<path fill="#45FF87" d="M366.5,473.8c-0.1,0-0.1-0.1-0.1-0.1v-0.5h0c-0.3,0.4-0.8,0.8-1.7,0.8c-1.1,0-1.9-0.5-2.2-1.6
		c-0.2-0.5-0.2-1-0.2-1.8c0-0.9,0.1-1.3,0.2-1.8c0.3-1,1.1-1.6,2.2-1.6c0.9,0,1.4,0.3,1.7,0.8h0v-3.2c0-0.1,0.1-0.1,0.1-0.1h1.2
		c0.1,0,0.1,0.1,0.1,0.1v8.9c0,0.1-0.1,0.1-0.1,0.1H366.5z M366.2,471.8c0.1-0.3,0.1-0.6,0.1-1.2s0-0.9-0.1-1.2
		c-0.2-0.5-0.6-0.8-1.2-0.8c-0.6,0-1,0.3-1.2,0.8c-0.1,0.3-0.1,0.6-0.1,1.2s0,0.9,0.1,1.2c0.2,0.5,0.6,0.8,1.2,0.8
		C365.7,472.6,366.1,472.3,366.2,471.8z"/>
	<path fill="#45FF87" d="M373.7,473.8c-0.1,0-0.1-0.1-0.1-0.1v-0.5h0c-0.3,0.4-0.9,0.8-1.8,0.8c-1.2,0-2.2-0.6-2.2-2
		c0-1.4,1-2.1,2.6-2.1h1.3c0.1,0,0.1,0,0.1-0.1v-0.3c0-0.7-0.4-1.1-1.4-1.1c-0.7,0-1.2,0.2-1.5,0.4c-0.1,0.1-0.1,0-0.2,0L370,468
		c0-0.1,0-0.1,0-0.2c0.5-0.4,1.2-0.6,2.3-0.6c2,0,2.7,0.7,2.7,2.3v4.2c0,0.1-0.1,0.1-0.1,0.1H373.7z M373.6,471.6v-0.5
		c0-0.1,0-0.1-0.1-0.1h-1.1c-1,0-1.4,0.3-1.4,0.9c0,0.5,0.4,0.8,1.1,0.8C373,472.7,373.6,472.4,373.6,471.6z"/>
	<path fill="#45FF87" d="M377,476.2c-0.1,0-0.1-0.1-0.1-0.1v-8.6c0-0.1,0.1-0.1,0.1-0.1h1.2c0.1,0,0.1,0.1,0.1,0.1v0.5h0
		c0.3-0.4,0.8-0.8,1.7-0.8c1.1,0,1.9,0.5,2.2,1.6c0.2,0.5,0.2,1,0.2,1.8c0,0.9-0.1,1.3-0.2,1.8c-0.3,1-1.1,1.6-2.2,1.6
		c-0.9,0-1.4-0.3-1.7-0.8h0v2.9c0,0.1-0.1,0.1-0.1,0.1H377z M381,471.8c0.1-0.3,0.1-0.6,0.1-1.2s0-0.9-0.1-1.2
		c-0.2-0.5-0.6-0.8-1.2-0.8c-0.6,0-1,0.3-1.2,0.8c-0.1,0.3-0.1,0.6-0.1,1.2s0,0.9,0.1,1.2c0.2,0.5,0.6,0.8,1.2,0.8
		C380.4,472.6,380.8,472.3,381,471.8z"/>
	<path fill="#45FF87" d="M386.1,473.9c-1.3,0-1.8-0.6-1.8-1.9v-3.4c0-0.1,0-0.1-0.1-0.1h-0.4c-0.1,0-0.1-0.1-0.1-0.1v-0.9
		c0-0.1,0.1-0.1,0.1-0.1h0.4c0.1,0,0.1,0,0.1-0.1v-1.8c0-0.1,0.1-0.1,0.1-0.1h1.2c0.1,0,0.1,0.1,0.1,0.1v1.8c0,0.1,0,0.1,0.1,0.1
		h0.9c0.1,0,0.1,0.1,0.1,0.1v0.9c0,0.1-0.1,0.1-0.1,0.1h-0.9c-0.1,0-0.1,0-0.1,0.1v3.4c0,0.5,0.2,0.6,0.6,0.6h0.3
		c0.1,0,0.1,0.1,0.1,0.1v1.1c0,0.1-0.1,0.1-0.1,0.1H386.1z"/>
	<path fill="#45FF87" d="M388.7,466.1c-0.1,0-0.1-0.1-0.1-0.1v-1.2c0-0.1,0.1-0.1,0.1-0.1h1.2c0.1,0,0.1,0.1,0.1,0.1v1.2
		c0,0.1-0.1,0.1-0.1,0.1H388.7z M388.7,473.8c-0.1,0-0.1-0.1-0.1-0.1v-6.2c0-0.1,0.1-0.1,0.1-0.1h1.2c0.1,0,0.1,0.1,0.1,0.1v6.2
		c0,0.1-0.1,0.1-0.1,0.1H388.7z"/>
	<path fill="#45FF87" d="M391.9,472.2c-0.1-0.5-0.2-0.9-0.2-1.6s0.1-1.1,0.2-1.6c0.4-1.1,1.4-1.8,2.7-1.8c1.3,0,2.3,0.7,2.7,1.8
		c0.1,0.5,0.2,0.9,0.2,1.6s-0.1,1.1-0.2,1.6c-0.4,1.1-1.4,1.8-2.7,1.8C393.3,473.9,392.3,473.3,391.9,472.2z M395.8,471.7
		c0.1-0.3,0.1-0.6,0.1-1.2s0-0.9-0.1-1.2c-0.2-0.5-0.6-0.8-1.2-0.8c-0.6,0-1,0.3-1.2,0.8c-0.1,0.3-0.1,0.6-0.1,1.2s0,0.9,0.1,1.2
		c0.2,0.5,0.6,0.8,1.2,0.8C395.2,472.6,395.6,472.3,395.8,471.7z"/>
	<path fill="#45FF87" d="M403.2,473.8c-0.1,0-0.1-0.1-0.1-0.1v-3.7c0-0.8-0.4-1.4-1.2-1.4c-0.8,0-1.2,0.6-1.2,1.4v3.7
		c0,0.1-0.1,0.1-0.1,0.1h-1.2c-0.1,0-0.1-0.1-0.1-0.1v-6.2c0-0.1,0.1-0.1,0.1-0.1h1.2c0.1,0,0.1,0.1,0.1,0.1v0.5h0
		c0.3-0.4,0.8-0.8,1.7-0.8c1.4,0,2.2,1,2.2,2.4v4.1c0,0.1-0.1,0.1-0.1,0.1H403.2z"/>
	<path fill="#45FF87" d="M406.4,472.3c0-0.1,0.1-0.1,0.1-0.1h1.3c0.1,0,0.1,0.1,0.1,0.1v1.5c0,0.1,0,0.2-0.1,0.3l-1.1,1.2
		c-0.1,0.1-0.1,0.1-0.2,0.1c-0.1,0-0.1-0.1-0.1-0.1V472.3z"/>
	<path fill="#45FF87" d="M416.6,473.8c-0.1,0-0.1-0.1-0.1-0.1v-0.5h0c-0.3,0.4-0.9,0.8-1.8,0.8c-1.2,0-2.2-0.6-2.2-2
		c0-1.4,1-2.1,2.6-2.1h1.3c0.1,0,0.1,0,0.1-0.1v-0.3c0-0.7-0.3-1.1-1.4-1.1c-0.7,0-1.2,0.2-1.5,0.4c-0.1,0.1-0.1,0-0.2,0l-0.5-0.9
		c0-0.1,0-0.1,0-0.2c0.5-0.4,1.2-0.6,2.3-0.6c2,0,2.7,0.7,2.7,2.3v4.2c0,0.1-0.1,0.1-0.1,0.1H416.6z M416.4,471.6v-0.5
		c0-0.1,0-0.1-0.1-0.1h-1.1c-1,0-1.4,0.3-1.4,0.9c0,0.5,0.4,0.8,1.1,0.8C415.9,472.7,416.4,472.4,416.4,471.6z"/>
	<path fill="#45FF87" d="M424.7,473.8c-0.1,0-0.1-0.1-0.2-0.1l-2.3-6.2c0-0.1,0-0.1,0.1-0.1h1.3c0.1,0,0.1,0.1,0.2,0.1l1.4,4.2h0
		l1.4-4.2c0-0.1,0.1-0.1,0.2-0.1h1.3c0.1,0,0.1,0.1,0.1,0.1l-2.3,6.2c0,0.1-0.1,0.1-0.2,0.1H424.7z"/>
	<path fill="#45FF87" d="M429.6,466.1c-0.1,0-0.1-0.1-0.1-0.1v-1.2c0-0.1,0.1-0.1,0.1-0.1h1.2c0.1,0,0.1,0.1,0.1,0.1v1.2
		c0,0.1-0.1,0.1-0.1,0.1H429.6z M429.6,473.8c-0.1,0-0.1-0.1-0.1-0.1v-6.2c0-0.1,0.1-0.1,0.1-0.1h1.2c0.1,0,0.1,0.1,0.1,0.1v6.2
		c0,0.1-0.1,0.1-0.1,0.1H429.6z"/>
	<path fill="#45FF87" d="M437,473.8c-0.1,0-0.1-0.1-0.1-0.1v-0.5h0c-0.3,0.4-0.8,0.8-1.7,0.8c-1.1,0-1.9-0.5-2.2-1.6
		c-0.2-0.5-0.2-1-0.2-1.8c0-0.9,0.1-1.3,0.2-1.8c0.3-1,1.1-1.6,2.2-1.6c0.9,0,1.4,0.3,1.7,0.8h0v-3.2c0-0.1,0.1-0.1,0.1-0.1h1.2
		c0.1,0,0.1,0.1,0.1,0.1v8.9c0,0.1-0.1,0.1-0.1,0.1H437z M436.7,471.8c0.1-0.3,0.1-0.6,0.1-1.2s0-0.9-0.1-1.2
		c-0.2-0.5-0.6-0.8-1.2-0.8c-0.6,0-1,0.3-1.2,0.8c-0.1,0.3-0.1,0.6-0.1,1.2s0,0.9,0.1,1.2c0.2,0.5,0.6,0.8,1.2,0.8
		C436.1,472.6,436.5,472.3,436.7,471.8z"/>
	<path fill="#45FF87" d="M440.2,472.1c-0.1-0.4-0.2-0.9-0.2-1.6s0.1-1.2,0.2-1.6c0.4-1.1,1.4-1.8,2.6-1.8c1.3,0,2.3,0.7,2.7,1.8
		c0.1,0.5,0.2,0.9,0.2,2c0,0.1-0.1,0.1-0.1,0.1h-4c-0.1,0-0.1,0-0.1,0.1c0,0.2,0,0.3,0.1,0.5c0.2,0.6,0.7,1,1.5,1
		c0.7,0,1.2-0.3,1.5-0.6c0.1-0.1,0.1-0.1,0.2,0l0.8,0.7c0.1,0.1,0.1,0.1,0,0.2c-0.6,0.6-1.5,1.1-2.7,1.1
		C441.5,473.9,440.5,473.3,440.2,472.1z M444.1,469.3c-0.2-0.5-0.7-0.8-1.3-0.8c-0.6,0-1.1,0.3-1.3,0.8c-0.1,0.2-0.1,0.3-0.1,0.5
		c0,0.1,0,0.1,0.1,0.1h2.5c0.1,0,0.1,0,0.1-0.1C444.2,469.6,444.2,469.4,444.1,469.3z"/>
	<path fill="#45FF87" d="M447.2,472.2c-0.1-0.5-0.2-0.9-0.2-1.6s0.1-1.1,0.2-1.6c0.4-1.1,1.4-1.8,2.7-1.8c1.3,0,2.3,0.7,2.7,1.8
		c0.1,0.5,0.2,0.9,0.2,1.6s-0.1,1.1-0.2,1.6c-0.4,1.1-1.4,1.8-2.7,1.8C448.6,473.9,447.6,473.3,447.2,472.2z M451.1,471.7
		c0.1-0.3,0.1-0.6,0.1-1.2s0-0.9-0.1-1.2c-0.2-0.5-0.6-0.8-1.2-0.8c-0.6,0-1,0.3-1.2,0.8c-0.1,0.3-0.1,0.6-0.1,1.2s0,0.9,0.1,1.2
		c0.2,0.5,0.6,0.8,1.2,0.8C450.5,472.6,450.9,472.3,451.1,471.7z"/>
	<path fill="#45FF87" d="M457.4,475.4c-0.1-0.1-0.1-0.1,0-0.2l0.8-0.8c0.1-0.1,0.1-0.1,0.2,0c0.4,0.4,0.9,0.6,1.4,0.6
		c1,0,1.5-0.5,1.5-1.5v-0.6h0c-0.3,0.5-0.8,0.8-1.7,0.8c-1.1,0-1.9-0.6-2.2-1.6c-0.2-0.5-0.2-0.9-0.2-1.7s0.1-1.1,0.2-1.6
		c0.3-1,1.1-1.6,2.2-1.6c0.8,0,1.4,0.3,1.7,0.8h0v-0.5c0-0.1,0.1-0.1,0.1-0.1h1.2c0.1,0,0.1,0.1,0.1,0.1v6c0,1.9-1,3-3,3
		C458.9,476.4,457.9,476,457.4,475.4z M461.1,471.5c0.1-0.3,0.1-0.6,0.1-1.1c0-0.4,0-0.8-0.1-1.1c-0.2-0.5-0.5-0.8-1.2-0.8
		c-0.6,0-1,0.3-1.1,0.8c-0.1,0.3-0.1,0.6-0.1,1.1c0,0.4,0,0.8,0.1,1.1c0.2,0.5,0.5,0.8,1.1,0.8C460.6,472.3,461,472,461.1,471.5z"/>
	<path fill="#45FF87" d="M468.6,473.8c-0.1,0-0.1-0.1-0.1-0.1v-0.5h0c-0.3,0.4-0.9,0.8-1.8,0.8c-1.2,0-2.2-0.6-2.2-2
		c0-1.4,1-2.1,2.6-2.1h1.3c0.1,0,0.1,0,0.1-0.1v-0.3c0-0.7-0.3-1.1-1.4-1.1c-0.7,0-1.2,0.2-1.5,0.4c-0.1,0.1-0.1,0-0.2,0l-0.5-0.9
		c0-0.1,0-0.1,0-0.2c0.5-0.4,1.2-0.6,2.3-0.6c2,0,2.7,0.7,2.7,2.3v4.2c0,0.1-0.1,0.1-0.1,0.1H468.6z M468.5,471.6v-0.5
		c0-0.1,0-0.1-0.1-0.1h-1.1c-1,0-1.4,0.3-1.4,0.9c0,0.5,0.4,0.8,1.1,0.8C468,472.7,468.5,472.4,468.5,471.6z"/>
	<path fill="#45FF87" d="M479.9,473.8c-0.1,0-0.1-0.1-0.1-0.1v-3.7c0-0.8-0.4-1.4-1.2-1.4c-0.8,0-1.2,0.6-1.2,1.4v3.7
		c0,0.1-0.1,0.1-0.1,0.1h-1.2c-0.1,0-0.1-0.1-0.1-0.1v-3.7c0-0.8-0.4-1.4-1.2-1.4c-0.8,0-1.2,0.6-1.2,1.4v3.7c0,0.1-0.1,0.1-0.1,0.1
		H472c-0.1,0-0.1-0.1-0.1-0.1v-6.2c0-0.1,0.1-0.1,0.1-0.1h1.2c0.1,0,0.1,0.1,0.1,0.1v0.5h0c0.3-0.4,0.8-0.8,1.7-0.8
		c0.8,0,1.4,0.3,1.8,0.9h0c0.5-0.5,1.1-0.9,2.1-0.9c1.5,0,2.4,1,2.4,2.4v4.1c0,0.1-0.1,0.1-0.1,0.1H479.9z"/>
	<path fill="#45FF87" d="M483.1,472.1c-0.1-0.4-0.2-0.9-0.2-1.6s0.1-1.2,0.2-1.6c0.4-1.1,1.4-1.8,2.7-1.8c1.3,0,2.3,0.7,2.7,1.8
		c0.1,0.5,0.2,0.9,0.2,2c0,0.1-0.1,0.1-0.1,0.1h-4c-0.1,0-0.1,0-0.1,0.1c0,0.2,0,0.3,0.1,0.5c0.2,0.6,0.7,1,1.5,1
		c0.7,0,1.2-0.3,1.5-0.6c0.1-0.1,0.1-0.1,0.2,0l0.8,0.7c0.1,0.1,0.1,0.1,0,0.2c-0.6,0.6-1.5,1.1-2.7,1.1
		C484.4,473.9,483.4,473.3,483.1,472.1z M487,469.3c-0.2-0.5-0.7-0.8-1.3-0.8c-0.6,0-1.1,0.3-1.3,0.8c-0.1,0.2-0.1,0.3-0.1,0.5
		c0,0.1,0,0.1,0.1,0.1h2.5c0.1,0,0.1,0,0.1-0.1C487.1,469.6,487,469.4,487,469.3z"/>
	<path fill="#45FF87" d="M490.1,472.3c0-0.1,0.1-0.1,0.1-0.1h1.3c0.1,0,0.1,0.1,0.1,0.1v1.5c0,0.1,0,0.2-0.1,0.3l-1.1,1.2
		c-0.1,0.1-0.1,0.1-0.2,0.1c-0.1,0-0.1-0.1-0.1-0.1V472.3z"/>
	<path fill="#45FF87" d="M500.3,473.8c-0.1,0-0.1-0.1-0.1-0.1v-0.5h0c-0.3,0.4-0.9,0.8-1.8,0.8c-1.2,0-2.2-0.6-2.2-2
		c0-1.4,1-2.1,2.6-2.1h1.3c0.1,0,0.1,0,0.1-0.1v-0.3c0-0.7-0.3-1.1-1.4-1.1c-0.7,0-1.2,0.2-1.5,0.4c-0.1,0.1-0.1,0-0.2,0l-0.5-0.9
		c0-0.1,0-0.1,0-0.2c0.5-0.4,1.2-0.6,2.3-0.6c2,0,2.7,0.7,2.7,2.3v4.2c0,0.1-0.1,0.1-0.1,0.1H500.3z M500.1,471.6v-0.5
		c0-0.1,0-0.1-0.1-0.1H499c-1,0-1.4,0.3-1.4,0.9c0,0.5,0.4,0.8,1.1,0.8C499.6,472.7,500.1,472.4,500.1,471.6z"/>
	<path fill="#45FF87" d="M506.5,472.2c-0.1-0.4-0.2-0.9-0.2-1.6s0.1-1.2,0.2-1.6c0.4-1.2,1.4-1.8,2.7-1.8c1,0,1.7,0.4,2.2,1
		c0,0.1,0.1,0.1,0,0.2l-0.8,0.7c-0.1,0.1-0.1,0-0.2,0c-0.3-0.4-0.7-0.6-1.2-0.6c-0.6,0-1,0.3-1.2,0.8c-0.1,0.3-0.1,0.7-0.1,1.2
		s0,0.9,0.1,1.2c0.2,0.6,0.6,0.8,1.2,0.8c0.5,0,0.9-0.2,1.2-0.6c0.1-0.1,0.1-0.1,0.2,0l0.8,0.7c0.1,0.1,0.1,0.1,0,0.2
		c-0.5,0.6-1.3,1-2.2,1C507.9,473.9,506.9,473.3,506.5,472.2z"/>
	<path fill="#45FF87" d="M516.7,473.8c-0.1,0-0.1-0.1-0.1-0.1v-0.5h0c-0.3,0.4-0.9,0.8-1.8,0.8c-1.2,0-2.2-0.6-2.2-2
		c0-1.4,1-2.1,2.6-2.1h1.3c0.1,0,0.1,0,0.1-0.1v-0.3c0-0.7-0.3-1.1-1.4-1.1c-0.7,0-1.2,0.2-1.5,0.4c-0.1,0.1-0.1,0-0.2,0l-0.5-0.9
		c0-0.1,0-0.1,0-0.2c0.5-0.4,1.2-0.6,2.3-0.6c2,0,2.7,0.7,2.7,2.3v4.2c0,0.1-0.1,0.1-0.1,0.1H516.7z M516.5,471.6v-0.5
		c0-0.1,0-0.1-0.1-0.1h-1.1c-1,0-1.4,0.3-1.4,0.9c0,0.5,0.4,0.8,1.1,0.8C516,472.7,516.5,472.4,516.5,471.6z"/>
	<path fill="#45FF87" d="M520,473.8c-0.1,0-0.1-0.1-0.1-0.1v-6.2c0-0.1,0.1-0.1,0.1-0.1h1.2c0.1,0,0.1,0.1,0.1,0.1v0.6h0
		c0.3-0.5,0.9-0.8,1.7-0.8c0.5,0,1,0.2,1.4,0.5c0.1,0.1,0.1,0.1,0,0.2l-0.7,0.9c-0.1,0.1-0.1,0.1-0.2,0c-0.3-0.2-0.6-0.3-1-0.3
		c-0.8,0-1.2,0.6-1.2,1.6v3.5c0,0.1-0.1,0.1-0.1,0.1H520z"/>
	<path fill="#45FF87" d="M529.4,473.8c-0.1,0-0.1-0.1-0.1-0.1v-0.5h0c-0.3,0.4-0.8,0.8-1.7,0.8c-1.1,0-1.9-0.5-2.2-1.6
		c-0.2-0.5-0.2-1-0.2-1.8c0-0.9,0.1-1.3,0.2-1.8c0.3-1,1.1-1.6,2.2-1.6c0.9,0,1.4,0.3,1.7,0.8h0v-3.2c0-0.1,0.1-0.1,0.1-0.1h1.2
		c0.1,0,0.1,0.1,0.1,0.1v8.9c0,0.1-0.1,0.1-0.1,0.1H529.4z M529.2,471.8c0.1-0.3,0.1-0.6,0.1-1.2s0-0.9-0.1-1.2
		c-0.2-0.5-0.6-0.8-1.2-0.8c-0.6,0-1,0.3-1.2,0.8c-0.1,0.3-0.1,0.6-0.1,1.2s0,0.9,0.1,1.2c0.2,0.5,0.6,0.8,1.2,0.8
		C528.6,472.6,529,472.3,529.2,471.8z"/>
	<path fill="#45FF87" d="M535.8,475.4c-0.1-0.1-0.1-0.1,0-0.2l0.8-0.8c0.1-0.1,0.1-0.1,0.2,0c0.4,0.4,0.9,0.6,1.4,0.6
		c1,0,1.5-0.5,1.5-1.5v-0.6h0c-0.3,0.5-0.8,0.8-1.7,0.8c-1.1,0-1.9-0.6-2.2-1.6c-0.2-0.5-0.2-0.9-0.2-1.7s0.1-1.1,0.2-1.6
		c0.3-1,1.1-1.6,2.2-1.6c0.8,0,1.4,0.3,1.7,0.8h0v-0.5c0-0.1,0.1-0.1,0.1-0.1h1.2c0.1,0,0.1,0.1,0.1,0.1v6c0,1.9-1,3-3,3
		C537.3,476.4,536.3,476,535.8,475.4z M539.6,471.5c0.1-0.3,0.1-0.6,0.1-1.1c0-0.4,0-0.8-0.1-1.1c-0.2-0.5-0.5-0.8-1.2-0.8
		c-0.6,0-1,0.3-1.1,0.8c-0.1,0.3-0.1,0.6-0.1,1.1c0,0.4,0,0.8,0.1,1.1c0.2,0.5,0.5,0.8,1.1,0.8C539,472.3,539.4,472,539.6,471.5z"/>
	<path fill="#45FF87" d="M547.1,473.8c-0.1,0-0.1-0.1-0.1-0.1v-0.5h0c-0.3,0.4-0.9,0.8-1.8,0.8c-1.2,0-2.2-0.6-2.2-2
		c0-1.4,1-2.1,2.6-2.1h1.3c0.1,0,0.1,0,0.1-0.1v-0.3c0-0.7-0.3-1.1-1.4-1.1c-0.7,0-1.2,0.2-1.5,0.4c-0.1,0.1-0.1,0-0.2,0l-0.5-0.9
		c0-0.1,0-0.1,0-0.2c0.5-0.4,1.2-0.6,2.3-0.6c2,0,2.7,0.7,2.7,2.3v4.2c0,0.1-0.1,0.1-0.1,0.1H547.1z M546.9,471.6v-0.5
		c0-0.1,0-0.1-0.1-0.1h-1.1c-1,0-1.4,0.3-1.4,0.9c0,0.5,0.4,0.8,1.1,0.8C546.4,472.7,546.9,472.4,546.9,471.6z"/>
	<path fill="#45FF87" d="M558.3,473.8c-0.1,0-0.1-0.1-0.1-0.1v-3.7c0-0.8-0.4-1.4-1.2-1.4c-0.8,0-1.2,0.6-1.2,1.4v3.7
		c0,0.1-0.1,0.1-0.1,0.1h-1.2c-0.1,0-0.1-0.1-0.1-0.1v-3.7c0-0.8-0.4-1.4-1.2-1.4c-0.8,0-1.2,0.6-1.2,1.4v3.7c0,0.1-0.1,0.1-0.1,0.1
		h-1.2c-0.1,0-0.1-0.1-0.1-0.1v-6.2c0-0.1,0.1-0.1,0.1-0.1h1.2c0.1,0,0.1,0.1,0.1,0.1v0.5h0c0.3-0.4,0.9-0.8,1.7-0.8
		c0.8,0,1.4,0.3,1.8,0.9h0c0.5-0.5,1.1-0.9,2.1-0.9c1.5,0,2.4,1,2.4,2.4v4.1c0,0.1-0.1,0.1-0.1,0.1H558.3z"/>
	<path fill="#45FF87" d="M561.5,472.1c-0.1-0.4-0.2-0.9-0.2-1.6s0.1-1.2,0.2-1.6c0.4-1.1,1.4-1.8,2.7-1.8c1.3,0,2.3,0.7,2.7,1.8
		c0.1,0.5,0.2,0.9,0.2,2c0,0.1-0.1,0.1-0.1,0.1h-4c-0.1,0-0.1,0-0.1,0.1c0,0.2,0,0.3,0.1,0.5c0.2,0.6,0.7,1,1.5,1
		c0.7,0,1.2-0.3,1.5-0.6c0.1-0.1,0.1-0.1,0.2,0l0.8,0.7c0.1,0.1,0.1,0.1,0,0.2c-0.6,0.6-1.5,1.1-2.7,1.1
		C562.8,473.9,561.8,473.3,561.5,472.1z M565.4,469.3c-0.2-0.5-0.7-0.8-1.3-0.8c-0.6,0-1.1,0.3-1.3,0.8c-0.1,0.2-0.1,0.3-0.1,0.5
		c0,0.1,0,0.1,0.1,0.1h2.5c0.1,0,0.1,0,0.1-0.1C565.5,469.6,565.4,469.4,565.4,469.3z"/>
	<path fill="#45FF87" d="M568.5,472.3c0-0.1,0.1-0.1,0.1-0.1h1.3c0.1,0,0.1,0.1,0.1,0.1v1.5c0,0.1,0,0.2-0.1,0.3l-1.1,1.2
		c-0.1,0.1-0.1,0.1-0.2,0.1c-0.1,0-0.1-0.1-0.1-0.1V472.3z"/>
	<path fill="#45FF87" d="M578.7,473.8c-0.1,0-0.1-0.1-0.1-0.1v-0.5h0c-0.3,0.4-0.9,0.8-1.8,0.8c-1.2,0-2.2-0.6-2.2-2
		c0-1.4,1-2.1,2.6-2.1h1.3c0.1,0,0.1,0,0.1-0.1v-0.3c0-0.7-0.3-1.1-1.4-1.1c-0.7,0-1.2,0.2-1.5,0.4c-0.1,0.1-0.1,0-0.2,0l-0.5-0.9
		c0-0.1,0-0.1,0-0.2c0.5-0.4,1.2-0.6,2.3-0.6c2,0,2.7,0.7,2.7,2.3v4.2c0,0.1-0.1,0.1-0.1,0.1H578.7z M578.5,471.6v-0.5
		c0-0.1,0-0.1-0.1-0.1h-1.1c-1,0-1.4,0.3-1.4,0.9c0,0.5,0.4,0.8,1.1,0.8C578,472.7,578.5,472.4,578.5,471.6z"/>
	<path fill="#45FF87" d="M586,473.8c-0.1,0-0.1-0.1-0.1-0.1v-3.7c0-0.8-0.4-1.4-1.2-1.4c-0.8,0-1.2,0.6-1.2,1.4v3.7
		c0,0.1-0.1,0.1-0.1,0.1H582c-0.1,0-0.1-0.1-0.1-0.1v-6.2c0-0.1,0.1-0.1,0.1-0.1h1.2c0.1,0,0.1,0.1,0.1,0.1v0.5h0
		c0.3-0.4,0.9-0.8,1.7-0.8c1.4,0,2.2,1,2.2,2.4v4.1c0,0.1-0.1,0.1-0.1,0.1H586z"/>
	<path fill="#45FF87" d="M593.3,473.8c-0.1,0-0.1-0.1-0.1-0.1v-0.5h0c-0.3,0.4-0.8,0.8-1.7,0.8c-1.1,0-1.9-0.5-2.2-1.6
		c-0.2-0.5-0.2-1-0.2-1.8c0-0.9,0.1-1.3,0.2-1.8c0.3-1,1.1-1.6,2.2-1.6c0.9,0,1.4,0.3,1.7,0.8h0v-3.2c0-0.1,0.1-0.1,0.1-0.1h1.2
		c0.1,0,0.1,0.1,0.1,0.1v8.9c0,0.1-0.1,0.1-0.1,0.1H593.3z M593,471.8c0.1-0.3,0.1-0.6,0.1-1.2s0-0.9-0.1-1.2
		c-0.2-0.5-0.6-0.8-1.2-0.8c-0.6,0-1,0.3-1.2,0.8c-0.1,0.3-0.1,0.6-0.1,1.2s0,0.9,0.1,1.2c0.2,0.5,0.6,0.8,1.2,0.8
		C592.4,472.6,592.8,472.3,593,471.8z"/>
	<path fill="#45FF87" d="M603.7,473.8c-0.1,0-0.1-0.1-0.1-0.1v-0.5h0c-0.3,0.4-0.9,0.8-1.8,0.8c-1.2,0-2.2-0.6-2.2-2
		c0-1.4,1-2.1,2.6-2.1h1.3c0.1,0,0.1,0,0.1-0.1v-0.3c0-0.7-0.3-1.1-1.4-1.1c-0.7,0-1.2,0.2-1.5,0.4c-0.1,0.1-0.1,0-0.2,0l-0.5-0.9
		c0-0.1,0-0.1,0-0.2c0.5-0.4,1.2-0.6,2.3-0.6c2,0,2.7,0.7,2.7,2.3v4.2c0,0.1-0.1,0.1-0.1,0.1H603.7z M603.5,471.6v-0.5
		c0-0.1,0-0.1-0.1-0.1h-1.1c-1,0-1.4,0.3-1.4,0.9c0,0.5,0.4,0.8,1.1,0.8C603,472.7,603.5,472.4,603.5,471.6z"/>
	<path fill="#45FF87" d="M610.9,473.8c-0.1,0-0.1-0.1-0.1-0.1v-3.7c0-0.8-0.4-1.4-1.2-1.4c-0.8,0-1.2,0.6-1.2,1.4v3.7
		c0,0.1-0.1,0.1-0.1,0.1H607c-0.1,0-0.1-0.1-0.1-0.1v-6.2c0-0.1,0.1-0.1,0.1-0.1h1.2c0.1,0,0.1,0.1,0.1,0.1v0.5h0
		c0.3-0.4,0.8-0.8,1.7-0.8c1.4,0,2.2,1,2.2,2.4v4.1c0,0.1-0.1,0.1-0.1,0.1H610.9z"/>
	<path fill="#45FF87" d="M621.3,473.8c-0.1,0-0.1-0.1-0.1-0.1v-0.5h0c-0.3,0.4-0.9,0.8-1.8,0.8c-1.2,0-2.2-0.6-2.2-2
		c0-1.4,1-2.1,2.6-2.1h1.3c0.1,0,0.1,0,0.1-0.1v-0.3c0-0.7-0.3-1.1-1.4-1.1c-0.7,0-1.2,0.2-1.5,0.4c-0.1,0.1-0.1,0-0.2,0l-0.5-0.9
		c0-0.1,0-0.1,0-0.2c0.5-0.4,1.2-0.6,2.3-0.6c2,0,2.7,0.7,2.7,2.3v4.2c0,0.1-0.1,0.1-0.1,0.1H621.3z M621.1,471.6v-0.5
		c0-0.1,0-0.1-0.1-0.1h-1.1c-1,0-1.4,0.3-1.4,0.9c0,0.5,0.4,0.8,1.1,0.8C620.6,472.7,621.1,472.4,621.1,471.6z"/>
	<path fill="#45FF87" d="M628.6,473.8c-0.1,0-0.1-0.1-0.1-0.1v-3.7c0-0.8-0.4-1.4-1.2-1.4c-0.8,0-1.2,0.6-1.2,1.4v3.7
		c0,0.1-0.1,0.1-0.1,0.1h-1.2c-0.1,0-0.1-0.1-0.1-0.1v-6.2c0-0.1,0.1-0.1,0.1-0.1h1.2c0.1,0,0.1,0.1,0.1,0.1v0.5h0
		c0.3-0.4,0.9-0.8,1.7-0.8c1.4,0,2.2,1,2.2,2.4v4.1c0,0.1-0.1,0.1-0.1,0.1H628.6z"/>
	<path fill="#45FF87" d="M632,466.1c-0.1,0-0.1-0.1-0.1-0.1v-1.2c0-0.1,0.1-0.1,0.1-0.1h1.2c0.1,0,0.1,0.1,0.1,0.1v1.2
		c0,0.1-0.1,0.1-0.1,0.1H632z M632,473.8c-0.1,0-0.1-0.1-0.1-0.1v-6.2c0-0.1,0.1-0.1,0.1-0.1h1.2c0.1,0,0.1,0.1,0.1,0.1v6.2
		c0,0.1-0.1,0.1-0.1,0.1H632z"/>
	<path fill="#45FF87" d="M643.4,473.8c-0.1,0-0.1-0.1-0.1-0.1v-3.7c0-0.8-0.4-1.4-1.2-1.4c-0.8,0-1.2,0.6-1.2,1.4v3.7
		c0,0.1-0.1,0.1-0.1,0.1h-1.2c-0.1,0-0.1-0.1-0.1-0.1v-3.7c0-0.8-0.4-1.4-1.2-1.4c-0.8,0-1.2,0.6-1.2,1.4v3.7c0,0.1-0.1,0.1-0.1,0.1
		h-1.2c-0.1,0-0.1-0.1-0.1-0.1v-6.2c0-0.1,0.1-0.1,0.1-0.1h1.2c0.1,0,0.1,0.1,0.1,0.1v0.5h0c0.3-0.4,0.9-0.8,1.7-0.8
		c0.8,0,1.4,0.3,1.8,0.9h0c0.5-0.5,1.1-0.9,2.1-0.9c1.5,0,2.4,1,2.4,2.4v4.1c0,0.1-0.1,0.1-0.1,0.1H643.4z"/>
	<path fill="#45FF87" d="M646.5,472.1c-0.1-0.4-0.2-0.9-0.2-1.6s0.1-1.2,0.2-1.6c0.4-1.1,1.4-1.8,2.7-1.8c1.3,0,2.3,0.7,2.7,1.8
		c0.1,0.5,0.2,0.9,0.2,2c0,0.1-0.1,0.1-0.1,0.1h-4c-0.1,0-0.1,0-0.1,0.1c0,0.2,0,0.3,0.1,0.5c0.2,0.6,0.7,1,1.5,1s1.2-0.3,1.5-0.6
		c0.1-0.1,0.1-0.1,0.2,0l0.8,0.7c0.1,0.1,0.1,0.1,0,0.2c-0.5,0.6-1.5,1.1-2.7,1.1C647.9,473.9,646.9,473.3,646.5,472.1z
		 M650.5,469.3c-0.2-0.5-0.7-0.8-1.3-0.8c-0.6,0-1.1,0.3-1.3,0.8c-0.1,0.2-0.1,0.3-0.1,0.5c0,0.1,0,0.1,0.1,0.1h2.5
		c0.1,0,0.1,0,0.1-0.1C650.5,469.6,650.5,469.4,650.5,469.3z"/>
	<path fill="#45FF87" d="M656.5,472.9c-0.1-0.1-0.1-0.1,0-0.2l0.8-0.8c0.1-0.1,0.1-0.1,0.2,0c0.5,0.4,1.2,0.7,1.9,0.7
		c0.8,0,1.2-0.3,1.2-0.8c0-0.4-0.2-0.6-1.1-0.7l-0.7-0.1c-1.3-0.1-2-0.8-2-1.9c0-1.3,0.9-2,2.5-2c1,0,1.9,0.3,2.4,0.8
		c0.1,0.1,0.1,0.1,0,0.2l-0.7,0.8c-0.1,0.1-0.1,0.1-0.2,0c-0.4-0.3-1.1-0.5-1.7-0.5c-0.6,0-1,0.3-1,0.7c0,0.4,0.2,0.6,1.1,0.7
		l0.7,0.1c1.4,0.1,2,0.8,2,1.9c0,1.3-0.9,2.2-2.7,2.2C657.9,473.9,657,473.4,656.5,472.9z"/>
	<path fill="#45FF87" d="M663.4,472.1c-0.1-0.4-0.2-0.9-0.2-1.6s0.1-1.2,0.2-1.6c0.4-1.1,1.4-1.8,2.7-1.8c1.3,0,2.3,0.7,2.7,1.8
		c0.1,0.5,0.2,0.9,0.2,2c0,0.1-0.1,0.1-0.1,0.1h-4c-0.1,0-0.1,0-0.1,0.1c0,0.2,0,0.3,0.1,0.5c0.2,0.6,0.7,1,1.5,1
		c0.7,0,1.2-0.3,1.5-0.6c0.1-0.1,0.1-0.1,0.2,0l0.8,0.7c0.1,0.1,0.1,0.1,0,0.2c-0.6,0.6-1.5,1.1-2.7,1.1
		C664.8,473.9,663.8,473.3,663.4,472.1z M667.4,469.3c-0.2-0.5-0.7-0.8-1.3-0.8c-0.6,0-1.1,0.3-1.3,0.8c-0.1,0.2-0.1,0.3-0.1,0.5
		c0,0.1,0,0.1,0.1,0.1h2.5c0.1,0,0.1,0,0.1-0.1C667.4,469.6,667.4,469.4,667.4,469.3z"/>
	<path fill="#45FF87" d="M670.7,473.8c-0.1,0-0.1-0.1-0.1-0.1v-6.2c0-0.1,0.1-0.1,0.1-0.1h1.2c0.1,0,0.1,0.1,0.1,0.1v0.6h0
		c0.3-0.5,0.9-0.8,1.7-0.8c0.5,0,1,0.2,1.4,0.5c0.1,0.1,0.1,0.1,0,0.2l-0.7,0.9c-0.1,0.1-0.1,0.1-0.2,0c-0.3-0.2-0.6-0.3-1-0.3
		c-0.9,0-1.2,0.6-1.2,1.6v3.5c0,0.1-0.1,0.1-0.1,0.1H670.7z"/>
	<path fill="#45FF87" d="M676.4,466.1c-0.1,0-0.1-0.1-0.1-0.1v-1.2c0-0.1,0.1-0.1,0.1-0.1h1.2c0.1,0,0.1,0.1,0.1,0.1v1.2
		c0,0.1-0.1,0.1-0.1,0.1H676.4z M676.4,473.8c-0.1,0-0.1-0.1-0.1-0.1v-6.2c0-0.1,0.1-0.1,0.1-0.1h1.2c0.1,0,0.1,0.1,0.1,0.1v6.2
		c0,0.1-0.1,0.1-0.1,0.1H676.4z"/>
	<path fill="#45FF87" d="M679.6,472.1c-0.1-0.4-0.2-0.9-0.2-1.6s0.1-1.2,0.2-1.6c0.4-1.1,1.4-1.8,2.7-1.8c1.3,0,2.3,0.7,2.7,1.8
		c0.1,0.5,0.2,0.9,0.2,2c0,0.1-0.1,0.1-0.1,0.1h-4c-0.1,0-0.1,0-0.1,0.1c0,0.2,0,0.3,0.1,0.5c0.2,0.6,0.7,1,1.5,1
		c0.7,0,1.2-0.3,1.5-0.6c0.1-0.1,0.1-0.1,0.2,0l0.8,0.7c0.1,0.1,0.1,0.1,0,0.2c-0.5,0.6-1.5,1.1-2.7,1.1
		C681,473.9,680,473.3,679.6,472.1z M683.6,469.3c-0.2-0.5-0.7-0.8-1.3-0.8c-0.6,0-1.1,0.3-1.3,0.8c-0.1,0.2-0.1,0.3-0.1,0.5
		c0,0.1,0,0.1,0.1,0.1h2.5c0.1,0,0.1,0,0.1-0.1C683.6,469.6,683.6,469.4,683.6,469.3z"/>
	<path fill="#45FF87" d="M686.4,472.9c-0.1-0.1-0.1-0.1,0-0.2l0.8-0.8c0.1-0.1,0.1-0.1,0.2,0c0.5,0.4,1.2,0.7,1.9,0.7
		c0.8,0,1.2-0.3,1.2-0.8c0-0.4-0.2-0.6-1.1-0.7l-0.7-0.1c-1.3-0.1-2-0.8-2-1.9c0-1.3,0.9-2,2.5-2c1,0,1.9,0.3,2.4,0.8
		c0.1,0.1,0.1,0.1,0,0.2l-0.7,0.8c-0.1,0.1-0.1,0.1-0.2,0c-0.4-0.3-1.1-0.5-1.7-0.5s-1,0.3-1,0.7c0,0.4,0.2,0.6,1.1,0.7l0.7,0.1
		c1.4,0.1,2,0.8,2,1.9c0,1.3-0.9,2.2-2.7,2.2C687.8,473.9,686.9,473.4,686.4,472.9z"/>
	<path fill="#45FF87" d="M693.4,472.3c0-0.1,0.1-0.1,0.1-0.1h1.3c0.1,0,0.1,0.1,0.1,0.1v1.4c0,0.1-0.1,0.1-0.1,0.1h-1.3
		c-0.1,0-0.1-0.1-0.1-0.1V472.3z"/>
</g>
</svg>
