<?xml version="1.0" encoding="utf-8"?>
<!-- Generator: Adobe Illustrator 16.0.4, SVG Export Plug-In . SVG Version: 6.00 Build 0)  -->
<!DOCTYPE svg PUBLIC "-//W3C//DTD SVG 1.1//EN" "http://www.w3.org/Graphics/SVG/1.1/DTD/svg11.dtd">
<svg version="1.1" id="レイヤー_1" xmlns="http://www.w3.org/2000/svg" xmlns:xlink="http://www.w3.org/1999/xlink" x="0px"
	 y="0px" width="630px" height="333.1px" viewBox="0 0 630 333.1" enable-background="new 0 0 630 333.1" xml:space="preserve">
<g>
	<path d="M4.1,3.7c0-0.6,0.4-1,1-1h12.7c0.6,0,1,0.4,1,1v53.5c0,0.4,0.2,0.6,0.6,0.6h30.1c0.6,0,1,0.4,1,1V70c0,0.6-0.4,1-1,1H5.1
		c-0.6,0-1-0.4-1-1V3.7z"/>
	<path d="M59.4,55.5c-1.5-4.7-1.9-8.5-1.9-18.7c0-10.1,0.4-14,1.9-18.7c3.5-11,12.9-16.6,24.9-16.6s21.4,5.5,24.9,16.6
		c1.5,4.7,1.9,8.5,1.9,18.7c0,10.1-0.4,13.9-1.9,18.7c-3.5,11-12.9,16.6-24.9,16.6S62.9,66.6,59.4,55.5z M95,51.5
		c0.8-2.4,1.1-5.7,1.1-14.7S95.8,24.6,95,22.2c-1.5-4.7-5.1-7.5-10.7-7.5s-9.2,2.8-10.7,7.5c-0.8,2.4-1.1,5.7-1.1,14.7
		s0.3,12.2,1.1,14.7C75,56.2,78.6,59,84.3,59S93.5,56.2,95,51.5z"/>
	<path d="M139.9,71c-0.7,0-1.1-0.4-1.3-1L116.9,3.8c-0.2-0.7,0.2-1.1,0.9-1.1h13c0.7,0,1.1,0.3,1.3,1l13.6,44.8h0.3l13.2-44.8
		c0.2-0.7,0.6-1,1.3-1h12.9c0.6,0,1,0.4,0.8,1.1L152.7,70c-0.2,0.6-0.6,1-1.2,1H139.9z"/>
	<path d="M182,3.7c0-0.6,0.4-1,1-1h43.8c0.6,0,1,0.4,1,1v10.7c0,0.6-0.4,1-1,1h-29.4c-0.4,0-0.6,0.2-0.6,0.6v13.5
		c0,0.4,0.2,0.6,0.6,0.6h24.5c0.6,0,1,0.4,1,1v10.6c0,0.6-0.4,1-1,1h-24.5c-0.4,0-0.6,0.2-0.6,0.6v14.2c0,0.4,0.2,0.6,0.6,0.6h29.4
		c0.6,0,1,0.4,1,1V70c0,0.6-0.4,1-1,1H183c-0.6,0-1-0.4-1-1V3.7z"/>
	<path d="M262.4,3.7c0-0.6,0.4-1,1-1h12.7c0.6,0,1,0.4,1,1v53.5c0,0.4,0.2,0.6,0.6,0.6h30.1c0.6,0,1,0.4,1,1V70c0,0.6-0.4,1-1,1
		h-44.5c-0.6,0-1-0.4-1-1V3.7z"/>
	<path d="M317.6,3.7c0-0.6,0.4-1,1-1h12.7c0.6,0,1,0.4,1,1V70c0,0.6-0.4,1-1,1h-12.7c-0.6,0-1-0.4-1-1V3.7z"/>
	<path d="M363,71c-0.7,0-1.1-0.4-1.3-1L340,3.8c-0.2-0.7,0.2-1.1,0.9-1.1h13c0.7,0,1.1,0.3,1.3,1l13.6,44.8h0.3l13.2-44.8
		c0.2-0.7,0.6-1,1.3-1h12.9c0.6,0,1,0.4,0.8,1.1L375.8,70c-0.2,0.6-0.6,1-1.2,1H363z"/>
	<path d="M405.1,3.7c0-0.6,0.4-1,1-1h43.8c0.6,0,1,0.4,1,1v10.7c0,0.6-0.4,1-1,1h-29.4c-0.4,0-0.6,0.2-0.6,0.6v13.5
		c0,0.4,0.2,0.6,0.6,0.6h24.5c0.6,0,1,0.4,1,1v10.6c0,0.6-0.4,1-1,1h-24.5c-0.4,0-0.6,0.2-0.6,0.6v14.2c0,0.4,0.2,0.6,0.6,0.6h29.4
		c0.6,0,1,0.4,1,1V70c0,0.6-0.4,1-1,1h-43.8c-0.6,0-1-0.4-1-1V3.7z"/>
	<path d="M499.5,71c-0.9,0-1.2-0.3-1.5-1l-11.7-25h-9.1c-0.4,0-0.6,0.2-0.6,0.6V70c0,0.6-0.4,1-1,1h-12.7c-0.6,0-1-0.4-1-1V3.7
		c0-0.6,0.4-1,1-1H490c13.9,0,23.2,8.7,23.2,21.2c0,8.7-4.6,15.7-12.1,19l13.4,26.9c0.3,0.6,0,1.2-0.7,1.2H499.5z M498.4,23.9
		c0-5.1-3.6-8.4-9.2-8.4h-12c-0.4,0-0.6,0.2-0.6,0.6v15.8c0,0.4,0.2,0.6,0.6,0.6h12C494.8,32.4,498.4,29.1,498.4,23.9z"/>
	<path d="M0.8,147.9c-0.4-0.4-0.6-1.1-0.1-1.7l7.6-8.7c0.4-0.5,1-0.5,1.5-0.1c4.5,3.6,10.6,7,17.9,7c7.1,0,11.1-3.3,11.1-8.1
		c0-4-2.4-6.5-10.5-7.6l-3.6-0.5c-13.8-1.9-21.6-8.4-21.6-20.5c0-12.5,9.4-20.9,24.2-20.9c9,0,17.5,2.7,23.2,7.1
		c0.6,0.4,0.7,0.8,0.2,1.5l-6.1,9.1c-0.4,0.5-0.9,0.6-1.4,0.3c-5.2-3.4-10.2-5.2-15.9-5.2c-6,0-9.1,3.1-9.1,7.4
		c0,3.9,2.8,6.4,10.6,7.5l3.6,0.5c14.1,1.9,21.5,8.3,21.5,20.7c0,12.3-9.1,21.5-26.8,21.5C16.4,157.2,6.1,153,0.8,147.9z"/>
	<path d="M63.8,88.9c0-0.6,0.4-1,1-1h11.9c0.8,0,1.3,0.3,1.6,1l17.3,38.9H96l17-38.9c0.3-0.7,0.8-1,1.6-1h11.7c0.6,0,1,0.4,1,1v66.2
		c0,0.6-0.4,1-1,1H115c-0.6,0-1-0.4-1-1v-38.4h-0.4l-12.6,28.8c-0.4,0.9-1,1.3-1.9,1.3h-6.9c-0.9,0-1.5-0.4-1.9-1.3l-12.6-28.8h-0.4
		v38.4c0,0.6-0.4,1-1,1H64.8c-0.6,0-1-0.4-1-1V88.9z"/>
	<path d="M158.7,88.9c0.2-0.6,0.6-1,1.3-1h12.6c0.7,0,1.1,0.4,1.3,1l23.1,66.2c0.2,0.6,0,1-0.7,1h-13c-0.7,0-1.1-0.3-1.3-1
		l-3.9-11.9h-23.9l-3.8,11.9c-0.2,0.7-0.6,1-1.3,1h-13.1c-0.7,0-0.9-0.4-0.7-1L158.7,88.9z M174.1,130.7l-7.7-23.9h-0.3l-7.7,23.9
		H174.1z"/>
	<path d="M242.7,156.1c-0.9,0-1.2-0.3-1.5-1l-11.7-25h-9.1c-0.4,0-0.6,0.2-0.6,0.6v24.4c0,0.6-0.4,1-1,1H206c-0.6,0-1-0.4-1-1V88.9
		c0-0.6,0.4-1,1-1h27.2c13.9,0,23.2,8.7,23.2,21.2c0,8.7-4.6,15.7-12.1,19l13.4,26.9c0.3,0.6,0,1.2-0.7,1.2H242.7z M241.6,109.1
		c0-5.1-3.6-8.4-9.2-8.4h-12c-0.4,0-0.6,0.2-0.6,0.6V117c0,0.4,0.2,0.6,0.6,0.6h12C238,117.6,241.6,114.3,241.6,109.1z"/>
	<path d="M282.7,156.1c-0.6,0-1-0.4-1-1v-53.5c0-0.4-0.2-0.6-0.6-0.6h-17.3c-0.6,0-1-0.4-1-1V88.9c0-0.6,0.4-1,1-1h50.5
		c0.6,0,1,0.4,1,1V100c0,0.6-0.4,1-1,1H297c-0.4,0-0.6,0.2-0.6,0.6v53.5c0,0.6-0.4,1-1,1H282.7z"/>
	<path d="M324.5,156.1c-0.6,0-1-0.4-1-1V88.9c0-0.6,0.4-1,1-1H351c14.9,0,23.8,8.9,23.8,22c0,12.8-9,21.9-23.8,21.9h-12.1
		c-0.4,0-0.6,0.2-0.6,0.6v22.8c0,0.6-0.4,1-1,1H324.5z M360,109.9c0-5.5-3.7-9.2-9.9-9.2h-11.2c-0.4,0-0.6,0.2-0.6,0.6v17.2
		c0,0.4,0.2,0.6,0.6,0.6h11.2C356.3,119,360,115.4,360,109.9z"/>
	<path d="M384.2,88.9c0-0.6,0.4-1,1-1H398c0.6,0,1,0.4,1,1v25.6c0,0.4,0.2,0.6,0.6,0.6h22.3c0.4,0,0.6-0.2,0.6-0.6V88.9
		c0-0.6,0.4-1,1-1h12.7c0.6,0,1,0.4,1,1v66.2c0,0.6-0.4,1-1,1h-12.7c-0.6,0-1-0.4-1-1v-26.3c0-0.4-0.2-0.6-0.6-0.6h-22.3
		c-0.4,0-0.6,0.2-0.6,0.6v26.3c0,0.6-0.4,1-1,1h-12.7c-0.6,0-1-0.4-1-1V88.9z"/>
	<path d="M450.4,140.7c-1.5-4.7-1.9-8.5-1.9-18.7c0-10.1,0.4-14,1.9-18.7c3.5-11,12.9-16.6,24.9-16.6c11.9,0,21.4,5.5,24.9,16.6
		c1.5,4.7,1.9,8.5,1.9,18.7c0,10.1-0.4,13.9-1.9,18.7c-3.5,11-12.9,16.6-24.9,16.6C463.3,157.2,453.9,151.7,450.4,140.7z M486,136.7
		c0.8-2.4,1.1-5.7,1.1-14.7s-0.3-12.2-1.1-14.7c-1.5-4.7-5.1-7.5-10.7-7.5c-5.6,0-9.2,2.8-10.7,7.5c-0.8,2.4-1.1,5.7-1.1,14.7
		s0.3,12.2,1.1,14.7c1.5,4.7,5.1,7.5,10.7,7.5C480.9,144.2,484.5,141.4,486,136.7z"/>
	<path d="M513.3,88.9c0-0.6,0.4-1,1-1h12c0.7,0,1.3,0.3,1.7,1l24.1,43h0.5v-43c0-0.6,0.4-1,1-1H565c0.6,0,1,0.4,1,1v66.2
		c0,0.6-0.4,1-1,1H553c-0.8,0-1.3-0.3-1.7-1l-24.2-42.9h-0.5v42.9c0,0.6-0.4,1-1,1h-11.3c-0.6,0-1-0.4-1-1V88.9z"/>
	<path d="M579,88.9c0-0.6,0.4-1,1-1h43.8c0.6,0,1,0.4,1,1v10.7c0,0.6-0.4,1-1,1h-29.4c-0.4,0-0.6,0.2-0.6,0.6v13.5
		c0,0.4,0.2,0.6,0.6,0.6h24.5c0.6,0,1,0.4,1,1V127c0,0.6-0.4,1-1,1h-24.5c-0.4,0-0.6,0.2-0.6,0.6v14.2c0,0.4,0.2,0.6,0.6,0.6h29.4
		c0.6,0,1,0.4,1,1v10.7c0,0.6-0.4,1-1,1H580c-0.6,0-1-0.4-1-1V88.9z"/>
	<path d="M2.3,207.2c0-10.5,0.4-14,1.9-18.5C7.8,177.6,16.5,172,28.5,172c11.5,0,20,5.6,23.8,15.2c0.3,0.5,0.1,1-0.5,1.2l-10.9,4.9
		c-0.6,0.3-1.1,0.1-1.4-0.5c-1.9-4.4-5.1-7.7-10.8-7.7c-5.3,0-8.7,2.8-10.2,7.5c-0.8,2.5-1.1,4.9-1.1,14.7c0,9.7,0.3,12.1,1.1,14.7
		c1.5,4.7,4.9,7.5,10.2,7.5c5.7,0,8.9-3.3,10.8-7.7c0.3-0.6,0.8-0.8,1.4-0.5l10.9,4.9c0.6,0.2,0.8,0.7,0.5,1.2
		c-3.8,9.5-12.2,15.2-23.8,15.2c-11.9,0-20.7-5.6-24.3-16.8C2.7,221.2,2.3,217.7,2.3,207.2z"/>
	<path d="M80.1,174.1c0.2-0.6,0.6-1,1.3-1h12.6c0.7,0,1.1,0.4,1.3,1l23.1,66.2c0.2,0.6,0,1-0.7,1h-13c-0.7,0-1.1-0.3-1.3-1
		l-3.9-11.9H75.6l-3.8,11.9c-0.2,0.7-0.6,1-1.3,1H57.4c-0.7,0-0.9-0.4-0.7-1L80.1,174.1z M95.5,215.8l-7.7-23.9h-0.3l-7.7,23.9H95.5
		z"/>
	<path d="M123.1,233.1c-0.4-0.4-0.6-1.1-0.1-1.7l7.6-8.7c0.4-0.5,1-0.5,1.5-0.1c4.5,3.6,10.6,7,17.9,7c7.1,0,11.1-3.3,11.1-8.1
		c0-4-2.4-6.5-10.5-7.6l-3.6-0.5c-13.8-1.9-21.6-8.4-21.6-20.5c0-12.5,9.4-20.9,24.2-20.9c9,0,17.5,2.7,23.2,7.1
		c0.6,0.4,0.7,0.8,0.2,1.5l-6.1,9.1c-0.4,0.5-0.9,0.6-1.4,0.3c-5.2-3.4-10.2-5.2-15.9-5.2c-6,0-9.1,3.1-9.1,7.4
		c0,3.9,2.8,6.4,10.6,7.5l3.6,0.5c14.1,1.9,21.5,8.3,21.5,20.7c0,12.3-9.1,21.5-26.8,21.5C138.8,242.4,128.4,238.2,123.1,233.1z"/>
	<path d="M186.1,174.1c0-0.6,0.4-1,1-1h43.8c0.6,0,1,0.4,1,1v10.7c0,0.6-0.4,1-1,1h-29.4c-0.4,0-0.6,0.2-0.6,0.6V200
		c0,0.4,0.2,0.6,0.6,0.6H226c0.6,0,1,0.4,1,1v10.6c0,0.6-0.4,1-1,1h-24.5c-0.4,0-0.6,0.2-0.6,0.6V228c0,0.4,0.2,0.6,0.6,0.6h29.4
		c0.6,0,1,0.4,1,1v10.7c0,0.6-0.4,1-1,1h-43.8c-0.6,0-1-0.4-1-1V174.1z"/>
</g>
<g>
	<path d="M3.7,315.9c0-0.1,0.1-0.2,0.2-0.2h2.4c0.1,0,0.2,0.1,0.2,0.2V326c0,0.1,0,0.1,0.1,0.1h5.7c0.1,0,0.2,0.1,0.2,0.2v2.1
		c0,0.1-0.1,0.2-0.2,0.2H3.9c-0.1,0-0.2-0.1-0.2-0.2V315.9z"/>
	<path d="M14.1,325.7c-0.3-0.9-0.4-1.6-0.4-3.5s0.1-2.6,0.4-3.5c0.7-2.1,2.5-3.1,4.7-3.1c2.3,0,4,1,4.7,3.1c0.3,0.9,0.4,1.6,0.4,3.5
		s-0.1,2.6-0.4,3.5c-0.7,2.1-2.5,3.1-4.7,3.1C16.6,328.9,14.8,327.8,14.1,325.7z M20.9,325c0.2-0.5,0.2-1.1,0.2-2.8
		s-0.1-2.3-0.2-2.8c-0.3-0.9-1-1.4-2-1.4c-1.1,0-1.7,0.5-2,1.4c-0.2,0.5-0.2,1.1-0.2,2.8s0.1,2.3,0.2,2.8c0.3,0.9,1,1.4,2,1.4
		C19.9,326.4,20.6,325.9,20.9,325z"/>
	<path d="M29.4,328.6c-0.1,0-0.2-0.1-0.2-0.2L25,315.9c0-0.1,0-0.2,0.2-0.2h2.5c0.1,0,0.2,0.1,0.2,0.2l2.6,8.5h0.1l2.5-8.5
		c0-0.1,0.1-0.2,0.2-0.2h2.5c0.1,0,0.2,0.1,0.2,0.2l-4.1,12.5c0,0.1-0.1,0.2-0.2,0.2H29.4z"/>
	<path d="M37.4,315.9c0-0.1,0.1-0.2,0.2-0.2h8.3c0.1,0,0.2,0.1,0.2,0.2v2c0,0.1-0.1,0.2-0.2,0.2h-5.6c-0.1,0-0.1,0-0.1,0.1v2.6
		c0,0.1,0,0.1,0.1,0.1h4.6c0.1,0,0.2,0.1,0.2,0.2v2c0,0.1-0.1,0.2-0.2,0.2h-4.6c-0.1,0-0.1,0-0.1,0.1v2.7c0,0.1,0,0.1,0.1,0.1h5.6
		c0.1,0,0.2,0.1,0.2,0.2v2c0,0.1-0.1,0.2-0.2,0.2h-8.3c-0.1,0-0.2-0.1-0.2-0.2V315.9z"/>
	<path d="M52.6,315.9c0-0.1,0.1-0.2,0.2-0.2h2.4c0.1,0,0.2,0.1,0.2,0.2V326c0,0.1,0,0.1,0.1,0.1h5.7c0.1,0,0.2,0.1,0.2,0.2v2.1
		c0,0.1-0.1,0.2-0.2,0.2h-8.4c-0.1,0-0.2-0.1-0.2-0.2V315.9z"/>
	<path d="M63,315.9c0-0.1,0.1-0.2,0.2-0.2h2.4c0.1,0,0.2,0.1,0.2,0.2v12.5c0,0.1-0.1,0.2-0.2,0.2h-2.4c-0.1,0-0.2-0.1-0.2-0.2V315.9
		z"/>
	<path d="M71.6,328.6c-0.1,0-0.2-0.1-0.2-0.2l-4.1-12.5c0-0.1,0-0.2,0.2-0.2h2.5c0.1,0,0.2,0.1,0.2,0.2l2.6,8.5h0.1l2.5-8.5
		c0-0.1,0.1-0.2,0.2-0.2H78c0.1,0,0.2,0.1,0.2,0.2L74,328.5c0,0.1-0.1,0.2-0.2,0.2H71.6z"/>
	<path d="M79.6,315.9c0-0.1,0.1-0.2,0.2-0.2H88c0.1,0,0.2,0.1,0.2,0.2v2c0,0.1-0.1,0.2-0.2,0.2h-5.6c-0.1,0-0.1,0-0.1,0.1v2.6
		c0,0.1,0,0.1,0.1,0.1h4.6c0.1,0,0.2,0.1,0.2,0.2v2c0,0.1-0.1,0.2-0.2,0.2h-4.6c-0.1,0-0.1,0-0.1,0.1v2.7c0,0.1,0,0.1,0.1,0.1H88
		c0.1,0,0.2,0.1,0.2,0.2v2c0,0.1-0.1,0.2-0.2,0.2h-8.3c-0.1,0-0.2-0.1-0.2-0.2V315.9z"/>
	<path d="M91.1,324.7l-0.5-8.8c0-0.1,0.1-0.2,0.2-0.2h2.5c0.1,0,0.2,0.1,0.2,0.2l-0.5,8.8c0,0.1-0.1,0.2-0.2,0.2h-1.6
		C91.1,324.9,91.1,324.8,91.1,324.7z M90.7,326.3c0-0.1,0.1-0.2,0.2-0.2h2.3c0.1,0,0.2,0.1,0.2,0.2v2.2c0,0.1-0.1,0.2-0.2,0.2h-2.3
		c-0.1,0-0.2-0.1-0.2-0.2V326.3z"/>
	<path d="M100.6,323.9v-8c0-0.1,0.1-0.2,0.2-0.2h2.4c0.1,0,0.2,0.1,0.2,0.2v8.1c0,1.5,0.9,2.4,2.2,2.4c1.3,0,2.1-0.9,2.1-2.4v-8.1
		c0-0.1,0.1-0.2,0.2-0.2h2.4c0.1,0,0.2,0.1,0.2,0.2v8c0,3.2-2.1,5-4.9,5C102.7,328.9,100.6,327.1,100.6,323.9z"/>
	<path d="M113,315.9c0-0.1,0.1-0.2,0.2-0.2h2.3c0.1,0,0.2,0.1,0.3,0.2l4.6,8.1h0.1v-8.1c0-0.1,0.1-0.2,0.2-0.2h2.1
		c0.1,0,0.2,0.1,0.2,0.2v12.5c0,0.1-0.1,0.2-0.2,0.2h-2.3c-0.2,0-0.2-0.1-0.3-0.2l-4.6-8.1h-0.1v8.1c0,0.1-0.1,0.2-0.2,0.2h-2.1
		c-0.1,0-0.2-0.1-0.2-0.2V315.9z"/>
	<path d="M125.4,325.7c-0.3-0.9-0.4-1.6-0.4-3.5s0.1-2.6,0.4-3.5c0.7-2.1,2.5-3.1,4.7-3.1c2.3,0,4,1,4.7,3.1
		c0.3,0.9,0.4,1.6,0.4,3.5s-0.1,2.6-0.4,3.5c-0.7,2.1-2.5,3.1-4.7,3.1C127.9,328.9,126.1,327.8,125.4,325.7z M132.2,325
		c0.2-0.5,0.2-1.1,0.2-2.8s-0.1-2.3-0.2-2.8c-0.3-0.9-1-1.4-2-1.4c-1.1,0-1.7,0.5-2,1.4c-0.2,0.5-0.2,1.1-0.2,2.8s0.1,2.3,0.2,2.8
		c0.3,0.9,1,1.4,2,1.4C131.2,326.4,131.9,325.9,132.2,325z"/>
	<path d="M137.3,315.9c0-0.1,0.1-0.2,0.2-0.2h8.3c0.1,0,0.2,0.1,0.2,0.2v2c0,0.1-0.1,0.2-0.2,0.2h-5.6c-0.1,0-0.1,0-0.1,0.1v2.7
		c0,0.1,0,0.1,0.1,0.1h4.6c0.1,0,0.2,0.1,0.2,0.2v2c0,0.1-0.1,0.2-0.2,0.2h-4.6c-0.1,0-0.1,0-0.1,0.1v4.9c0,0.1-0.1,0.2-0.2,0.2
		h-2.4c-0.1,0-0.2-0.1-0.2-0.2V315.9z"/>
	<path d="M147.9,315.9c0-0.1,0.1-0.2,0.2-0.2h8.3c0.1,0,0.2,0.1,0.2,0.2v2c0,0.1-0.1,0.2-0.2,0.2h-5.6c-0.1,0-0.1,0-0.1,0.1v2.7
		c0,0.1,0,0.1,0.1,0.1h4.6c0.1,0,0.2,0.1,0.2,0.2v2c0,0.1-0.1,0.2-0.2,0.2h-4.6c-0.1,0-0.1,0-0.1,0.1v4.9c0,0.1-0.1,0.2-0.2,0.2
		h-2.4c-0.1,0-0.2-0.1-0.2-0.2V315.9z"/>
	<path d="M158.5,315.9c0-0.1,0.1-0.2,0.2-0.2h2.4c0.1,0,0.2,0.1,0.2,0.2v12.5c0,0.1-0.1,0.2-0.2,0.2h-2.4c-0.1,0-0.2-0.1-0.2-0.2
		V315.9z"/>
	<path d="M163.4,322.2c0-2,0.1-2.7,0.4-3.5c0.7-2.1,2.3-3.2,4.6-3.2c2.2,0,3.8,1.1,4.5,2.9c0.1,0.1,0,0.2-0.1,0.2l-2.1,0.9
		c-0.1,0.1-0.2,0-0.3-0.1c-0.4-0.8-1-1.5-2.1-1.5c-1,0-1.7,0.5-1.9,1.4c-0.2,0.5-0.2,0.9-0.2,2.8s0.1,2.3,0.2,2.8
		c0.3,0.9,0.9,1.4,1.9,1.4c1.1,0,1.7-0.6,2.1-1.5c0.1-0.1,0.2-0.2,0.3-0.1l2.1,0.9c0.1,0,0.2,0.1,0.1,0.2c-0.7,1.8-2.3,2.9-4.5,2.9
		c-2.3,0-3.9-1.1-4.6-3.2C163.5,324.8,163.4,324.2,163.4,322.2z"/>
	<path d="M174.7,315.9c0-0.1,0.1-0.2,0.2-0.2h2.4c0.1,0,0.2,0.1,0.2,0.2v12.5c0,0.1-0.1,0.2-0.2,0.2h-2.4c-0.1,0-0.2-0.1-0.2-0.2
		V315.9z"/>
	<path d="M183.4,315.9c0-0.1,0.1-0.2,0.2-0.2h2.4c0.1,0,0.2,0.1,0.2,0.2l4.4,12.5c0,0.1,0,0.2-0.1,0.2H188c-0.1,0-0.2-0.1-0.2-0.2
		l-0.7-2.3h-4.5l-0.7,2.3c0,0.1-0.1,0.2-0.2,0.2h-2.5c-0.1,0-0.2-0.1-0.1-0.2L183.4,315.9z M186.3,323.8l-1.5-4.5h-0.1l-1.5,4.5
		H186.3z"/>
	<path d="M192.1,315.9c0-0.1,0.1-0.2,0.2-0.2h2.4c0.1,0,0.2,0.1,0.2,0.2V326c0,0.1,0,0.1,0.1,0.1h5.7c0.1,0,0.2,0.1,0.2,0.2v2.1
		c0,0.1-0.1,0.2-0.2,0.2h-8.4c-0.1,0-0.2-0.1-0.2-0.2V315.9z"/>
	<path d="M206.4,327.1c-0.1-0.1-0.1-0.2,0-0.3l1.4-1.7c0.1-0.1,0.2-0.1,0.3,0c0.9,0.7,2,1.3,3.4,1.3c1.3,0,2.1-0.6,2.1-1.5
		c0-0.8-0.5-1.2-2-1.4l-0.7-0.1c-2.6-0.4-4.1-1.6-4.1-3.9c0-2.4,1.8-4,4.6-4c1.7,0,3.3,0.5,4.4,1.3c0.1,0.1,0.1,0.2,0,0.3l-1.2,1.7
		c-0.1,0.1-0.2,0.1-0.3,0.1c-1-0.6-1.9-1-3-1c-1.1,0-1.7,0.6-1.7,1.4c0,0.7,0.5,1.2,2,1.4l0.7,0.1c2.7,0.4,4.1,1.6,4.1,3.9
		s-1.7,4.1-5.1,4.1C209.4,328.9,207.5,328.1,206.4,327.1z"/>
	<path d="M218.4,315.9c0-0.1,0.1-0.2,0.2-0.2h2.3c0.2,0,0.2,0.1,0.3,0.2l3.3,7.4h0.1l3.2-7.4c0.1-0.1,0.2-0.2,0.3-0.2h2.2
		c0.1,0,0.2,0.1,0.2,0.2v12.5c0,0.1-0.1,0.2-0.2,0.2h-2.1c-0.1,0-0.2-0.1-0.2-0.2v-7.3h-0.1l-2.4,5.5c-0.1,0.2-0.2,0.2-0.4,0.2h-1.3
		c-0.2,0-0.3-0.1-0.4-0.2l-2.4-5.5h-0.1v7.3c0,0.1-0.1,0.2-0.2,0.2h-2.1c-0.1,0-0.2-0.1-0.2-0.2V315.9z"/>
	<path d="M236.3,315.9c0-0.1,0.1-0.2,0.2-0.2h2.4c0.1,0,0.2,0.1,0.2,0.2l4.4,12.5c0,0.1,0,0.2-0.1,0.2H241c-0.1,0-0.2-0.1-0.2-0.2
		l-0.7-2.3h-4.5l-0.7,2.3c0,0.1-0.1,0.2-0.2,0.2H232c-0.1,0-0.2-0.1-0.1-0.2L236.3,315.9z M239.2,323.8l-1.5-4.5h-0.1l-1.5,4.5
		H239.2z"/>
	<path d="M252.2,328.6c-0.2,0-0.2-0.1-0.3-0.2l-2.2-4.7H248c-0.1,0-0.1,0-0.1,0.1v4.6c0,0.1-0.1,0.2-0.2,0.2h-2.4
		c-0.1,0-0.2-0.1-0.2-0.2v-12.5c0-0.1,0.1-0.2,0.2-0.2h5.1c2.6,0,4.4,1.7,4.4,4c0,1.7-0.9,3-2.3,3.6l2.5,5.1c0.1,0.1,0,0.2-0.1,0.2
		H252.2z M252,319.7c0-1-0.7-1.6-1.7-1.6H248c-0.1,0-0.1,0-0.1,0.1v3c0,0.1,0,0.1,0.1,0.1h2.3C251.3,321.4,252,320.7,252,319.7z"/>
	<path d="M259.8,328.6c-0.1,0-0.2-0.1-0.2-0.2v-10.1c0-0.1,0-0.1-0.1-0.1h-3.3c-0.1,0-0.2-0.1-0.2-0.2v-2.1c0-0.1,0.1-0.2,0.2-0.2
		h9.6c0.1,0,0.2,0.1,0.2,0.2v2.1c0,0.1-0.1,0.2-0.2,0.2h-3.3c-0.1,0-0.1,0-0.1,0.1v10.1c0,0.1-0.1,0.2-0.2,0.2H259.8z"/>
	<path d="M267.7,328.6c-0.1,0-0.2-0.1-0.2-0.2v-12.5c0-0.1,0.1-0.2,0.2-0.2h5c2.8,0,4.5,1.7,4.5,4.2c0,2.4-1.7,4.1-4.5,4.1h-2.3
		c-0.1,0-0.1,0-0.1,0.1v4.3c0,0.1-0.1,0.2-0.2,0.2H267.7z M274.4,319.9c0-1-0.7-1.7-1.9-1.7h-2.1c-0.1,0-0.1,0-0.1,0.1v3.2
		c0,0.1,0,0.1,0.1,0.1h2.1C273.7,321.6,274.4,320.9,274.4,319.9z"/>
	<path d="M279,315.9c0-0.1,0.1-0.2,0.2-0.2h2.4c0.1,0,0.2,0.1,0.2,0.2v4.8c0,0.1,0,0.1,0.1,0.1h4.2c0.1,0,0.1,0,0.1-0.1v-4.8
		c0-0.1,0.1-0.2,0.2-0.2h2.4c0.1,0,0.2,0.1,0.2,0.2v12.5c0,0.1-0.1,0.2-0.2,0.2h-2.4c-0.1,0-0.2-0.1-0.2-0.2v-5c0-0.1,0-0.1-0.1-0.1
		h-4.2c-0.1,0-0.1,0-0.1,0.1v5c0,0.1-0.1,0.2-0.2,0.2h-2.4c-0.1,0-0.2-0.1-0.2-0.2V315.9z"/>
	<path d="M291.5,325.7c-0.3-0.9-0.4-1.6-0.4-3.5s0.1-2.6,0.4-3.5c0.7-2.1,2.5-3.1,4.7-3.1s4,1,4.7,3.1c0.3,0.9,0.4,1.6,0.4,3.5
		s-0.1,2.6-0.4,3.5c-0.7,2.1-2.5,3.1-4.7,3.1S292.2,327.8,291.5,325.7z M298.3,325c0.2-0.5,0.2-1.1,0.2-2.8s-0.1-2.3-0.2-2.8
		c-0.3-0.9-1-1.4-2-1.4c-1.1,0-1.7,0.5-2,1.4c-0.2,0.5-0.2,1.1-0.2,2.8s0.1,2.3,0.2,2.8c0.3,0.9,1,1.4,2,1.4
		C297.3,326.4,298,325.9,298.3,325z"/>
	<path d="M303.4,315.9c0-0.1,0.1-0.2,0.2-0.2h2.3c0.1,0,0.2,0.1,0.3,0.2l4.6,8.1h0.1v-8.1c0-0.1,0.1-0.2,0.2-0.2h2.1
		c0.1,0,0.2,0.1,0.2,0.2v12.5c0,0.1-0.1,0.2-0.2,0.2H311c-0.2,0-0.2-0.1-0.3-0.2l-4.6-8.1H306v8.1c0,0.1-0.1,0.2-0.2,0.2h-2.1
		c-0.1,0-0.2-0.1-0.2-0.2V315.9z"/>
	<path d="M315.9,315.9c0-0.1,0.1-0.2,0.2-0.2h8.3c0.1,0,0.2,0.1,0.2,0.2v2c0,0.1-0.1,0.2-0.2,0.2h-5.6c-0.1,0-0.1,0-0.1,0.1v2.6
		c0,0.1,0,0.1,0.1,0.1h4.6c0.1,0,0.2,0.1,0.2,0.2v2c0,0.1-0.1,0.2-0.2,0.2h-4.6c-0.1,0-0.1,0-0.1,0.1v2.7c0,0.1,0,0.1,0.1,0.1h5.6
		c0.1,0,0.2,0.1,0.2,0.2v2c0,0.1-0.1,0.2-0.2,0.2h-8.3c-0.1,0-0.2-0.1-0.2-0.2V315.9z"/>
	<path d="M330.7,322.2c0-2,0.1-2.7,0.4-3.5c0.7-2.1,2.3-3.2,4.6-3.2c2.2,0,3.8,1.1,4.5,2.9c0.1,0.1,0,0.2-0.1,0.2l-2.1,0.9
		c-0.1,0.1-0.2,0-0.3-0.1c-0.4-0.8-1-1.5-2.1-1.5c-1,0-1.7,0.5-1.9,1.4c-0.2,0.5-0.2,0.9-0.2,2.8s0.1,2.3,0.2,2.8
		c0.3,0.9,0.9,1.4,1.9,1.4c1.1,0,1.7-0.6,2.1-1.5c0.1-0.1,0.2-0.2,0.3-0.1l2.1,0.9c0.1,0,0.2,0.1,0.1,0.2c-0.7,1.8-2.3,2.9-4.5,2.9
		c-2.3,0-3.9-1.1-4.6-3.2C330.8,324.8,330.7,324.2,330.7,322.2z"/>
	<path d="M345.5,315.9c0-0.1,0.1-0.2,0.2-0.2h2.4c0.1,0,0.2,0.1,0.2,0.2l4.4,12.5c0,0.1,0,0.2-0.1,0.2h-2.5c-0.1,0-0.2-0.1-0.2-0.2
		l-0.7-2.3h-4.5l-0.7,2.3c0,0.1-0.1,0.2-0.2,0.2h-2.5c-0.1,0-0.2-0.1-0.1-0.2L345.5,315.9z M348.4,323.8l-1.5-4.5h-0.1l-1.5,4.5
		H348.4z"/>
	<path d="M353.6,327.1c-0.1-0.1-0.1-0.2,0-0.3l1.4-1.7c0.1-0.1,0.2-0.1,0.3,0c0.9,0.7,2,1.3,3.4,1.3c1.3,0,2.1-0.6,2.1-1.5
		c0-0.8-0.5-1.2-2-1.4l-0.7-0.1c-2.6-0.4-4.1-1.6-4.1-3.9c0-2.4,1.8-4,4.6-4c1.7,0,3.3,0.5,4.4,1.3c0.1,0.1,0.1,0.2,0,0.3l-1.2,1.7
		c-0.1,0.1-0.2,0.1-0.3,0.1c-1-0.6-1.9-1-3-1c-1.1,0-1.7,0.6-1.7,1.4c0,0.7,0.5,1.2,2,1.4l0.7,0.1c2.7,0.4,4.1,1.6,4.1,3.9
		s-1.7,4.1-5.1,4.1C356.6,328.9,354.6,328.1,353.6,327.1z"/>
	<path d="M365.5,315.9c0-0.1,0.1-0.2,0.2-0.2h8.3c0.1,0,0.2,0.1,0.2,0.2v2c0,0.1-0.1,0.2-0.2,0.2h-5.6c-0.1,0-0.1,0-0.1,0.1v2.6
		c0,0.1,0,0.1,0.1,0.1h4.6c0.1,0,0.2,0.1,0.2,0.2v2c0,0.1-0.1,0.2-0.2,0.2h-4.6c-0.1,0-0.1,0-0.1,0.1v2.7c0,0.1,0,0.1,0.1,0.1h5.6
		c0.1,0,0.2,0.1,0.2,0.2v2c0,0.1-0.1,0.2-0.2,0.2h-8.3c-0.1,0-0.2-0.1-0.2-0.2V315.9z"/>
	<path d="M380.9,328.6c-0.1,0-0.2-0.1-0.2-0.2v-12.5c0-0.1,0.1-0.2,0.2-0.2h5c2.8,0,4.5,1.7,4.5,4.2c0,2.4-1.7,4.1-4.5,4.1h-2.3
		c-0.1,0-0.1,0-0.1,0.1v4.3c0,0.1-0.1,0.2-0.2,0.2H380.9z M387.7,319.9c0-1-0.7-1.7-1.9-1.7h-2.1c-0.1,0-0.1,0-0.1,0.1v3.2
		c0,0.1,0,0.1,0.1,0.1h2.1C387,321.6,387.7,320.9,387.7,319.9z"/>
	<path d="M399.4,328.6c-0.2,0-0.2-0.1-0.3-0.2l-2.2-4.7h-1.7c-0.1,0-0.1,0-0.1,0.1v4.6c0,0.1-0.1,0.2-0.2,0.2h-2.4
		c-0.1,0-0.2-0.1-0.2-0.2v-12.5c0-0.1,0.1-0.2,0.2-0.2h5.1c2.6,0,4.4,1.7,4.4,4c0,1.7-0.9,3-2.3,3.6l2.5,5.1c0.1,0.1,0,0.2-0.1,0.2
		H399.4z M399.2,319.7c0-1-0.7-1.6-1.7-1.6h-2.3c-0.1,0-0.1,0-0.1,0.1v3c0,0.1,0,0.1,0.1,0.1h2.3
		C398.5,321.4,399.2,320.7,399.2,319.7z"/>
	<path d="M404.1,325.7c-0.3-0.9-0.4-1.6-0.4-3.5s0.1-2.6,0.4-3.5c0.7-2.1,2.5-3.1,4.7-3.1s4,1,4.7,3.1c0.3,0.9,0.4,1.6,0.4,3.5
		s-0.1,2.6-0.4,3.5c-0.7,2.1-2.5,3.1-4.7,3.1S404.8,327.8,404.1,325.7z M410.8,325c0.2-0.5,0.2-1.1,0.2-2.8s-0.1-2.3-0.2-2.8
		c-0.3-0.9-1-1.4-2-1.4c-1.1,0-1.7,0.5-2,1.4c-0.2,0.5-0.2,1.1-0.2,2.8s0.1,2.3,0.2,2.8c0.3,0.9,1,1.4,2,1.4
		C409.9,326.4,410.6,325.9,410.8,325z"/>
	<path d="M415.2,326.9l1.8-1.3c0.1-0.1,0.2-0.1,0.3,0c0.3,0.4,0.9,0.8,1.6,0.8c1.2,0,1.9-0.8,1.9-2.2v-8.2c0-0.1,0.1-0.2,0.2-0.2
		h2.4c0.1,0,0.2,0.1,0.2,0.2v8.1c0,3.2-1.8,4.8-4.7,4.8c-1.6,0-3-0.7-3.6-1.7C415.1,327.1,415.1,327,415.2,326.9z"/>
	<path d="M425.9,315.9c0-0.1,0.1-0.2,0.2-0.2h8.3c0.1,0,0.2,0.1,0.2,0.2v2c0,0.1-0.1,0.2-0.2,0.2h-5.6c-0.1,0-0.1,0-0.1,0.1v2.6
		c0,0.1,0,0.1,0.1,0.1h4.6c0.1,0,0.2,0.1,0.2,0.2v2c0,0.1-0.1,0.2-0.2,0.2h-4.6c-0.1,0-0.1,0-0.1,0.1v2.7c0,0.1,0,0.1,0.1,0.1h5.6
		c0.1,0,0.2,0.1,0.2,0.2v2c0,0.1-0.1,0.2-0.2,0.2h-8.3c-0.1,0-0.2-0.1-0.2-0.2V315.9z"/>
	<path d="M436.3,322.2c0-2,0.1-2.7,0.4-3.5c0.7-2.1,2.3-3.2,4.6-3.2c2.2,0,3.8,1.1,4.5,2.9c0.1,0.1,0,0.2-0.1,0.2l-2.1,0.9
		c-0.1,0.1-0.2,0-0.3-0.1c-0.4-0.8-1-1.5-2.1-1.5c-1,0-1.7,0.5-1.9,1.4c-0.2,0.5-0.2,0.9-0.2,2.8s0.1,2.3,0.2,2.8
		c0.3,0.9,0.9,1.4,1.9,1.4c1.1,0,1.7-0.6,2.1-1.5c0.1-0.1,0.2-0.2,0.3-0.1l2.1,0.9c0.1,0,0.2,0.1,0.1,0.2c-0.7,1.8-2.3,2.9-4.5,2.9
		c-2.3,0-3.9-1.1-4.6-3.2C436.4,324.8,436.3,324.2,436.3,322.2z"/>
	<path d="M450.4,328.6c-0.1,0-0.2-0.1-0.2-0.2v-10.1c0-0.1,0-0.1-0.1-0.1h-3.3c-0.1,0-0.2-0.1-0.2-0.2v-2.1c0-0.1,0.1-0.2,0.2-0.2
		h9.6c0.1,0,0.2,0.1,0.2,0.2v2.1c0,0.1-0.1,0.2-0.2,0.2h-3.3c-0.1,0-0.1,0-0.1,0.1v10.1c0,0.1-0.1,0.2-0.2,0.2H450.4z"/>
	<path d="M465.3,327.8L465.3,327.8l0,0.7c0,0.1-0.1,0.2-0.2,0.2h-2.3c-0.1,0-0.2-0.1-0.2-0.2v-12.5c0-0.1,0.1-0.2,0.2-0.2h2.3
		c0.1,0,0.2,0.1,0.2,0.2v4.4h0c0.4-0.6,1.2-1.1,2.4-1.1c1.5,0,2.6,0.7,3.1,2.2c0.2,0.7,0.3,1.4,0.3,2.6c0,1.2-0.1,1.9-0.3,2.6
		c-0.5,1.4-1.6,2.2-3.1,2.2C466.5,328.9,465.7,328.4,465.3,327.8z M468.2,325.6c0.1-0.4,0.2-0.8,0.2-1.6c0-0.8-0.1-1.2-0.2-1.6
		c-0.2-0.7-0.7-1-1.4-1c-0.7,0-1.2,0.3-1.4,1c-0.1,0.4-0.2,0.8-0.2,1.6c0,0.8,0.1,1.2,0.2,1.6c0.2,0.6,0.7,1,1.4,1
		C467.5,326.6,468,326.3,468.2,325.6z"/>
	<path d="M473.6,332.1c-0.1,0-0.2-0.1-0.2-0.2V330c0-0.1,0.1-0.2,0.2-0.2h0.4c0.7,0,1-0.3,1.3-1l0.2-0.7l-3.4-8.5
		c0-0.1,0-0.2,0.2-0.2h2.4c0.1,0,0.2,0.1,0.2,0.2l1.8,5.3h0l1.7-5.3c0-0.1,0.1-0.2,0.2-0.2h2.4c0.1,0,0.2,0.1,0.2,0.2l-3.7,9.8
		c-0.8,2-1.6,2.6-3.2,2.6H473.6z"/>
	<path d="M494.5,315.9c4.6,0,7.8,3.1,7.8,7.6c0,2.8-1.6,4.1-3.4,4.1c-1.2,0-2-0.5-2.5-1.2h0c-0.4,0.7-1.1,1.2-2.5,1.2
		c-1.4,0-2.3-0.6-2.7-1.8c-0.2-0.6-0.3-1.1-0.3-2.2c0-1.1,0.1-1.7,0.3-2.2c0.4-1.2,1.3-1.8,2.6-1.8c1,0,1.7,0.4,2.1,1h0V320
		c0-0.1,0.1-0.2,0.2-0.2h1.8c0.1,0,0.2,0.1,0.2,0.2v4.6c0,0.8,0.5,1.2,1,1.2c0.7,0,1.2-0.6,1.2-2.2c0-3.5-2.2-5.8-5.7-5.8
		c-3.5,0-5.7,2.3-5.7,5.8c0,3.4,2.2,5.8,5.7,5.8c1.7,0,2.8-0.3,3.9-0.9c0.1-0.1,0.2,0,0.3,0.1l0.7,1.2c0.1,0.1,0,0.2-0.1,0.2
		c-1.3,0.8-2.9,1.2-4.8,1.2c-4.6,0-7.8-3.1-7.8-7.6C486.8,319,489.9,315.9,494.5,315.9z M494.5,325.8c0.6,0,1.1-0.3,1.3-0.9
		c0.1-0.3,0.1-0.5,0.1-1.3c0-0.7,0-1-0.1-1.3c-0.2-0.6-0.6-0.9-1.3-0.9c-0.6,0-1,0.3-1.3,0.9c-0.1,0.2-0.1,0.5-0.1,1.3
		c0,0.7,0,1,0.1,1.3C493.4,325.5,493.8,325.8,494.5,325.8z"/>
	<path d="M503.8,327.1c-0.1-0.1-0.1-0.2,0-0.3l1.4-1.7c0.1-0.1,0.2-0.1,0.3,0c0.9,0.7,2,1.3,3.4,1.3c1.3,0,2.1-0.6,2.1-1.5
		c0-0.8-0.5-1.2-2-1.4l-0.7-0.1c-2.6-0.4-4.1-1.6-4.1-3.9c0-2.4,1.8-4,4.6-4c1.7,0,3.3,0.5,4.4,1.3c0.1,0.1,0.1,0.2,0,0.3l-1.2,1.7
		c-0.1,0.1-0.2,0.1-0.3,0.1c-1-0.6-1.9-1-3-1c-1.1,0-1.7,0.6-1.7,1.4c0,0.7,0.5,1.2,2,1.4l0.7,0.1c2.7,0.4,4.1,1.6,4.1,3.9
		s-1.7,4.1-5.1,4.1C506.8,328.9,504.8,328.1,503.8,327.1z"/>
	<path d="M519.2,315.9c0-0.1,0.1-0.2,0.2-0.2h2.4c0.1,0,0.2,0.1,0.2,0.2l4.4,12.5c0,0.1,0,0.2-0.1,0.2h-2.5c-0.1,0-0.2-0.1-0.2-0.2
		l-0.7-2.3h-4.5l-0.7,2.3c0,0.1-0.1,0.2-0.2,0.2h-2.5c-0.1,0-0.2-0.1-0.1-0.2L519.2,315.9z M522.2,323.8l-1.5-4.5h-0.1l-1.5,4.5
		H522.2z"/>
	<path d="M528,315.9c0-0.1,0.1-0.2,0.2-0.2h2.3c0.1,0,0.2,0.1,0.3,0.2l4.6,8.1h0.1v-8.1c0-0.1,0.1-0.2,0.2-0.2h2.1
		c0.1,0,0.2,0.1,0.2,0.2v12.5c0,0.1-0.1,0.2-0.2,0.2h-2.3c-0.2,0-0.2-0.1-0.3-0.2l-4.6-8.1h-0.1v8.1c0,0.1-0.1,0.2-0.2,0.2h-2.1
		c-0.1,0-0.2-0.1-0.2-0.2V315.9z"/>
	<path d="M540.5,325.7c-0.3-0.9-0.4-1.6-0.4-3.5s0.1-2.6,0.4-3.5c0.7-2.1,2.5-3.1,4.7-3.1s4,1,4.7,3.1c0.3,0.9,0.4,1.6,0.4,3.5
		s-0.1,2.6-0.4,3.5c-0.7,2.1-2.5,3.1-4.7,3.1S541.1,327.8,540.5,325.7z M547.2,325c0.2-0.5,0.2-1.1,0.2-2.8s-0.1-2.3-0.2-2.8
		c-0.3-0.9-1-1.4-2-1.4c-1.1,0-1.7,0.5-2,1.4c-0.2,0.5-0.2,1.1-0.2,2.8s0.1,2.3,0.2,2.8c0.3,0.9,1,1.4,2,1.4
		C546.2,326.4,546.9,325.9,547.2,325z"/>
	<path d="M552,322.2c0-1.9,0.1-2.6,0.4-3.5c0.7-2.1,2.5-3.1,4.7-3.1c2.4,0,4,1.2,4.6,2.8c0.1,0.1,0,0.2-0.1,0.3l-2,0.9
		c-0.1,0-0.2,0-0.3-0.1c-0.5-0.9-1.2-1.3-2.2-1.3c-1.1,0-1.8,0.6-2.1,1.4c-0.2,0.5-0.2,1.1-0.2,2.8s0.1,2.3,0.2,2.8
		c0.3,0.9,1,1.4,2.1,1.4c1,0,1.8-0.5,2.1-1.3c0.1-0.3,0.2-0.7,0.2-1.3c0-0.1,0-0.1-0.1-0.1h-1.7c-0.1,0-0.2-0.1-0.2-0.2v-1.8
		c0-0.1,0.1-0.2,0.2-0.2h4.4c0.1,0,0.2,0.1,0.2,0.2v1.1c0,1.1-0.1,2.2-0.3,2.9c-0.6,2.1-2.4,3.2-4.7,3.2c-2.3,0-4.1-1-4.7-3.1
		C552.1,324.8,552,324.1,552,322.2z"/>
	<path d="M571.4,328.6c-0.2,0-0.2-0.1-0.3-0.2l-2.2-4.7h-1.7c-0.1,0-0.1,0-0.1,0.1v4.6c0,0.1-0.1,0.2-0.2,0.2h-2.4
		c-0.1,0-0.2-0.1-0.2-0.2v-12.5c0-0.1,0.1-0.2,0.2-0.2h5.1c2.6,0,4.4,1.7,4.4,4c0,1.7-0.9,3-2.3,3.6l2.5,5.1c0.1,0.1,0,0.2-0.1,0.2
		H571.4z M571.2,319.7c0-1-0.7-1.6-1.7-1.6h-2.3c-0.1,0-0.1,0-0.1,0.1v3c0,0.1,0,0.1,0.1,0.1h2.3
		C570.5,321.4,571.2,320.7,571.2,319.7z"/>
	<path d="M579.6,315.9c0-0.1,0.1-0.2,0.2-0.2h2.4c0.1,0,0.2,0.1,0.2,0.2l4.4,12.5c0,0.1,0,0.2-0.1,0.2h-2.5c-0.1,0-0.2-0.1-0.2-0.2
		l-0.7-2.3h-4.5l-0.7,2.3c0,0.1-0.1,0.2-0.2,0.2h-2.5c-0.1,0-0.2-0.1-0.1-0.2L579.6,315.9z M582.5,323.8l-1.5-4.5H581l-1.5,4.5
		H582.5z"/>
	<path d="M588.6,328.6c-0.1,0-0.2-0.1-0.2-0.2v-12.5c0-0.1,0.1-0.2,0.2-0.2h5c2.8,0,4.5,1.7,4.5,4.2c0,2.4-1.7,4.1-4.5,4.1h-2.3
		c-0.1,0-0.1,0-0.1,0.1v4.3c0,0.1-0.1,0.2-0.2,0.2H588.6z M595.3,319.9c0-1-0.7-1.7-1.9-1.7h-2.1c-0.1,0-0.1,0-0.1,0.1v3.2
		c0,0.1,0,0.1,0.1,0.1h2.1C594.6,321.6,595.3,320.9,595.3,319.9z"/>
	<path d="M599.9,315.9c0-0.1,0.1-0.2,0.2-0.2h2.4c0.1,0,0.2,0.1,0.2,0.2v4.8c0,0.1,0,0.1,0.1,0.1h4.2c0.1,0,0.1,0,0.1-0.1v-4.8
		c0-0.1,0.1-0.2,0.2-0.2h2.4c0.1,0,0.2,0.1,0.2,0.2v12.5c0,0.1-0.1,0.2-0.2,0.2h-2.4c-0.1,0-0.2-0.1-0.2-0.2v-5c0-0.1,0-0.1-0.1-0.1
		h-4.2c-0.1,0-0.1,0-0.1,0.1v5c0,0.1-0.1,0.2-0.2,0.2h-2.4c-0.1,0-0.2-0.1-0.2-0.2V315.9z"/>
	<path d="M612.4,315.9c0-0.1,0.1-0.2,0.2-0.2h2.4c0.1,0,0.2,0.1,0.2,0.2v12.5c0,0.1-0.1,0.2-0.2,0.2h-2.4c-0.1,0-0.2-0.1-0.2-0.2
		V315.9z"/>
	<path d="M624.7,328.6c-0.2,0-0.2-0.1-0.3-0.2l-2.3-3.9H622l-2.3,3.9c-0.1,0.1-0.2,0.2-0.3,0.2h-2.6c-0.1,0-0.2-0.1-0.1-0.2l3.9-6.4
		l-3.6-6c-0.1-0.1,0-0.2,0.1-0.2h2.6c0.2,0,0.2,0.1,0.3,0.2l2.1,3.5h0.1l2.1-3.5c0.1-0.1,0.2-0.2,0.3-0.2h2.6c0.1,0,0.2,0.1,0.1,0.2
		l-3.6,6l3.9,6.4c0.1,0.1,0,0.2-0.1,0.2H624.7z"/>
</g>
<g>
	<path d="M3.2,264.8c0-0.3,0.2-0.6,0.6-0.6h24.7c0.3,0,0.6,0.2,0.6,0.6v6.1c0,0.3-0.2,0.6-0.6,0.6H11.9c-0.2,0-0.3,0.1-0.3,0.3v8.1
		c0,0.2,0.1,0.3,0.3,0.3h13.8c0.3,0,0.6,0.2,0.6,0.6v6c0,0.3-0.2,0.6-0.6,0.6H11.9c-0.2,0-0.3,0.1-0.3,0.3v14.5
		c0,0.3-0.2,0.6-0.6,0.6H3.8c-0.3,0-0.6-0.2-0.6-0.6V264.8z"/>
	<path d="M34.9,294.1c-0.9-2.7-1.1-4.8-1.1-10.5c0-5.7,0.2-7.9,1.1-10.5c2-6.2,7.3-9.4,14.1-9.4S61,266.8,63,273
		c0.9,2.7,1.1,4.8,1.1,10.5c0,5.7-0.2,7.9-1.1,10.5c-2,6.2-7.3,9.4-14.1,9.4S36.8,300.3,34.9,294.1z M55,291.8
		c0.5-1.4,0.6-3.2,0.6-8.3s-0.2-6.9-0.6-8.3c-0.9-2.7-2.9-4.3-6.1-4.3s-5.2,1.6-6.1,4.3c-0.5,1.4-0.6,3.2-0.6,8.3s0.2,6.9,0.6,8.3
		c0.9,2.7,2.9,4.3,6.1,4.3S54.1,294.5,55,291.8z"/>
	<path d="M91.7,302.8c-0.5,0-0.7-0.2-0.9-0.6l-6.6-14.1h-5.2c-0.2,0-0.3,0.1-0.3,0.3v13.8c0,0.3-0.2,0.6-0.6,0.6H71
		c-0.3,0-0.6-0.2-0.6-0.6v-37.4c0-0.3,0.2-0.6,0.6-0.6h15.4c7.9,0,13.1,4.9,13.1,12c0,4.9-2.6,8.8-6.9,10.7l7.6,15.2
		c0.2,0.3,0,0.7-0.4,0.7H91.7z M91.1,276.2c0-2.9-2-4.8-5.2-4.8h-6.8c-0.2,0-0.3,0.1-0.3,0.3v8.9c0,0.2,0.1,0.3,0.3,0.3h6.8
		C89.1,281.1,91.1,279.2,91.1,276.2z"/>
	<path d="M119.6,271c-0.3,0-0.6-0.2-0.6-0.6v-5.6c0-0.3,0.2-0.6,0.6-0.6h6.8c0.3,0,0.6,0.2,0.6,0.6v5.6c0,0.3-0.2,0.6-0.6,0.6H119.6
		z M119.6,302.8c-0.3,0-0.6-0.2-0.6-0.6v-26.3c0-0.3,0.2-0.6,0.6-0.6h6.8c0.3,0,0.6,0.2,0.6,0.6v26.3c0,0.3-0.2,0.6-0.6,0.6H119.6z"
		/>
	<path d="M134.8,302.8c-0.3,0-0.6-0.2-0.6-0.6v-37.4c0-0.3,0.2-0.6,0.6-0.6h15c8.4,0,13.4,5,13.4,12.4c0,7.3-5.1,12.4-13.4,12.4
		h-6.9c-0.2,0-0.3,0.1-0.3,0.3v12.9c0,0.3-0.2,0.6-0.6,0.6H134.8z M154.9,276.7c0-3.1-2.1-5.2-5.6-5.2h-6.4c-0.2,0-0.3,0.1-0.3,0.3
		v9.7c0,0.2,0.1,0.3,0.3,0.3h6.4C152.8,281.8,154.9,279.8,154.9,276.7z"/>
	<path d="M185.5,302.8c-0.3,0-0.6-0.2-0.6-0.6v-15.8c0-3-1.4-5-4.3-5c-2.7,0-4.3,2-4.3,5v15.8c0,0.3-0.2,0.6-0.6,0.6H169
		c-0.3,0-0.6-0.2-0.6-0.6v-37.4c0-0.3,0.2-0.6,0.6-0.6h6.8c0.3,0,0.6,0.2,0.6,0.6v13h0.1c1.2-1.7,3.6-3.1,7.1-3.1
		c6.1,0,9.4,4.2,9.4,10.2v17.3c0,0.3-0.2,0.6-0.6,0.6H185.5z"/>
	<path d="M199.4,295.7c-0.6-2-0.9-3.9-0.9-6.6s0.3-4.7,0.9-6.6c1.6-5,6.1-7.7,11.9-7.7s10.3,2.7,11.9,7.7c0.6,2,0.9,3.9,0.9,6.6
		s-0.3,4.7-0.9,6.6c-1.6,5-6.1,7.7-11.9,7.7S201,300.7,199.4,295.7z M215.5,293.8c0.4-1.2,0.5-2.4,0.5-4.7s-0.1-3.5-0.5-4.7
		c-0.6-1.9-2.2-2.9-4.3-2.9s-3.6,1-4.3,2.9c-0.4,1.2-0.5,2.4-0.5,4.7s0.1,3.5,0.5,4.7c0.6,1.9,2.2,2.9,4.3,2.9
		S214.9,295.7,215.5,293.8z"/>
	<path d="M247,302.8c-0.3,0-0.6-0.2-0.6-0.6v-15.8c0-3-1.4-5-4.3-5c-2.7,0-4.3,2-4.3,5v15.8c0,0.3-0.2,0.6-0.6,0.6h-6.8
		c-0.3,0-0.6-0.2-0.6-0.6v-26.3c0-0.3,0.2-0.6,0.6-0.6h6.8c0.3,0,0.6,0.2,0.6,0.6v1.9h0.1c1.2-1.7,3.6-3.1,7.1-3.1
		c6.1,0,9.4,4.2,9.4,10.2v17.3c0,0.3-0.2,0.6-0.6,0.6H247z"/>
	<path d="M260.9,295.6c-0.6-1.7-1-3.7-1-6.5c0-2.9,0.3-4.9,0.9-6.6c1.6-4.9,6-7.8,11.8-7.8c6.1,0,10.3,2.9,11.9,7.7
		c0.6,1.8,0.9,3.8,0.9,8.5c0,0.3-0.2,0.6-0.6,0.6h-16.6c-0.2,0-0.3,0.1-0.3,0.3c0.1,0.6,0.2,1.1,0.3,1.5c0.7,2.4,2.8,3.6,5.7,3.6
		c2.7,0,4.7-1,6.3-2.4c0.3-0.2,0.6-0.3,0.8,0l3.7,3.5c0.3,0.2,0.3,0.6,0.1,0.8c-2.6,2.8-6.6,4.6-11.7,4.6
		C266.8,303.5,262.4,300.6,260.9,295.6z M277.2,286.2c0.2,0,0.3-0.1,0.3-0.3c0-0.9-0.1-1.5-0.3-2c-0.6-1.9-2.3-3-4.6-3
		c-2.3,0-4,1.1-4.6,3c-0.2,0.6-0.3,1.2-0.3,2c0,0.2,0.1,0.3,0.3,0.3H277.2z"/>
	<path d="M305.4,294.3l6.1-1.2c0.3-0.1,0.6,0.1,0.7,0.5c0.7,1.8,2,3.2,4.5,3.2c1.9,0,3.5-0.9,4-2.7c0.3-0.9,0.5-2,0.5-3.7
		c0-1.9-0.1-2.9-0.5-3.8c-0.6-1.9-2.2-2.7-4-2.7c-2.1,0-3.3,1.1-3.9,2.2c-0.2,0.4-0.3,0.6-0.7,0.6H306c-0.3,0-0.6-0.2-0.6-0.6v-21.2
		c0-0.3,0.2-0.6,0.6-0.6h21.6c0.3,0,0.6,0.2,0.6,0.6v5.6c0,0.3-0.2,0.6-0.6,0.6h-14.8c-0.2,0-0.3,0.1-0.3,0.3v7.6h0.2
		c1-0.9,2.9-1.8,5.8-1.8c4.9,0,8.5,2.2,9.9,6.5c0.5,1.6,0.8,3.3,0.8,6.6c0,2.4-0.3,4.4-0.9,6c-1.5,4.7-5.9,7.2-11.4,7.2
		c-6.6,0-11.2-3.5-11.9-8.5C304.9,294.7,305.1,294.4,305.4,294.3z"/>
	<path d="M360.7,264.2c0.1-0.4,0.3-0.6,0.7-0.6h6.2c0.3,0,0.5,0.2,0.4,0.6l-12.4,38.7c-0.1,0.4-0.3,0.6-0.7,0.6h-6.1
		c-0.3,0-0.5-0.2-0.4-0.6L360.7,264.2z"/>
	<path d="M388.1,271c-0.3,0-0.6-0.2-0.6-0.6v-5.6c0-0.3,0.2-0.6,0.6-0.6h6.8c0.3,0,0.6,0.2,0.6,0.6v5.6c0,0.3-0.2,0.6-0.6,0.6H388.1
		z M388.1,302.8c-0.3,0-0.6-0.2-0.6-0.6v-26.3c0-0.3,0.2-0.6,0.6-0.6h6.8c0.3,0,0.6,0.2,0.6,0.6v26.3c0,0.3-0.2,0.6-0.6,0.6H388.1z"
		/>
	<path d="M403.3,302.8c-0.3,0-0.6-0.2-0.6-0.6v-37.4c0-0.3,0.2-0.6,0.6-0.6h15c8.4,0,13.4,5,13.4,12.4c0,7.3-5.1,12.4-13.4,12.4
		h-6.9c-0.2,0-0.3,0.1-0.3,0.3v12.9c0,0.3-0.2,0.6-0.6,0.6H403.3z M423.4,276.7c0-3.1-2.1-5.2-5.6-5.2h-6.4c-0.2,0-0.3,0.1-0.3,0.3
		v9.7c0,0.2,0.1,0.3,0.3,0.3h6.4C421.3,281.8,423.4,279.8,423.4,276.7z"/>
	<path d="M454,302.8c-0.3,0-0.6-0.2-0.6-0.6v-15.8c0-3-1.4-5-4.3-5c-2.7,0-4.3,2-4.3,5v15.8c0,0.3-0.2,0.6-0.6,0.6h-6.8
		c-0.3,0-0.6-0.2-0.6-0.6v-37.4c0-0.3,0.2-0.6,0.6-0.6h6.8c0.3,0,0.6,0.2,0.6,0.6v13h0.1c1.2-1.7,3.6-3.1,7.1-3.1
		c6.1,0,9.4,4.2,9.4,10.2v17.3c0,0.3-0.2,0.6-0.6,0.6H454z"/>
	<path d="M467.8,295.7c-0.6-2-0.9-3.9-0.9-6.6s0.3-4.7,0.9-6.6c1.6-5,6.1-7.7,11.9-7.7s10.3,2.7,11.9,7.7c0.6,2,0.9,3.9,0.9,6.6
		s-0.3,4.7-0.9,6.6c-1.6,5-6.1,7.7-11.9,7.7S469.4,300.7,467.8,295.7z M484,293.8c0.4-1.2,0.5-2.4,0.5-4.7s-0.1-3.5-0.5-4.7
		c-0.6-1.9-2.2-2.9-4.3-2.9s-3.6,1-4.3,2.9c-0.4,1.2-0.5,2.4-0.5,4.7s0.1,3.5,0.5,4.7c0.6,1.9,2.2,2.9,4.3,2.9
		S483.4,295.7,484,293.8z"/>
	<path d="M515.4,302.8c-0.3,0-0.6-0.2-0.6-0.6v-15.8c0-3-1.4-5-4.3-5c-2.7,0-4.3,2-4.3,5v15.8c0,0.3-0.2,0.6-0.6,0.6h-6.8
		c-0.3,0-0.6-0.2-0.6-0.6v-26.3c0-0.3,0.2-0.6,0.6-0.6h6.8c0.3,0,0.6,0.2,0.6,0.6v1.9h0.1c1.2-1.7,3.6-3.1,7.1-3.1
		c6.1,0,9.4,4.2,9.4,10.2v17.3c0,0.3-0.2,0.6-0.6,0.6H515.4z"/>
	<path d="M529.3,295.6c-0.6-1.7-1-3.7-1-6.5c0-2.9,0.3-4.9,0.9-6.6c1.6-4.9,6-7.8,11.8-7.8c6.1,0,10.3,2.9,11.9,7.7
		c0.6,1.8,0.9,3.8,0.9,8.5c0,0.3-0.2,0.6-0.6,0.6h-16.6c-0.2,0-0.3,0.1-0.3,0.3c0.1,0.6,0.2,1.1,0.3,1.5c0.7,2.4,2.8,3.6,5.7,3.6
		c2.7,0,4.7-1,6.3-2.4c0.3-0.2,0.6-0.3,0.8,0l3.7,3.5c0.3,0.2,0.3,0.6,0.1,0.8c-2.6,2.8-6.6,4.6-11.7,4.6
		C535.2,303.5,530.9,300.6,529.3,295.6z M545.7,286.2c0.2,0,0.3-0.1,0.3-0.3c0-0.9-0.1-1.5-0.3-2c-0.6-1.9-2.3-3-4.6-3
		c-2.3,0-4,1.1-4.6,3c-0.2,0.6-0.3,1.2-0.3,2c0,0.2,0.1,0.3,0.3,0.3H545.7z"/>
	<path d="M573.9,294.3l6.1-1.2c0.3-0.1,0.6,0.1,0.7,0.5c0.7,1.8,2,3.2,4.5,3.2c1.9,0,3.5-0.9,4-2.7c0.3-0.9,0.5-2,0.5-3.7
		c0-1.9-0.1-2.9-0.5-3.8c-0.6-1.9-2.2-2.7-4-2.7c-2.1,0-3.3,1.1-3.9,2.2c-0.2,0.4-0.3,0.6-0.7,0.6h-6.1c-0.3,0-0.6-0.2-0.6-0.6
		v-21.2c0-0.3,0.2-0.6,0.6-0.6H596c0.3,0,0.6,0.2,0.6,0.6v5.6c0,0.3-0.2,0.6-0.6,0.6h-14.8c-0.2,0-0.3,0.1-0.3,0.3v7.6h0.2
		c1-0.9,2.9-1.8,5.8-1.8c4.9,0,8.5,2.2,9.9,6.5c0.5,1.6,0.8,3.3,0.8,6.6c0,2.4-0.3,4.4-0.9,6c-1.5,4.7-5.9,7.2-11.4,7.2
		c-6.6,0-11.2-3.5-11.9-8.5C573.4,294.7,573.6,294.4,573.9,294.3z"/>
	<path d="M602.8,299.2c-0.2-0.2-0.2-0.6,0-0.8l3.7-4.1c0.2-0.2,0.5-0.2,0.8,0c2.4,1.9,5.6,3,8.4,3c2.9,0,4.3-1.1,4.3-2.6
		c0-1.3-0.7-2.1-3.9-2.4l-3.1-0.3c-5.8-0.6-9-3.5-9-8.4c0-5.4,4.1-8.8,11.3-8.8c4.7,0,8.6,1.5,11.1,3.4c0.2,0.2,0.3,0.6,0.1,0.9
		l-3.2,3.9c-0.2,0.3-0.5,0.3-0.8,0.1c-1.9-1.2-4.6-2.2-7.4-2.2c-2.3,0-3.5,0.9-3.5,2.3c0,1.2,0.7,2,3.8,2.3l3,0.3
		c6.5,0.6,9.1,3.7,9.1,8.3c-0.1,5.6-4.4,9.4-12.3,9.4C609.6,303.5,605.4,301.5,602.8,299.2z"/>
</g>
</svg>
