<?xml version="1.0" encoding="utf-8"?>
<!-- Generator: Adobe Illustrator 16.0.4, SVG Export Plug-In . SVG Version: 6.00 Build 0)  -->
<!DOCTYPE svg PUBLIC "-//W3C//DTD SVG 1.1//EN" "http://www.w3.org/Graphics/SVG/1.1/DTD/svg11.dtd">
<svg version="1.1" id="レイヤー_1" xmlns="http://www.w3.org/2000/svg" xmlns:xlink="http://www.w3.org/1999/xlink" x="0px"
	 y="0px" width="310px" height="165px" viewBox="0 0.75 310 165" enable-background="new 0 0.75 310 165" xml:space="preserve">
<g>
	<path fill="#FFFFFF" d="M3.7,57.7C2.2,52.9,1.8,49,1.8,38.8c0-10.3,0.4-14.2,1.9-18.9C7.3,8.6,16.9,3,29,3s21.7,5.6,25.3,16.8
		c1.5,4.8,1.9,8.7,1.9,18.9c0,10.3-0.4,14.2-1.9,18.9C50.7,68.8,41.2,74.4,29,74.4C16.9,74.5,7.3,68.9,3.7,57.7z M39.9,53.7
		C40.7,51.3,41,47.9,41,38.8s-0.3-12.4-1.1-14.9c-1.5-4.8-5.2-7.6-10.9-7.6s-9.4,2.9-10.9,7.6c-0.8,2.4-1.1,5.8-1.1,14.9
		s0.3,12.4,1.1,14.9C19.6,58.5,23.3,61.3,29,61.3S38.4,58.4,39.9,53.7z"/>
	<path fill="#FFFFFF" d="M105.9,73.4c-0.9,0-1.2-0.3-1.5-1L92.5,47h-9.3c-0.4,0-0.6,0.2-0.6,0.601v24.8c0,0.6-0.4,1-1,1h-13
		c-0.6,0-1-0.4-1-1V5.2c0-0.6,0.4-1,1-1h27.6c14.2,0,23.5,8.9,23.5,21.5c0,8.9-4.7,15.9-12.3,19.3L121.1,72.3
		c0.3,0.6,0,1.199-0.7,1.199h-14.5V73.4z M104.8,25.6c0-5.2-3.7-8.6-9.4-8.6H83.2c-0.4,0-0.6,0.2-0.6,0.6v16c0,0.4,0.2,0.6,0.6,0.6
		h12.2C101.1,34.3,104.8,30.9,104.8,25.6z"/>
	<path fill="#FFFFFF" d="M131.2,5.2c0-0.6,0.4-1,1-1H158c12.1,0,20.6,5.2,23.9,15.6c1.199,3.9,1.8,7.7,1.8,19
		c0,11.3-0.601,15.2-1.8,19C178.5,68.2,170.1,73.4,158,73.4h-25.8c-0.6,0-1-0.4-1-1V5.2z M146.8,60.1h7.8c6.9,0,11.1-2,12.8-7.601
		c0.699-2,1.1-4.699,1.1-13.7c0-9-0.4-11.6-1.1-13.7c-1.7-5.6-5.9-7.6-12.8-7.6h-7.8c-0.4,0-0.6,0.2-0.6,0.6V59.5
		C146.1,59.9,146.3,60.1,146.8,60.1z"/>
	<path fill="#FFFFFF" d="M195.3,5.2c0-0.6,0.4-1,1-1h44.4c0.6,0,1,0.4,1,1v10.9c0,0.6-0.4,1-1,1h-29.8c-0.4,0-0.601,0.2-0.601,0.6
		v13.8c0,0.4,0.2,0.6,0.601,0.6H235.8c0.601,0,1,0.4,1,1v10.8c0,0.6-0.399,1-1,1H210.9c-0.4,0-0.601,0.2-0.601,0.6v14.4
		c0,0.4,0.2,0.6,0.601,0.6h29.8c0.6,0,1,0.4,1,1v10.9c0,0.6-0.4,1-1,1h-44.4c-0.6,0-1-0.4-1-1V5.2L195.3,5.2z"/>
	<path fill="#FFFFFF" d="M291.2,73.4c-0.9,0-1.2-0.3-1.5-1L277.8,47h-9.3c-0.4,0-0.6,0.2-0.6,0.601v24.8c0,0.6-0.4,1-1,1H254
		c-0.6,0-1-0.4-1-1V5.2c0-0.6,0.4-1,1-1h27.6c14.2,0,23.5,8.9,23.5,21.5c0,8.9-4.699,15.9-12.3,19.3L306.5,72.3
		c0.3,0.6,0,1.199-0.7,1.199h-14.6V73.4z M290.1,25.6c0-5.2-3.699-8.6-9.399-8.6h-12.2c-0.4,0-0.6,0.2-0.6,0.6v16
		c0,0.4,0.199,0.6,0.6,0.6h12.2C286.4,34.3,290.1,30.9,290.1,25.6z"/>
	<path fill="#FFFFFF" d="M3.6,91.6c0-0.601,0.4-1,1-1h12.2c0.7,0,1.3,0.3,1.7,1L43,135.199h0.5V91.6c0-0.601,0.4-1,1-1H56
		c0.6,0,1,0.399,1,1v67.201c0,0.6-0.4,1-1,1H44c-0.8,0-1.3-0.301-1.7-1L17.7,115.4h-0.5v43.5c0,0.6-0.4,1-1,1H4.6c-0.6,0-1-0.4-1-1
		V91.6z"/>
	<path fill="#FFFFFF" d="M70.5,144.199C69,139.4,68.6,135.5,68.6,125.3c0-10.301,0.4-14.2,1.9-18.9c3.6-11.2,13.1-16.8,25.3-16.8
		c12.1,0,21.7,5.6,25.3,16.8c1.5,4.8,1.9,8.7,1.9,18.9c0,10.299-0.4,14.2-1.9,18.899C117.5,155.4,108,161,95.8,161
		C83.6,161,74,155.4,70.5,144.199z M106.6,140.1c0.8-2.4,1.1-5.799,1.1-14.9c0-9.1-0.3-12.399-1.1-14.899
		c-1.5-4.801-5.2-7.601-10.9-7.601c-5.7,0-9.4,2.9-10.9,7.601c-0.8,2.399-1.1,5.8-1.1,14.899c0,9.101,0.3,12.4,1.1,14.9
		c1.5,4.801,5.2,7.6,10.9,7.6C101.4,147.699,105.1,144.9,106.6,140.1z"/>
	<path fill="#FFFFFF" d="M185.3,159.9c-0.7,0-1.1-0.4-1.3-1l-12-43.1h-0.2l-12.1,43.1c-0.2,0.6-0.601,1-1.3,1h-10.2
		c-0.6,0-1-0.4-1.2-1L129.1,91.7c-0.1-0.6,0.1-1,0.8-1H143c0.7,0,1.1,0.4,1.2,1l10,43.5h0.2l11.8-43.5c0.2-0.6,0.6-1,1.3-1h8.9
		c0.6,0,1,0.4,1.199,1l12.2,43.5h0.2l9.6-43.5c0.101-0.7,0.5-1,1.2-1h13c0.7,0,0.9,0.4,0.8,1L196.8,158.9c-0.1,0.6-0.6,1-1.3,1
		H185.3z"/>
</g>
</svg>
