<?xml version="1.0" encoding="utf-8"?>
<!-- Generator: Adobe Illustrator 16.0.4, SVG Export Plug-In . SVG Version: 6.00 Build 0)  -->
<!DOCTYPE svg PUBLIC "-//W3C//DTD SVG 1.1//EN" "http://www.w3.org/Graphics/SVG/1.1/DTD/svg11.dtd">
<svg version="1.1" id="レイヤー_1" xmlns="http://www.w3.org/2000/svg" xmlns:xlink="http://www.w3.org/1999/xlink" x="0px"
	 y="0px" width="310px" height="256px" viewBox="0 0 310 256" enable-background="new 0 0 310 256" xml:space="preserve">
<g>
	<path fill="#FFFFFF" d="M4.6,76.6c-0.6,0-1-0.4-1-1V8.3c0-0.6,0.4-1,1-1h26.9c15.1,0,24.1,9.1,24.1,22.3c0,13-9.2,22.2-24.1,22.2
		H19.2c-0.4,0-0.6,0.2-0.6,0.6v23.1c0,0.6-0.4,1-1,1H4.6z M40.7,29.6c0-5.6-3.8-9.4-10.1-9.4H19.2c-0.4,0-0.6,0.2-0.6,0.6v17.4
		c0,0.4,0.2,0.6,0.6,0.6h11.4C36.9,38.9,40.7,35.2,40.7,29.6z"/>
	<path fill="#FFFFFF" d="M103.6,76.6c-0.9,0-1.2-0.3-1.5-1L90.1,50.2h-9.3c-0.4,0-0.6,0.2-0.6,0.6v24.8c0,0.6-0.4,1-1,1H66.3
		c-0.6,0-1-0.4-1-1V8.3c0-0.6,0.4-1,1-1h27.6c14.2,0,23.5,8.9,23.5,21.5c0,8.9-4.7,15.9-12.3,19.3l13.7,27.3c0.3,0.6,0,1.2-0.7,1.2
		H103.6z M102.4,28.8c0-5.2-3.7-8.6-9.4-8.6H80.8c-0.4,0-0.6,0.2-0.6,0.6v16c0,0.4,0.2,0.6,0.6,0.6h12.2
		C98.8,37.4,102.4,34.1,102.4,28.8z"/>
	<path fill="#FFFFFF" d="M128.8,8.3c0-0.6,0.4-1,1-1h44.4c0.6,0,1,0.4,1,1v10.9c0,0.6-0.4,1-1,1h-29.8c-0.4,0-0.6,0.2-0.6,0.6v13.8
		c0,0.4,0.2,0.6,0.6,0.6h24.9c0.6,0,1,0.4,1,1V47c0,0.6-0.4,1-1,1h-24.9c-0.4,0-0.6,0.2-0.6,0.6V63c0,0.4,0.2,0.6,0.6,0.6h29.8
		c0.6,0,1,0.4,1,1v10.9c0,0.6-0.4,1-1,1h-44.4c-0.6,0-1-0.4-1-1V8.3z"/>
	<path fill="#FFFFFF" d="M184,54.8V44.4c0-0.6,0.4-1,1-1h29.3c0.6,0,1,0.4,1,1v10.4c0,0.6-0.4,1-1,1h-29.3
		C184.4,55.8,184,55.4,184,54.8z"/>
	<path fill="#FFFFFF" d="M3.7,147.3c-1.5-4.8-1.9-8.7-1.9-18.9c0-10.3,0.4-14.2,1.9-18.9C7.3,98.2,16.9,92.6,29,92.6
		c12.1,0,21.7,5.6,25.3,16.8c1.5,4.8,1.9,8.7,1.9,18.9c0,10.3-0.4,14.2-1.9,18.9c-3.6,11.2-13.1,16.8-25.3,16.8
		C16.9,164.1,7.3,158.5,3.7,147.3z M39.9,143.3c0.8-2.4,1.1-5.8,1.1-14.9s-0.3-12.4-1.1-14.9c-1.5-4.8-5.2-7.6-10.9-7.6
		s-9.4,2.9-10.9,7.6c-0.8,2.4-1.1,5.8-1.1,14.9s0.3,12.4,1.1,14.9c1.5,4.8,5.2,7.6,10.9,7.6S38.4,148,39.9,143.3z"/>
	<path fill="#FFFFFF" d="M105.9,163c-0.9,0-1.2-0.3-1.5-1l-11.9-25.4h-9.3c-0.4,0-0.6,0.2-0.6,0.6V162c0,0.6-0.4,1-1,1H68.6
		c-0.6,0-1-0.4-1-1V94.8c0-0.6,0.4-1,1-1h27.6c14.2,0,23.5,8.9,23.5,21.5c0,8.9-4.7,15.9-12.3,19.3l13.7,27.3c0.3,0.6,0,1.2-0.7,1.2
		H105.9z M104.8,115.2c0-5.2-3.7-8.6-9.4-8.6H83.2c-0.4,0-0.6,0.2-0.6,0.6v16c0,0.4,0.2,0.6,0.6,0.6h12.2
		C101.1,123.9,104.8,120.5,104.8,115.2z"/>
	<path fill="#FFFFFF" d="M131.2,94.8c0-0.6,0.4-1,1-1H158c12.1,0,20.6,5.2,23.9,15.6c1.2,3.9,1.8,7.7,1.8,19c0,11.3-0.6,15.2-1.8,19
		c-3.4,10.4-11.8,15.6-23.9,15.6h-25.8c-0.6,0-1-0.4-1-1V94.8z M146.8,149.7h7.8c6.9,0,11.1-2,12.8-7.6c0.7-2,1.1-4.7,1.1-13.7
		c0-9-0.4-11.6-1.1-13.7c-1.7-5.6-5.9-7.6-12.8-7.6h-7.8c-0.4,0-0.6,0.2-0.6,0.6v41.4C146.1,149.5,146.3,149.7,146.8,149.7z"/>
	<path fill="#FFFFFF" d="M195.3,94.8c0-0.6,0.4-1,1-1h44.4c0.6,0,1,0.4,1,1v10.9c0,0.6-0.4,1-1,1h-29.8c-0.4,0-0.6,0.2-0.6,0.6v13.8
		c0,0.4,0.2,0.6,0.6,0.6h24.9c0.6,0,1,0.4,1,1v10.8c0,0.6-0.4,1-1,1h-24.9c-0.4,0-0.6,0.2-0.6,0.6v14.4c0,0.4,0.2,0.6,0.6,0.6h29.8
		c0.6,0,1,0.4,1,1V162c0,0.6-0.4,1-1,1h-44.4c-0.6,0-1-0.4-1-1V94.8z"/>
	<path fill="#FFFFFF" d="M291.2,163c-0.9,0-1.2-0.3-1.5-1l-11.9-25.4h-9.3c-0.4,0-0.6,0.2-0.6,0.6V162c0,0.6-0.4,1-1,1h-12.9
		c-0.6,0-1-0.4-1-1V94.8c0-0.6,0.4-1,1-1h27.6c14.2,0,23.5,8.9,23.5,21.5c0,8.9-4.7,15.9-12.3,19.3l13.7,27.3c0.3,0.6,0,1.2-0.7,1.2
		H291.2z M290.1,115.2c0-5.2-3.7-8.6-9.4-8.6h-12.2c-0.4,0-0.6,0.2-0.6,0.6v16c0,0.4,0.2,0.6,0.6,0.6h12.2
		C286.4,123.9,290.1,120.5,290.1,115.2z"/>
	<path fill="#FFFFFF" d="M3.6,181.2c0-0.6,0.4-1,1-1h12.2c0.7,0,1.3,0.3,1.7,1L43,224.8h0.5v-43.6c0-0.6,0.4-1,1-1h11.5
		c0.6,0,1,0.4,1,1v67.2c0,0.6-0.4,1-1,1H44c-0.8,0-1.3-0.3-1.7-1L17.7,205h-0.5v43.5c0,0.6-0.4,1-1,1H4.6c-0.6,0-1-0.4-1-1V181.2z"
		/>
	<path fill="#FFFFFF" d="M70.5,233.8c-1.5-4.8-1.9-8.7-1.9-18.9c0-10.3,0.4-14.2,1.9-18.9c3.6-11.2,13.1-16.8,25.3-16.8
		c12.1,0,21.7,5.6,25.3,16.8c1.5,4.8,1.9,8.7,1.9,18.9c0,10.3-0.4,14.2-1.9,18.9c-3.6,11.2-13.1,16.8-25.3,16.8
		C83.6,250.6,74,245,70.5,233.8z M106.6,229.7c0.8-2.4,1.1-5.8,1.1-14.9s-0.3-12.4-1.1-14.9c-1.5-4.8-5.2-7.6-10.9-7.6
		s-9.4,2.9-10.9,7.6c-0.8,2.4-1.1,5.8-1.1,14.9s0.3,12.4,1.1,14.9c1.5,4.8,5.2,7.6,10.9,7.6S105.1,234.5,106.6,229.7z"/>
	<path fill="#FFFFFF" d="M185.3,249.5c-0.7,0-1.1-0.4-1.3-1l-12-43.1h-0.2l-12.1,43.1c-0.2,0.6-0.6,1-1.3,1h-10.2
		c-0.6,0-1-0.4-1.2-1l-17.9-67.2c-0.1-0.6,0.1-1,0.8-1h13.1c0.7,0,1.1,0.4,1.2,1l10,43.5h0.2l11.8-43.5c0.2-0.6,0.6-1,1.3-1h8.9
		c0.6,0,1,0.4,1.2,1l12.2,43.5h0.2l9.6-43.5c0.1-0.7,0.5-1,1.2-1h13c0.7,0,0.9,0.4,0.8,1l-17.8,67.2c-0.1,0.6-0.6,1-1.3,1H185.3z"/>
</g>
</svg>
