<?xml version="1.0" encoding="utf-8"?>
<!-- Generator: Adobe Illustrator 16.0.1, SVG Export Plug-In . SVG Version: 6.00 Build 0)  -->
<!DOCTYPE svg PUBLIC "-//W3C//DTD SVG 1.1//EN" "http://www.w3.org/Graphics/SVG/1.1/DTD/svg11.dtd">
<svg version="1.1" id="レイヤー_1" xmlns="http://www.w3.org/2000/svg" xmlns:xlink="http://www.w3.org/1999/xlink" x="0px"
	 y="0px" width="260.096px" height="30px" viewBox="0 -0.708 260.096 30" enable-background="new 0 -0.708 260.096 30"
	 xml:space="preserve">
<g>
	<path d="M0.355,12.575h3.753c0.144,1.013,0.558,1.762,1.243,2.252c0.687,0.49,1.678,0.734,2.977,0.734
		c1.104,0,1.938-0.195,2.498-0.59s0.842-0.977,0.842-1.744c0-1.123-1.611-2.053-4.834-2.789c-0.042-0.008-0.08-0.018-0.113-0.025
		c-0.083-0.017-0.213-0.045-0.389-0.088C4.606,9.95,3.376,9.527,2.64,9.059c-0.653-0.417-1.151-0.98-1.494-1.688
		C0.802,6.664,0.631,5.829,0.631,4.866c0-1.799,0.611-3.178,1.833-4.136c1.222-0.959,2.988-1.438,5.298-1.438
		c2.16,0,3.848,0.511,5.066,1.532c1.218,1.022,1.859,2.461,1.927,4.319h-3.653c-0.066-0.895-0.41-1.578-1.028-2.046
		c-0.62-0.468-1.503-0.703-2.648-0.703c-0.997,0-1.764,0.195-2.304,0.584C4.58,3.367,4.31,3.92,4.31,4.64
		c0,0.98,1.049,1.712,3.15,2.198C8.03,6.972,8.473,7.077,8.791,7.15c1.348,0.344,2.304,0.611,2.869,0.804
		c0.563,0.192,1.057,0.406,1.475,0.64c0.754,0.419,1.319,0.973,1.695,1.664c0.376,0.691,0.564,1.518,0.564,2.479
		c0,1.924-0.647,3.417-1.945,4.475S10.323,18.8,7.964,18.8c-2.327,0-4.152-0.539-5.474-1.617
		C1.167,16.103,0.456,14.566,0.355,12.575z"/>
	<path d="M22.197-0.207h4.395l6.667,18.493h-3.993l-1.255-3.805h-7.168l-1.218,3.805h-4.005L22.197-0.207z M24.407,3.498
		l-2.562,7.873h5.135L24.407,3.498z"/>
	<path d="M34.596,18.287V-0.207h3.98l7.506,12.706V-0.207h3.754v18.493h-3.93L38.349,5.583v12.706h-3.753V18.287z"/>
	<path d="M51.431,9.06c0-2.987,0.814-5.358,2.442-7.112c1.627-1.753,3.822-2.63,6.584-2.63s4.961,0.879,6.598,2.636
		c1.636,1.758,2.454,4.126,2.454,7.106c0,2.98-0.818,5.348-2.454,7.104c-1.637,1.758-3.835,2.637-6.598,2.637
		s-4.957-0.879-6.584-2.637C52.245,14.408,51.431,12.04,51.431,9.06z M55.311,9.06c0,2.034,0.452,3.613,1.356,4.739
		c0.903,1.125,2.167,1.689,3.791,1.689c1.641,0,2.917-0.564,3.829-1.689c0.913-1.125,1.369-2.707,1.369-4.739
		c0-2.033-0.456-3.614-1.369-4.739c-0.912-1.125-2.188-1.688-3.829-1.688c-1.624,0-2.888,0.561-3.791,1.683
		C55.762,5.436,55.311,7.017,55.311,9.06z"/>
	<path fill="#FF0087" d="M84.652,16.103c-0.686,0.93-1.467,1.609-2.341,2.047c-0.875,0.434-1.901,0.65-3.082,0.65
		c-2.587,0-4.681-0.896-6.284-2.691c-1.602-1.795-2.403-4.153-2.403-7.074c0-2.946,0.799-5.302,2.397-7.068
		c1.599-1.765,3.729-2.649,6.391-2.649c2.318,0,4.21,0.554,5.675,1.664c1.465,1.109,2.335,2.635,2.611,4.576h-3.88
		c-0.233-0.962-0.713-1.695-1.438-2.197c-0.724-0.503-1.668-0.754-2.831-0.754c-1.548,0-2.764,0.567-3.647,1.701
		c-0.883,1.134-1.324,2.702-1.324,4.702c0,2.009,0.46,3.583,1.381,4.721c0.921,1.138,2.185,1.708,3.792,1.708
		c1.205,0,2.214-0.357,3.024-1.068c0.812-0.71,1.314-1.686,1.507-2.925h-4.193V8.282h7.659v10.005h-2.548L84.652,16.103z"/>
	<path fill="#FF0087" d="M89.709,18.287V-0.207h8.964c2.017,0,3.511,0.431,4.48,1.293c0.972,0.861,1.457,2.18,1.457,3.955
		c0,1.129-0.235,2.071-0.709,2.824c-0.473,0.753-1.152,1.268-2.041,1.544c0.805,0.285,1.375,0.719,1.715,1.305
		c0.338,0.587,0.533,1.499,0.584,2.738l0.074,2.185c0,0.016,0,0.041,0,0.074c0.025,1.104,0.265,1.773,0.717,2.008v0.566h-4.168
		c-0.135-0.26-0.236-0.58-0.308-0.963c-0.072-0.381-0.116-0.834-0.132-1.361l-0.05-1.943c-0.042-1.146-0.258-1.921-0.646-2.324
		c-0.39-0.401-1.091-0.604-2.103-0.604h-4.03v7.195H89.709z M93.513,7.879h4.47c0.971,0,1.686-0.197,2.141-0.591
		c0.457-0.393,0.685-1.012,0.685-1.857c0-0.804-0.222-1.412-0.666-1.827c-0.442-0.415-1.104-0.621-1.982-0.621h-4.646V7.879z"/>
	<path fill="#FF0087" d="M112.372-0.207h4.395l6.666,18.493h-3.992l-1.256-3.805h-7.168l-1.218,3.805h-4.005L112.372-0.207z
		 M114.583,3.498l-2.562,7.873h5.136L114.583,3.498z"/>
	<path fill="#FF0087" d="M128.574,11.708v6.579h-3.805V-0.207h8.224c1.94,0,3.411,0.504,4.411,1.513
		c1.003,1.008,1.502,2.487,1.502,4.438c0,1.909-0.489,3.379-1.47,4.414c-0.979,1.033-2.378,1.55-4.192,1.55H128.574z M128.599,8.355
		h3.679c0.996,0,1.721-0.211,2.172-0.634c0.451-0.422,0.679-1.103,0.679-2.041c0-0.878-0.221-1.544-0.665-1.996
		c-0.443-0.452-1.104-0.678-1.983-0.678h-3.88L128.599,8.355L128.599,8.355z"/>
	<path fill="#FF0087" d="M140.502,18.287V-0.207h3.829v6.893h7.632v-6.893h3.83v18.493h-3.83v-8.199h-7.632v8.199H140.502z"/>
	<path fill="#FF0087" d="M158.04,18.287V-0.207h3.803v18.493H158.04z"/>
	<path fill="#FF0087" d="M163.157,18.287l5.813-9.441l-5.813-9.052h4.395l3.778,6.465l3.755-6.465h4.419l-5.813,9.027l5.813,9.466
		h-4.396l-3.778-6.403l-3.778,6.403H163.157z"/>
	<path d="M180.598,18.287v-3.779h3.78v3.779H180.598z"/>
	<path d="M185.934,18.287V-0.207h3.981l7.506,12.706V-0.207h3.754v18.493h-3.929l-7.56-12.705v12.705H185.934z"/>
	<path d="M203.333,18.287V-0.207h13.433v3.214h-9.679V6.95h8.852v3.164h-8.852v4.757h10.133v3.416H203.333z"/>
	<path d="M224.085,18.287V3.096H218.6v-3.302h14.738v3.302h-5.449v15.191H224.085z"/>
</g>
<g>
	<path d="M235.242,7.214V-0.14h3.467c0.75,0,1.324,0.159,1.718,0.477c0.396,0.317,0.592,0.78,0.592,1.385
		c0,0.373-0.073,0.684-0.219,0.934c-0.148,0.25-0.367,0.443-0.659,0.579c0.379,0.152,0.663,0.373,0.851,0.662
		c0.188,0.288,0.283,0.646,0.283,1.076c0,0.715-0.232,1.268-0.699,1.657c-0.467,0.39-1.125,0.584-1.981,0.584H235.242z
		 M236.69,2.707h1.729c0.371,0,0.645-0.064,0.816-0.192c0.175-0.127,0.26-0.33,0.26-0.606c0-0.269-0.083-0.465-0.251-0.586
		c-0.169-0.122-0.448-0.182-0.836-0.182h-1.719V2.707z M236.69,5.886h1.793c0.422,0,0.73-0.077,0.924-0.229
		c0.191-0.152,0.289-0.396,0.289-0.723c0-0.343-0.096-0.59-0.285-0.742c-0.188-0.151-0.501-0.228-0.938-0.228h-1.783V5.886z"/>
	<path d="M242.092,7.214V-0.14h5.342v1.278h-3.85v1.567h3.52v1.258h-3.52v1.893h4.027v1.357L242.092,7.214L242.092,7.214z"/>
	<path d="M250.14,7.214V1.173h-2.181V-0.14h5.858v1.313h-2.166v6.041H250.14z"/>
	<path d="M255.698-0.14h1.746l2.65,7.354h-1.588l-0.499-1.513h-2.852l-0.482,1.513h-1.595L255.698-0.14z M256.577,1.333l-1.021,3.13
		h2.042L256.577,1.333z"/>
</g>
<g>
	<path d="M0,24.062h1.043c0.04,0.279,0.155,0.488,0.345,0.625c0.191,0.135,0.467,0.205,0.827,0.205c0.307,0,0.539-0.057,0.694-0.164
		c0.155-0.109,0.233-0.271,0.233-0.486c0-0.311-0.448-0.568-1.343-0.773c-0.012-0.002-0.022-0.004-0.032-0.006
		c-0.022-0.006-0.059-0.016-0.106-0.023c-0.48-0.105-0.821-0.225-1.026-0.354c-0.182-0.117-0.32-0.273-0.415-0.469
		c-0.096-0.197-0.143-0.43-0.143-0.697c0-0.5,0.169-0.883,0.509-1.148s0.83-0.398,1.472-0.398c0.601,0,1.069,0.143,1.408,0.426
		S3.982,21.48,4,21.996H2.985c-0.018-0.248-0.112-0.438-0.285-0.568s-0.417-0.195-0.735-0.195c-0.277,0-0.49,0.055-0.641,0.164
		c-0.15,0.105-0.226,0.26-0.226,0.461c0,0.271,0.292,0.475,0.876,0.609c0.158,0.037,0.281,0.066,0.369,0.09
		c0.375,0.094,0.64,0.168,0.797,0.223c0.157,0.053,0.293,0.111,0.41,0.176c0.209,0.117,0.366,0.271,0.471,0.463
		s0.157,0.422,0.157,0.689c0,0.535-0.18,0.949-0.541,1.242c-0.361,0.295-0.869,0.441-1.524,0.441c-0.646,0-1.152-0.15-1.521-0.449
		C0.226,25.041,0.028,24.615,0,24.062z"/>
	<path d="M4.708,25.648v-5.139h1.008v1.766c0.137-0.174,0.3-0.303,0.49-0.391c0.189-0.086,0.401-0.131,0.637-0.131
		c0.223,0,0.425,0.039,0.604,0.117c0.181,0.076,0.327,0.186,0.438,0.326c0.077,0.096,0.131,0.205,0.162,0.328
		s0.048,0.32,0.048,0.592v0.07v2.459H7.087v-1.984c0-0.469-0.043-0.764-0.129-0.883c-0.085-0.121-0.24-0.18-0.464-0.18
		c-0.239,0-0.429,0.07-0.568,0.215c-0.14,0.143-0.209,0.336-0.209,0.584v2.25H4.708z"/>
	<path d="M8.586,23.748c0-0.631,0.171-1.127,0.513-1.488c0.341-0.357,0.812-0.539,1.409-0.539c0.595,0,1.063,0.182,1.408,0.539
		c0.343,0.361,0.514,0.857,0.514,1.488c0,0.633-0.171,1.127-0.514,1.488c-0.343,0.359-0.813,0.541-1.408,0.541
		c-0.598,0-1.067-0.182-1.409-0.541C8.757,24.875,8.586,24.38,8.586,23.748z M9.615,23.748c0,0.375,0.076,0.666,0.23,0.871
		c0.155,0.205,0.375,0.307,0.661,0.307c0.281,0,0.5-0.102,0.654-0.307s0.231-0.496,0.231-0.871s-0.077-0.664-0.229-0.869
		c-0.154-0.203-0.372-0.305-0.656-0.305c-0.286,0-0.506,0.102-0.661,0.305C9.692,23.083,9.615,23.373,9.615,23.748z"/>
	<path d="M13.71,25.648l-1.074-3.793h1.029l0.621,2.627l0.521-2.627h1.036l0.552,2.627l0.621-2.627H18l-1.064,3.793h-1.015
		l-0.607-2.715l-0.586,2.715H13.71z"/>
	<path d="M18.362,25.648v-5.139h0.986v2.695l1.207-1.35h1.221l-1.321,1.404l1.402,2.387H20.64l-0.907-1.613l-0.384,0.414v1.199
		h-0.987V25.648z"/>
	<path d="M24.399,25.175c-0.128,0.197-0.295,0.35-0.502,0.453c-0.208,0.104-0.447,0.154-0.722,0.154
		c-0.367,0-0.65-0.104-0.849-0.314c-0.199-0.209-0.299-0.506-0.299-0.893c0-0.357,0.101-0.631,0.299-0.818
		c0.197-0.188,0.526-0.316,0.984-0.389c0.105-0.016,0.242-0.033,0.412-0.057c0.43-0.055,0.646-0.178,0.646-0.371
		c0-0.154-0.048-0.264-0.144-0.33c-0.095-0.066-0.254-0.1-0.478-0.1c-0.205,0-0.362,0.039-0.472,0.121
		c-0.108,0.082-0.164,0.197-0.164,0.35v0.057h-0.948v-0.07c0-0.387,0.137-0.691,0.411-0.914c0.274-0.225,0.653-0.334,1.137-0.334
		c0.53,0,0.937,0.092,1.22,0.275c0.282,0.184,0.423,0.449,0.423,0.795v2.154c0,0.16,0.017,0.277,0.048,0.354
		c0.033,0.078,0.087,0.139,0.165,0.178v0.172H24.51c-0.035-0.066-0.062-0.139-0.08-0.217C24.413,25.353,24.402,25.267,24.399,25.175
		z M24.382,23.781c-0.166,0.078-0.355,0.139-0.57,0.186s-0.326,0.07-0.333,0.072c-0.179,0.053-0.304,0.115-0.375,0.193
		c-0.07,0.076-0.106,0.182-0.106,0.314c0,0.141,0.045,0.252,0.136,0.334c0.09,0.082,0.212,0.123,0.366,0.123
		c0.273,0,0.489-0.076,0.646-0.23c0.157-0.154,0.236-0.365,0.236-0.633L24.382,23.781L24.382,23.781z"/>
	<path d="M26.055,25.648v-5.139h0.987v2.695l1.207-1.35h1.221l-1.322,1.404l1.402,2.387h-1.217l-0.907-1.613l-0.383,0.414v1.199
		h-0.988V25.648z"/>
	<path d="M31.784,24.062h1.043c0.04,0.279,0.154,0.488,0.346,0.625c0.19,0.135,0.466,0.205,0.827,0.205
		c0.307,0,0.538-0.057,0.693-0.164c0.156-0.109,0.233-0.271,0.233-0.486c0-0.311-0.448-0.568-1.343-0.773
		c-0.013-0.002-0.022-0.004-0.031-0.006c-0.023-0.006-0.059-0.016-0.108-0.023c-0.479-0.105-0.82-0.225-1.024-0.354
		c-0.183-0.117-0.32-0.273-0.416-0.469c-0.095-0.197-0.144-0.43-0.144-0.697c0-0.5,0.171-0.883,0.51-1.148
		c0.34-0.268,0.83-0.398,1.472-0.398c0.6,0,1.069,0.143,1.407,0.426s0.517,0.684,0.536,1.199h-1.017
		c-0.018-0.248-0.112-0.438-0.286-0.568c-0.172-0.131-0.417-0.195-0.734-0.195c-0.277,0-0.49,0.055-0.641,0.164
		c-0.149,0.105-0.225,0.26-0.225,0.461c0,0.271,0.292,0.475,0.875,0.609c0.158,0.037,0.282,0.066,0.37,0.09
		c0.375,0.094,0.64,0.168,0.797,0.223c0.157,0.053,0.293,0.111,0.41,0.176c0.209,0.117,0.366,0.271,0.471,0.463
		s0.156,0.422,0.156,0.689c0,0.535-0.18,0.949-0.54,1.242c-0.361,0.295-0.868,0.441-1.524,0.441c-0.646,0-1.152-0.15-1.521-0.449
		C32.01,25.041,31.812,24.615,31.784,24.062z"/>
	<path d="M38.711,25.175c-0.128,0.197-0.296,0.35-0.502,0.453c-0.207,0.104-0.448,0.154-0.723,0.154
		c-0.366,0-0.649-0.104-0.849-0.314c-0.199-0.209-0.298-0.506-0.298-0.893c0-0.357,0.1-0.631,0.298-0.818
		c0.199-0.188,0.527-0.316,0.985-0.389c0.104-0.016,0.242-0.033,0.411-0.057c0.431-0.055,0.646-0.178,0.646-0.371
		c0-0.154-0.047-0.264-0.143-0.33c-0.097-0.066-0.255-0.1-0.479-0.1c-0.204,0-0.361,0.039-0.47,0.121
		c-0.11,0.082-0.165,0.197-0.165,0.35v0.057h-0.949v-0.07c0-0.387,0.138-0.691,0.412-0.914c0.274-0.225,0.653-0.334,1.137-0.334
		c0.53,0,0.938,0.092,1.22,0.275s0.424,0.449,0.424,0.795v2.154c0,0.16,0.016,0.277,0.048,0.354
		c0.033,0.078,0.087,0.139,0.164,0.178v0.172h-1.058c-0.034-0.066-0.062-0.139-0.08-0.217
		C38.724,25.353,38.713,25.267,38.711,25.175z M38.693,23.781c-0.166,0.078-0.354,0.139-0.57,0.186
		c-0.215,0.047-0.325,0.07-0.333,0.072c-0.181,0.053-0.306,0.115-0.375,0.193c-0.071,0.076-0.106,0.182-0.106,0.314
		c0,0.141,0.045,0.252,0.136,0.334c0.092,0.082,0.214,0.123,0.366,0.123c0.274,0,0.49-0.076,0.647-0.23
		c0.155-0.154,0.234-0.365,0.234-0.633L38.693,23.781L38.693,23.781z"/>
	<path d="M40.351,25.648v-3.793h0.994v0.451c0.142-0.186,0.31-0.322,0.503-0.414c0.192-0.092,0.407-0.139,0.646-0.139
		c0.418,0,0.731,0.107,0.939,0.326s0.312,0.545,0.312,0.982v2.584H42.73v-2.291c0-0.271-0.045-0.467-0.137-0.582
		c-0.092-0.117-0.242-0.176-0.448-0.176c-0.24,0-0.429,0.07-0.568,0.215c-0.14,0.143-0.209,0.338-0.209,0.586v2.248h-1.017V25.648z"
		/>
	<path d="M44.22,23.748c0-0.631,0.171-1.127,0.513-1.488c0.343-0.357,0.812-0.539,1.41-0.539c0.595,0,1.064,0.182,1.408,0.539
		c0.342,0.361,0.514,0.857,0.514,1.488c0,0.633-0.172,1.127-0.514,1.488c-0.343,0.359-0.813,0.541-1.408,0.541
		c-0.598,0-1.066-0.182-1.41-0.541C44.392,24.875,44.22,24.38,44.22,23.748z M45.25,23.748c0,0.375,0.077,0.666,0.231,0.871
		c0.155,0.205,0.375,0.307,0.661,0.307c0.281,0,0.499-0.102,0.654-0.307c0.154-0.205,0.23-0.496,0.23-0.871
		s-0.075-0.664-0.229-0.869c-0.153-0.203-0.372-0.305-0.656-0.305c-0.286,0-0.506,0.102-0.661,0.305
		C45.327,23.083,45.25,23.373,45.25,23.748z"/>
	<path d="M48.547,21.435v-0.926h0.973v0.912c0,0.291-0.091,0.537-0.271,0.736c-0.182,0.199-0.415,0.305-0.701,0.32v-0.359
		c0.177-0.043,0.308-0.115,0.393-0.223c0.085-0.105,0.127-0.246,0.127-0.42v-0.041H48.547L48.547,21.435z"/>
	<path d="M49.774,24.412h1.013c0.009,0.193,0.079,0.338,0.209,0.432c0.13,0.096,0.324,0.143,0.586,0.143
		c0.196,0,0.351-0.033,0.458-0.1s0.162-0.16,0.162-0.281c0-0.172-0.202-0.301-0.607-0.387c-0.165-0.035-0.296-0.064-0.394-0.092
		c-0.493-0.127-0.835-0.273-1.027-0.445c-0.192-0.174-0.288-0.404-0.288-0.697c0-0.389,0.14-0.697,0.42-0.922
		c0.28-0.229,0.66-0.342,1.139-0.342c0.507,0,0.905,0.111,1.194,0.338c0.29,0.227,0.443,0.543,0.462,0.953h-0.987
		c-0.007-0.16-0.066-0.285-0.183-0.373c-0.115-0.09-0.275-0.133-0.479-0.133c-0.192,0-0.337,0.029-0.432,0.086
		c-0.094,0.059-0.141,0.146-0.141,0.264c0,0.15,0.252,0.285,0.757,0.398c0.116,0.027,0.208,0.047,0.275,0.064
		c0.505,0.119,0.85,0.262,1.034,0.43c0.186,0.166,0.277,0.404,0.277,0.709c0,0.43-0.152,0.756-0.456,0.982
		c-0.303,0.225-0.744,0.338-1.323,0.338c-0.522,0-0.933-0.117-1.228-0.354c-0.295-0.232-0.443-0.557-0.443-0.969v-0.043H49.774z"/>
	<path d="M55.622,23.083c0-0.83,0.227-1.488,0.679-1.975c0.452-0.488,1.062-0.732,1.829-0.732s1.379,0.244,1.833,0.734
		c0.455,0.486,0.683,1.145,0.683,1.973s-0.228,1.486-0.683,1.975c-0.454,0.488-1.065,0.732-1.833,0.732s-1.377-0.244-1.829-0.732
		S55.622,23.912,55.622,23.083z M56.7,23.083c0,0.566,0.125,1.004,0.376,1.316s0.602,0.471,1.053,0.471
		c0.457,0,0.811-0.158,1.063-0.471s0.381-0.75,0.381-1.316c0-0.564-0.128-1.004-0.381-1.314c-0.253-0.312-0.607-0.471-1.063-0.471
		c-0.451,0-0.801,0.154-1.053,0.469C56.826,22.076,56.7,22.517,56.7,23.083z"/>
	<path d="M61.169,25.648v-3.793h0.994v0.451c0.142-0.186,0.31-0.322,0.502-0.414c0.191-0.092,0.408-0.139,0.645-0.139
		c0.419,0,0.732,0.107,0.94,0.326s0.312,0.545,0.312,0.982v2.584h-1.015v-2.291c0-0.271-0.046-0.467-0.138-0.582
		c-0.093-0.117-0.241-0.176-0.448-0.176c-0.239,0-0.429,0.07-0.569,0.215c-0.14,0.143-0.209,0.338-0.209,0.586v2.248h-1.015V25.648z
		"/>
	<path d="M65.197,25.648v-5.139h1.016v5.139H65.197z"/>
	<path d="M66.867,21.435v-0.926h1.015v0.926H66.867z M66.867,25.648v-3.793h1.015v3.793H66.867z"/>
	<path d="M68.516,25.648v-3.793h0.994v0.451c0.142-0.186,0.309-0.322,0.502-0.414s0.408-0.139,0.646-0.139
		c0.419,0,0.731,0.107,0.939,0.326s0.313,0.545,0.313,0.982v2.584h-1.016v-2.291c0-0.271-0.046-0.467-0.138-0.582
		c-0.091-0.117-0.241-0.176-0.448-0.176c-0.24,0-0.429,0.07-0.568,0.215c-0.14,0.143-0.208,0.338-0.208,0.586v2.248h-1.017V25.648z"
		/>
	<path d="M74.915,24.496h1.011c-0.102,0.4-0.308,0.713-0.619,0.941c-0.31,0.225-0.688,0.34-1.135,0.34
		c-0.549,0-0.984-0.186-1.305-0.553c-0.321-0.369-0.481-0.869-0.481-1.498c0-0.623,0.158-1.111,0.474-1.471
		c0.316-0.355,0.75-0.537,1.299-0.537c0.58,0,1.029,0.178,1.346,0.529c0.315,0.354,0.475,0.854,0.475,1.504
		c0,0.074,0,0.127-0.002,0.162c-0.001,0.037-0.004,0.072-0.009,0.105h-2.532c0.015,0.297,0.087,0.52,0.218,0.674
		c0.132,0.148,0.32,0.227,0.566,0.227c0.174,0,0.318-0.035,0.429-0.104C74.761,24.748,74.85,24.642,74.915,24.496z M73.436,23.353
		h1.493c-0.01-0.256-0.077-0.451-0.204-0.584c-0.126-0.135-0.309-0.201-0.546-0.201c-0.221,0-0.395,0.068-0.521,0.203
		C73.53,22.906,73.457,23.101,73.436,23.353z"/>
	<path d="M79.595,23.82v1.828h-1.057v-5.139h2.283c0.54,0,0.948,0.141,1.227,0.42s0.417,0.691,0.417,1.232
		c0,0.529-0.136,0.939-0.408,1.227c-0.271,0.287-0.661,0.432-1.165,0.432H79.595z M79.603,22.888h1.022
		c0.276,0,0.478-0.059,0.604-0.176c0.125-0.117,0.188-0.307,0.188-0.566c0-0.244-0.062-0.43-0.187-0.555
		c-0.123-0.127-0.307-0.188-0.551-0.188h-1.078L79.603,22.888L79.603,22.888z"/>
	<path d="M82.571,23.748c0-0.631,0.172-1.127,0.514-1.488c0.342-0.357,0.811-0.539,1.409-0.539c0.595,0,1.063,0.182,1.406,0.539
		c0.343,0.361,0.515,0.857,0.515,1.488c0,0.633-0.172,1.127-0.515,1.488c-0.343,0.359-0.812,0.541-1.406,0.541
		c-0.599,0-1.067-0.182-1.409-0.541C82.742,24.875,82.571,24.38,82.571,23.748z M83.6,23.748c0,0.375,0.078,0.666,0.231,0.871
		c0.154,0.205,0.375,0.307,0.662,0.307c0.28,0,0.499-0.102,0.653-0.307s0.232-0.496,0.232-0.871s-0.077-0.664-0.23-0.869
		c-0.152-0.203-0.372-0.305-0.654-0.305c-0.286,0-0.508,0.102-0.662,0.305C83.678,23.083,83.6,23.373,83.6,23.748z"/>
	<path d="M86.897,25.648v-3.793h0.941v0.648c0.133-0.26,0.288-0.449,0.464-0.572c0.177-0.123,0.388-0.186,0.631-0.186
		c0.04,0,0.071,0.002,0.092,0.002c0.022,0.002,0.041,0.004,0.055,0.006l0.003,1.029h-0.338c-0.277,0-0.485,0.072-0.625,0.217
		s-0.208,0.357-0.208,0.643v2.006H86.897z"/>
	<path d="M91.566,25.675c-0.094,0.004-0.204,0.006-0.333,0.014c-0.129,0.004-0.211,0.008-0.245,0.008
		c-0.389,0-0.654-0.072-0.798-0.219c-0.143-0.145-0.214-0.432-0.214-0.859v-2.051h-0.502v-0.711h0.502v-1.035h1.004v1.035h0.586
		v0.711H90.98v2.102c0,0.1,0.022,0.164,0.066,0.195s0.135,0.047,0.271,0.047h0.248V25.675z"/>
	<path d="M92.407,25.648v-3.08h-0.541v-0.713h0.541v-0.352c0-0.354,0.091-0.611,0.272-0.779c0.183-0.166,0.471-0.25,0.863-0.25
		c0.072,0,0.147,0.002,0.229,0.006c0.08,0.004,0.166,0.01,0.256,0.02v0.807h-0.265c-0.151,0-0.25,0.02-0.298,0.059
		c-0.048,0.041-0.072,0.115-0.072,0.227v0.266h0.635v0.713h-0.627v3.08h-0.993V25.648z"/>
	<path d="M94.256,23.748c0-0.631,0.171-1.127,0.513-1.488c0.342-0.357,0.812-0.539,1.409-0.539c0.595,0,1.064,0.182,1.408,0.539
		c0.343,0.361,0.514,0.857,0.514,1.488c0,0.633-0.171,1.127-0.514,1.488c-0.343,0.359-0.813,0.541-1.408,0.541
		c-0.597,0-1.067-0.182-1.409-0.541C94.427,24.875,94.256,24.38,94.256,23.748z M95.285,23.748c0,0.375,0.077,0.666,0.231,0.871
		s0.375,0.307,0.661,0.307c0.281,0,0.5-0.102,0.654-0.307c0.153-0.205,0.231-0.496,0.231-0.871s-0.077-0.664-0.229-0.869
		c-0.153-0.203-0.372-0.305-0.656-0.305c-0.286,0-0.506,0.102-0.661,0.305C95.362,23.083,95.285,23.373,95.285,23.748z"/>
	<path d="M98.606,25.648v-5.139h1.016v5.139H98.606z"/>
	<path d="M100.276,21.435v-0.926h1.016v0.926H100.276z M100.276,25.648v-3.793h1.016v3.793H100.276z"/>
	<path d="M101.791,23.748c0-0.631,0.171-1.127,0.513-1.488c0.342-0.357,0.812-0.539,1.409-0.539c0.595,0,1.063,0.182,1.408,0.539
		c0.343,0.361,0.514,0.857,0.514,1.488c0,0.633-0.171,1.127-0.514,1.488c-0.344,0.359-0.813,0.541-1.408,0.541
		c-0.598,0-1.067-0.182-1.409-0.541C101.962,24.875,101.791,24.38,101.791,23.748z M102.821,23.748c0,0.375,0.077,0.666,0.231,0.871
		c0.155,0.205,0.375,0.307,0.661,0.307c0.281,0,0.5-0.102,0.654-0.307s0.231-0.496,0.231-0.871s-0.077-0.664-0.229-0.869
		c-0.155-0.203-0.373-0.305-0.656-0.305c-0.286,0-0.506,0.102-0.661,0.305C102.898,23.083,102.821,23.373,102.821,23.748z"/>
</g>
</svg>
