<?xml version="1.0" encoding="utf-8"?>
<!-- Generator: Adobe Illustrator 16.0.4, SVG Export Plug-In . SVG Version: 6.00 Build 0)  -->
<!DOCTYPE svg PUBLIC "-//W3C//DTD SVG 1.1//EN" "http://www.w3.org/Graphics/SVG/1.1/DTD/svg11.dtd">
<svg version="1.1" id="レイヤー_1" xmlns="http://www.w3.org/2000/svg" xmlns:xlink="http://www.w3.org/1999/xlink" x="0px"
	 y="0px" width="24px" height="24px" viewBox="0 0 24 24" enable-background="new 0 0 24 24" xml:space="preserve">
<path d="M3.998,10.006c0,1.683,0.691,3.171,1.773,4.237c1.082,1.083,2.6,1.759,4.238,1.759s3.171-0.677,4.237-1.759
	c1.068-1.066,1.759-2.554,1.759-4.237c0-1.638-0.691-3.141-1.759-4.238C13.18,4.686,11.647,4.01,10.009,4.01
	S6.853,4.686,5.771,5.768C4.689,6.865,3.998,8.368,3.998,10.006z M0,10.006c0-2.75,1.112-5.245,2.945-7.063
	c1.833-1.818,4.298-2.945,7.063-2.945c2.75,0,5.275,1.127,7.078,2.945c1.804,1.819,2.916,4.313,2.916,7.063
	c0,2.044-0.586,3.952-1.653,5.5l5.38,5.395C23.91,21.082,24,21.307,24,21.593s-0.09,0.525-0.271,0.721l-1.413,1.413
	c-0.406,0.361-1.052,0.376-1.413,0l-5.396-5.38C13.946,19.414,12.053,20,10.009,20c-2.75,0-5.23-1.112-7.063-2.915
	C1.112,15.281,0,12.786,0,10.006z"/>
</svg>
