<?xml version="1.0" encoding="utf-8"?>
<!-- Generator: Adobe Illustrator 16.0.4, SVG Export Plug-In . SVG Version: 6.00 Build 0)  -->
<!DOCTYPE svg PUBLIC "-//W3C//DTD SVG 1.1//EN" "http://www.w3.org/Graphics/SVG/1.1/DTD/svg11.dtd">
<svg version="1.1" id="レイヤー_1" xmlns="http://www.w3.org/2000/svg" xmlns:xlink="http://www.w3.org/1999/xlink" x="0px"
	 y="0px" width="24px" height="24px" viewBox="0 0 24 24" enable-background="new 0 0 24 24" xml:space="preserve">
<g>
	<path id="circle_1_" d="M6.433,20.792c0,1.775-1.44,3.211-3.219,3.211C1.441,24.003,0,22.567,0,20.792
		c0-1.771,1.441-3.221,3.214-3.221C4.993,17.571,6.433,19.021,6.433,20.792z"/>
	<path d="M15.766,23.822h-4.231c-0.056-3.018-1.251-5.842-3.38-7.974c-2.128-2.136-4.944-3.334-7.945-3.39V8.242
		C8.736,8.356,15.649,15.283,15.766,23.822L15.766,23.822z"/>
	<path d="M24,23.822h-4.224C19.66,13.065,10.95,4.332,0.217,4.216V0C13.279,0.117,23.883,10.739,24,23.822L24,23.822z"/>
</g>
</svg>
